<svg xmlns="http://www.w3.org/2000/svg" xmlns:xlink="http://www.w3.org/1999/xlink" viewBox="0 0 263.09 72.25">
  <defs>
    <style>
      .a, .c, .f {
        fill: none;
      }

      .b {
        clip-path: url(#a);
      }

      .c {
        stroke: #f68c29;
        stroke-miterlimit: 10;
        stroke-width: 0.8px;
      }

      .d {
        fill: #fff;
      }

      .e {
        fill: #231f20;
      }

      .f {
        stroke: #fff;
        stroke-width: 0.89px;
      }

      .g {
        fill: #f78e1e;
      }

      .h {
        fill: #42c4dd;
      }
    </style>
    <clipPath id="a" transform="translate(0 0)">
      <rect class="a" width="263.09" height="72.25"/>
    </clipPath>
  </defs>
  <g class="b">
    <rect class="c" x="54.27" y="49.69" width="200.78" height="22.17" rx="7.92"/>
    <path class="d" d="M74.25,17h-.13c-1-1.46-2.49-3.07-6.9-3.07-6.73,0-9.38,4.41-9.38,9.26,0,5.35,3.42,9.52,10.45,9.52a11.25,11.25,0,0,0,7.42-2.36v.21c0,1.54-3.09,4.74-9.77,4.74-7.81,0-12.61-4.91-12.56-11.16,0-7,5.18-11.71,13.88-11.71,2.49,0,4.29.28,7.16.28Z" transform="translate(0 0)"/>
    <path class="d" d="M88.11,35.2c-7.93,0-11.4-4.33-11.4-9.68,0-5.72,4.15-10.47,12-10.47s11.4,4.33,11.4,9.69c0,5.71-4.15,10.46-12,10.46m.3-18.82c-5.44,0-7.78,4-7.78,8.29,0,4,1.7,9.21,7.78,9.21,5.43,0,7.78-4,7.78-8.3,0-4-1.7-9.2-7.78-9.2" transform="translate(0 0)"/>
    <path class="d" d="M126.3,15.53c-.87,1.15-.75,2.77-.75,4.27a82.2,82.2,0,0,0,.3,11A8.7,8.7,0,0,0,127,34.72h-5.55a14.37,14.37,0,0,0,.68-5.41v-10c0-.3,0-.66-.27-.66s-.37.21-.49.45L112.94,35l-7.17-14.76c-.42-.88-.68-1.6-1-1.6s-.34.54-.34,1l0,9.77c0,2.35,0,4.3.83,5.3h-4.49l.34-.39c1.39-1.6,1.54-6.35,1.54-9.6V17.22c0-.81,0-1.24-.94-1.69h4.68c.45,0,1,.06,1.17.45l5.59,13.11c.19.45.3,1,.6,1s.46-.31.68-.72L120.9,16.8c.34-.63.61-1.27,1.55-1.27Z" transform="translate(0 0)"/>
    <path class="d" d="M154.32,15.53c-.87,1.15-.76,2.77-.76,4.27a82.2,82.2,0,0,0,.3,11A8.72,8.72,0,0,0,155,34.72h-5.56a14.17,14.17,0,0,0,.69-5.41v-10c0-.3,0-.66-.27-.66s-.38.21-.49.45L141,35l-7.18-14.76c-.41-.88-.68-1.6-1-1.6s-.34.54-.34,1l0,9.77c0,2.35,0,4.3.83,5.3h-4.5l.34-.39c1.4-1.6,1.55-6.35,1.55-9.6V17.22c0-.81,0-1.24-.94-1.69h4.68c.45,0,1,.06,1.17.45l5.58,13.11c.19.45.31,1,.61,1s.45-.31.68-.72l6.53-12.54c.34-.63.6-1.27,1.55-1.27Z" transform="translate(0 0)"/>
    <path class="d" d="M177.51,15.53c-.83,1.06-.83,2.62-.83,4V30.81c0,1.35,0,2.91.83,3.91L173,34.9l.15-2c0-.09-.08-.12-.19-.12s-.23.18-.45.34a12.62,12.62,0,0,1-7.29,2.07c-4.38,0-7.28-1.41-7.4-5.11V19.5c0-1.35,0-2.91-.83-4h5.06c-.83,1.06-.83,2.62-.83,4v8.78c.11,3.22,1.78,5.17,6,5.17s5.74-2.19,5.85-5.77c0-1.14.15-2.31.15-3.46V19.5c0-1.35,0-2.91-.83-4Z" transform="translate(0 0)"/>
    <path class="d" d="M179.87,34.72c1.32-2.47,1.32-6.14,1.32-8.78V19.53c0-1.47-.07-3.09-1.2-4h3.81c.72,0,1.06,0,1.51.49.79.84,3.21,4.06,4.38,5.38l7.51,8.45c.27.3.57.72.79.72s.27-.3.27-.57V19.38a6.38,6.38,0,0,0-.91-3.85h3.93A7.93,7.93,0,0,0,200.15,20V32c0,1,0,1.9.07,2.8h-2.68L183.72,19.17c-.15-.18-.26-.33-.41-.33s-.23.18-.23.45V27c0,2.4-.07,5.44,1.13,7.7Z" transform="translate(0 0)"/>
    <path class="d" d="M204.8,19.47c0-1.35,0-2.91-.82-3.94H209c-.83,1-.83,2.59-.83,3.94V30.78c0,1.35,0,2.92.83,3.94H204c.82-1,.82-2.59.82-3.94Z" transform="translate(0 0)"/>
    <path class="d" d="M229.47,19.08h-.11c-.91-1.29-2.19-2.71-6.08-2.71-5.93,0-8.27,3.89-8.27,8.16,0,4.71,3,8.38,9.21,8.38a9.92,9.92,0,0,0,6.53-2.07V31c0,1.35-2.71,4.18-8.6,4.18-6.87,0-11.1-4.33-11.06-9.83,0-6.17,4.56-10.32,12.23-10.32,2.19,0,3.77.24,6.3.24Z" transform="translate(0 0)"/>
    <path class="d" d="M242,18.63c-1.28,2.22-7.27,13.23-7.27,14.94a5.54,5.54,0,0,0,.11,1.15h-4.72l.83-.84c2.15-2.17,9.93-15.07,9.93-17.53l0-.82h4.45c2.42,6,4.83,12.51,8.61,18.07l.75,1.12h-4.07L248,29.27s-.82-1.66-1.44-3.05c-.46-1-1.51-3.41-1.51-3.41l-1.78-4.15c-.08-.21-.3-.72-.65-.72s-.56.57-.64.72Z" transform="translate(0 0)"/>
    <path class="d" d="M251.93,7.75s-1.77.7-6.76.51c-3-.11-8.34-.17-8.34-.17-1.25,0-1.36,2.18-2.29,2.81h0a58,58,0,0,1,10.13-.25c2.31.1,5.18.25,5.18.25h0c1.24,0,1.18-2.53,2.12-3.15Z" transform="translate(0 0)"/>
    <path class="d" d="M260,31.49a3.21,3.21,0,1,1-3.15,3.2,3.16,3.16,0,0,1,3.15-3.2m0,6a2.83,2.83,0,1,0-2.63-2.83A2.77,2.77,0,0,0,260,37.52m-1.06-4c0-.42,0-.42-.45-.45v-.15h1.65c.52,0,1.07.26,1.07.86a1,1,0,0,1-.75,1l.54.73a3.89,3.89,0,0,0,.71.79v.08h-.6c-.3,0-.53-.64-1.12-1.51h-.46v.91c0,.41,0,.41.47.45v.15h-1.51v-.15c.46,0,.45,0,.45-.45Zm.59,1.13h.42c.49,0,.63-.42.63-.84s-.2-.7-.65-.7h-.4Z" transform="translate(0 0)"/>
    <path class="e" d="M47.2,23.83A23.38,23.38,0,1,1,23.82.45,23.37,23.37,0,0,1,47.2,23.83" transform="translate(0 0)"/>
    <path class="f" d="M47.2,23.83A23.38,23.38,0,1,1,23.82.45,23.37,23.37,0,0,1,47.2,23.83Z" transform="translate(0 0)"/>
    <polygon class="g" points="32.98 11.49 14.75 11.49 14.76 7.6 32.99 7.6 32.98 11.49"/>
    <polygon class="h" points="9.77 37.45 16.12 37.45 23.87 21.84 31.59 37.45 37.97 37.45 26.16 14.62 21.52 14.63 9.77 37.45"/>
    <path class="d" d="M69,62.78a3.12,3.12,0,0,1-.27,1.3A3.33,3.33,0,0,1,67,65.82a3.68,3.68,0,0,1-1.32.25H59.71V53.4h5.9a2.53,2.53,0,0,1,1.2.29,3,3,0,0,1,.91.74,3.35,3.35,0,0,1,.58,1,3.69,3.69,0,0,1,.2,1.17A3.35,3.35,0,0,1,68,58.39a2.85,2.85,0,0,1-1.34,1.18,3.15,3.15,0,0,1,1.72,1.21,3.29,3.29,0,0,1,.64,2m-8.42-8.56v5.07h4.63a2,2,0,0,0,1-.22,2.41,2.41,0,0,0,.74-.56,2.54,2.54,0,0,0,.49-.81,2.62,2.62,0,0,0,.18-1,2.87,2.87,0,0,0-.17-1A2.74,2.74,0,0,0,67,55a2.23,2.23,0,0,0-.71-.55,2,2,0,0,0-.91-.21Zm7.51,8.44a2.79,2.79,0,0,0-.68-1.81,2.37,2.37,0,0,0-.76-.58,2,2,0,0,0-.94-.22H60.62v5.2h5a2.32,2.32,0,0,0,1-.22,2.34,2.34,0,0,0,.78-.58,2.87,2.87,0,0,0,.53-.83,2.46,2.46,0,0,0,.2-1" transform="translate(0 0)"/>
    <path class="d" d="M74.6,66.24c-2,0-3-1.36-3-4.1V56.79h.89V62q0,3.42,2.34,3.42a3.42,3.42,0,0,0,1.14-.2,4.22,4.22,0,0,0,1-.57,4,4,0,0,0,.84-.89,4.08,4.08,0,0,0,.58-1.14V56.79h.9v8c0,.3.12.44.37.44v.81h-.27a1,1,0,0,1-.63-.22.72.72,0,0,1-.28-.6V63.87a4.46,4.46,0,0,1-4,2.37" transform="translate(0 0)"/>
    <path class="d" d="M82.68,53h.89v1.64h-.89Zm0,3.75h.89v9.28h-.89Z" transform="translate(0 0)"/>
    <path class="d" d="M86.93,53h.91V64.23a1.16,1.16,0,0,0,.29.82,1.09,1.09,0,0,0,.81.3,3,3,0,0,0,.48,0,2.73,2.73,0,0,0,.51-.14l.17.72a3.65,3.65,0,0,1-.75.2,3.78,3.78,0,0,1-.76.08,1.55,1.55,0,0,1-1.66-1.67Z" transform="translate(0 0)"/>
    <path class="d" d="M95.78,66.24a4,4,0,0,1-1.79-.4,4.66,4.66,0,0,1-1.42-1.07,4.92,4.92,0,0,1-.92-1.53,5,5,0,0,1-.33-1.79,5.13,5.13,0,0,1,.32-1.84,4.89,4.89,0,0,1,.89-1.54,4.32,4.32,0,0,1,1.35-1,3.7,3.7,0,0,1,1.7-.39,3.54,3.54,0,0,1,1.14.18,4.36,4.36,0,0,1,1,.47,4.63,4.63,0,0,1,1.48,1.53V53h.89V64.82c0,.29.13.44.38.44v.81l-.18,0h-.14a.78.78,0,0,1-.61-.28.82.82,0,0,1-.25-.57v-1a4.31,4.31,0,0,1-1.52,1.48,3.91,3.91,0,0,1-2,.55m.16-.8a3.09,3.09,0,0,0,1-.19,4.43,4.43,0,0,0,1-.55,4.34,4.34,0,0,0,.81-.79,1.82,1.82,0,0,0,.39-1v-3a3.7,3.7,0,0,0-.56-1,4.06,4.06,0,0,0-1.83-1.31,3,3,0,0,0-1-.2,3.13,3.13,0,0,0-1.47.35,3.54,3.54,0,0,0-1.12.91A3.9,3.9,0,0,0,92.48,60a4.48,4.48,0,0,0-.25,1.49,4,4,0,0,0,1.08,2.79,4,4,0,0,0,1.17.87,3.39,3.39,0,0,0,1.46.32" transform="translate(0 0)"/>
    <path class="d" d="M103.41,53h.89v1.64h-.89Zm0,3.75h.89v9.28h-.89Z" transform="translate(0 0)"/>
    <path class="d" d="M115.17,66.07h-.89V60.89a5.14,5.14,0,0,0-.51-2.62,1.76,1.76,0,0,0-1.62-.82,3.44,3.44,0,0,0-1.17.21,4.22,4.22,0,0,0-1.07.61,4.27,4.27,0,0,0-.88.92,3.82,3.82,0,0,0-.55,1.13v5.75h-.89V56.79h.83V59a4.48,4.48,0,0,1,.71-1,4.56,4.56,0,0,1,.94-.75,4.79,4.79,0,0,1,1.12-.48,4.48,4.48,0,0,1,1.21-.17,2.27,2.27,0,0,1,2.14,1.06,6,6,0,0,1,.63,3Z" transform="translate(0 0)"/>
    <path class="d" d="M122.09,66.21a3.9,3.9,0,0,1-1.77-.4,4.66,4.66,0,0,1-1.38-1.07,5.13,5.13,0,0,1-.91-1.53,4.86,4.86,0,0,1-.33-1.76,5.31,5.31,0,0,1,.31-1.82,4.76,4.76,0,0,1,.89-1.55A4.28,4.28,0,0,1,120.26,57a3.92,3.92,0,0,1,1.76-.39,3.58,3.58,0,0,1,2.11.63,6.09,6.09,0,0,1,1.53,1.55v-2h.82v9.45a3.53,3.53,0,0,1-1.31,2.85,4.3,4.3,0,0,1-1.4.71,5.7,5.7,0,0,1-1.66.24,6.4,6.4,0,0,1-1.45-.15,4.09,4.09,0,0,1-1.13-.43,3.86,3.86,0,0,1-.88-.67,5.26,5.26,0,0,1-.66-.89l.6-.41a3.41,3.41,0,0,0,1.5,1.39,4.76,4.76,0,0,0,2,.43,4.52,4.52,0,0,0,1.34-.19,3.45,3.45,0,0,0,1.11-.58,3,3,0,0,0,.75-1,3.08,3.08,0,0,0,.28-1.34v-2a4.31,4.31,0,0,1-1.52,1.45,3.85,3.85,0,0,1-2,.55m.21-.77a3.05,3.05,0,0,0,1.15-.22,3.92,3.92,0,0,0,1-.58,3.76,3.76,0,0,0,.75-.8,2.46,2.46,0,0,0,.37-.9v-3a4.5,4.5,0,0,0-.58-1,3.48,3.48,0,0,0-.81-.77,3.66,3.66,0,0,0-1-.51,3,3,0,0,0-1.06-.19,3.08,3.08,0,0,0-1.5.36,3.58,3.58,0,0,0-1.11.93,4,4,0,0,0-.7,1.29,4.59,4.59,0,0,0-.24,1.45A4.07,4.07,0,0,0,118.9,63a4.22,4.22,0,0,0,.78,1.27,3.77,3.77,0,0,0,1.18.87,3.37,3.37,0,0,0,1.44.32" transform="translate(0 0)"/>
    <path class="d" d="M144.4,62.78a3.11,3.11,0,0,1-.26,1.3,3.62,3.62,0,0,1-.73,1,3.45,3.45,0,0,1-1.09.7,3.68,3.68,0,0,1-1.32.25h-5.92V53.4H141a2.53,2.53,0,0,1,1.2.29,2.93,2.93,0,0,1,.9.74,3,3,0,0,1,.58,1,3.44,3.44,0,0,1,.21,1.17,3.35,3.35,0,0,1-.48,1.76,2.85,2.85,0,0,1-1.34,1.18,3.15,3.15,0,0,1,1.72,1.21,3.35,3.35,0,0,1,.63,2M136,54.22v5.07h4.64a2,2,0,0,0,.95-.22,2.49,2.49,0,0,0,1.23-1.37,2.62,2.62,0,0,0,.18-1,2.87,2.87,0,0,0-.17-1,2.74,2.74,0,0,0-.46-.8,2.23,2.23,0,0,0-.71-.55,2,2,0,0,0-.91-.21Zm7.52,8.44a2.79,2.79,0,0,0-.68-1.81,2.37,2.37,0,0,0-.76-.58,2,2,0,0,0-.94-.22H136v5.2h5a2.39,2.39,0,0,0,1-.22,2.34,2.34,0,0,0,.78-.58,2.87,2.87,0,0,0,.53-.83,2.46,2.46,0,0,0,.2-1" transform="translate(0 0)"/>
    <path class="d" d="M151,66.24a4.27,4.27,0,0,1-1.82-.38,4.61,4.61,0,0,1-1.45-1,5.22,5.22,0,0,1-1-1.54,5.1,5.1,0,0,1-.34-1.88,5,5,0,0,1,.34-1.85,4.92,4.92,0,0,1,1-1.51,4.3,4.3,0,0,1,3.23-1.4,4.36,4.36,0,0,1,3.26,1.42,4.72,4.72,0,0,1,.95,1.51,5.12,5.12,0,0,1,.34,1.83v.22a.49.49,0,0,1,0,.17h-8.14a4.25,4.25,0,0,0,.38,1.49,4,4,0,0,0,.81,1.19,3.84,3.84,0,0,0,1.13.79,3.37,3.37,0,0,0,1.38.28,3.33,3.33,0,0,0,.94-.13,3.74,3.74,0,0,0,.87-.37,3,3,0,0,0,.71-.56,2.63,2.63,0,0,0,.49-.72l.79.21a3.1,3.1,0,0,1-.58.92,4,4,0,0,1-.9.72,4.42,4.42,0,0,1-1.11.47,4.34,4.34,0,0,1-1.25.17m3.64-5.17a4.46,4.46,0,0,0-.36-1.5,4.07,4.07,0,0,0-.81-1.17,3.63,3.63,0,0,0-1.13-.76,3.52,3.52,0,0,0-2.75,0,3.63,3.63,0,0,0-1.13.76,3.76,3.76,0,0,0-.79,1.18,4.57,4.57,0,0,0-.34,1.49Z" transform="translate(0 0)"/>
    <path class="d" d="M162.05,65.62l-.24.13a2.5,2.5,0,0,1-.43.19,5.94,5.94,0,0,1-.58.16,3.08,3.08,0,0,1-.7.07,2.28,2.28,0,0,1-.7-.1,1.75,1.75,0,0,1-.58-.33,1.39,1.39,0,0,1-.39-.51,1.6,1.6,0,0,1-.14-.72v-7H157v-.73h1.31V53.61h.89v3.18h2.16v.73h-2.16V64.3a.92.92,0,0,0,.35.78,1.36,1.36,0,0,0,.81.25,2.33,2.33,0,0,0,.95-.18l.49-.24Z" transform="translate(0 0)"/>
    <path class="d" d="M168.24,65.62l-.24.13a2.5,2.5,0,0,1-.43.19,5.94,5.94,0,0,1-.58.16,3.08,3.08,0,0,1-.7.07,2.28,2.28,0,0,1-.7-.1,1.75,1.75,0,0,1-.58-.33,1.39,1.39,0,0,1-.39-.51,1.59,1.59,0,0,1-.15-.72v-7h-1.3v-.73h1.3V53.61h.9v3.18h2.16v.73h-2.16V64.3a.92.92,0,0,0,.35.78,1.36,1.36,0,0,0,.81.25,2.33,2.33,0,0,0,.95-.18l.49-.24Z" transform="translate(0 0)"/>
    <path class="d" d="M174,66.24a4.27,4.27,0,0,1-1.82-.38,4.61,4.61,0,0,1-1.45-1,5.22,5.22,0,0,1-1-1.54,5.1,5.1,0,0,1-.34-1.88,5,5,0,0,1,.34-1.85,4.92,4.92,0,0,1,1-1.51,4.3,4.3,0,0,1,3.23-1.4,4.36,4.36,0,0,1,3.26,1.42,4.72,4.72,0,0,1,.95,1.51,5.12,5.12,0,0,1,.34,1.83v.22a.49.49,0,0,1,0,.17h-8.14a4.3,4.3,0,0,0,1.19,2.68,3.72,3.72,0,0,0,1.13.79,3.37,3.37,0,0,0,1.38.28,3.33,3.33,0,0,0,.94-.13,3.74,3.74,0,0,0,.87-.37,3.19,3.19,0,0,0,.71-.56,2.63,2.63,0,0,0,.49-.72l.79.21a3.1,3.1,0,0,1-.58.92,4,4,0,0,1-.9.72,4.42,4.42,0,0,1-1.11.47,4.34,4.34,0,0,1-1.25.17m3.64-5.17a4.24,4.24,0,0,0-.37-1.5,3.86,3.86,0,0,0-.8-1.17,3.63,3.63,0,0,0-1.13-.76,3.52,3.52,0,0,0-2.75,0,3.63,3.63,0,0,0-1.13.76,3.76,3.76,0,0,0-.79,1.18,4.57,4.57,0,0,0-.34,1.49Z" transform="translate(0 0)"/>
    <path class="d" d="M185.33,57.59a3.77,3.77,0,0,0-2.19.74,3.73,3.73,0,0,0-1.31,1.94v5.8h-.89V56.79h.86v2.28a4.45,4.45,0,0,1,1.27-1.59,3.3,3.3,0,0,1,1.7-.71l.33,0h.23Z" transform="translate(0 0)"/>
    <path class="d" d="M201.74,62.78a3.12,3.12,0,0,1-.27,1.3,3.43,3.43,0,0,1-.73,1,3.34,3.34,0,0,1-1.09.7,3.6,3.6,0,0,1-1.32.25h-5.92V53.4h5.9a2.51,2.51,0,0,1,1.2.29,2.85,2.85,0,0,1,.91.74,3.35,3.35,0,0,1,.58,1,3.44,3.44,0,0,1,.21,1.17,3.36,3.36,0,0,1-.49,1.76,2.82,2.82,0,0,1-1.33,1.18,3.23,3.23,0,0,1,1.72,1.21,3.35,3.35,0,0,1,.63,2m-8.42-8.56v5.07H198a2,2,0,0,0,.94-.22,2.3,2.3,0,0,0,.74-.56,2.38,2.38,0,0,0,.49-.81,2.72,2.72,0,0,0,0-1.92,2.53,2.53,0,0,0-.46-.8,2.19,2.19,0,0,0-.7-.55,2,2,0,0,0-.91-.21Zm7.51,8.44a2.69,2.69,0,0,0-.18-1,2.53,2.53,0,0,0-.5-.84,2.17,2.17,0,0,0-.76-.58,2,2,0,0,0-.93-.22h-5.14v5.2h5a2.32,2.32,0,0,0,1-.22,2.28,2.28,0,0,0,.79-.58,2.84,2.84,0,0,0,.52-.83,2.46,2.46,0,0,0,.2-1" transform="translate(0 0)"/>
    <path class="d" d="M208.82,57.59a3.74,3.74,0,0,0-2.18.74,3.67,3.67,0,0,0-1.31,1.94v5.8h-.9V56.79h.86v2.28a4.48,4.48,0,0,1,1.28-1.59,3.23,3.23,0,0,1,1.7-.71l.32,0h.23Z" transform="translate(0 0)"/>
    <path class="d" d="M213.16,66.24A3.16,3.16,0,0,1,212,66a3.13,3.13,0,0,1-1-.61,2.49,2.49,0,0,1-.65-.91,2.66,2.66,0,0,1-.23-1.13,2.17,2.17,0,0,1,.28-1.1,2.65,2.65,0,0,1,.8-.87,3.94,3.94,0,0,1,1.22-.57,5.52,5.52,0,0,1,1.57-.21,8.46,8.46,0,0,1,1.5.14,7.78,7.78,0,0,1,1.37.36v-.91a2.88,2.88,0,0,0-.75-2.09,2.69,2.69,0,0,0-2-.78,4.1,4.1,0,0,0-1.44.29,7.23,7.23,0,0,0-1.54.82l-.34-.61a6.08,6.08,0,0,1,3.39-1.21,3.53,3.53,0,0,1,2.64,1,3.66,3.66,0,0,1,1,2.69v4.53c0,.29.13.44.39.44v.81l-.18,0h-.17a.72.72,0,0,1-.57-.24.93.93,0,0,1-.25-.58v-.77a4.25,4.25,0,0,1-1.64,1.29,5.22,5.22,0,0,1-2.16.44m.18-.71a4.58,4.58,0,0,0,1.9-.39,3.25,3.25,0,0,0,1.32-1,1.19,1.19,0,0,0,.29-.71V61.75a7.37,7.37,0,0,0-1.34-.38,8.39,8.39,0,0,0-1.44-.12,5,5,0,0,0-1.27.15,3.26,3.26,0,0,0-1,.42,1.86,1.86,0,0,0-.63.65,1.67,1.67,0,0,0-.23.85,2.16,2.16,0,0,0,.68,1.58,2.41,2.41,0,0,0,.76.46,2.62,2.62,0,0,0,.94.17" transform="translate(0 0)"/>
    <path class="d" d="M228.52,66.07h-.9V60.89a5.27,5.27,0,0,0-.5-2.62,1.76,1.76,0,0,0-1.62-.82,3.44,3.44,0,0,0-1.17.21,4.2,4.2,0,0,0-2,1.53,3.82,3.82,0,0,0-.55,1.13v5.75h-.89V56.79h.83V59a4.48,4.48,0,0,1,.71-1,4.56,4.56,0,0,1,.94-.75,4.62,4.62,0,0,1,1.12-.48,4.42,4.42,0,0,1,1.21-.17,2.27,2.27,0,0,1,2.14,1.06,6,6,0,0,1,.63,3Z" transform="translate(0 0)"/>
    <path class="d" d="M235.51,66.24a4,4,0,0,1-1.79-.4,4.62,4.62,0,0,1-1.41-1.07,4.76,4.76,0,0,1-.93-1.53,5,5,0,0,1-.33-1.79,5.35,5.35,0,0,1,.32-1.84,4.89,4.89,0,0,1,.89-1.54,4.32,4.32,0,0,1,1.35-1,3.73,3.73,0,0,1,1.7-.39,3.49,3.49,0,0,1,1.14.18,4.36,4.36,0,0,1,1,.47,4.68,4.68,0,0,1,.84.69,4.25,4.25,0,0,1,.64.84V53h.9V64.82c0,.29.12.44.37.44v.81l-.18,0h-.14a.78.78,0,0,1-.61-.28.86.86,0,0,1-.25-.57v-1a4.31,4.31,0,0,1-1.52,1.48,3.91,3.91,0,0,1-2,.55m.16-.8a3,3,0,0,0,1-.19,4.43,4.43,0,0,0,1-.55,3.8,3.8,0,0,0,.81-.79,1.82,1.82,0,0,0,.39-1v-3a3.44,3.44,0,0,0-.56-1,4.06,4.06,0,0,0-1.83-1.31,3,3,0,0,0-1-.2,3.09,3.09,0,0,0-1.46.35,3.57,3.57,0,0,0-1.13.91,4.09,4.09,0,0,0-.71,1.28,4.48,4.48,0,0,0-.25,1.49A4,4,0,0,0,233,64.25a3.89,3.89,0,0,0,1.18.87,3.35,3.35,0,0,0,1.45.32" transform="translate(0 0)"/>
    <path class="d" d="M246.09,66.24a5.85,5.85,0,0,1-2.05-.35,4.85,4.85,0,0,1-1.72-1.07l.45-.61a5.24,5.24,0,0,0,1.55,1,4.81,4.81,0,0,0,1.77.32A3.36,3.36,0,0,0,248,65a1.63,1.63,0,0,0,.74-1.42,1.29,1.29,0,0,0-.19-.72,1.53,1.53,0,0,0-.56-.5,4.64,4.64,0,0,0-.93-.36c-.36-.11-.79-.22-1.28-.34s-1-.24-1.36-.36a3.58,3.58,0,0,1-1-.43,1.6,1.6,0,0,1-.56-.6,1.89,1.89,0,0,1-.19-.91,2.61,2.61,0,0,1,.27-1.22,2.33,2.33,0,0,1,.74-.85,3.22,3.22,0,0,1,1.09-.51,5.05,5.05,0,0,1,1.31-.17,4.8,4.8,0,0,1,1.92.36,3.48,3.48,0,0,1,1.31.94l-.5.48a2.89,2.89,0,0,0-1.21-.8,4.56,4.56,0,0,0-1.58-.27,4.37,4.37,0,0,0-1,.11,2.25,2.25,0,0,0-.79.34,1.56,1.56,0,0,0-.54.6,1.79,1.79,0,0,0-.19.86,1.36,1.36,0,0,0,.13.66,1.11,1.11,0,0,0,.43.43,3.23,3.23,0,0,0,.76.31l1.1.3c.59.14,1.1.28,1.56.41a4.41,4.41,0,0,1,1.13.48,2,2,0,0,1,.69.68,1.79,1.79,0,0,1,.25,1,2.36,2.36,0,0,1-1,2,4.13,4.13,0,0,1-2.59.74" transform="translate(0 0)"/>
  </g>
</svg>
