<svg xmlns="http://www.w3.org/2000/svg" xmlns:xlink="http://www.w3.org/1999/xlink" viewBox="0 0 316.63 86.96">
  <defs>
    <style>
      .a, .c, .g {
        fill: none;
      }

      .b {
        clip-path: url(#a);
      }

      .c {
        stroke: #f68c29;
        stroke-miterlimit: 10;
        stroke-width: 0.96px;
      }

      .d {
        clip-path: url(#b);
      }

      .e {
        fill: #231f20;
      }

      .f {
        fill: #fff;
      }

      .g {
        stroke: #fff;
        stroke-width: 1.08px;
      }

      .h {
        fill: #f78e1e;
      }

      .i {
        fill: #42c4dd;
      }

      .j {
        fill: #455465;
      }
    </style>
    <clipPath id="a" transform="translate(0 0)">
      <rect class="a" width="316.63" height="86.96"/>
    </clipPath>
    <clipPath id="b" transform="translate(0 0)">
      <rect class="a" width="324.06" height="89.56"/>
    </clipPath>
  </defs>
  <g>
    <g class="b">
      <rect class="c" x="65.32" y="59.8" width="241.64" height="26.68" rx="9.53"/>
    </g>
    <g class="d">
      <path class="e" d="M89.36,20.42h-.15c-1.24-1.77-3-3.7-8.31-3.7-8.1,0-11.29,5.3-11.29,11.14,0,6.45,4.12,11.46,12.58,11.46,4.44,0,7.43-1.52,8.93-2.84v.25c0,1.85-3.72,5.71-11.77,5.71C70,42.44,64.19,36.52,64.24,29c0-8.43,6.24-14.1,16.71-14.1,3,0,5.16.33,8.62.33Z" transform="translate(0 0)"/>
      <path class="e" d="M106,42.36c-9.54,0-13.72-5.21-13.72-11.65,0-6.88,5-12.59,14.44-12.59s13.73,5.21,13.73,11.65c0,6.87-5,12.59-14.45,12.59m.36-22.65c-6.54,0-9.36,4.77-9.36,10,0,4.78,2,11.07,9.36,11.07,6.54,0,9.36-4.78,9.36-10,0-4.77-2-11.07-9.36-11.07" transform="translate(0 0)"/>
      <path class="e" d="M152,18.69c-1,1.38-.9,3.33-.9,5.14,0,4.35-.23,8.87.36,13.21a10.44,10.44,0,0,0,1.41,4.74h-6.68c.82-1.81.82-4.49.82-6.51v-12c0-.37,0-.8-.32-.8s-.46.25-.59.54L135.92,42.15l-8.63-17.77c-.5-1.05-.82-1.92-1.23-1.92s-.41.65-.41,1.19l0,11.76c0,2.82,0,5.18,1,6.37H121.2l.41-.47c1.68-1.92,1.86-7.63,1.86-11.54v-9c0-1,0-1.48-1.13-2H128c.55,0,1.23.08,1.41.55L136.1,35c.23.54.37,1.15.73,1.15s.54-.36.82-.86l7.86-15.09c.41-.76.72-1.53,1.86-1.53Z" transform="translate(0 0)"/>
      <path class="e" d="M185.72,18.69c-1,1.38-.91,3.33-.91,5.14,0,4.35-.22,8.87.37,13.21a10.44,10.44,0,0,0,1.41,4.74h-6.68c.82-1.81.82-4.49.82-6.51v-12c0-.37,0-.8-.32-.8s-.46.25-.59.54L169.64,42.15,161,24.38c-.5-1.05-.82-1.92-1.23-1.92s-.41.65-.41,1.19l0,11.76c0,2.82,0,5.18,1,6.37h-5.41l.41-.47c1.68-1.92,1.86-7.63,1.86-11.54v-9c0-1,0-1.48-1.13-2h5.63c.54,0,1.23.08,1.41.55L169.82,35c.23.54.36,1.15.73,1.15s.54-.36.81-.86l7.87-15.09c.4-.76.72-1.53,1.86-1.53Z" transform="translate(0 0)"/>
      <path class="e" d="M213.63,18.69c-1,1.27-1,3.15-1,4.78V37.08c0,1.63,0,3.51,1,4.7l-5.4.22.18-2.39c0-.11-.09-.14-.23-.14s-.27.21-.54.4a15.21,15.21,0,0,1-8.77,2.49c-5.27,0-8.77-1.7-8.91-6.15V23.47c0-1.63,0-3.51-1-4.78h6.08c-1,1.27-1,3.15-1,4.78V34c.14,3.87,2.14,6.22,7.27,6.22,5.28,0,6.91-2.64,7.05-6.95,0-1.37.18-2.78.18-4.16V23.47c0-1.63,0-3.51-1-4.78Z" transform="translate(0 0)"/>
      <path class="e" d="M216.48,41.78c1.59-3,1.59-7.38,1.59-10.56V23.51c0-1.78-.09-3.73-1.45-4.82h4.59c.86,0,1.27,0,1.81.59,1,1,3.87,4.88,5.27,6.47l9,10.17c.32.36.69.87,1,.87s.32-.36.32-.69V23.33a7.67,7.67,0,0,0-1.1-4.64h4.73a9.59,9.59,0,0,0-1.36,5.4V38.56c0,1.2,0,2.28.09,3.37h-3.23L221.11,23.07c-.18-.21-.31-.39-.5-.39s-.27.21-.27.54v9.3c0,2.89-.09,6.55,1.37,9.26Z" transform="translate(0 0)"/>
      <path class="e" d="M246.48,23.44c0-1.63,0-3.51-1-4.75h6.09c-1,1.24-1,3.12-1,4.75V37c0,1.63,0,3.51,1,4.74h-6.09c1-1.23,1-3.11,1-4.74Z" transform="translate(0 0)"/>
      <path class="e" d="M276.17,23H276c-1.1-1.56-2.64-3.26-7.32-3.26-7.13,0-10,4.67-10,9.81,0,5.68,3.64,10.09,11.09,10.09a12,12,0,0,0,7.86-2.5v.22c0,1.63-3.28,5-10.36,5-8.27,0-13.36-5.21-13.31-11.83,0-7.42,5.49-12.42,14.72-12.42,2.63,0,4.54.3,7.59.3Z" transform="translate(0 0)"/>
      <path class="e" d="M291.25,22.43c-1.54,2.66-8.75,15.92-8.75,18a7.06,7.06,0,0,0,.13,1.37H277l1-1c2.59-2.6,11.95-18.13,11.95-21.1l0-1h5.37c2.9,7.2,5.81,15.06,10.35,21.75l.91,1.34h-4.9l-3.21-6.56s-1-2-1.74-3.66l-1.81-4.11-2.15-5c-.09-.26-.36-.87-.77-.87s-.68.69-.77.87Z" transform="translate(0 0)"/>
      <path class="e" d="M303.2,9.32s-2.13.85-8.13.63C291.41,9.81,285,9.73,285,9.73c-1.49,0-1.63,2.64-2.76,3.39h0a71,71,0,0,1,12.19-.3c2.78.12,6.24.3,6.24.3h0c1.5,0,1.42-3,2.55-3.78Z" transform="translate(0 0)"/>
      <path class="f" d="M312.85,37.89a3.87,3.87,0,1,1-3.78,3.86,3.82,3.82,0,0,1,3.78-3.86m0,7.26a3.41,3.41,0,1,0-3.16-3.4,3.32,3.32,0,0,0,3.16,3.4m-1.27-4.8c0-.51,0-.5-.54-.54v-.18h2c.63,0,1.29.32,1.29,1a1.24,1.24,0,0,1-.9,1.18l.65.87a4.79,4.79,0,0,0,.85,1v.09h-.72c-.36,0-.64-.77-1.36-1.82h-.54V43c0,.5,0,.5.56.55v.18H311v-.18c.55,0,.54,0,.54-.55Zm.71,1.36h.5c.6,0,.76-.5.76-1s-.24-.85-.78-.85h-.48Z" transform="translate(0 0)"/>
      <path class="e" d="M56.81,28.67A28.14,28.14,0,1,1,28.67.54,28.14,28.14,0,0,1,56.81,28.67" transform="translate(0 0)"/>
    </g>
    <g class="b">
      <path class="g" d="M56.81,28.67A28.14,28.14,0,1,1,28.67.54,28.14,28.14,0,0,1,56.81,28.67Z" transform="translate(0 0)"/>
    </g>
    <g class="d">
      <polygon class="h" points="39.69 13.83 17.75 13.83 17.76 9.15 39.71 9.15 39.69 13.83"/>
      <polygon class="i" points="11.76 45.07 19.4 45.07 28.73 26.28 38.02 45.07 45.7 45.06 31.48 17.59 25.91 17.61 11.76 45.07"/>
      <path class="j" d="M83.09,75.56a3.88,3.88,0,0,1-1.21,2.81,4,4,0,0,1-1.31.84,4.24,4.24,0,0,1-1.59.3H71.86V64.27H79a3,3,0,0,1,1.44.34,3.68,3.68,0,0,1,1.1.89,4.2,4.2,0,0,1,.36,4.78,3.43,3.43,0,0,1-1.61,1.42,3.72,3.72,0,0,1,2.07,1.45,4,4,0,0,1,.77,2.41M73,65.26v6.09h5.58a2.39,2.39,0,0,0,1.14-.26,2.82,2.82,0,0,0,.89-.67,3.13,3.13,0,0,0,.59-1,3,3,0,0,0,.22-1.14,3.37,3.37,0,0,0-.76-2.13,2.77,2.77,0,0,0-.85-.67,2.5,2.5,0,0,0-1.1-.24Zm9,10.15a3.36,3.36,0,0,0-.21-1.17,3.45,3.45,0,0,0-.61-1,3,3,0,0,0-.91-.7,2.52,2.52,0,0,0-1.12-.25H73v6.24h6a2.84,2.84,0,0,0,1.2-.25,3.12,3.12,0,0,0,.94-.7,3.26,3.26,0,0,0,.63-1A2.9,2.9,0,0,0,82,75.41" transform="translate(0 0)"/>
      <path class="j" d="M89.78,79.73q-3.56,0-3.56-4.94V68.35h1.07v6.29q0,4.13,2.82,4.12a3.78,3.78,0,0,0,1.37-.25,4.91,4.91,0,0,0,1.25-.68,5.2,5.2,0,0,0,1-1.07,5.34,5.34,0,0,0,.69-1.37v-7h1.08V78q0,.54.45.54v1a.71.71,0,0,1-.2,0h-.12a1.21,1.21,0,0,1-.77-.27.85.85,0,0,1-.33-.71V76.87a5.35,5.35,0,0,1-2,2.1,5.26,5.26,0,0,1-2.76.76" transform="translate(0 0)"/>
      <path class="j" d="M99.51,63.84h1.07v2H99.51Zm0,4.51h1.07V79.51H99.51Z" transform="translate(0 0)"/>
      <path class="j" d="M104.62,63.84h1.09V77.3a1.35,1.35,0,0,0,.36,1,1.3,1.3,0,0,0,1,.36,4.42,4.42,0,0,0,.56-.05,3.5,3.5,0,0,0,.62-.16l.21.86a4.14,4.14,0,0,1-.9.24,4.91,4.91,0,0,1-.92.1,1.89,1.89,0,0,1-2-2Z" transform="translate(0 0)"/>
      <path class="j" d="M115.27,79.73a4.75,4.75,0,0,1-2.15-.49A5.56,5.56,0,0,1,111.41,78a6.13,6.13,0,0,1-1.51-4,6.31,6.31,0,0,1,.39-2.21,5.75,5.75,0,0,1,1.07-1.85A5.21,5.21,0,0,1,113,68.63a4.54,4.54,0,0,1,3.43-.26,5.09,5.09,0,0,1,1.2.57,5.33,5.33,0,0,1,1,.82,6,6,0,0,1,.77,1V63.84h1.07V78q0,.54.45.54v1l-.21,0h-.17a1,1,0,0,1-.73-.33,1,1,0,0,1-.3-.7V77.28a5.15,5.15,0,0,1-1.84,1.78,4.63,4.63,0,0,1-2.39.67m.19-1a3.72,3.72,0,0,0,1.25-.24,4.54,4.54,0,0,0,1.23-.65,4.7,4.7,0,0,0,1-1,2.23,2.23,0,0,0,.47-1.16V72.08a4.4,4.4,0,0,0-.68-1.15,4.89,4.89,0,0,0-1-.94,4.81,4.81,0,0,0-1.21-.63,3.54,3.54,0,0,0-1.24-.24,3.69,3.69,0,0,0-1.76.42,4.35,4.35,0,0,0-1.35,1.09,4.9,4.9,0,0,0-.86,1.55A5.47,5.47,0,0,0,111,74a4.84,4.84,0,0,0,.34,1.83,5.07,5.07,0,0,0,1,1.52,4.52,4.52,0,0,0,1.42,1.05,4,4,0,0,0,1.75.39" transform="translate(0 0)"/>
      <path class="j" d="M124.46,63.84h1.07v2h-1.07Zm0,4.51h1.07V79.51h-1.07Z" transform="translate(0 0)"/>
      <path class="j" d="M138.61,79.51h-1.08V73.29a6.19,6.19,0,0,0-.61-3.16,2.12,2.12,0,0,0-1.94-1,4.09,4.09,0,0,0-1.41.26,4.66,4.66,0,0,0-1.3.73,5.23,5.23,0,0,0-1.05,1.1,4.84,4.84,0,0,0-.67,1.37v6.91h-1.07V68.35h1V71a5.15,5.15,0,0,1,.85-1.17,5,5,0,0,1,1.14-.9,5.49,5.49,0,0,1,1.34-.58,5.1,5.1,0,0,1,1.46-.21,2.74,2.74,0,0,1,2.57,1.28,7.29,7.29,0,0,1,.76,3.66Z" transform="translate(0 0)"/>
      <path class="j" d="M146.93,79.68a4.68,4.68,0,0,1-2.12-.48,5.24,5.24,0,0,1-1.66-1.29,6.08,6.08,0,0,1-1.5-4,6.47,6.47,0,0,1,.38-2.19,5.89,5.89,0,0,1,1.06-1.86,5.21,5.21,0,0,1,1.64-1.27,4.68,4.68,0,0,1,2.12-.48,4.29,4.29,0,0,1,2.54.77,7,7,0,0,1,1.84,1.85V68.35h1V79.73a4.45,4.45,0,0,1-.43,2,4.16,4.16,0,0,1-1.15,1.43A5,5,0,0,1,149,84a6.91,6.91,0,0,1-2,.29,7.63,7.63,0,0,1-1.74-.18,5.28,5.28,0,0,1-1.37-.52,4.6,4.6,0,0,1-1-.81,6,6,0,0,1-.8-1.07l.73-.49a4,4,0,0,0,1.8,1.66,5.74,5.74,0,0,0,2.43.53,5.38,5.38,0,0,0,1.62-.24,3.76,3.76,0,0,0,1.33-.7,3.26,3.26,0,0,0,.9-1.14,3.7,3.7,0,0,0,.33-1.61V77.28A5.17,5.17,0,0,1,149.32,79a4.67,4.67,0,0,1-2.39.65m.26-.92a3.74,3.74,0,0,0,1.39-.27,4.73,4.73,0,0,0,1.22-.7,3.71,3.71,0,0,0,.9-1,2.6,2.6,0,0,0,.44-1.08V72.08A4.67,4.67,0,0,0,149.48,70a4.9,4.9,0,0,0-1.18-.61,3.8,3.8,0,0,0-1.28-.23,3.69,3.69,0,0,0-1.8.43,4.29,4.29,0,0,0-1.34,1.12,4.75,4.75,0,0,0-.84,1.55,5.63,5.63,0,0,0-.29,1.75,4.84,4.84,0,0,0,.34,1.83,5.07,5.07,0,0,0,.95,1.52,4.27,4.27,0,0,0,1.41,1.05,4,4,0,0,0,1.74.39" transform="translate(0 0)"/>
      <path class="j" d="M173.79,75.56a3.69,3.69,0,0,1-.32,1.56,3.83,3.83,0,0,1-.88,1.25,4,4,0,0,1-1.31.84,4.24,4.24,0,0,1-1.59.3h-7.12V64.27h7.1a3,3,0,0,1,1.44.34,3.64,3.64,0,0,1,1.09.89,3.84,3.84,0,0,1,.7,1.25,4.14,4.14,0,0,1-.33,3.53A3.47,3.47,0,0,1,171,71.7,3.76,3.76,0,0,1,173,73.15a4,4,0,0,1,.76,2.41m-10.13-10.3v6.09h5.58a2.39,2.39,0,0,0,1.14-.26,2.94,2.94,0,0,0,.89-.67,3.13,3.13,0,0,0,.59-1,3.21,3.21,0,0,0,.22-1.14,3.28,3.28,0,0,0-.21-1.17,3.07,3.07,0,0,0-.56-1,2.73,2.73,0,0,0-.84-.67,2.5,2.5,0,0,0-1.1-.24Zm9,10.15a3.15,3.15,0,0,0-.22-1.17,3.22,3.22,0,0,0-.6-1,3,3,0,0,0-.91-.7,2.56,2.56,0,0,0-1.13-.25h-6.18v6.24h6a2.76,2.76,0,0,0,1.19-.25,3.17,3.17,0,0,0,1-.7,3.68,3.68,0,0,0,.63-1,2.9,2.9,0,0,0,.24-1.16" transform="translate(0 0)"/>
      <path class="j" d="M181.78,79.73a5.15,5.15,0,0,1-2.19-.47A5.37,5.37,0,0,1,177.84,78a6.14,6.14,0,0,1-1.16-1.86,6,6,0,0,1-.42-2.25,5.94,5.94,0,0,1,.42-2.23,5.81,5.81,0,0,1,1.15-1.82,5.53,5.53,0,0,1,1.73-1.24,5.16,5.16,0,0,1,2.16-.45,5.36,5.36,0,0,1,3.92,1.71,5.55,5.55,0,0,1,1.14,1.83,6,6,0,0,1,.41,2.2v.26a.78.78,0,0,1,0,.21h-9.79a4.87,4.87,0,0,0,.45,1.79,5,5,0,0,0,1,1.43,4.15,4.15,0,0,0,1.36.94,4,4,0,0,0,1.65.35,4.36,4.36,0,0,0,1.14-.16,5.08,5.08,0,0,0,1-.44,4.09,4.09,0,0,0,.86-.68,3.11,3.11,0,0,0,.59-.87l1,.26a3.48,3.48,0,0,1-.7,1.1,4.59,4.59,0,0,1-1.08.87,4.88,4.88,0,0,1-1.34.57,5.33,5.33,0,0,1-1.5.21m4.38-6.23a5,5,0,0,0-.44-1.8,4.59,4.59,0,0,0-1-1.41,4.25,4.25,0,0,0-1.36-.92,4.16,4.16,0,0,0-1.65-.34,4.21,4.21,0,0,0-1.66.34,4.3,4.3,0,0,0-2.3,2.34,5.27,5.27,0,0,0-.42,1.79Z" transform="translate(0 0)"/>
      <path class="j" d="M195,79l-.29.17a3.87,3.87,0,0,1-.52.22,5.41,5.41,0,0,1-.7.19,3.58,3.58,0,0,1-.83.09,2.61,2.61,0,0,1-.85-.13,1.92,1.92,0,0,1-.7-.39,1.7,1.7,0,0,1-.47-.62,1.91,1.91,0,0,1-.17-.86V69.23h-1.57v-.88h1.57V64.53h1.07v3.82h2.6v.88h-2.6v8.16a1.07,1.07,0,0,0,.43.93,1.6,1.6,0,0,0,1,.31,2.67,2.67,0,0,0,1.14-.22c.33-.15.52-.25.59-.29Z" transform="translate(0 0)"/>
      <path class="j" d="M202.48,79l-.29.17a3.87,3.87,0,0,1-.52.22,5.41,5.41,0,0,1-.7.19,3.58,3.58,0,0,1-.83.09,2.61,2.61,0,0,1-.85-.13,1.92,1.92,0,0,1-.7-.39,1.7,1.7,0,0,1-.47-.62,1.91,1.91,0,0,1-.17-.86V69.23h-1.57v-.88H198V64.53H199v3.82h2.6v.88H199v8.16a1.07,1.07,0,0,0,.43.93,1.6,1.6,0,0,0,1,.31,2.67,2.67,0,0,0,1.14-.22c.33-.15.52-.25.59-.29Z" transform="translate(0 0)"/>
      <path class="j" d="M209.41,79.73a5.15,5.15,0,0,1-2.19-.47A5.37,5.37,0,0,1,205.47,78a6.14,6.14,0,0,1-1.16-1.86,6,6,0,0,1-.42-2.25,5.94,5.94,0,0,1,.42-2.23,5.81,5.81,0,0,1,1.15-1.82,5.53,5.53,0,0,1,1.73-1.24,5.16,5.16,0,0,1,2.16-.45,5.22,5.22,0,0,1,2.19.47,5.42,5.42,0,0,1,1.74,1.24,5.69,5.69,0,0,1,1.13,1.83,5.78,5.78,0,0,1,.41,2.2v.26a.78.78,0,0,1,0,.21H205a4.87,4.87,0,0,0,.45,1.79,5,5,0,0,0,1,1.43,4.15,4.15,0,0,0,1.36.94,4,4,0,0,0,1.65.35,4.36,4.36,0,0,0,1.14-.16,5.08,5.08,0,0,0,1-.44,4.09,4.09,0,0,0,.86-.68,3.11,3.11,0,0,0,.59-.87L214,77a3.48,3.48,0,0,1-.7,1.1,4.74,4.74,0,0,1-1.07.87,5.08,5.08,0,0,1-1.35.57,5.33,5.33,0,0,1-1.5.21m4.38-6.23a5,5,0,0,0-.44-1.8,4.75,4.75,0,0,0-1-1.41,4.4,4.4,0,0,0-1.37-.92,4.17,4.17,0,0,0-3.3,0,4.28,4.28,0,0,0-2.31,2.34A5.27,5.27,0,0,0,205,73.5Z" transform="translate(0 0)"/>
      <path class="j" d="M223,69.31a4.55,4.55,0,0,0-2.63.89,4.48,4.48,0,0,0-1.57,2.33v7h-1.08V68.35h1V71.1a5.47,5.47,0,0,1,1.54-1.93,4,4,0,0,1,2-.84l.39,0H223Z" transform="translate(0 0)"/>
      <path class="j" d="M242.8,75.56a3.7,3.7,0,0,1-.33,1.56,3.83,3.83,0,0,1-.88,1.25,4,4,0,0,1-1.31.84,4.23,4.23,0,0,1-1.58.3h-7.13V64.27h7.1a3,3,0,0,1,1.44.34,3.68,3.68,0,0,1,1.1.89,4.2,4.2,0,0,1,.36,4.78A3.43,3.43,0,0,1,240,71.7,3.72,3.72,0,0,1,242,73.15a4,4,0,0,1,.77,2.41m-10.14-10.3v6.09h5.58a2.39,2.39,0,0,0,1.14-.26,2.82,2.82,0,0,0,.89-.67,3.13,3.13,0,0,0,.59-1,3,3,0,0,0,.22-1.14,3.37,3.37,0,0,0-.76-2.13,2.77,2.77,0,0,0-.85-.67,2.5,2.5,0,0,0-1.1-.24Zm9,10.15a3.36,3.36,0,0,0-.21-1.17,3.45,3.45,0,0,0-.61-1,3,3,0,0,0-.91-.7,2.53,2.53,0,0,0-1.13-.25h-6.18v6.24h6a2.82,2.82,0,0,0,1.19-.25,3.12,3.12,0,0,0,.94-.7,3.26,3.26,0,0,0,.63-1,2.9,2.9,0,0,0,.24-1.16" transform="translate(0 0)"/>
      <path class="j" d="M251.32,69.31a4.39,4.39,0,0,0-4.21,3.22v7H246V68.35h1V71.1a5.56,5.56,0,0,1,1.53-1.93,4,4,0,0,1,2.05-.84l.39,0h.28Z" transform="translate(0 0)"/>
      <path class="j" d="M256.54,79.73a3.77,3.77,0,0,1-1.44-.27,3.68,3.68,0,0,1-1.17-.73,3.32,3.32,0,0,1-.79-1.1,3.4,3.4,0,0,1-.27-1.36,2.61,2.61,0,0,1,.34-1.33,3.35,3.35,0,0,1,.95-1,4.5,4.5,0,0,1,1.48-.69,6.58,6.58,0,0,1,1.88-.25,11.19,11.19,0,0,1,1.82.16,9.74,9.74,0,0,1,1.64.44V72.47a3.47,3.47,0,0,0-.9-2.52,3.22,3.22,0,0,0-2.45-.94,4.94,4.94,0,0,0-1.73.35,9,9,0,0,0-1.85,1l-.41-.73a7.35,7.35,0,0,1,4.08-1.46,4.3,4.3,0,0,1,3.18,1.17,4.41,4.41,0,0,1,1.15,3.24V78q0,.54.48.54v1a.85.85,0,0,1-.23,0h-.2a.85.85,0,0,1-.69-.29,1.21,1.21,0,0,1-.3-.69v-.93a5,5,0,0,1-2,1.55,6.23,6.23,0,0,1-2.59.54m.21-.86a5.43,5.43,0,0,0,2.29-.48,4,4,0,0,0,1.6-1.24,1.43,1.43,0,0,0,.34-.86v-2a8.51,8.51,0,0,0-1.61-.45,9.88,9.88,0,0,0-1.74-.15,5.55,5.55,0,0,0-1.52.19,4.11,4.11,0,0,0-1.18.5,2.41,2.41,0,0,0-.77.79,2,2,0,0,0-.26,1,2.67,2.67,0,0,0,.21,1.06,2.31,2.31,0,0,0,.6.84,2.73,2.73,0,0,0,.91.56,3,3,0,0,0,1.13.21" transform="translate(0 0)"/>
      <path class="j" d="M275,79.51H274V73.29a6.3,6.3,0,0,0-.61-3.16,2.13,2.13,0,0,0-1.95-1,4,4,0,0,0-1.4.26,4.52,4.52,0,0,0-1.3.73,5.23,5.23,0,0,0-1.05,1.1A4.59,4.59,0,0,0,267,72.6v6.91H265.9V68.35h1V71a5.11,5.11,0,0,1,.84-1.17,5.62,5.62,0,0,1,2.48-1.48,5.15,5.15,0,0,1,1.46-.21,2.75,2.75,0,0,1,2.58,1.28,7.3,7.3,0,0,1,.75,3.66Z" transform="translate(0 0)"/>
      <path class="j" d="M283.44,79.73a4.75,4.75,0,0,1-2.15-.49A5.56,5.56,0,0,1,279.58,78a6.13,6.13,0,0,1-1.51-4,6.31,6.31,0,0,1,.39-2.21,5.75,5.75,0,0,1,1.07-1.85,5.21,5.21,0,0,1,1.62-1.26,4.54,4.54,0,0,1,3.43-.26,5.09,5.09,0,0,1,1.2.57,5.33,5.33,0,0,1,1,.82,6,6,0,0,1,.77,1V63.84h1.07V78q0,.54.45.54v1l-.21,0h-.17a1,1,0,0,1-.73-.33,1,1,0,0,1-.3-.7V77.28a5.15,5.15,0,0,1-1.84,1.78,4.63,4.63,0,0,1-2.39.67m.19-1a3.72,3.72,0,0,0,1.25-.24,4.54,4.54,0,0,0,1.23-.65,4.7,4.7,0,0,0,1-1,2.23,2.23,0,0,0,.47-1.16V72.08a4.4,4.4,0,0,0-.68-1.15,4.89,4.89,0,0,0-1-.94,4.81,4.81,0,0,0-1.21-.63,3.54,3.54,0,0,0-1.24-.24,3.69,3.69,0,0,0-1.76.42,4.35,4.35,0,0,0-1.35,1.09,4.9,4.9,0,0,0-.86,1.55,5.47,5.47,0,0,0-.3,1.79,4.84,4.84,0,0,0,.34,1.83,5.07,5.07,0,0,0,.95,1.52,4.41,4.41,0,0,0,1.42,1.05,4,4,0,0,0,1.75.39" transform="translate(0 0)"/>
      <path class="j" d="M296.17,79.73a7.33,7.33,0,0,1-2.47-.43A5.8,5.8,0,0,1,291.64,78l.54-.73a6.39,6.39,0,0,0,1.86,1.2,5.68,5.68,0,0,0,2.13.39,4.14,4.14,0,0,0,2.35-.61,2,2,0,0,0,.89-1.71,1.61,1.61,0,0,0-.22-.87,1.75,1.75,0,0,0-.68-.6,5.23,5.23,0,0,0-1.12-.44c-.44-.13-1-.27-1.54-.41s-1.18-.29-1.65-.43a4.33,4.33,0,0,1-1.14-.51,2.13,2.13,0,0,1-.68-.73,2.39,2.39,0,0,1-.23-1.1,3.08,3.08,0,0,1,.33-1.46,2.85,2.85,0,0,1,.89-1,4,4,0,0,1,1.31-.61,5.73,5.73,0,0,1,1.57-.21,5.78,5.78,0,0,1,2.32.44,4.05,4.05,0,0,1,1.57,1.13l-.6.58a3.47,3.47,0,0,0-1.45-1,5.66,5.66,0,0,0-1.9-.32,5.52,5.52,0,0,0-1.17.13,2.82,2.82,0,0,0-.95.41,2,2,0,0,0-.65.72,2.13,2.13,0,0,0-.24,1,1.62,1.62,0,0,0,.17.79,1.27,1.27,0,0,0,.51.52,4.15,4.15,0,0,0,.91.38l1.33.35c.71.17,1.33.34,1.87.49a5.88,5.88,0,0,1,1.37.58,2.5,2.5,0,0,1,.83.82,2.2,2.2,0,0,1,.29,1.2,2.88,2.88,0,0,1-1.17,2.4,5,5,0,0,1-3.12.89" transform="translate(0 0)"/>
    </g>
  </g>
</svg>
