<svg xmlns="http://www.w3.org/2000/svg" viewBox="0 0 750.99 242.29"><defs><style>.cls-1{fill:#535557;}</style></defs><g id="Calque_1" data-name="Calque 1"><path class="cls-1" d="M266,206.21H207.33c1-1.05,2-2.11,3.15-3.16,2.63-2.43,8.78-7.19,18.29-14.14,11.54-8.52,19.94-15.34,24.95-20.27s8.89-10,11.14-14.61a33.16,33.16,0,0,0,3.46-14.54c0-9.71-4-18-11.87-24.48s-18.28-9.68-31.35-9.68c-12.92,0-23.41,3-31.18,8.93S181.4,129.1,180.2,140.47a2.54,2.54,0,0,0,2.29,2.8L199,144.8a2.55,2.55,0,0,0,2.78-2.51c0-6.43,2.06-11.29,6.14-14.86s9.77-5.42,16.8-5.42c6.63,0,12,1.72,16.08,5.1s5.89,7.26,5.89,12-2.31,9.75-6.87,15.17c-4.82,5.73-14.33,13.72-28.25,23.73-9.21,6.57-16.38,12.47-21.31,17.5a55.9,55.9,0,0,0-9.89,13.37L129.72,106.1a.86.86,0,0,0-.76-.47H100.79a.86.86,0,0,0-.76.47L42.19,223.46a.85.85,0,0,0,.76,1.22H64.43a.86.86,0,0,0,.77-.48L80.53,192h67.59l15.33,32.19a.85.85,0,0,0,.76.48H266a2.54,2.54,0,0,0,2.55-2.54V208.76A2.55,2.55,0,0,0,266,206.21Zm-125.24-29.4H87.81l26.51-54.64Z" transform="translate(-24.62 -32.45)"/><path class="cls-1" d="M426.35,104.06a61.26,61.26,0,0,0-23.3,4.47c-7,2.86-14.76,7.52-23.17,13.87a32.94,32.94,0,0,0-13.42-13.25c-6.16-3.38-13.74-5.09-22.52-5.09a55,55,0,0,0-21.66,4.32A96,96,0,0,0,303.4,119.3V108.1a.84.84,0,0,0-.84-.84h-21.4a.84.84,0,0,0-.85.84v116a.85.85,0,0,0,.85.85h21.4a.85.85,0,0,0,.84-.85V138a107.22,107.22,0,0,1,17.19-9.74,42.57,42.57,0,0,1,17.34-3.87c6,0,10.68.73,13.84,2.16a15.58,15.58,0,0,1,7.17,6.34,27.42,27.42,0,0,1,3,10.73,136,136,0,0,1,.74,14.49v66a.85.85,0,0,0,.85.85H385a.85.85,0,0,0,.85-.85V149.9c0-2.09-.08-4.22-.23-6.34-.13-1.87-.3-3.58-.5-5.1a111.68,111.68,0,0,1,17.52-10.05,42.87,42.87,0,0,1,17.74-4c6,0,10.67.74,13.84,2.21a15.92,15.92,0,0,1,7.17,6.4,27.48,27.48,0,0,1,3,10.77,135.65,135.65,0,0,1,.74,14.34v66a.85.85,0,0,0,.85.85h21.39a.85.85,0,0,0,.85-.85V148.83c0-14-3.43-25.05-10.21-32.9S440.55,104.06,426.35,104.06Z" transform="translate(-24.62 -32.45)"/><path class="cls-1" d="M572.79,142.23a60.74,60.74,0,0,0-17.53-5.06,165.32,165.32,0,0,0-23.58-1.47,206.48,206.48,0,0,0-23.5,1.36c-7.9.9-14,1.74-18.2,2.49a.85.85,0,0,0-.7.83v14.37a.85.85,0,0,0,.85.84h1.14l.22,0a198.38,198.38,0,0,1,21.35-4.4,129.84,129.84,0,0,1,18.7-1.52c4.58,0,9,.21,13.26.61a41.15,41.15,0,0,1,10.73,2.3,16.13,16.13,0,0,1,7,4.74,11.64,11.64,0,0,1,2.38,7.51v1.38c-12.13.4-23.63,1-34.21,1.77a138.62,138.62,0,0,0-28.1,4.61c-7.77,2.28-13.85,5.46-18.07,9.46s-6.48,9.46-6.48,16c0,8,4.16,14.7,12.37,19.84s18,7.63,29.63,7.63a101.49,101.49,0,0,0,16.44-1.17,90.18,90.18,0,0,0,12.41-2.91,67,67,0,0,0,9.52-3.69c2.59-1.22,4.76-2.22,6.49-3v7.64a.85.85,0,0,0,.85.84h21.39a.85.85,0,0,0,.85-.84V165.5a24.39,24.39,0,0,0-3.91-14.05A28.21,28.21,0,0,0,572.79,142.23Zm-7.88,37v22.06a108.68,108.68,0,0,1-16.7,6.68,68.45,68.45,0,0,1-20.33,2.87c-8.84,0-15.48-1.2-19.73-3.55S502,201.63,502,197.09a10.49,10.49,0,0,1,5.3-9.35,41.24,41.24,0,0,1,14.6-5.28,177.45,177.45,0,0,1,20.88-2.17C551.18,179.81,558.62,179.44,564.91,179.19Z" transform="translate(-24.62 -32.45)"/><path class="cls-1" d="M703,143.05a153.63,153.63,0,0,0-19.45-4.91,116.3,116.3,0,0,0-21.66-2c-18.87,0-34.29,3.93-45.83,11.69s-17.55,18.77-17.55,32.52a37.42,37.42,0,0,0,17.84,33.2,61.88,61.88,0,0,0,20,8.07,115.28,115.28,0,0,0,25.52,2.65,110.8,110.8,0,0,0,20.64-1.86A193,193,0,0,0,703,217.18a.87.87,0,0,0,.6-.81V201a.85.85,0,0,0-.85-.85h-1.14a.79.79,0,0,0-.4.1c-1.58.82-3.75,1.81-6.44,3s-5.61,2.22-8.72,3.25a79.87,79.87,0,0,1-12,2.84,80.68,80.68,0,0,1-13.1,1.09c-12.23,0-21.82-2.63-28.52-7.83s-10-12.63-10-22.26c0-9.91,3.44-17.52,10.22-22.61S649.06,150,661,150a82.32,82.32,0,0,1,20.16,2.62,99.79,99.79,0,0,1,20.09,7.52.79.79,0,0,0,.38.09h1.14a.85.85,0,0,0,.85-.84V143.86A.86.86,0,0,0,703,143.05Z" transform="translate(-24.62 -32.45)"/><path class="cls-1" d="M740.76,142.19h-10.3a.87.87,0,0,0-.67.31c-2.7,3.38-7.42,6.93-14,10.55a.87.87,0,0,0-.44.78l.51,11.08a.85.85,0,0,0,1.18.74c2.56-1.1,4.87-2.21,6.88-3.32v61.5a.84.84,0,0,0,.85.84h16a.84.84,0,0,0,.85-.84V143A.85.85,0,0,0,740.76,142.19Z" transform="translate(-24.62 -32.45)"/><path class="cls-1" d="M57.2,232.11l-16,33.49h7.1l4.13-9H69.93l4.13,9h7.41l-16-33.49Zm10.41,19.58H54.74L61.18,238Z" transform="translate(-24.62 -32.45)"/><path class="cls-1" d="M103.54,258.5a23.94,23.94,0,0,1-4.15,1.86,13.22,13.22,0,0,1-4.32.78,10.52,10.52,0,0,1-3.34-.4,3.85,3.85,0,0,1-1.7-1.17,4.15,4.15,0,0,1-.84-2,17.9,17.9,0,0,1-.22-3.05V240.12H82.39v16.36c0,3.18,1,5.65,3,7.33s4.64,2.47,8.18,2.47a16.44,16.44,0,0,0,5.66-.89,27.28,27.28,0,0,0,4.31-2v2.2h6.58V240.12h-6.58Z" transform="translate(-24.62 -32.45)"/><path class="cls-1" d="M123.14,233.21h-6.58v6.91H113v4.7h3.6v12.23c0,3.12.93,5.44,2.77,6.91s4.4,2.09,7.77,2.09a27.34,27.34,0,0,0,3.23-.18c1.29-.13,2.46-.34,3.33-.51l.52-.1v-4.82h-.92l-.22,0a17.38,17.38,0,0,1-2,.47,13.09,13.09,0,0,1-2.6.29,9.88,9.88,0,0,1-3.12-.35,2.88,2.88,0,0,1-1.43-1.06,3.53,3.53,0,0,1-.68-1.71c-.07-.68-.11-1.65-.11-2.88V244.82h11v-4.7h-11Z" transform="translate(-24.62 -32.45)"/><path class="cls-1" d="M160.54,243c-2.78-2.39-6.5-3.61-11.07-3.61s-8.34,1.22-11.1,3.61a13.68,13.68,0,0,0,0,19.69c2.75,2.36,6.48,3.55,11.1,3.55s8.31-1.19,11.07-3.55a13.66,13.66,0,0,0,0-19.69Zm-17.38,3.33c1.47-1.4,3.53-2.09,6.31-2.09a8.71,8.71,0,0,1,6.28,2.09c1.47,1.4,2.22,3.59,2.22,6.5s-.73,5-2.23,6.46a10.25,10.25,0,0,1-12.56,0c-1.5-1.46-2.23-3.56-2.23-6.44S141.67,247.79,143.16,246.37Z" transform="translate(-24.62 -32.45)"/><path class="cls-1" d="M205.47,239.43a18.5,18.5,0,0,0-5.92,1,29.7,29.7,0,0,0-5.5,2.76,8.31,8.31,0,0,0-3.29-2.6,13.71,13.71,0,0,0-5.75-1.12,15.82,15.82,0,0,0-5.5,1,24.5,24.5,0,0,0-4.14,1.93v-2.2h-6.58V265.6h6.58V247.25a29.39,29.39,0,0,1,4-1.87,11.66,11.66,0,0,1,4.17-.79,10.15,10.15,0,0,1,3.29.42,3.33,3.33,0,0,1,1.58,1.17,4.7,4.7,0,0,1,.68,2,23.89,23.89,0,0,1,.18,3V265.6h6.58V249.45c0-.44,0-.89-.06-1.34,0-.27-.05-.54-.08-.78a26.64,26.64,0,0,1,4-1.91,11.81,11.81,0,0,1,4.26-.83,9.68,9.68,0,0,1,3.29.43,3.42,3.42,0,0,1,1.58,1.17,4.63,4.63,0,0,1,.69,2.06,24.42,24.42,0,0,1,.17,2.92V265.6h6.58V249.24a9.72,9.72,0,0,0-2.67-7.21C211.83,240.31,209.09,239.43,205.47,239.43Z" transform="translate(-24.62 -32.45)"/><path class="cls-1" d="M246.46,243c-2.77-2.39-6.49-3.61-11.06-3.61s-8.34,1.22-11.11,3.61a13.68,13.68,0,0,0,0,19.69c2.75,2.36,6.49,3.55,11.11,3.55s8.3-1.19,11.07-3.55a13.65,13.65,0,0,0,0-19.69Zm-2.57,9.83c0,2.9-.73,5-2.23,6.46a10.27,10.27,0,0,1-12.56,0c-1.5-1.47-2.22-3.58-2.22-6.45s.72-5.08,2.2-6.5,3.54-2.09,6.32-2.09a8.7,8.7,0,0,1,6.27,2.09C243.16,247.78,243.89,249.91,243.89,252.87Z" transform="translate(-24.62 -32.45)"/><path class="cls-1" d="M261.39,233.21h-6.58v6.91h-3.6v4.7h3.6v12.23c0,3.12.93,5.44,2.77,6.91s4.4,2.09,7.77,2.09a27.34,27.34,0,0,0,3.23-.18c1.29-.13,2.46-.34,3.33-.51l.52-.1v-4.82h-.92l-.22,0a17.38,17.38,0,0,1-2,.47,13.09,13.09,0,0,1-2.6.29,10,10,0,0,1-3.13-.35,2.88,2.88,0,0,1-1.43-1.07,3.29,3.29,0,0,1-.67-1.69c-.07-.71-.11-1.71-.11-2.89V244.82h11v-4.7h-11Z" transform="translate(-24.62 -32.45)"/><rect class="cls-1" x="250.07" y="207.67" width="6.58" height="25.47"/><rect class="cls-1" x="249.75" y="199.43" width="7.23" height="5.46"/><polygon class="cls-1" points="285.14 207.68 275.8 226.19 266.31 207.68 259.14 207.68 272.55 233.15 278.68 233.15 292.19 207.68 285.14 207.68"/><path class="cls-1" d="M342.76,242.44c-2.43-2-5.9-3-10.31-3-4.74,0-8.63,1.23-11.56,3.65a12.19,12.19,0,0,0-4.47,9.92,11.46,11.46,0,0,0,4.67,9.76c3.06,2.26,7.33,3.4,12.69,3.4a28,28,0,0,0,6-.61,47.74,47.74,0,0,0,5.56-1.47l.44-.14v-5.51H344.7l-.16.11a19,19,0,0,1-4.5,1.85,20.49,20.49,0,0,1-10.63.45,10.2,10.2,0,0,1-3.3-1.48,7,7,0,0,1-2.21-2.47,7.41,7.41,0,0,1-.79-2.95h23.35v-2.86A10.67,10.67,0,0,0,342.76,242.44Zm-17.05,3.43a10.69,10.69,0,0,1,6.47-1.79c2.67,0,4.67.54,5.94,1.61a5.26,5.26,0,0,1,1.87,3.84H323.21A6.37,6.37,0,0,1,325.71,245.87Z" transform="translate(-24.62 -32.45)"/><path class="cls-1" d="M393.4,246.35a10.85,10.85,0,0,0,2.74-2,6.19,6.19,0,0,0,1.68-4.34,6.46,6.46,0,0,0-1.15-3.88,8.17,8.17,0,0,0-3.66-2.62,17.71,17.71,0,0,0-4.55-1.1,61.72,61.72,0,0,0-7-.27H368.3V265.6h15.61a37.63,37.63,0,0,0,7.39-.61,18.63,18.63,0,0,0,5.44-2.12,10,10,0,0,0,3.39-3.21,8.18,8.18,0,0,0,1.29-4.61,7.76,7.76,0,0,0-2.66-6A12.6,12.6,0,0,0,393.4,246.35ZM375.21,250h8.17c1.64,0,3.21.05,4.65.15a12.14,12.14,0,0,1,3.13.66,5.47,5.47,0,0,1,2.48,1.7,5,5,0,0,1,.67,2.76,4.16,4.16,0,0,1-.63,2.41,5.76,5.76,0,0,1-2.1,1.72,10.78,10.78,0,0,1-3.63,1,52,52,0,0,1-6,.29h-6.77Zm15-7.28a3.56,3.56,0,0,1-1.62,1.41,8.38,8.38,0,0,1-2.67.8,36.29,36.29,0,0,1-4.12.2h-6.61v-8h6c1.88,0,3.4.06,4.67.16a8.4,8.4,0,0,1,3,.68,2.86,2.86,0,0,1,1.34,1,2.93,2.93,0,0,1,.42,1.62A4.56,4.56,0,0,1,390.23,242.67Z" transform="translate(-24.62 -32.45)"/><path class="cls-1" d="M428.86,242.44c-2.43-2-5.89-3-10.28-3-4.76,0-8.66,1.23-11.58,3.65a12.21,12.21,0,0,0-4.46,9.92,11.45,11.45,0,0,0,4.66,9.76c3.05,2.26,7.32,3.4,12.68,3.4a28.37,28.37,0,0,0,6-.61,45.77,45.77,0,0,0,5.57-1.47l.43-.14v-5.51h-1.12l-.16.11a18.85,18.85,0,0,1-4.46,1.85,20.56,20.56,0,0,1-10.65.45,10.46,10.46,0,0,1-3.29-1.48,6.72,6.72,0,0,1-2.21-2.48,7.16,7.16,0,0,1-.8-2.94h23.36v-2.86A10.68,10.68,0,0,0,428.86,242.44Zm-2.76,7.09H409.31a6.43,6.43,0,0,1,2.51-3.66,10.69,10.69,0,0,1,6.47-1.79c2.65,0,4.66.54,6,1.6A5.36,5.36,0,0,1,426.1,249.53Z" transform="translate(-24.62 -32.45)"/><path class="cls-1" d="M453.06,239.43a17.16,17.16,0,0,0-5.66.95,23.49,23.49,0,0,0-4.34,1.93v-2.19h-6.58V265.6h6.58V247.25a27.67,27.67,0,0,1,4.14-1.86,13.2,13.2,0,0,1,4.36-.8,11.72,11.72,0,0,1,3.27.4,3.61,3.61,0,0,1,1.76,1.19,4.17,4.17,0,0,1,.8,2,18.16,18.16,0,0,1,.24,3V265.6h6.59V249.24a9.29,9.29,0,0,0-2.91-7.28C459.38,240.28,456.6,239.43,453.06,239.43Z" transform="translate(-24.62 -32.45)"/><path class="cls-1" d="M489.71,240.17a26,26,0,0,0-5.48-.58c-4.81,0-8.73,1.19-11.64,3.52a11.77,11.77,0,0,0-4.54,9.8,13.31,13.31,0,0,0,1.22,5.84,11.16,11.16,0,0,0,3.37,4.19,14.86,14.86,0,0,0,5.13,2.42,24.68,24.68,0,0,0,6.46.8,22.2,22.2,0,0,0,5.22-.57,38.48,38.48,0,0,0,5.14-1.53l.42-.15v-5.58h-1.12l-.15.1a17.28,17.28,0,0,1-1.55.84,21.67,21.67,0,0,1-2.13.94,16,16,0,0,1-2.9.81c-4.5.86-7.84.08-10-1.88a8,8,0,0,1-2.35-6.23c0-2.79.81-4.93,2.41-6.35a9.88,9.88,0,0,1,6.74-2.15,17.06,17.06,0,0,1,4.88.76,21.73,21.73,0,0,1,4.89,2.17l.15.08H495v-5.64l-.42-.15A41.06,41.06,0,0,0,489.71,240.17Z" transform="translate(-24.62 -32.45)"/><path class="cls-1" d="M514.26,239.43a17.45,17.45,0,0,0-5.68.95,23,23,0,0,0-4.31,1.93V230.68h-6.58V265.6h6.58V247.25a25.6,25.6,0,0,1,4.14-1.86A12.94,12.94,0,0,1,516,245a3.58,3.58,0,0,1,1.75,1.18,4.2,4.2,0,0,1,.8,2,16.22,16.22,0,0,1,.24,3V265.6h6.58V249.24a9.24,9.24,0,0,0-2.9-7.28C520.59,240.29,517.82,239.43,514.26,239.43Z" transform="translate(-24.62 -32.45)"/><path class="cls-1" d="M568.2,239.43a18.68,18.68,0,0,0-5.92,1,29.63,29.63,0,0,0-5.49,2.76,8.26,8.26,0,0,0-3.29-2.6,13.7,13.7,0,0,0-5.76-1.12,15.78,15.78,0,0,0-5.5,1,23.59,23.59,0,0,0-4.12,1.93v-2.2h-6.58V265.6h6.58V247.25a29.47,29.47,0,0,1,4-1.87,11.47,11.47,0,0,1,4.14-.79,10.68,10.68,0,0,1,3.3.42,3.31,3.31,0,0,1,1.58,1.17,5,5,0,0,1,.69,2,27.89,27.89,0,0,1,.17,3V265.6h6.58V249.45c0-.44,0-.89-.06-1.34,0-.27,0-.54-.07-.77a24.06,24.06,0,0,1,4-1.92,11.74,11.74,0,0,1,4.27-.83A9.63,9.63,0,0,1,570,245a3.42,3.42,0,0,1,1.59,1.18,4.36,4.36,0,0,1,.67,2.06,20.11,20.11,0,0,1,.18,2.91V265.6H579V249.24a9.6,9.6,0,0,0-2.66-7.21C574.56,240.31,571.82,239.43,568.2,239.43Z" transform="translate(-24.62 -32.45)"/><path class="cls-1" d="M607,241.52a14.31,14.31,0,0,0-4.48-1.5,34.4,34.4,0,0,0-5.93-.43,45.53,45.53,0,0,0-5.89.38c-2,.27-3.51.51-4.53.72l-.51.1v5.28h.64l.45,0a44.27,44.27,0,0,1,5.24-1.22,28.32,28.32,0,0,1,7.79-.25,9.62,9.62,0,0,1,2.53.63,3.66,3.66,0,0,1,1.58,1.23,3.33,3.33,0,0,1,.51,1.93h0c-3.2.14-5.79.3-8.11.5a29.25,29.25,0,0,0-7.07,1.37,10.62,10.62,0,0,0-4.67,2.85,7,7,0,0,0-1.72,4.87,7.21,7.21,0,0,0,3.24,6,12.71,12.71,0,0,0,7.62,2.28,22.4,22.4,0,0,0,4.16-.32,17.89,17.89,0,0,0,3.16-.88,16.32,16.32,0,0,0,2.43-1.07q.52-.31,1-.54v2.13H611v-17a8.45,8.45,0,0,0-1-4.26A7.88,7.88,0,0,0,607,241.52Zm-2.6,11.42v5.73a24.65,24.65,0,0,1-3.87,1.78,15.1,15.1,0,0,1-4.92.79,8.56,8.56,0,0,1-4.66-1,2.81,2.81,0,0,1-1.34-2.6,2.85,2.85,0,0,1,1.16-2.4,9,9,0,0,1,3.44-1.42,39.23,39.23,0,0,1,5.14-.63C601.26,253.1,603,253,604.41,252.94Z" transform="translate(-24.62 -32.45)"/><path class="cls-1" d="M636.31,240.26l-.64-.07a20.8,20.8,0,0,0-2.08-.07,15.91,15.91,0,0,0-5.16.86,27.29,27.29,0,0,0-4.76,2.25v-3.11h-6.58V265.6h6.58V248.13a25.65,25.65,0,0,1,4-1.92,14.16,14.16,0,0,1,4.57-.78c1,0,1.89,0,2.59.08s1.48.19,2.37.33h.93v-5.4l-.57-.05Z" transform="translate(-24.62 -32.45)"/><polygon class="cls-1" points="644.53 207.68 635.7 207.68 621.15 219.12 621.15 198.24 614.57 198.24 614.57 233.15 621.15 233.15 621.15 224.78 623.95 222.74 636.42 233.15 645.46 233.15 628.94 219.52 644.53 207.68"/><rect class="cls-1" x="645.47" y="199.43" width="7.23" height="5.46"/><rect class="cls-1" x="645.81" y="207.67" width="6.58" height="25.47"/><path class="cls-1" d="M700,239.43a17.41,17.41,0,0,0-5.68.95,23,23,0,0,0-4.32,1.93v-2.19h-6.58V265.6H690V247.25a25.79,25.79,0,0,1,4.14-1.86,13,13,0,0,1,7.62-.4,3.56,3.56,0,0,1,1.76,1.19,4.13,4.13,0,0,1,.8,2,17,17,0,0,1,.24,3V265.6h6.58V249.24a9.22,9.22,0,0,0-2.9-7.28C706.36,240.29,703.59,239.43,700,239.43Z" transform="translate(-24.62 -32.45)"/><path class="cls-1" d="M738.18,240.12l-.27.83a21.88,21.88,0,0,0-3.41-1.06,20.13,20.13,0,0,0-10.21.45,13.34,13.34,0,0,0-4.72,2.51,12.56,12.56,0,0,0-3.31,4.12,12.32,12.32,0,0,0-1.23,5.65c0,4,1.16,7.06,3.55,9.32a13.42,13.42,0,0,0,9.48,3.3,18.91,18.91,0,0,0,5.83-.76,22.67,22.67,0,0,0,3.77-1.69v1.1a7.3,7.3,0,0,1-.38,2.44A4.09,4.09,0,0,1,736,268.1a6,6,0,0,1-2.5,1.26,24.6,24.6,0,0,1-9.94-.08c-1.87-.39-3.25-.69-4.11-.94l-1.1,0v5.3l.51.1c1.6.32,3.21.58,4.79.77a44.38,44.38,0,0,0,5,.26c5.2,0,9.13-1,11.69-3s3.9-5.24,3.9-9.51V240.12Zm-.52,5.44v12.38a18,18,0,0,1-3.86,1.57,16,16,0,0,1-4.5.66c-2.71,0-4.65-.64-5.77-1.89s-1.73-3.21-1.73-5.74a7.77,7.77,0,0,1,2.33-6.08,9.52,9.52,0,0,1,6.53-2.1,21.61,21.61,0,0,1,3.56.31A22.79,22.79,0,0,1,737.66,245.56Z" transform="translate(-24.62 -32.45)"/><path class="cls-1" d="M766.92,130.4C734.44,99,609,77.13,474.3,78.35a5,5,0,0,0-2.21-3.66C425.5,43.5,377.53,32.45,288.77,32.45c-61.67,0-121.94,11.9-169.69,33.52S38,117.91,25,151.46A5.08,5.08,0,0,0,27.87,158a4.91,4.91,0,0,0,1.83.35,5.07,5.07,0,0,0,4.74-3.25C59.74,89.94,166.69,42.62,288.77,42.62c81.92,0,128,9.52,170.58,36-4.18.09-8.35.2-12.54.33a4.24,4.24,0,0,0,.28,8.47c159.42-5.17,284.8,20.91,313.94,49.11,4.05,3.92,6.1,7.76,6.1,11.41a4.24,4.24,0,0,0,8.48,0C775.61,141.87,772.69,136,766.92,130.4Z" transform="translate(-24.62 -32.45)"/></g></svg>