<svg id="Layer_1" data-name="Layer 1" xmlns="http://www.w3.org/2000/svg" viewBox="0 0 743.12 280.39"><defs><style>.cls-1{fill:#535558;}</style></defs><polygon class="cls-1" points="390.03 6.88 337.11 6.88 336.54 7.34 356.24 31.48 257.59 70.96 181.9 131.95 309.18 131.95 350.95 98.5 375.47 98.5 416.77 131.95 544.99 131.95 390.03 6.88"/><polygon class="cls-1" points="328.42 6.88 316.31 16.33 319.04 19.68 322.52 23.94 317.5 26.21 284.54 41.11 244.26 72.53 346.55 29.1 328.42 6.88"/><polygon class="cls-1" points="285.35 16.01 272.29 0 211.66 47.3 285.35 16.01"/><polygon class="cls-1" points="298.44 2.62 288 11.41 290.39 14.35 293.07 17.63 289.18 19.28 267.94 28.3 229.18 60.94 314.54 22.35 298.44 2.62"/><path class="cls-1" d="M180.15,506.66H71.31L49.18,530H29.7l82.2-87.14h28L222,530H202ZM85.76,491.28H165.7l-35.32-37H120.7Z" transform="translate(-29.7 -252.89)"/><path class="cls-1" d="M223.62,442.83v40.51c0,13.06,1.89,20.34,8.67,25,13,8.76,31.93,9.43,58.07,9.43,24,0,42.61-.17,56.06-7.11,9.42-5,12.06-12.57,12.06-27.29V442.83h14.21v40.51c0,19-4.28,30.59-15.21,38.2-15,10.42-36.58,11.74-66.36,11.74-26.9,0-47.14-1.16-61.09-8.44-15.08-7.93-20.74-20-20.74-41.5V442.83Z" transform="translate(-29.7 -252.89)"/><path class="cls-1" d="M384.48,442.83H504.64c12.82,0,21.49,1.15,26.14,4.13,7.79,5,11.44,12.57,11.44,23.48,0,14.55-7,24.31-20.37,27.45L552.65,530H531l-27.9-29.6H398.68V530h-14.2ZM503.76,485c16.08,0,23.87-3.8,23.87-14.38,0-9.92-6.28-12.24-20.1-12.24H398.68V485Z" transform="translate(-29.7 -252.89)"/><path class="cls-1" d="M560.17,442.83H574.5V530H560.17Z" transform="translate(-29.7 -252.89)"/><path class="cls-1" d="M731,506.66H622.13L600,530H580.52l82.2-87.14h28L772.82,530h-20Zm-94.39-15.38h79.94l-35.32-37h-9.68Z" transform="translate(-29.7 -252.89)"/></svg>