<?xml version="1.0" encoding="utf-8"?>
<!-- Generator: Adobe Illustrator 25.3.1, SVG Export Plug-In . SVG Version: 6.00 Build 0)  -->
<svg version="1.1" id="Layer_1" xmlns="http://www.w3.org/2000/svg" xmlns:xlink="http://www.w3.org/1999/xlink" x="0px" y="0px"
	 viewBox="0 0 800 153.63" style="enable-background:new 0 0 800 153.63;" xml:space="preserve">
<style type="text/css">
	.st0{fill:#535557;}
</style>
<g>
	<g>
		<path class="st0" d="M106.06,62.04c3.86-4.6,7.77-8.94,12.28-12.68c0.13,0.07,0.27,0.14,0.4,0.22c0.1,1.75,0.21,3.51,0.31,5.26
			c0.15,2.74,0.14,2.7,2.91,2.75c2.26,0.04,4.52,0.19,7.24,0.31c-0.84,1.49-1.49,2.74-2.26,3.91c-0.16,0.25-0.75,0.3-1.14,0.31
			c-1.74,0.03-3.47,0.04-5.21,0c-0.87-0.02-1.29,0.25-1.29,1.19c-0.05,5.58-0.27,11.16-0.15,16.74c0.04,2.02,0.64,4.08,1.32,6.01
			c1.26,3.58,4.97,4.24,8.6,2.62c-0.17-0.52-0.34-1.06-0.53-1.59c-1.7-4.86-2.64-9.81-1.87-14.98c0.33-2.21,1.09-4.27,2.57-5.96
			c4.67-5.33,10.34-9.1,17.33-10.69c2.56-0.58,5.1-0.47,7.55,0.54c13.76,5.66,15.52,21.68,9.55,30.27c-0.82,1.18-1.75,2.38-2.9,3.2
			c-3.7,2.65-7.51,5.21-11.88,6.6c-7.39,2.36-11.81,0.56-17.77-5.37c-0.15-0.14-0.26-0.32-0.38-0.49c-0.6-0.91-1.18-1.03-1.88-0.06
			c-0.67,0.94-1.49,1.78-2.13,2.74c-1.88,2.86-4.61,3.39-7.72,2.93c-0.45-0.07-0.9-0.16-1.34-0.26c-5.79-1.35-8.27-4.35-8.35-10.47
			c-0.08-6.41,0.02-12.82,0.08-19.23c0.03-2.87,0.04-2.9-2.71-3.52C106.58,62.33,106.48,62.25,106.06,62.04z M157.32,80.03
			c-0.03-4.03-0.83-7.9-2.62-11.51c-1.86-3.75-4.39-6.83-8.69-7.93c-3.98-1.03-6.79,0.22-8.31,4.05c-0.83,2.08-1.36,4.35-1.58,6.58
			c-0.61,6.06,0.63,11.7,4.67,16.48c1.78,2.11,4.06,3.51,6.68,4.34c2.98,0.94,5.94-0.3,7.74-3.2
			C156.88,86.15,157.29,83.13,157.32,80.03z"/>
		<path class="st0" d="M421.94,68.31c0.11-7.34-0.54-14.62-1.69-21.86c-0.33-2.07-0.16-2.27,1.97-2.34
			c2.19-0.07,4.38-0.07,6.57-0.11c1.01-0.02,1.27,0.51,1.15,1.44c-1.15,8.54-1.46,17.13-1.54,25.74
			c-0.06,6.74-0.07,13.48-0.11,20.22c-0.01,2.34-0.11,2.42-2.45,2.49c-2.27,0.07-4.55,0.1-6.82,0.27c-1.41,0.1-2.27-0.49-2.89-1.66
			c-1.36-2.56-2.66-5.15-4.12-7.64c-4.44-7.56-8.94-15.08-13.42-22.62c-0.04-0.07-0.08-0.16-0.14-0.2c-0.6-0.44-1.21-0.87-1.82-1.31
			c-0.23,0.67-0.67,1.34-0.65,2c0.29,9.01,0.63,18.01,1.01,27.02c0.05,1.15,0.44,2.28,0.53,3.42c0.03,0.31-0.45,0.94-0.69,0.94
			c-2.81,0.01-5.62-0.05-8.42-0.2c-0.26-0.01-0.72-0.78-0.69-1.16c0.17-2.01,0.58-4.01,0.72-6.02c0.46-6.64,0.89-13.27,1.22-19.92
			c0.15-3.1-0.08-6.21,0.05-9.31c0.17-3.85-0.5-7.46-2.18-10.94c-1.07-2.22-0.97-2.36,1.5-2.45c3.68-0.14,7.36-0.12,11.04-0.19
			c0.91-0.02,1.47,0.41,1.84,1.2c4.83,10.39,11.25,19.84,17.31,29.5c0.26,0.42,0.51,0.88,0.88,1.19c0.34,0.29,0.91,0.62,1.25,0.51
			c0.29-0.09,0.57-0.76,0.58-1.18C421.97,72.87,421.94,70.59,421.94,68.31z"/>
		<path class="st0" d="M191.17,94.7c0.22-1.56,0.41-2.9,0.59-4.24c0.83-6.22,0.67-12.46,0.3-18.7c-0.1-1.61-0.03-3.24-0.32-4.82
			c-0.56-3.07-2.64-4.85-5.5-5.81c-1.29-0.43-2.44-0.03-3.47,0.78c-1.81,1.43-2.77,3.41-2.81,5.6c-0.12,7.31-0.08,14.63-0.02,21.95
			c0.01,1.39,0.38,2.78,0.62,4.16c0.17,0.95-0.22,1.27-1.13,1.27c-2.76-0.02-5.52,0-8.29,0.01c-2.08,0.01-2.23-0.16-2.15-2.28
			c0.22-5.83,0.43-11.66,0.63-17.48c0.18-5.34,0.1-10.66-1.19-15.9c-0.39-1.59-0.23-1.69,1.39-1.69c2.44,0,4.88,0.05,7.32,0
			c1-0.02,1.39,0.34,1.51,1.32c0.17,1.44,0.48,1.58,1.74,0.89c1.45-0.79,2.87-1.65,4.28-2.51c5.18-3.13,10.16-1.52,13.88,2.63
			c1.82,2.03,1.75,2.08,3.9,0.44c1.35-1.03,2.67-2.09,4.09-3.02c2.63-1.73,5.48-1.98,8.43-0.96c2.53,0.87,4.87,2.07,6.66,4.15
			c1.28,1.48,2.08,3.15,2.09,5.17c0.01,4.05,0.24,8.11,0.06,12.15c-0.22,4.94-0.13,9.83,0.73,14.7c0.29,1.65,0.01,1.88-1.64,1.89
			c-2.81,0.02-5.62,0.02-8.43,0.1c-1.25,0.03-1.26-0.74-1.1-1.55c0.82-4.09,0.75-8.22,0.73-12.36c-0.02-3.68,0.04-7.37-0.04-11.05
			c-0.05-2.56-0.55-5.03-2.55-6.9c-0.06-0.06-0.12-0.12-0.18-0.17c-2.66-2.35-5.23-2.05-7.24,0.87c-1.72,2.49-2.24,5.39-2.21,8.27
			c0.07,6.86,0.34,13.72,0.65,20.57c0.1,2.24,0.28,2.22-1.98,2.29c-2.56,0.07-5.12,0.16-7.68,0.23
			C192.39,94.71,191.9,94.7,191.17,94.7z"/>
		<path class="st0" d="M491.69,72.86c-0.25,0.57-0.44,0.88-0.53,1.23c-1.15,4.69-2.32,9.38-3.39,14.09
			c-0.29,1.28-0.31,2.62-0.42,3.94c-0.07,0.81-0.32,1.31-1.26,1.31c-2.9,0.01-5.79,0.06-8.69,0.14c-1.08,0.03-1.5-0.36-1.64-1.48
			c-1.36-10.75-4.5-20.98-9.01-30.81c-0.53-1.16-1.2-2.26-1.8-3.4c-0.37-0.7-0.19-1.11,0.66-1.11c3.59,0.02,7.19,0.04,10.78,0.05
			c0.74,0,1.04,0.37,1.03,1.08c-0.06,4.2,1.19,8.14,2.4,12.1c1.02,3.32,1.87,6.69,2.82,10.02c0.23,0.82,0.59,1.6,0.89,2.4
			c0.14,0.05,0.29,0.1,0.43,0.15c0.34-0.53,0.87-1.01,1-1.58c1.26-5.39,2.56-10.77,3.61-16.2c0.38-1.96,0.13-4.04,0.16-6.06
			c0.03-1.61,0.19-1.76,1.78-1.82c2.35-0.1,4.71-0.21,7.06-0.34c0.97-0.05,1.53,0.31,1.44,1.35c-0.56,6.38,1.81,12.19,3.54,18.12
			c0.51,1.74,0.95,3.51,1.47,5.25c0.1,0.34,0.47,0.6,0.71,0.89c0.32-0.28,0.68-0.53,0.96-0.85c0.15-0.17,0.18-0.46,0.25-0.69
			c1.24-4.06,2.48-8.13,3.73-12.19c1.07-3.45,1.84-6.95,1.71-10.6c-0.02-0.68,0.2-1,0.89-1.03c1.9-0.08,3.8-0.17,5.7-0.27
			c1.08-0.06,1.35,0.43,0.95,1.38c-0.29,0.69-0.58,1.37-0.89,2.05c-3.8,8.24-6.71,16.8-8.91,25.59c-0.56,2.23-0.64,4.58-0.87,6.88
			c-0.08,0.82-0.38,1.22-1.2,1.22c-3.02-0.01-6.04-0.01-9.05-0.01c-0.78,0-1.05-0.48-1.12-1.2c-0.68-6.55-3.31-12.61-4.8-18.95
			C492.05,73.36,491.92,73.23,491.69,72.86z"/>
		<path class="st0" d="M44.23,44.61c1.94,0,3.89,0.03,5.83-0.01c0.88-0.02,1.3,0.38,1.4,1.21c0.91,7.7,3.52,14.93,6.18,22.15
			c2.37,6.43,4.64,12.91,7.04,19.33c0.69,1.85,1.72,3.57,2.52,5.39c0.23,0.52,0.2,1.16,0.3,1.74c-0.6,0.07-1.2,0.2-1.79,0.19
			c-3.09-0.05-6.18-0.14-9.27-0.19c-0.89-0.01-1.79,0.07-2.68,0.11c-0.03-0.87-0.02-1.74-0.08-2.61c-0.3-3.78-1.28-7.4-2.68-10.9
			c-0.18-0.45-0.9-0.97-1.38-0.98c-3.92-0.13-7.85-0.17-11.77-0.2c-1.62-0.01-2.56,1.02-2.91,2.43c-0.76,2.99-1.38,6.02-2,9.05
			c-0.16,0.8-0.14,1.64-0.16,2.47c-0.02,0.91-0.43,1.43-1.35,1.39c-0.95-0.04-1.89-0.23-2.83-0.23c-1.39,0.01-2.77,0.15-4.16,0.19
			c-0.43,0.01-0.92-0.04-1.27-0.25c-0.13-0.08-0.02-0.76,0.15-1.08c4.21-7.7,7.03-15.95,9.45-24.33c1.67-5.79,3.21-11.62,4.53-17.5
			c0.41-1.82,0.01-3.85-0.22-5.76c-0.18-1.51-0.23-1.64,1.33-1.68c1.94-0.04,3.89-0.01,5.83-0.01
			C44.23,44.55,44.23,44.58,44.23,44.61z M37.26,74.48c3.37,0,6.41,0.06,9.46-0.02c2.01-0.05,2.29-0.52,1.67-2.45
			c-1.65-5.2-3.31-10.39-5.02-15.57c-0.19-0.59-0.7-1.08-1.06-1.62c-0.34,0.56-0.84,1.09-0.99,1.7c-1.2,4.89-2.35,9.8-3.49,14.71
			C37.61,72.22,37.48,73.24,37.26,74.48z"/>
		<path class="st0" d="M291.21,88.06c-0.83,0.69-1.75,1.31-2.46,2.1c-0.9,1.02-1.64,2.18-2.43,3.29c-1.22,1.69-2.83,2.52-4.93,2.18
			c-1.87-0.3-3.78-0.54-5.59-1.05c-4.31-1.22-6.3-4.15-6.3-9.21c0-4.51,0.13-9.01,0.16-13.52c0.02-2.61-0.11-5.21-0.07-7.82
			c0.02-1.17-0.43-1.65-1.56-1.65c-0.51,0-1.02-0.12-1.82-0.23c4.26-4.54,8.2-8.98,12.94-13.22c0.13,2.08,0.28,3.75,0.32,5.42
			c0.09,3.23,0.06,3.26,3.35,3.3c1.69,0.02,3.39-0.07,5.09-0.11c0.4-0.01,0.8,0,1.22,0c-0.29,2.58-2.23,4.35-4.61,4.4
			c-1.2,0.02-2.39,0.14-3.59,0.21c-0.93,0.06-1.43,0.47-1.44,1.47c-0.01,2.1-0.07,4.21-0.09,6.31c-0.04,3.97-0.05,7.94-0.1,11.91
			c-0.08,5.97,2.57,7.83,8.38,7.22c2.97-0.31,4.11-1.46,4.39-4.4c0.21-2.21,0.31-4.46,0.24-6.68c-0.17-5.33-0.45-10.66-0.75-15.98
			c-0.06-1.15-0.32-2.3-0.6-3.41c-0.26-1.05,0.18-1.39,1.11-1.39c0.83,0,1.65,0.06,2.48,0.07c2.07,0.04,4.13,0.03,6.2,0.11
			c1.51,0.06,1.7,0.35,1.57,1.82c-0.21,2.3-0.57,4.61-0.55,6.91c0.06,6.45,0.24,12.9,0.45,19.34c0.09,2.56,0.38,5.11,0.61,7.66
			c0.08,0.86-0.17,1.4-1.1,1.39c-3.1-0.02-6.2-0.03-9.29-0.13c-0.31-0.01-0.8-0.59-0.84-0.94c-0.09-0.77,0.09-1.56,0.11-2.35
			c0.03-0.93,0.01-1.85,0.01-2.78C291.54,88.22,291.37,88.14,291.21,88.06z"/>
		<path class="st0" d="M92.86,91.19c-0.95,0.54-1.6,0.88-2.21,1.27c-2.62,1.68-5.27,3.33-8.43,3.75c-1.29,0.17-2.71,0.27-3.92-0.09
			c-5.32-1.58-9.5-4.52-10.8-10.31c-0.29-1.31-0.19-2.71-0.2-4.07c-0.01-5.01,0.07-10.01-0.02-15.02c-0.05-2.51-0.38-5.03-0.63-7.53
			c-0.13-1.28,0.08-1.61,1.35-1.59c0.95,0.02,1.89,0.25,2.83,0.23c1.98-0.06,3.96-0.16,5.93-0.37c0.98-0.1,1.48,0.14,1.32,1.15
			c-1.01,6.42-0.24,12.88-0.52,19.32c-0.09,2.01-0.01,4.07,0.34,6.05c0.58,3.25,2.54,5.51,5.68,6.65c2.77,1,5.04,0.43,6.6-2.07
			c0.95-1.53,1.5-3.38,1.9-5.16c0.35-1.55,0.25-3.21,0.31-4.82c0.09-2.35,0.26-4.71,0.2-7.06c-0.1-3.71-0.36-7.42-0.55-11.13
			c-0.01-0.16-0.07-0.33-0.08-0.49c-0.17-2.28-0.14-2.38,1.92-2.39c2.6-0.01,5.21-0.16,7.81-0.2c1.45-0.02,1.42,0.1,1.32,1.61
			c-0.28,4.25-0.44,8.51-0.7,12.76c-0.39,6.34-0.07,12.65,0.64,18.94c0.1,0.85,0.45,1.67,0.64,2.52c0.27,1.19,0,1.53-1.18,1.55
			c-2.48,0.05-4.96,0.06-7.44,0.15c-1.23,0.05-1.72-0.52-1.81-1.66C93.13,92.6,93,92.05,92.86,91.19z"/>
		<path class="st0" d="M266.58,73.33c0.02,8.44-2.47,13.71-7.99,17.28c-2.91,1.88-6.01,3.47-9.07,5.1c-2.2,1.17-4.58,1.31-7,0.75
			c-1.05-0.24-2.1-0.44-3.14-0.73c-4.16-1.14-7.34-3.58-9.39-7.38c-2.09-3.9-3.65-8-3.48-12.51c0.19-5.1,1.64-9.66,5.94-12.94
			c3.6-2.74,7.34-5.23,11.52-7c3.74-1.58,7.42-1.36,10.99,0.56C262.48,60.48,266.43,66.7,266.58,73.33z M257.07,78.69
			c-0.05-0.61-0.12-1.8-0.27-2.99c-0.85-6.57-3.49-11.89-9.95-14.75c-3.93-1.74-6.92-0.85-8.83,3c-0.29,0.59-0.56,1.2-0.75,1.83
			c-2.08,6.85-1.24,13.4,2.18,19.63c1.93,3.51,4.81,5.76,8.88,6.49c2.12,0.38,3.69-0.16,5.09-1.71
			C256.24,87.07,257.02,83.31,257.07,78.69z"/>
		<path class="st0" d="M369.01,86.92c-1.4,2.37-2.59,4.86-4.26,6.97c-0.75,0.94-2.44,1.32-3.78,1.56
			c-6.69,1.2-12.89,0.13-17.96-4.73c-7.8-7.48-7.65-20.3,0.33-27.6c3.52-3.23,7.37-6.14,12.18-7.1c7.53-1.5,12.68,1.6,16.04,7.8
			c0.23,0.42,0.14,1.24-0.13,1.66c-1.48,2.3-3.45,3.64-6.31,4.26c-5.48,1.18-10.85,2.88-16.24,4.44c-1.88,0.55-2.22,1.24-1.86,3.15
			c0.52,2.73,1.16,5.41,3.11,7.57c3.2,3.53,7.28,4.43,11.75,3.8C364.23,88.36,366.51,87.56,369.01,86.92z M347.28,67.97
			c-0.03,2.66,0.36,3.05,2.46,2.47c3.38-0.94,6.74-1.96,10.08-3.03c1.66-0.53,1.96-1.46,1.02-2.92c-1.1-1.71-2.6-3.02-4.55-3.67
			c-2.48-0.83-4.68-0.4-6.62,1.48C347.94,63.99,347.48,66.1,347.28,67.97z"/>
		<path class="st0" d="M462.83,86.3c-1.55,2.61-2.92,4.95-4.34,7.27c-0.18,0.29-0.55,0.51-0.88,0.64
			c-9.25,3.53-22.06,0.31-25.85-11.96c-2.08-6.73-0.4-15.53,7.14-21.18c3.37-2.52,6.81-4.83,11.06-5.6
			c6.22-1.13,12.67,2.15,15.27,7.9c0.22,0.48,0.12,1.32-0.17,1.79c-1.54,2.47-3.75,3.67-6.7,4.3c-5.44,1.16-10.76,2.88-16.11,4.46
			c-1.59,0.47-1.9,1.17-1.61,2.85c0.58,3.39,1.52,6.59,4.34,8.93c2.57,2.13,5.55,2.83,8.78,2.76c2.9-0.06,5.64-0.79,8.25-2
			C462.17,86.4,462.34,86.4,462.83,86.3z M447.3,60.03c-0.43,0.11-1.32,0.2-2.08,0.56c-3.53,1.65-4.53,5.53-4.25,8.39
			c0.12,1.23,0.61,1.55,1.87,1.19c3.61-1.03,7.21-2.1,10.78-3.23c1.46-0.46,1.81-1.37,0.97-2.67
			C453.01,61.79,450.84,60.13,447.3,60.03z"/>
		<path class="st0" d="M304.15,57.66c1.28,0,2.39,0.01,3.49,0c2.81-0.02,5.63-0.03,8.44-0.1c0.98-0.03,1.38,0.29,1.49,1.3
			c1.02,9.04,4.5,17.41,7.16,26c0.1,0.33,0.31,0.64,0.59,1.18c0.24-0.54,0.42-0.84,0.52-1.17c2.49-8.52,5-17.04,7.44-25.57
			c0.32-1.11,0.74-1.59,1.94-1.52c1.61,0.1,3.22,0.02,4.84,0.02c0.86,0,1.14,0.32,0.68,1.15c-4.28,7.71-6.96,16.04-9.46,24.44
			c-0.33,1.11-0.6,2.23-0.94,3.34c-0.66,2.18-0.92,4.37-0.14,6.57c0.35,0.97,0.09,1.39-0.98,1.37c-3.23-0.05-6.45-0.03-9.68-0.11
			c-2.13-0.05-2.03-0.14-2.66-2.26c-1.73-5.86-3.29-11.79-5.4-17.51c-1.98-5.38-4.57-10.54-6.89-15.8
			C304.43,58.6,304.32,58.18,304.15,57.66z"/>
		<path class="st0" d="M538.96,66.97c-0.41-0.72-0.62-1.07-0.82-1.42c-1.84-3.26-4.7-5.16-8.25-6.06c-1.98-0.5-3.53,0.02-4.33,1.29
			c-1.01,1.6-0.95,4.3,0.48,5.68c1.25,1.21,2.77,2.22,4.33,3c2.8,1.4,5.77,2.48,8.59,3.85c2.12,1.03,3.78,2.64,4.78,4.86
			c1.11,2.47,1.1,4.96-0.6,7.04c-3.81,4.68-8.46,8.36-14.51,9.53c-4.89,0.95-8.84-1.33-12.14-4.8c-0.72-0.76-0.68-1.7,0.03-2.48
			c1.32-1.47,2.69-2.9,4.1-4.41c2.1,3.95,5.74,5.67,9.6,7c1.47,0.51,3.08,0.72,4.29-0.61c1.24-1.36,1.18-3.07,0.7-4.69
			c-0.59-1.99-1.98-3.44-3.77-4.43c-1.44-0.8-2.98-1.43-4.5-2.06c-2.48-1.01-4.7-2.38-6.68-4.2c-4.48-4.1-3.49-8.64-0.37-12.17
			c2.9-3.28,6.72-5.37,10.87-6.68c1.29-0.4,2.86-0.15,4.25,0.09c2.94,0.51,5.38,2.08,7.5,4.12c0.35,0.34,0.67,1.23,0.48,1.54
			C541.78,62.93,540.44,64.8,538.96,66.97z"/>
		<path class="st0" d="M302.64,49.81c0,3.12-0.82,4.15-3.89,4.42c-1.46,0.13-2.96-0.03-4.42-0.23c-1.35-0.19-2.48-0.74-2.79-2.37
			c-0.37-1.96-0.5-3.83,1.23-5.21c0.59-0.47,1.38-0.88,2.11-0.94c1.51-0.13,3.07-0.17,4.57,0.03
			C301.9,45.82,302.64,46.94,302.64,49.81z"/>
	</g>
	<g>
		<path class="st0" d="M592.82,44.45v11.61h-2.12c-0.99-7.36-2.62-9.13-10.69-9.13h-6.94c-2.27,0-2.62,0.28-2.62,2.55v17.13h9.91
			c6.02,0,6.3-1.7,6.94-6.09h2.12v14.94h-2.12c-0.64-4.46-0.92-6.16-6.94-6.16h-9.91v15.65c0,3.47,0.28,4.67,1.77,5.31
			c1.49,0.57,4.04,0.71,7.36,0.71c8.92,0,12.11-1.13,13.73-9.77h2.12l-0.85,12.25h-37.52v-2.05c6.23-0.42,6.37-0.57,6.37-4.53V51.03
			c0-3.96-0.14-4.11-6.37-4.53v-2.05H592.82z"/>
		<path class="st0" d="M625.98,93.44l-0.71-4.25c-2.05,0.99-6.94,5.1-12.96,5.1c-5.24,0-10.05-2.48-10.05-10.62V64.98
			c0-2.55-0.42-2.9-2.27-3.19l-2.69-0.35v-1.77l11.11-1.77l0.5,0.42V82.4c0,5.52,3.04,8.07,7.15,8.07c3.68,0,7.08-2.05,8.71-5.31
			c0.35-0.71,0.57-2.27,0.57-4.25V64.98c0-2.55-0.42-2.9-2.27-3.19l-2.69-0.35v-1.77l11.11-1.77l0.5,0.42v28.95
			c0,3.61,0.42,3.75,5.31,4.11v2.05H625.98z"/>
		<path class="st0" d="M652,63.57c4.67-4.11,6.8-5.66,9.34-5.66c2.76,0,3.75,1.91,3.75,3.47c0,2.19-1.56,3.96-3.26,3.96
			c-0.35,0-0.92-0.07-1.42-0.35c-2.05-1.13-3.26-1.56-4.39-1.56c-1.63,0-4.04,1.84-4.04,7.29v16.57c0,3.61,0.42,3.75,6.73,4.11v2.05
			h-18.69v-2.05c4.96-0.35,5.31-0.5,5.31-4.11v-22.3c0-2.55-0.42-2.9-2.27-3.19l-2.69-0.35v-1.77l10.76-1.77L652,63.57z"/>
		<path class="st0" d="M699.6,76.1c0,11.47-5.52,18.19-16.99,18.19c-11.33,0-16.92-6.73-16.92-18.19s5.59-18.19,16.92-18.19
			C694.08,57.9,699.6,64.63,699.6,76.1z M682.61,91.81c6.58,0,9.63-5.95,9.63-15.72s-3.04-15.72-9.63-15.72
			c-6.44,0-9.56,5.95-9.56,15.72S676.17,91.81,682.61,91.81z"/>
		<path class="st0" d="M714.4,57.9l0.92,5.24c2.76-1.77,6.87-5.24,12.04-5.24c12.88,0,13.8,12.39,13.8,17.42
			c0,14.58-8.21,18.97-17.77,18.97c-3.26,0-6.58-0.78-8.07-1.63v10.9c0,3.61,0.42,3.75,6.37,4.11v2.05h-18.34v-2.05
			c4.96-0.35,5.31-0.5,5.31-4.11V64.98c0-2.55-0.42-2.9-2.27-3.19l-2.69-0.35v-1.77L714.4,57.9z M715.32,82.33
			c0,1.63,0.07,3.04,0.5,4.32c1.13,3.26,3.96,5.17,7.65,5.17c7.08,0,10.34-5.66,10.34-16.07c0-12.18-6.3-14.02-9.13-14.02
			c-3.75,0-6.8,1.7-8.42,4.96c-0.64,1.27-0.92,2.27-0.92,4.04V82.33z"/>
		<path class="st0" d="M753.68,74.82c-0.14,7.36,1.63,15.86,10.41,15.86c5.59,0,8.28-3.4,10.27-7.5l2.12,1.13
			c-1.91,5.59-5.95,9.91-13.8,9.98c-11.54,0.14-16.35-6.73-16.35-17.91c0-10.62,5.24-18.48,16.28-18.48
			c12.96,0,14.3,10.05,14.3,14.23c0,2.34-1.35,2.69-2.83,2.69H753.68z M767.14,72.13c1.98,0,2.41-0.92,2.41-2.27
			c0-2.76-0.78-9.49-7.36-9.49c-7.36,0-8.42,8.85-8.42,11.75H767.14z"/>
	</g>
</g>
</svg>
