<svg id="Layer_1" data-name="Layer 1" xmlns="http://www.w3.org/2000/svg" viewBox="0 0 752.54 76.89"><defs><style>.cls-1{fill:#535558;fill-rule:evenodd;}</style></defs><path class="cls-1" d="M621.83,75.24a6.67,6.67,0,0,0,.66,4.9c2.22,0,18.44-4.9,18.92-5.67,1.32-1.81-1-4.41-1.93-5.28-2.22-2.2-5.08-4.31-9.78-3.64-2.5.39-4.43,2.3-5.78,3.84C623,70.53,622.13,73.32,621.83,75.24Zm6.51,27.65c6.24,4.79,16.32,3.93,23.52.49a9.9,9.9,0,0,1,1.63-.57c-1.73,3.24-3.35,5.64-5.18,8.71a10.35,10.35,0,0,1-1.63,2.68,6.47,6.47,0,0,1-2.39,1c-6.06,2.33-14.22,1.74-19.78-.36-13.91-5.2-22.26-21.79-14.3-38.31,2.48-5.08,6.82-8.64,11.12-11.8,4.15-2.87,10-6.33,16.33-6.33,5.56,0,10.46,1.62,13.62,4.6,1.25,1.15,6.35,7,6.05,8.83a69.66,69.66,0,0,1-4.71,5.49c-1.8,1.13-5.75,1.5-8,2-6,1.42-12.28,3.15-17.95,5.07-1.44.49-3.55,1-4.79,1.91-1.63,1.17-.19,4.82.1,6.34A16,16,0,0,0,628.34,102.89ZM556.65,42c-4.62.2-10.18-.39-13.43.69C544.38,46,545.9,49,546.87,52a29.41,29.41,0,0,1,.75,6.9c.11,4.61,0,22.26-.27,27A205.74,205.74,0,0,1,545,109.6a12.3,12.3,0,0,0-.19,4.89c.78,0,1.72-.09,2.89-.09,8.24.87,11.78,0,11.78,0-2.57-10-1.61-22.45-2.38-34.26-.19-3.46-.68-9.69,0-13.24a2.24,2.24,0,0,1,.38-.58c1.55-.19,2.59,1.63,3.27,2.68,4.21,7,8.55,13.92,12.77,21,3,4.91,5.57,9.7,8.92,16,1.44,2.69,3.74,7.57,5.09,8.35,1.05.59,13.44-.2,15.65-.37,1-4.14-.41-9.89.27-15.26,0,0-.07.08,0-6.35.21-10.46.21-19.56.77-30.6.2-4.53,1.35-15.93,1.54-17.09a11.44,11.44,0,0,0,.11-2.58,104.32,104.32,0,0,0-14.41.28v.85a31,31,0,0,0,.69,5.19c.73,6,1.52,13.15,1.82,19.38.19,3.17-.2,6.44.19,9.6,0,.29-.11,4.51-.19,4.51.08,1.84.08,5.86.19,5.86s-.29.85-.39.85a1.38,1.38,0,0,1-1.34.12c-1.26-.6-3.36-4.9-4.33-6.15-6.91-10.09-12.58-20.44-19-31-1-1.44-3.82-8.92-4.7-9.41S557.9,42,556.65,42ZM412,44a7.07,7.07,0,0,0-5,2.3A6.83,6.83,0,0,0,406,52.49c.3.88.18,1.73.65,2.41,1.65,2.69,11.45,3.18,14,1,2-1.64,2.3-6.91.84-9.52S415.56,44,412,44ZM388.4,49c-4.51,4.22-8.92,8.64-13.16,13.25A46,46,0,0,1,369.48,68c.2.1.11.2,0,.49,1.93.28,3.18.28,4.91.57,0,7.58.11,15.26.28,23,0,3.85-.56,7.58-.28,11.51.76,9.21,6.34,11.72,15.26,12.86,2,.3,4.22.68,6-.19,4.31-2.12,5.39-8.53,10.55-10.46.47,2.78,0,5.28-.18,8.06,0,0,.09.11.09.88,1.45.68,15.36.76,16.69.08-1.33-10-2-37-2-36.95.49-3.84.11-7.1.68-10.94.2-1.63.68-3.94.38-5.47-3.27-.38-6,.1-9.21-.19a34.76,34.76,0,0,0-7.68-.1c.47,3.17,1.24,6.16,1.44,8.74.57,6,.47,12.38.76,18.22.87,14.89-1.52,16.82-1.52,16.82-1.94,1.61-5.28,2.5-8.64,2.19-3.94-.28-6.15-1.53-7.39-4.31-1.54-3.65-.58-8.83-.69-13.25,0,0,.11-2.7-.08-11a37.1,37.1,0,0,1,.38-9.88,29.2,29.2,0,0,1,6.53-.57H397c2.39,0,2.67-.2,3.55-1.73a23.62,23.62,0,0,0,2.87-5.08c-2.87.09-12,.85-14.1-.2C388.87,61,388.79,50.59,388.4,49ZM55.84,85.05c.39-1.35-1.84-6.16-2.2-7.41-2-6.34-3-11.61-5.39-17.46-.46-1.25-.08-2.4-1.82-2.4h-.08c-1.16,2.59-1.56,5-2.41,8.92S42,74.58,41.16,78.41A51.9,51.9,0,0,0,39.71,86a50,50,0,0,1,7.58.28c2.2.31,5-.28,7.87-.28A2.88,2.88,0,0,0,55.84,85.05ZM83.58,114.3c.09.41.09.77-.37,1-1.27.29-3.77-.2-5-.28-3.44-.19-7.79-.5-11.13,0a13.67,13.67,0,0,1-4.31.28c-.11-1.54.57-3.85.28-5.57-.28-2.19-3-14.31-4.53-15.26-1.22-.66-9.1-.57-12.08-.46-2.41,0-6-.3-8,.36-3.27,1.26-4.89,13.82-5.29,17.57-.18,1.06.3,3.16-.38,3.73l-.18.11c-2.6,1.34-5.87-.68-9.41-.19-.77.08-2.11.57-3,.66a2.51,2.51,0,0,1-1.73-.74c1.45-3,3.27-5.68,4.51-8.75,2.41-5.86,5-12.39,7.11-18.62,1.25-3.46,2.5-8.36,3.83-12.39a188.37,188.37,0,0,0,5.47-21.1,22.25,22.25,0,0,0-.87-11.53,13.77,13.77,0,0,1,2.7-.29c2.77-.08,6.54.39,9.61.29a73.78,73.78,0,0,1,9-.1c1.62,14.79,6.33,25.82,10.54,37.52C73.6,89.36,76,97.9,79.75,106,80.89,108.55,82.7,111.42,83.58,114.3ZM753.5,57.78c-3.35-.09-9.4,3.45-12.18,5.27-4.41,2.79-7.48,5.38-9.21,10.66a9.58,9.58,0,0,0,1,8.64,25.65,25.65,0,0,0,7.48,6.92c6.32,3.83,13,3.83,16.52,10.74a8.73,8.73,0,0,1,.08,6.61c-3,6.44-16.31-2.29-18.52-4.88a7.84,7.84,0,0,1-1.92-3.84,8.07,8.07,0,0,1-1,1.14c-1.55,2-5.09,4.72-6.05,6.91-1.25,2.69,6.15,7.32,9.22,8.54,9.4,3.66,16.7-1.33,22.18-5.36,5.86-4.12,13.63-10.36,7.77-19.58-3.66-5.75-12.87-8.25-19.38-11.14-2-1-5.19-3.07-6.05-5.19a8.2,8.2,0,0,1-.19-6c2-4.9,8.73-2.3,12.07-.28a16.89,16.89,0,0,1,7.3,8.44,23.11,23.11,0,0,0,2.59-3.17c.38-.57,4.13-5.66,4-6.33-.19-.87-2.13-2.41-2.78-2.88A22.09,22.09,0,0,0,753.5,57.78ZM258.93,58.84c-6.14.76-9.9,4.88-14.78,6.81a8,8,0,0,1-.77-4c-5.38.29-10-.1-15.17,0,.2,2,.77,4.51,1.17,6.42.85,3.46,1.05,10.94,1.05,14.5.09,2.59-1.05,22-1.05,32.94,3.34.74,7.1-.32,10.63-.21,2.12,0,4.62.78,6.35.21,0-3.46-1-6.45-1.16-9.15-.49-5.46-.37-26.76.2-30.41.58-4,2.2-6.82,5.08-8.53a5.74,5.74,0,0,1,5.47.18,11.6,11.6,0,0,1,5.76,5.75c1.05,2.4.76,6.25,1,9.32.68,10.73.68,23.31-1.53,32.84a72.07,72.07,0,0,0,9.58-.49,27.65,27.65,0,0,0,7.88-.19c-1.44-5-1.14-9.51-1.24-15.46-.2-10.84-2.3-25.44,4.7-31.3,1.25-1.05,2.69-1.91,4.8-1.14a10.1,10.1,0,0,1,5.76,4.51,21.56,21.56,0,0,1,1.44,4.31c.56,3.17.09,6,.29,9.33,0,.28.08,12.85.08,18.79-.37,4.13-.57,5.67-.57,5.67-.19,1.82-.77,3.92-.66,5.65a18,18,0,0,0,4.21-.28c4.22-.08,7.88.11,12.18.11.49-1.83-.28-5.78-.56-7.48a81.16,81.16,0,0,1-.48-13.07c.28-4.52.48-11.62,0-15.15-.29-2.8.48-6.43-.37-8.93-1.54-4.33-5.31-7.49-9.42-9.32-2.89-1.35-6.53-2.59-10.17-1.82-5.85,1.25-9.31,5.85-13.84,8.45C273,66.32,272,64.31,270.26,63,267.66,60.86,263.06,58.36,258.93,58.84Zm475,1.25c-3.47.19-7.11.48-10.88.57.78,10.47-3.73,20.45-6.61,28.79-.76,2.21-.66,5-1.71,7.11-.21.47-1,.67-1.46.85-1.24-2.48-1.34-5.46-2.38-8.25a134.9,134.9,0,0,1-5.5-20.73c-.38-2.2.51-6.23-.08-7.77-.38-.87-5.39-.19-6.24-.09-.28,0-5.75.18-8.16.09-1,2.1-.18,6.52-.37,8.63-.3,5.95-1.93,10.46-3.08,15.64-.77,3.57-1.63,6.92-2.39,10.57a2.75,2.75,0,0,1-1.83,2.3c-1.83-3.93-3-9.89-4.22-14.1-1.26-4.52-2.78-8.65-3.94-13.64a49.07,49.07,0,0,1-.68-9.2v-.11a33.41,33.41,0,0,0-3.34-.18c-5.29-.59-11-.1-15.56-.1.3,1.53,1.52,3.35,2.31,4.79a161.1,161.1,0,0,1,6.92,16.41c2.29,8,4.39,14.89,6.33,23.62.19.76.68,7,.95,8.54,5.08,0,11.42-.29,16.3-.21.49-2.29.49-4.78.79-6.7.67-5.56,2.29-10.46,3.64-15.45.38-1.55,1.34-5.85,1.62-6.62.88-2.41,1,.77,1.44,1.92.89,2.19,1.34,5.27,2.22,8A123.91,123.91,0,0,1,701.89,109c.65,4.24-.79,5.27,4,4.8,4.13-.4,8.73.88,12.93-.21,0-13,4.52-23,8.09-33.2a125.13,125.13,0,0,1,4.23-11.8C731.72,67.57,736.23,59.89,733.94,60.09ZM134.73,61.23c-.38-.09-7.86-.09-8.62,0-2.41.2-5.1.2-8.08.39v.66a55.55,55.55,0,0,0,.76,6c.4,1.73-.08,3.26.12,5.08a58.49,58.49,0,0,1,.17,10c-.85,9.89,1.84,21.51-6.81,26.09-2.87,1.44-7-.27-8.82-1.52C98.06,104,97.39,98.66,97.69,91c.17-3.28.17-21.33,0-21.24,0-2.68,1.44-6.62.57-8.44-2.3.1-4.22.49-6,.67a42.85,42.85,0,0,1-5.07,0c-1.84-.18-3.57-.77-5.39,0-.4.1.09,3.07.19,3.84,1,9.11.66,18.52.66,28.41l.12.68a27.56,27.56,0,0,0,.18,7.88c1.54,7,7.3,11.59,13.62,14.09,8.08,3.28,16.33-2.41,21-5.48a5.77,5.77,0,0,1,1.91-.85c.77,1.26.2,3.54,1.16,4.91.29.36,12.19-.11,14.69-.11.48-1.83-.68-3.67-1-5.57-.48-3.64-.56-8-1.05-11.33a53.36,53.36,0,0,1-.08-7.87c0-.19.08-6.71.17-9.12.29-6.33.48-11.8,1-17.76A13.91,13.91,0,0,0,134.73,61.23ZM424,61.62a22.3,22.3,0,0,0,.87,2.1c3.75,9.5,8.91,18.52,12.18,28.7,1.64,5.1,3.37,10.39,4.7,15.46a51.06,51.06,0,0,0,1.92,7.28c6.43.21,12.2.21,18.91.21-.39-1.64-.87-3.08-1.15-4.72-.48-3.83,1.15-7.67,1.92-10.74,3-11.6,7.3-21.69,11.42-32.06.87-2.1,2.5-3.64,3.27-5.65-3.27-.68-6.91-.2-11.15-.2-1.13,3.84-1.43,7.39-2.78,11.42-3.05,9.78-5.67,19.49-9.21,29.56-1.72-4.13-3-8.64-4.32-12.86-2.79-8.82-6-17.18-6.91-28.41C436.76,61.71,430.74,61.91,424,61.62ZM352.49,107c5.88-7.58,4.34-22.45,0-30.81a21.39,21.39,0,0,0-9-8.53c-1.93-.87-4.4-2.7-7.57-2.22-4.14.58-6.06,3.65-7.4,6.81-5.65,13.92.87,35.25,12.76,38.2,1.45.3,3.74,1.16,5.66.87C349.71,110.84,351.08,108.84,352.49,107ZM368,75.24c4.22,9.61,2.69,22.28-3.27,29-3.73,4.33-8.43,7.2-13.8,10.08a43.89,43.89,0,0,1-8.82,3.85c-3.18.76-6.63-.19-9.72-.86-11.12-2.68-15.74-10-18.89-20.73-.48-1.82-1.34-4.61-1-6.54-.28,0-.08-.27-.19-.57V86.86c.68-4.14,1.16-7.88,2.89-10.94,2.86-5,8.33-8.74,13.24-11.81,3.46-2.2,9.39-5.66,14.09-6.23,7.89-.88,12.68,3.06,16.82,6C363.26,66.7,365.85,70.53,368,75.24ZM201.64,111.83c18.41-1.45,12.46-47.72-10-46-9.49.67-11.31,19.21-8.34,28.9,2,6.81,6,12.46,12,15.34C196.94,110.84,199.43,112,201.64,111.83ZM222.35,71.5c7.11,12.49,5,28.31-4.59,36.38-2.69,2.3-5.76,3.54-8.94,5.55-5,3.18-12.09,6.35-20.15,5.1a16.05,16.05,0,0,1-5.48-2.31,36.5,36.5,0,0,1-7.58-5.65,32.7,32.7,0,0,0-2.69-3.06c-2.49,2.29-5.47,7.86-8.62,9.1s-8.08.48-11.05-.56c-10-3.19-10.07-10.27-10.07-21.61,0-2,.29-21.89.29-22.54-.29-2.8-.68-2.71-3.36-3a6.8,6.8,0,0,1-1.64-.48c4-5.28,8.36-9.5,13-14.21a26.88,26.88,0,0,1,5.67-4.7c.57,3.65,0,8.73,1.05,12.19,2.78,0,4.88-.09,7.88.11,2.47.28,4.51-.2,6.13.46a4.71,4.71,0,0,0-.66,1.26c-.39.77-2.12,4.41-2.69,4.7-1,.57-8.84.19-10.75.29-.5,4.13-.59,17.17-.5,18.41,0,.29-1.51,19.68,7.6,20.66a14,14,0,0,0,6.82-.87c-3.37-7.88-6.34-21.4-1.64-30.13,4.22-7.69,21.9-20.65,34.56-18.15C211.8,59.79,219.2,66,222.35,71.5Zm264.43,4.33a7,7,0,0,0,.57,4.88c2.33,0,18.52-4.88,19-5.66,1.34-1.91-1.06-4.41-1.91-5.28-2.22-2.2-5.09-4.32-9.81-3.64-2.5.29-4.4,2.22-5.75,3.84C487.94,71,487.07,73.82,486.78,75.83Zm6.45,27.55c6.23,4.89,16.29,4,23.58.57a10.22,10.22,0,0,1,1.54-.68c-1.62,3.27-3.27,5.76-5.09,8.83a10.07,10.07,0,0,1-1.72,2.7,12.85,12.85,0,0,1-2.3,1c-6,2.21-14.22,1.62-19.88-.38-13.91-5.19-22.16-21.79-14.2-38.32,2.41-5.15,6.73-8.62,11.14-11.79,4-2.87,10-6.42,16.32-6.42,5.46,0,10.44,1.73,13.63,4.7,1.24,1.15,6.23,7,5.94,8.72a40,40,0,0,1-4.7,5.58c-1.82,1-5.67,1.45-8,2-5.94,1.44-12.28,3.06-17.83,5-1.56.57-3.66,1-4.81,1.92-1.62,1.25-.21,4.89.1,6.43A16.16,16.16,0,0,0,493.23,103.38Z" transform="translate(-18.5 -41.92)"/></svg>