<svg id="BASFw_blk30tr_ct" xmlns="http://www.w3.org/2000/svg" viewBox="0 0 738.31 266.64"><defs><style>.cls-1{fill:#535557;}</style></defs><path class="cls-1" d="M30.84,15.1V147.35H163.1V15.1Zm91.56,91.56H71.54V55.79H122.4Z" transform="translate(-30.84 -11.14)"/><rect class="cls-1" x="172.95" y="44.65" width="50.87" height="50.87"/><path class="cls-1" d="M295.35,15.1H369c27.05,0,39.41,18,39.41,34.51,0,11.87-4.57,19.54-16.81,26.67,15.44,5.71,23.84,16,23.84,31.89,0,19-13.8,39.17-46.34,39.17H295.32Zm40.23,102.38h26.67c9.5,0,13.77-6.79,13.77-12.8,0,2.78,1.22-11-12.42-11h-28Zm.1-50.32h21.43c9.79,0,13.7-4.56,13.7-11.25,0-1.55-.48-10.17-10.89-10.17H335.68Z" transform="translate(-30.84 -11.14)"/><path class="cls-1" d="M457.37,15.1H500L548.5,147.18H504.77l-6.4-19.78H457.55l-5.43,19.68H408.73Zm19.57,39.2L465.7,98.41h24Z" transform="translate(-30.84 -11.14)"/><path class="cls-1" d="M616.46,54.38h40.63c0-22.43-16.88-43.24-56.92-43.24-43.92,0-57.52,24.24-57.52,42,0,28.6,35,36.21,36.1,36.55,5.23,1.64,27,7.47,32.38,9.4,4.7,1.69,9.19,5.45,9.19,10.48,0,7.72-9.19,11.43-16.85,11.43-4.91,0-21.44-1.63-21.44-19.14h-42c0,23.25,16,49.28,60.89,49.28,49.54,0,59.9-29.55,59.9-45.26,0-12.83-7.26-27-24-33.82C626.74,68,610,64.39,601.63,61.94c-4.24-1.24-18.34-4.09-18.34-12.7,0-11,18.17-9.6,15.52-9.6C607,39.64,616.46,44.26,616.46,54.38Z" transform="translate(-30.84 -11.14)"/><polygon class="cls-1" points="636.91 3.93 738.31 3.93 738.31 38.83 677.43 38.83 677.43 62.1 731.72 62.1 731.72 95.45 677.24 95.45 677.24 136.17 636.72 136.17 636.91 3.93"/><polygon class="cls-1" points="52.77 240.84 52.73 240.68 40.05 193.03 32.1 193.03 19.22 240.84 18.71 240.84 18.68 240.67 7.45 193.03 0.1 193.03 14.72 250.06 22.34 250.06 35.63 201.76 36.12 201.76 36.16 201.93 49.24 250.06 56.88 250.06 72.13 193.03 64.94 193.03 53.27 240.84 52.77 240.84"/><path class="cls-1" d="M136.72,227.09a18,18,0,0,0-5.81-5.77,16.91,16.91,0,0,0-9.1-2.26,18.85,18.85,0,0,0-7.75,1.59,18.34,18.34,0,0,0-6.13,4.46,20.62,20.62,0,0,0-4,6.77,25,25,0,0,0-1.44,8.61,33.71,33.71,0,0,0,1.4,8.71,18.81,18.81,0,0,0,3.7,6.84,16.94,16.94,0,0,0,6.08,4.46,21.4,21.4,0,0,0,8.56,1.59,18.8,18.8,0,0,0,11.63-3.5c3-2.27,5-5.69,5.9-10.15h-6.32a9.85,9.85,0,0,1-3.71,6.07,12.06,12.06,0,0,1-7.25,2.06,14.26,14.26,0,0,1-6-1.15,11.71,11.71,0,0,1-4.18-3.08,12,12,0,0,1-2.38-4.42,16.81,16.81,0,0,1-.65-5.26v-.21h31.16a33.88,33.88,0,0,0-.69-7.71,23,23,0,0,0-3-7.65m-27.46,9.76,0-.24a14.64,14.64,0,0,1,1.06-4.61,12.54,12.54,0,0,1,2.46-3.81,11.44,11.44,0,0,1,3.74-2.59,12.26,12.26,0,0,1,4.87-.94,12,12,0,0,1,4.79.94,12.32,12.32,0,0,1,3.78,2.54,12,12,0,0,1,2.54,3.81,14.62,14.62,0,0,1,1.1,4.66l0,.24Z" transform="translate(-30.84 -11.14)"/><path class="cls-1" d="M188.5,256.57a11.56,11.56,0,0,1-5.67-1.32,11,11,0,0,1-3.85-3.48,15.44,15.44,0,0,1-2.17-4.94,23.57,23.57,0,0,1-.69-5.69,28.78,28.78,0,0,1,.65-6.13,15.51,15.51,0,0,1,2.17-5.27,11.31,11.31,0,0,1,4.06-3.69,13,13,0,0,1,6.3-1.39A9.77,9.77,0,0,1,199.78,233h6.66a16,16,0,0,0-1.88-6.07,14.11,14.11,0,0,0-3.84-4.4,16.09,16.09,0,0,0-5.4-2.58,24.86,24.86,0,0,0-6.58-.84,19.9,19.9,0,0,0-8.52,1.71,17,17,0,0,0-6.08,4.69,20.09,20.09,0,0,0-3.63,7,30.76,30.76,0,0,0-1.19,8.68,27.88,27.88,0,0,0,1.23,8.5,18.4,18.4,0,0,0,3.67,6.64,16,16,0,0,0,6,4.29,21.42,21.42,0,0,0,8.33,1.51c5.23,0,9.42-1.39,12.45-4.12s4.88-6.58,5.65-11.53h-6.56a12.19,12.19,0,0,1-3.54,7.42c-2,1.81-4.66,2.72-8.08,2.72" transform="translate(-30.84 -11.14)"/><path class="cls-1" d="M227.62,221.28a18.84,18.84,0,0,0-6.33,7.4l-.06.12H221V220h-6V261.2h6.41V242.9a29.15,29.15,0,0,1,.8-7.17,13.83,13.83,0,0,1,2.63-5.35,11.32,11.32,0,0,1,4.75-3.38,19.66,19.66,0,0,1,6.87-1.14v-6.8H236a14.82,14.82,0,0,0-8.37,2.23" transform="translate(-30.84 -11.14)"/><path class="cls-1" d="M271.42,227.09a18.09,18.09,0,0,0-5.81-5.77,17,17,0,0,0-9.1-2.26,18.89,18.89,0,0,0-7.76,1.59,18.3,18.3,0,0,0-6.12,4.46,20.62,20.62,0,0,0-4,6.77,24.73,24.73,0,0,0-1.44,8.61,33.71,33.71,0,0,0,1.39,8.71,19,19,0,0,0,3.71,6.84,16.86,16.86,0,0,0,6.08,4.46,21.37,21.37,0,0,0,8.56,1.59,18.77,18.77,0,0,0,11.62-3.5c3-2.27,5-5.69,5.9-10.15h-6.31a9.89,9.89,0,0,1-3.71,6.07,12.06,12.06,0,0,1-7.25,2.06,14.26,14.26,0,0,1-6-1.15,11.71,11.71,0,0,1-4.18-3.08,12,12,0,0,1-2.38-4.42,16.81,16.81,0,0,1-.66-5.26v-.21h31.15a33.29,33.29,0,0,0-.68-7.71,23.16,23.16,0,0,0-3-7.65M244,236.85v-.24A14.93,14.93,0,0,1,245,232a12.54,12.54,0,0,1,2.46-3.81,11.4,11.4,0,0,1,3.73-2.59,12.31,12.31,0,0,1,4.88-.94,12,12,0,0,1,4.79.94,12.32,12.32,0,0,1,3.78,2.54,12,12,0,0,1,2.54,3.81,14.62,14.62,0,0,1,1.1,4.66l0,.24Z" transform="translate(-30.84 -11.14)"/><path class="cls-1" d="M316.65,255.27a16.15,16.15,0,0,1-.28-3.59V230.27a11,11,0,0,0-1.34-5.76,9.54,9.54,0,0,0-3.54-3.43,14.94,14.94,0,0,0-4.95-1.62,33.63,33.63,0,0,0-12.12.32,16.12,16.12,0,0,0-5.48,2.34,12.11,12.11,0,0,0-3.8,4.23,14.55,14.55,0,0,0-1.56,6.2H290c.2-3,1.29-5.11,3.23-6.22a15,15,0,0,1,7.36-1.67,23.07,23.07,0,0,1,3.29.24,9,9,0,0,1,3.06,1,6,6,0,0,1,2.25,2.16,7.09,7.09,0,0,1,.88,3.74,4,4,0,0,1-1.2,3.1,7.71,7.71,0,0,1-3.15,1.58,30.45,30.45,0,0,1-4.5.81c-1.66.18-3.46.47-5.33.84s-3.5.72-5.18,1.2a14.47,14.47,0,0,0-4.44,2.11,10.41,10.41,0,0,0-3.11,3.58,12,12,0,0,0-1.19,5.69A11.86,11.86,0,0,0,283,256a9.52,9.52,0,0,0,2.91,3.54,11.83,11.83,0,0,0,4.31,2,22.25,22.25,0,0,0,5.26.59,21.76,21.76,0,0,0,8-1.46,16.42,16.42,0,0,0,6.47-4.81l.38-.47V256c0,2.18.51,3.76,1.51,4.71a5.69,5.69,0,0,0,4.07,1.42,9.69,9.69,0,0,0,4.7-.95v-4.88a6.78,6.78,0,0,1-1.88.32c-1.19,0-1.9-.43-2.11-1.3M310,246.94a8,8,0,0,1-.74,3.18,9.44,9.44,0,0,1-2.3,3.13,12.52,12.52,0,0,1-4,2.38,16.59,16.59,0,0,1-5.88.94,14.41,14.41,0,0,1-3.06-.33,7.5,7.5,0,0,1-2.65-1.08,6,6,0,0,1-1.84-2,5.86,5.86,0,0,1-.71-3A6.63,6.63,0,0,1,290,246a7.81,7.81,0,0,1,3.11-2.36,17,17,0,0,1,4.24-1.19c1.47-.23,3-.44,4.63-.64s3-.44,4.37-.72a8.36,8.36,0,0,0,3.29-1.38l.35-.26Z" transform="translate(-30.84 -11.14)"/><path class="cls-1" d="M383.76,227.09a18,18,0,0,0-5.8-5.77,17,17,0,0,0-9.11-2.26,18.85,18.85,0,0,0-7.75,1.59,18.24,18.24,0,0,0-6.13,4.46,20.45,20.45,0,0,0-4,6.77,25,25,0,0,0-1.43,8.61,33.22,33.22,0,0,0,1.39,8.71,19,19,0,0,0,3.7,6.84,17.12,17.12,0,0,0,6.08,4.46,21.42,21.42,0,0,0,8.57,1.59,18.74,18.74,0,0,0,11.61-3.5c3-2.27,5-5.69,5.91-10.15h-6.32a9.94,9.94,0,0,1-3.71,6.07,12.06,12.06,0,0,1-7.25,2.06,14.29,14.29,0,0,1-6-1.15,11.62,11.62,0,0,1-4.18-3.08,11.91,11.91,0,0,1-2.38-4.42,16.84,16.84,0,0,1-.65-5.26v-.21h31.15a33.45,33.45,0,0,0-.69-7.71,23,23,0,0,0-3-7.65m-27.31,9.76v-.24a14.3,14.3,0,0,1,1.07-4.61,12.4,12.4,0,0,1,2.45-3.81,11.39,11.39,0,0,1,3.74-2.59,12.26,12.26,0,0,1,4.87-.94,12.09,12.09,0,0,1,4.8.94A11.78,11.78,0,0,1,379.7,232a14.13,14.13,0,0,1,1.11,4.66l0,.24Z" transform="translate(-30.84 -11.14)"/><path class="cls-1" d="M435.63,256.57a11.49,11.49,0,0,1-5.66-1.32,11.14,11.14,0,0,1-3.86-3.48,15.59,15.59,0,0,1-2.17-4.94,24,24,0,0,1-.68-5.69,28,28,0,0,1,.65-6.13,15.47,15.47,0,0,1,2.16-5.26,11.41,11.41,0,0,1,4.06-3.7,13,13,0,0,1,6.31-1.39A9.77,9.77,0,0,1,446.92,233h6.66a16.33,16.33,0,0,0-1.88-6.08,14.18,14.18,0,0,0-3.85-4.39,16.09,16.09,0,0,0-5.4-2.58,24.86,24.86,0,0,0-6.58-.84,19.93,19.93,0,0,0-8.52,1.71,17.07,17.07,0,0,0-6.08,4.69,20.07,20.07,0,0,0-3.62,7,30.7,30.7,0,0,0-1.2,8.68,28,28,0,0,0,1.24,8.5,18.45,18.45,0,0,0,3.66,6.64,16,16,0,0,0,6,4.29,21.49,21.49,0,0,0,8.33,1.51c5.23,0,9.42-1.39,12.45-4.12s4.88-6.57,5.64-11.53h-6.54a12.14,12.14,0,0,1-3.55,7.42c-1.94,1.81-4.66,2.72-8.08,2.72" transform="translate(-30.84 -11.14)"/><path class="cls-1" d="M493.32,223.25a11.11,11.11,0,0,0-4.35-3.08,17.84,17.84,0,0,0-6.75-1.11,18.63,18.63,0,0,0-3.78.4,16.9,16.9,0,0,0-3.74,1.23,12.94,12.94,0,0,0-3.2,2.13,9.63,9.63,0,0,0-2.43,3.19l-.05.14h-.3v-22h-6.41v57h6.41V237.92a17.32,17.32,0,0,1,.77-5.26,12.06,12.06,0,0,1,2.34-4.22,10.38,10.38,0,0,1,3.9-2.8,14.29,14.29,0,0,1,5.52-1,8.63,8.63,0,0,1,6.36,2.32,8.51,8.51,0,0,1,2.31,6.27V261.2h6.41V234.06a25.68,25.68,0,0,0-.68-6.11,11.42,11.42,0,0,0-2.33-4.7" transform="translate(-30.84 -11.14)"/><path class="cls-1" d="M539.27,227.09a18,18,0,0,0-5.81-5.77,16.93,16.93,0,0,0-9.1-2.26,18.89,18.89,0,0,0-7.76,1.59,18.3,18.3,0,0,0-6.12,4.46,20.82,20.82,0,0,0-4,6.77,25,25,0,0,0-1.43,8.61,33.08,33.08,0,0,0,1.4,8.71,18.81,18.81,0,0,0,3.7,6.84,17.06,17.06,0,0,0,6.08,4.46,21.4,21.4,0,0,0,8.56,1.59,18.77,18.77,0,0,0,11.62-3.5c3-2.27,5-5.68,5.9-10.15H536a9.85,9.85,0,0,1-3.71,6.07,12.06,12.06,0,0,1-7.25,2.06,14.29,14.29,0,0,1-6-1.15,11.71,11.71,0,0,1-4.18-3.08,11.91,11.91,0,0,1-2.38-4.42,16.52,16.52,0,0,1-.65-5.26v-.21H543a33,33,0,0,0-.69-7.71,23,23,0,0,0-3-7.65m-27.46,9.76,0-.24a14.29,14.29,0,0,1,1.06-4.61,12.18,12.18,0,0,1,2.46-3.81,11.29,11.29,0,0,1,3.74-2.59,12.19,12.19,0,0,1,4.87-.94A11.86,11.86,0,0,1,535.07,232a14.62,14.62,0,0,1,1.1,4.66l0,.24Z" transform="translate(-30.84 -11.14)"/><path class="cls-1" d="M605.39,221.83a11.48,11.48,0,0,0-4.26-2.09,21.69,21.69,0,0,0-5.62-.68,15.56,15.56,0,0,0-7.43,1.82,14.48,14.48,0,0,0-5.42,5.15l-.25.41-.15-.45a8.88,8.88,0,0,0-4.32-5.35,15,15,0,0,0-6.9-1.58c-5.75,0-10.46,2.35-13.5,7l-.07.11h-.25V220h-6V261.2h6.41V235.5a10.26,10.26,0,0,1,.61-3.08,11.81,11.81,0,0,1,2-3.57,11.6,11.6,0,0,1,3.53-2.95,10.33,10.33,0,0,1,5.21-1.24,9.45,9.45,0,0,1,3.92.7,6,6,0,0,1,2.46,2,8.18,8.18,0,0,1,1.29,3,18.29,18.29,0,0,1,.36,3.75V261.2h6.41V235.5a10.69,10.69,0,0,1,3-7.88,11,11,0,0,1,8.12-3,10.13,10.13,0,0,1,4.16.74,6.26,6.26,0,0,1,2.54,2,7.63,7.63,0,0,1,1.24,3,19.62,19.62,0,0,1,.33,3.66V261.2h6.4V230.92a13.74,13.74,0,0,0-1-5.44,9.66,9.66,0,0,0-2.76-3.65" transform="translate(-30.84 -11.14)"/><path class="cls-1" d="M626.74,212.11h-6.4v-7.94h6.4Zm0,7.92h-6.4V261.2h6.4Z" transform="translate(-30.84 -11.14)"/><path class="cls-1" d="M665,259.38a12.11,12.11,0,0,0,4-4,11.39,11.39,0,0,0,1.54-6.16,9.61,9.61,0,0,0-1.14-4.87,10.33,10.33,0,0,0-3-3.27,15.82,15.82,0,0,0-4.28-2.11,50.7,50.7,0,0,0-5-1.36c-1.61-.38-3.21-.74-4.82-1.09a29.44,29.44,0,0,1-4.39-1.29,10.4,10.4,0,0,1-3.24-2,4.07,4.07,0,0,1-1.32-3.1,4.29,4.29,0,0,1,.85-2.76,6,6,0,0,1,2.17-1.66,10.58,10.58,0,0,1,2.92-.87,17.6,17.6,0,0,1,6.52.13,10.37,10.37,0,0,1,3.08,1.18,7,7,0,0,1,2.33,2.21,7.31,7.31,0,0,1,1.07,3.24h6.4a15.08,15.08,0,0,0-1.57-6,10.64,10.64,0,0,0-3.59-3.93,14.74,14.74,0,0,0-5.2-2.07,32.51,32.51,0,0,0-6.47-.6,22.93,22.93,0,0,0-5.46.68,16.5,16.5,0,0,0-4.93,2.06,11.51,11.51,0,0,0-3.55,3.6,9.81,9.81,0,0,0-1.38,5.28,8.89,8.89,0,0,0,2,6.12,13.18,13.18,0,0,0,5,3.45,33.3,33.3,0,0,0,6.52,1.92c2.34.45,4.55,1,6.58,1.53a17.39,17.39,0,0,1,5.09,2.24,4.8,4.8,0,0,1,2.11,4.21,5.29,5.29,0,0,1-1,3.32,6.21,6.21,0,0,1-2.54,1.95,12.77,12.77,0,0,1-3.32.91,22.36,22.36,0,0,1-7.52-.17,11.48,11.48,0,0,1-3.61-1.35,7.73,7.73,0,0,1-2.61-2.57,7.82,7.82,0,0,1-1.07-3.72h-6.4a14.69,14.69,0,0,0,1.57,6.23,11.84,11.84,0,0,0,3.8,4.28,16.13,16.13,0,0,0,5.47,2.33,31.42,31.42,0,0,0,12.83.12,16.86,16.86,0,0,0,5.65-2.1" transform="translate(-30.84 -11.14)"/><path class="cls-1" d="M688,207.55h-6.41V220h-6.83v5.59h6.83v26.71a16,16,0,0,0,.55,4.6,5.49,5.49,0,0,0,1.67,2.63,6.35,6.35,0,0,0,3,1.28,24.09,24.09,0,0,0,4.5.36h5v-5.6h-2.93a23.58,23.58,0,0,1-2.64-.12,3.58,3.58,0,0,1-1.67-.56,2.16,2.16,0,0,1-.85-1.25,7.61,7.61,0,0,1-.2-2V225.62h8.54V220H688Z" transform="translate(-30.84 -11.14)"/><path class="cls-1" d="M336.48,207.55h-6.41V220h-6.83v5.59h6.83v26.71a15.56,15.56,0,0,0,.56,4.6,5.48,5.48,0,0,0,1.66,2.63,6.44,6.44,0,0,0,3,1.28,24.16,24.16,0,0,0,4.5.36h5v-5.6h-2.92a23.58,23.58,0,0,1-2.64-.12,3.58,3.58,0,0,1-1.68-.56,2.15,2.15,0,0,1-.84-1.25,7.55,7.55,0,0,1-.21-2V225.62H345V220h-8.54Z" transform="translate(-30.84 -11.14)"/><path class="cls-1" d="M712.37,229.17l-.06.12h-.23V220h-6V261.2h6.4V243.4a28.22,28.22,0,0,1,.82-7.17,14,14,0,0,1,2.61-5.36,11.38,11.38,0,0,1,4.76-3.37,19.66,19.66,0,0,1,6.87-1.14v-6.81a15.17,15.17,0,0,0-8.84,2.23,18.88,18.88,0,0,0-6.33,7.39" transform="translate(-30.84 -11.14)"/><path class="cls-1" d="M748.7,271.94a43.26,43.26,0,0,0,2.36-5.13l18-46.78h-6.77l-11.67,34.05h-.47l-.06-.16L738,220h-7.24l16.41,41.15,0,.08-2.83,7a8.24,8.24,0,0,1-2.31,2.91,5.7,5.7,0,0,1-3.52,1,7.11,7.11,0,0,1-2.13-.33l-1.67-.55v5.82a10.76,10.76,0,0,0,2.14.5,17.3,17.3,0,0,0,2.38.16,11.82,11.82,0,0,0,3.95-.59,8.59,8.59,0,0,0,3-1.88,13.64,13.64,0,0,0,2.54-3.37" transform="translate(-30.84 -11.14)"/></svg>