<svg xmlns="http://www.w3.org/2000/svg" viewBox="0 0 754.64 302.3"><defs><style>.cls-1{fill:#535557;}</style></defs><g id="Layer_2" data-name="Layer 2"><polygon class="cls-1" points="26.1 123.06 27.86 123.06 27.86 1.76 326.65 1.76 326.65 300.54 27.86 300.54 27.86 179.23 26.1 179.23 26.1 302.3 328.41 302.3 328.41 0 26.1 0 26.1 123.06"/><polygon class="cls-1" points="29.62 3.52 324.89 3.52 324.89 298.78 29.62 298.78 29.62 179.23 27.86 179.23 27.86 300.54 326.65 300.54 326.65 1.76 27.86 1.76 27.86 123.06 29.62 123.06 29.62 3.52"/><rect class="cls-1" x="3.52" y="126.58" width="22.59" height="49.14"/><rect class="cls-1" x="29.62" y="126.58" width="23.03" height="49.14"/><rect class="cls-1" x="26.1" y="126.58" width="1.76" height="49.14"/><rect class="cls-1" x="27.86" y="126.58" width="1.76" height="49.14"/><polygon class="cls-1" points="1.76 177.47 1.76 124.82 26.1 124.82 26.1 123.06 0 123.06 0 179.23 26.1 179.23 26.1 177.47 1.76 177.47"/><polygon class="cls-1" points="54.41 177.47 29.62 177.47 29.62 179.23 56.17 179.23 56.17 123.06 29.62 123.06 29.62 124.82 54.41 124.82 54.41 177.47"/><rect class="cls-1" x="26.1" y="123.06" width="1.76" height="1.76"/><rect class="cls-1" x="26.1" y="123.06" width="1.76" height="1.76"/><rect class="cls-1" x="26.1" y="177.47" width="1.76" height="1.76"/><rect class="cls-1" x="26.1" y="177.47" width="1.76" height="1.76"/><rect class="cls-1" x="27.86" y="177.47" width="1.76" height="1.76"/><rect class="cls-1" x="27.86" y="177.47" width="1.76" height="1.76"/><rect class="cls-1" x="27.86" y="123.06" width="1.76" height="1.76"/><rect class="cls-1" x="27.86" y="123.06" width="1.76" height="1.76"/><polygon class="cls-1" points="3.52 175.71 3.52 126.58 26.1 126.58 26.1 124.82 1.76 124.82 1.76 177.47 26.1 177.47 26.1 175.71 3.52 175.71"/><polygon class="cls-1" points="3.52 175.71 3.52 126.58 26.1 126.58 26.1 124.82 1.76 124.82 1.76 177.47 26.1 177.47 26.1 175.71 3.52 175.71"/><polygon class="cls-1" points="52.65 126.58 52.65 175.71 29.62 175.71 29.62 177.47 54.41 177.47 54.41 124.82 29.62 124.82 29.62 126.58 52.65 126.58"/><polygon class="cls-1" points="52.65 126.58 52.65 175.71 29.62 175.71 29.62 177.47 54.41 177.47 54.41 124.82 29.62 124.82 29.62 126.58 52.65 126.58"/><rect class="cls-1" x="26.1" y="175.71" width="1.76" height="1.76"/><rect class="cls-1" x="26.1" y="175.71" width="1.76" height="1.76"/><rect class="cls-1" x="26.1" y="124.82" width="1.76" height="1.76"/><rect class="cls-1" x="26.1" y="124.82" width="1.76" height="1.76"/><rect class="cls-1" x="27.86" y="124.82" width="1.76" height="1.76"/><rect class="cls-1" x="27.86" y="124.82" width="1.76" height="1.76"/><rect class="cls-1" x="27.86" y="175.71" width="1.76" height="1.76"/><rect class="cls-1" x="27.86" y="175.71" width="1.76" height="1.76"/><path class="cls-1" d="M258.54,227.57c0-22.49-15.18-28.53-23.78-32,14.45-6.77,17.56-18.84,17.56-27.43,0-17.93-12.62-33.11-37.13-33.11H157.4V266.35h56.51C243,266.35,258.54,248.61,258.54,227.57Zm-83.4-77.36h32.19c19.75,0,27.25,6.95,27.25,19.2,0,16.1-10.43,21.22-27.44,21.22h-32Zm0,101V205.08h34.93c14.45,0,30.73,3.66,30.73,22.13,0,14.63-9.33,24-27.8,24Z" transform="translate(-22.68 -48.41)"/><path class="cls-1" d="M428.16,126.6c0-8.81-6-11.17-9.32-12.53a11.32,11.32,0,0,0,6.89-10.75c0-7-5-13-14.54-13H388.55v51.44h22.13C422.07,141.79,428.16,134.84,428.16,126.6ZM395.49,96.3H408.1c7.74,0,10.67,2.72,10.67,7.52,0,6.31-4.08,8.31-10.74,8.31H395.49Zm0,39.54v-18h13.69c5.66,0,12,1.43,12,8.67,0,5.73-3.65,9.38-10.89,9.38Z" transform="translate(-22.68 -48.41)"/><rect class="cls-1" x="414.87" y="41.94" width="6.94" height="51.43"/><path class="cls-1" d="M497.79,141.79,479.17,90.35h-7.89l-19.34,51.44h7.17l5.37-15h20.63l5.09,15Zm-31.16-21.13L474.86,98H475l7.59,22.64Z" transform="translate(-22.68 -48.41)"/><polygon class="cls-1" points="488.22 51.83 488.36 51.83 514.51 93.38 522.32 93.38 522.32 41.94 515.59 41.94 515.59 83.49 515.44 83.49 489.72 41.94 481.49 41.94 481.49 93.38 488.22 93.38 488.22 51.83"/><path class="cls-1" d="M576.73,143.15c3.87,0,19.63-.86,22.49-20.27h-6.73c-2.37,12-10.17,14.11-14.68,14.11-12.76,0-17.06-9.31-17.06-21.42,0-13.54,7.53-20.42,16.84-20.42,4.95,0,12.47,1.65,14.4,10.68h6.74c-1-8.6-7.89-16.84-21.14-16.84-15,0-24,11-24,26.79C553.59,135.56,565.05,143.15,576.73,143.15Z" transform="translate(-22.68 -48.41)"/><polygon class="cls-1" points="591.95 69.38 618.81 69.38 618.81 93.38 625.76 93.38 625.76 41.94 618.81 41.94 618.81 63.22 591.95 63.22 591.95 41.94 585 41.94 585 93.38 591.95 93.38 591.95 69.38"/><rect class="cls-1" x="637.72" y="41.94" width="6.95" height="51.43"/><path class="cls-1" d="M396.36,205.79h16.19c11.17,0,15.25-8.09,15.25-15.25,0-8.32-5.73-14.48-15.25-14.48H389.41V227.5h6.95Zm0-23.78h14.11c5.73,0,10.17,2.08,10.17,8.6,0,6.95-4.23,9.24-10.46,9.24H396.36Z" transform="translate(-22.68 -48.41)"/><path class="cls-1" d="M456.46,228.86c14.11,0,20.7-8.89,20.7-19.42V176.06h-7v32.53c0,11.18-7.17,14.1-13.54,14.1s-13-3.07-13-14.25V176.06h-7v34.32C436.68,220,442.63,228.86,456.46,228.86Z" transform="translate(-22.68 -48.41)"/><path class="cls-1" d="M518.35,199.78A11.31,11.31,0,0,0,525.22,189c0-7-4.94-13-14.54-13H488.05V227.5h22.14c11.38,0,17.47-6.95,17.47-15.19C527.66,203.5,521.72,201.14,518.35,199.78ZM495,182h12.6c7.74,0,10.68,2.72,10.68,7.52,0,6.3-4.09,8.31-10.74,8.31H495Zm14.82,39.54H495V203.5h13.68c5.66,0,12,1.44,12,8.67C520.72,217.9,517.06,221.55,509.82,221.55Z" transform="translate(-22.68 -48.41)"/><polygon class="cls-1" points="513.29 127.65 513.29 179.09 546.32 179.09 546.32 172.92 520.24 172.92 520.24 127.65 513.29 127.65"/><rect class="cls-1" x="554.2" y="127.65" width="6.95" height="51.43"/><path class="cls-1" d="M616.56,228.86c3.87,0,19.63-.86,22.49-20.27h-6.73c-2.37,12-10.17,14.1-14.68,14.1-12.76,0-17.06-9.3-17.06-21.41,0-13.54,7.53-20.42,16.84-20.42,5,0,12.47,1.65,14.4,10.68h6.73c-1-8.6-7.88-16.84-21.13-16.84-15,0-24,11-24,26.79C593.42,221.26,604.88,228.86,616.56,228.86Z" transform="translate(-22.68 -48.41)"/><path class="cls-1" d="M429.67,306.91l-.44-9.32c-.28-7.16-3.22-8.46-6.15-9.66,3.3-1.94,7.16-4.73,7.16-12.33,0-10.89-8.46-13.83-16.91-13.83H389.55v51.44h6.94V291.14h16.84c8.32,0,9.17,4.95,9.17,9.18,0,1.93.22,9.73,1.22,12.89h8.52v-1.15C430.1,310.84,429.74,309.77,429.67,306.91ZM412.62,285.2H396.49V267.72h17.34c3.45,0,9.25.65,9.25,8.6C423.08,283.91,417.7,285.2,412.62,285.2Z" transform="translate(-22.68 -48.41)"/><polygon class="cls-1" points="425.4 241.45 453.55 241.45 453.55 235.28 425.4 235.28 425.4 219.52 455.91 219.52 455.91 213.36 418.44 213.36 418.44 264.8 456.42 264.8 456.42 258.63 425.4 258.63 425.4 241.45"/><polygon class="cls-1" points="472.46 213.36 465.51 213.36 465.51 264.8 498.53 264.8 498.53 258.63 472.46 258.63 472.46 213.36"/><path class="cls-1" d="M542.92,261.77l-19.35,51.44h7.17l5.38-15h20.63l5.08,15h7.6L550.8,261.77Zm-4.65,30.31,8.23-22.64h.14l7.6,22.64Z" transform="translate(-22.68 -48.41)"/><polygon class="cls-1" points="540.1 219.52 557.5 219.52 557.5 264.8 564.45 264.8 564.45 219.52 581.86 219.52 581.86 213.36 540.1 213.36 540.1 219.52"/><rect class="cls-1" x="589.38" y="213.36" width="6.94" height="51.44"/><path class="cls-1" d="M653.32,260.41c-19.2,0-25.07,16-25.07,27.08s5.87,27.09,25.07,27.09,25.07-16,25.07-27.09S672.52,260.41,653.32,260.41Zm0,48c-11.17,0-17.91-8.82-17.91-20.92s6.74-20.92,17.91-20.92,17.91,8.82,17.91,20.92S664.49,308.41,653.32,308.41Z" transform="translate(-22.68 -48.41)"/><polygon class="cls-1" points="698.05 254.91 697.91 254.91 672.19 213.36 663.95 213.36 663.95 264.8 670.68 264.8 670.68 223.25 670.83 223.25 696.97 264.8 704.78 264.8 704.78 213.36 698.05 213.36 698.05 254.91"/><path class="cls-1" d="M765.64,285.27,751,281.9c-3-.71-6.09-2.15-6.09-6.51,0-7.81,7.38-9,11.75-9,5.8,0,12.39,2.5,12.74,10.46h6.53c-.29-5.66-2.08-16.41-20.07-16.41-12.45,0-17.68,7.89-17.68,15.91,0,8.95,7.59,11.32,11,12.1l10.54,2.44c8.45,2,11,3.72,11,9.09,0,7.38-8.46,8.67-13.47,8.67-6.59,0-14.19-2.72-14.19-12h-6.51c0,4.8.85,9.09,5.22,13,2.3,2.07,6,4.95,15.55,4.95,8.81,0,20.13-3.37,20.13-15.55C777.32,290.86,772.3,286.85,765.64,285.27Z" transform="translate(-22.68 -48.41)"/></g></svg>