<svg id="Layer_1" data-name="Layer 1" xmlns="http://www.w3.org/2000/svg" viewBox="0 0 767.42 170.35"><defs><style>.cls-1{fill:#535557;}</style></defs><g id="g26531"><g id="q57"><g id="xfrm58"><path id="path3190" class="cls-1" d="M334.21,421.67c0-6.43-4.75-10.88-14.72-10.88h-20v21.94H320C328.32,432.73,334.21,429.76,334.21,421.67Zm-3.6-43.53c0-6.27-4.26-10.56-10.63-10.56H299.53v20.78h20C326.68,388.36,330.61,383.08,330.61,378.14ZM364,424.8c0,18.81-17.33,31.18-34.84,31.18H272.06V344.32h52.33c20.12,0,34.67,10.05,34.67,30.68,0,17.65-15.36,22.92-15.36,22.92,0,.17,20.27,4.79,20.27,26.88" transform="translate(-16.31 -314.77)"/></g></g><g id="q59"><g id="xfrm60"><path id="path3194" class="cls-1" d="M449.4,400.07c0-17.48-8-31.67-23.86-31.67s-23.72,14.19-23.72,31.67c0,17.65,7.85,31.83,23.72,31.83S449.4,417.72,449.4,400.07Zm27.47,0c0,32.82-18.8,58.55-51.33,58.55s-51.35-25.73-51.35-58.55c0-32.66,19-58.55,51.33-58.55,32.55,0,51.35,25.89,51.35,58.55" transform="translate(-16.31 -314.77)"/></g></g><g id="q61"><g id="xfrm62"><path id="path3198" class="cls-1" d="M572.78,422.17c0,24.57-22.24,36.45-43.16,36.45-24.21,0-36.64-9.24-46.45-20.95L501,420.19c7.53,9.57,17.35,14.35,28.3,14.35,9,0,15-4.45,15-11.05,0-7.09-5.34-9.3-20-12.37l-3.91-.83c-17.6-3.69-32.06-13.68-32.06-33.64,0-21.93,17.83-35.13,41.39-35.13,20,0,32.87,8.58,40.72,17.48l-17.35,17.16c-5.39-5.78-13.57-10.4-22.88-10.4-6.37,0-13.58,3-13.58,10.4,0,6.76,7.49,9.21,17,11.21l3.93.83c15.92,3.34,35.15,8.24,35.15,34" transform="translate(-16.31 -314.77)"/></g></g><g id="q63"><g id="xfrm64"><path id="path3202" class="cls-1" d="M679,434.37c-11.44,16.5-22.07,24.25-44.15,24.25-31.39,0-51.68-26.06-51.68-59.21,0-31.5,18.33-57.72,52-57.72,18.48,0,31.73,7.25,43,24.24l-22.56,15C651,373,645.14,368.4,635.32,368.4c-12.42,0-24.37,11.11-24.37,31,0,22.3,12.93,32.49,25.2,32.49,10.61,0,15.52-5.28,20.11-12.87L679,434.37" transform="translate(-16.31 -314.77)"/></g></g><g id="q65"><g id="xfrm66"><path id="path3206" class="cls-1" d="M783.73,456H754.29v-44H720.43v44H691.17V344.32h29.26v41.07h33.86V344.32h29.44V456" transform="translate(-16.31 -314.77)"/></g></g></g><path class="cls-1" d="M147.75,357.84a59.86,59.86,0,0,0-15.92-12.66v29.5H70.74v-29.5a59.37,59.37,0,0,0-15.8,12.53,62.83,62.83,0,0,0,0,84.46,57.15,57.15,0,0,0,15.8,12.66V424.42h61.09v30.41a59.66,59.66,0,0,0,15.92-12.66,63.63,63.63,0,0,0,16.32-42.29A62.73,62.73,0,0,0,147.75,357.84ZM54.94,428.59a54.49,54.49,0,0,1,0-57.56,53.48,53.48,0,0,1,8-10L63.17,439A58.3,58.3,0,0,1,54.94,428.59Zm76.89-12.4H70.74v-33h61.09Zm7.7,22.85.13-78.06a49.29,49.29,0,0,1,8.09,10A54.74,54.74,0,0,1,156,399.88a55.93,55.93,0,0,1-8.23,28.71A58.25,58.25,0,0,1,139.53,439Z" transform="translate(-16.31 -314.77)"/><path class="cls-1" d="M147.75,328.34a85.07,85.07,0,1,0,39,71.54A84.92,84.92,0,0,0,147.75,328.34Zm0,132.63a76.56,76.56,0,1,1-46.21-137.72A76.6,76.6,0,0,1,147.75,461Z" transform="translate(-16.31 -314.77)"/></svg>