<svg id="Layer_1" data-name="Layer 1" xmlns="http://www.w3.org/2000/svg" viewBox="0 0 763.31 330.88"><defs><style>.cls-1{fill:#535557;fill-rule:evenodd;}</style></defs><polygon class="cls-1" points="129.15 266.86 97.23 266.86 97.23 224.17 74.96 224.17 74.96 330.87 97.23 330.87 97.23 283.14 129.13 283.14 129.14 330.87 151.42 330.87 151.42 224.17 129.15 224.17 129.15 266.86 129.15 266.86"/><polygon class="cls-1" points="660.48 224.17 660.48 240.46 690.73 240.46 690.73 330.87 713 330.87 713 240.46 743.25 240.46 743.25 224.17 660.48 224.17 660.48 224.17"/><polygon class="cls-1" points="542.9 224.17 520.63 224.17 520.63 330.87 584.33 330.87 584.33 314.59 542.89 314.59 542.9 224.17 542.9 224.17"/><path class="cls-1" d="M311.78,385.13c-.32,1.11-1.15,1.4-2.32,1.4a2.23,2.23,0,0,1-2.35-1.46l-23.44-88.9h-26l26.94,97.33c1.31,6.42,5.58,9.38,11.62,9.38H316.8c6,0,9.95-3.09,11.46-9.22l26.3-97.49H334.89l-23.11,89Z" transform="translate(-23.69 -72)"/><path class="cls-1" d="M23.7,312.84V386.2c0,11.87,6.09,16.68,16.63,16.68h49.8V386.55h-36c-6.17,0-8.15-1.51-8.15-8.17l0-57.79c0-6.42,1.49-8.15,8.15-8.15h36V296.17H40.37c-11.39,0-16.67,5.88-16.67,16.67Z" transform="translate(-23.69 -72)"/><path class="cls-1" d="M210.75,378.39V355.14H255V338.85H210.78V320.6c0-6.18,1.37-8.15,8.15-8.15h36.55V296.17l-50.32,0c-11.51,0-16.65,5.74-16.65,16.65V386.2c0,11.27,5.49,16.68,16.63,16.68h55V386.55H218.9c-6.18,0-8.15-1.39-8.15-8.17Z" transform="translate(-23.69 -72)"/><path class="cls-1" d="M419.54,357.78c10.29,0,16.63-4.68,16.63-16.68V312.84c0-11.15-5.26-16.67-16.65-16.67H357.45v106.7h22.27V312.46h26c6.9,0,8.15,2,8.15,8.15l0,13c0,6.3-1.74,8.17-8.15,8.17H393.59c-4.72,0-7.38,2.84-7.38,7.44,0,2.31,1.17,4,2.1,5.64l28.12,48H444l-29.44-45.05,5,0Z" transform="translate(-23.69 -72)"/><path class="cls-1" d="M514.18,296.19H465.12c-11.75,0-16.65,6-16.65,16.65V386.2c0,12.11,6.45,16.68,16.64,16.68h49.09c10.67,0,16.66-5.05,16.66-16.68l0-73.36c0-10.91-5.14-16.65-16.65-16.65Zm-13.75,90.37H478.87c-6.41,0-8.15-1.75-8.15-8.17V320.6c0-5.58.77-8.15,8.15-8.15h21.57c5.82,0,8.13,1,8.13,8.14l0,57.79c0,6.9-2.1,8.17-8.16,8.17Z" transform="translate(-23.69 -72)"/><path class="cls-1" d="M634.6,378.39V355.14h44.25V338.85H634.64V320.6c0-6.18,1.36-8.15,8.15-8.15h36.55V296.17l-50.32,0c-11.51,0-16.65,5.74-16.65,16.65l0,73.36c0,11.27,5.49,16.68,16.64,16.68h55V386.55H642.76c-6.18,0-8.16-1.39-8.16-8.17Z" transform="translate(-23.69 -72)"/><path class="cls-1" d="M590.2,102.4H471.6c-3,0-5-.9-5-5.06V79.75c0-5.07-2.73-7.75-7.69-7.75H323.13c-5.08,0-7.69,2.86-7.69,7.71V97.3c0,3.71-1.75,5.06-5,5.06l-77.72,0c-5.95,0-9.43,2.84-11.22,6.56l-37.84,74a6.94,6.94,0,0,0-.77,3.14c0,2.93,1.92,6.71,7.22,6.71H310.42c3.71,0,5,1.69,5,5.06v17.59c0,5.3,3.08,7.71,7.7,7.71H458.88c4.63,0,7.71-2.25,7.71-7.66V197.87c0-3.6,1.52-5.07,5-5.07l75.46,0c5.2,0,9-1.37,11.56-6.21L596,113.46a8.1,8.1,0,0,0,1.39-4.35c0-5-4.28-6.71-7.21-6.71Zm-29.89,29.46-18,35.28c-1.13,2.05-3.14,2.14-4.55,2.14H448.18c-3.71,0-5.07,1.68-5.07,5.06v20.29c0,3.37-1.48,5-5.08,5H344c-3.14,0-5.07-1.11-5.07-5v-20.3c0-3.71-1.7-5-5.07-5H224.07c-2.7,0-4.57-1.7-4.57-4.06a4.13,4.13,0,0,1,.47-1.89L238,128c.69-1.26,1.82-2.11,4.55-2.11h91.27c3.15,0,5.1-1.26,5.1-5.09V100.54c0-3.6,1.57-5,5.05-5h94c3.37,0,5.06,1.5,5.06,5.09v20.3c0,3.48,1.62,5,5.1,5h108c3.44,0,4.56,2.26,4.56,4.06a4,4,0,0,1-.46,1.89Z" transform="translate(-23.69 -72)"/><path class="cls-1" d="M484.22,87.59c0-1.8-1.46-2.21-3-2.21h-3.63v8.35h1.17V90.07h1.62l2.39,3.66h1.31L481.62,90c1.49,0,2.6-.72,2.6-2.36ZM481,89.08h-2.19v-2.7H481c.88,0,2,.1,2,1.19,0,.82-.39,1.51-2.07,1.51Z" transform="translate(-23.69 -72)"/><path class="cls-1" d="M480.39,82.1a7.45,7.45,0,1,0,0,14.89h0a7.45,7.45,0,1,0,0-14.89Zm0,13.72h0a6.28,6.28,0,1,1,6.24-6.32,6.28,6.28,0,0,1-6.24,6.32Z" transform="translate(-23.69 -72)"/><path class="cls-1" d="M783.39,302.12c0-1.8-1.47-2.21-3-2.21h-3.63v8.34H778V304.6h1.63l2.38,3.65h1.31l-2.48-3.77c1.48,0,2.6-.72,2.6-2.36Zm-3.25,1.48H778v-2.69h2.23c.88,0,2,.09,2,1.19,0,.82-.39,1.5-2.07,1.5Z" transform="translate(-23.69 -72)"/><path class="cls-1" d="M779.56,296.62a7.45,7.45,0,1,0,0,14.9h0a7.45,7.45,0,0,0,0-14.9Zm0,13.72h0a6.27,6.27,0,1,1,6.23-6.31,6.28,6.28,0,0,1-6.23,6.31Z" transform="translate(-23.69 -72)"/></svg>