<svg id="Layer_1" data-name="Layer 1" xmlns="http://www.w3.org/2000/svg" viewBox="0 0 684.53 168.75"><defs><style>.cls-1{fill:#535557;}</style></defs><path class="cls-1" d="M324.05,66.33a10.5,10.5,0,0,0,1.5,10C334.3,89,368.24,97.94,410,98.57c26.66,1.41,53.05-1.36,74.3-7.79A102.16,102.16,0,0,0,504.42,82h0c.38-.25,1.27-.85.91-1.49-.22-.39-.85-.12-1.08,0l-.48.24C488,88.49,461.58,92.19,431.39,90.9a226.66,226.66,0,0,1-24.14-2.27c-3.49-.48-6.74-1.06-9.66-1.75-19.09-4-32-10.56-35.47-17.9a8.77,8.77,0,0,1,.22-8.19c6.2-11.84,33.76-21.71,65.52-23.47,6.37-.49,13.3-.71,20.58-.62.5-.06.59-.27.58-.45s-.09-.27-.4-.32l-8.29-.33C385.82,34.21,330.4,48.85,324.05,66.33Z" transform="translate(-57.74 -14.23)"/><path class="cls-1" d="M387.39,14.32c-74.9,1.59-129.16,19.52-131.94,43.61-1.89,16.37,21.36,32,63.78,42.85,9.75,2.5,21.89,5.6,45.19,6.84,1.23-.05,1.5-.56,1.5-1s-.54-.78-1.67-1c-17.23-2.62-24.73-5.1-24.81-5.12-27.88-7.7-43-19.47-41.56-32.28C300,50,336.91,30,403.53,27.15c62.64-2.77,105.26,12.06,115,28.15a15,15,0,0,1,1.43,13.15c-3.17,9.19-14.77,18.17-31.83,24.64-12,4.56-32.5,9.11-52.16,11.58a2.06,2.06,0,0,0-1.28.6l-.07.37c.07.29.32.64,1.14.64,19.89-2,42.72-6.81,55.54-11.76,18.37-7.09,30.51-16.61,34.18-26.79a17.74,17.74,0,0,0-1.28-15.27h0C513.2,32.8,461.53,12.75,387.39,14.32Z" transform="translate(-57.74 -14.23)"/><path class="cls-1" d="M738.83,139.45a3.5,3.5,0,1,1-3.48,3.49,3.44,3.44,0,0,1,3.48-3.49Zm0,.54a3,3,0,0,0,0,5.92,2.84,2.84,0,0,0,2.8-2.95,2.87,2.87,0,0,0-2.8-3Zm-.66,5h-.62v-3.9a6.57,6.57,0,0,1,1.1-.1,2.1,2.1,0,0,1,1.22.3.93.93,0,0,1,.35.81,1,1,0,0,1-.76.95v0c.34.06.58.37.66.94a3.4,3.4,0,0,0,.24,1h-.65a2.83,2.83,0,0,1-.26-1,.73.73,0,0,0-.84-.68h-.44Zm0-2.16h.45c.52,0,.95-.19.95-.67s-.25-.68-.95-.68a2.56,2.56,0,0,0-.45,0Z" transform="translate(-57.74 -14.23)"/><path class="cls-1" d="M495.93,140H457.08a.46.46,0,0,0-.43.32l-2.9,9.1a.5.5,0,0,0,.07.41.47.47,0,0,0,.37.18h19.43l-10.13,32.23a.3.3,0,0,0,0,.13.42.42,0,0,0,.09.27.44.44,0,0,0,.36.19h16.52a.45.45,0,0,0,.43-.32s10-31.87,10.23-32.5h18.41a.46.46,0,0,0,.44-.32l2.81-9.1a.57.57,0,0,0,0-.13.47.47,0,0,0-.45-.46Z" transform="translate(-57.74 -14.23)"/><path class="cls-1" d="M128.59,140.06l-50.07.05c-5-.05-11.59,3.32-13.33,8.87L57.9,171.8a6.53,6.53,0,0,0,1.38,5.67c2.62,3.81,8.16,5.51,18,5.51l36.05,0a.43.43,0,0,0,.38-.23l4.86-9.29a.45.45,0,0,0,0-.42.44.44,0,0,0-.37-.21l-20.4,0h-22c.34-1.06,5.06-16,5.06-16s1.46-4.63,1.55-4.89c1.41-1.3,3.39-1.87,6.06-1.73h35.19A.42.42,0,0,0,124,150l5-9.29a.43.43,0,0,0-.38-.64Z" transform="translate(-57.74 -14.23)"/><path class="cls-1" d="M189.61,146.67c-.22-.41-2.34-4.07-9.35-5.72a30.46,30.46,0,0,0-7-.78l-1,0H143.88c-6.85,0-12.34,3.65-14.31,9.53l-7,22.09s0,.16,0,.18a7.3,7.3,0,0,0,1.53,5.21c2.75,4,8.39,5.83,17.76,5.83h21.28c11.5,0,17.47-2.53,19.36-8.19L190,151A6.78,6.78,0,0,0,189.61,146.67ZM166.05,171c-.17.52-1.58,1.83-6.06,1.83l-20,0,5-15.72,1.62-5.09c.24-.33,1.46-1.64,6-1.68l16.47-.1,3.53,0C171.42,154.15,166.27,170.45,166.05,171Z" transform="translate(-57.74 -14.23)"/><path class="cls-1" d="M319.55,145.74c-2.44-3.3-8.35-5.48-15-5.55l-29.05-.09c-5.41,0-12.37,1.38-14.72,8l-.05.16c-.41,1.08-7.15,22.57-7.44,23.49l-3.39,10.68a.45.45,0,0,0,.07.39.43.43,0,0,0,.35.17h16.64a.44.44,0,0,0,.41-.3L272.61,166l34.73,0c5.94,0,8.84-1.38,10-4.76l.33-1,2.85-9.15A5.92,5.92,0,0,0,319.55,145.74ZM303,151.26s-.82,2.63-.82,2.63c-.57,1.78-1.89,1.85-4.37,1.83h-.6l-21.31,0c.28-.82,1.05-3.12,1.05-3.12l.22-.69c.22-.69.76-1.58,3-1.58.19,0,18.66,0,20.55,0s2.21.44,2.31.59S303.07,151,303,151.26Z" transform="translate(-57.74 -14.23)"/><path class="cls-1" d="M325.16,149s-.08.14-.09.18c-.06.2-6.38,20.3-6.64,21a6.84,6.84,0,0,0,.75,6.65c2.76,4,9.6,6.12,14.63,6.12l39.27,0a.44.44,0,0,0,.38-.23l4.65-9.08a.42.42,0,0,0,0-.42.41.41,0,0,0-.36-.2l-20,.08-22.35-.07c.28-.87,2.17-6.67,2.33-7.15l30.82.07a.43.43,0,0,0,.4-.3l2.91-9.17a.59.59,0,0,0,0-.13.46.46,0,0,0-.08-.25.43.43,0,0,0-.35-.17L341,155.88c.27-.75.85-2.31.85-2.31l.15-.44c.65-2.07,3.8-2.13,4.76-2.1l36.07.07a.42.42,0,0,0,.37-.22l5.54-10a.43.43,0,0,0-.38-.64l-46.07-.07C336.85,139.86,329.08,140.48,325.16,149Z" transform="translate(-57.74 -14.23)"/><path class="cls-1" d="M517.6,140a.46.46,0,0,0-.44.32l-13.25,42a.46.46,0,0,0,.06.41.49.49,0,0,0,.37.18l16.53,0a.45.45,0,0,0,.43-.32l13.21-41.91a.46.46,0,0,0-.06-.41.47.47,0,0,0-.37-.19Z" transform="translate(-57.74 -14.23)"/><path class="cls-1" d="M255.09,146.67h0c-.22-.41-2.35-4.07-9.34-5.72a30.52,30.52,0,0,0-7-.78l-1,0H209.37c-6.86,0-12.34,3.65-14.31,9.53l-7,22.09a1.13,1.13,0,0,0,0,.18,7.3,7.3,0,0,0,1.53,5.21c2.74,4,8.39,5.83,17.76,5.83h21.27c11.5,0,17.48-2.53,19.37-8.19l7.5-23.76A6.81,6.81,0,0,0,255.09,146.67ZM231.54,171c-.18.52-1.6,1.83-6.07,1.83l-19.95,0,5-15.66,1.64-5.15c.24-.33,1.45-1.64,6-1.68l16.48-.1,3.52,0C236.82,154.44,231.75,170.47,231.54,171Z" transform="translate(-57.74 -14.23)"/><path class="cls-1" d="M449.39,145.59c-2.45-3.3-8.35-5.47-15-5.54h0l-41,0a.44.44,0,0,0-.42.3l-9.81,31.19s0,0-3.39,10.68a.42.42,0,0,0,.07.39.43.43,0,0,0,.34.18h16.65a.45.45,0,0,0,.41-.3L402.46,166h1.67l15.34-.08c.4,1.11,1.8,4.67,6.59,16.81a.41.41,0,0,0,.4.27l15.92,0a.46.46,0,0,0,.35-.17.5.5,0,0,0,.08-.26.69.69,0,0,0,0-.13l-5-16.49c5.54-.09,8.31-1.48,9.45-4.75l.27-.86,2.91-9.32a6.26,6.26,0,0,0,.25-1.74A6,6,0,0,0,449.39,145.59Zm-16.56,5.52s-.82,2.64-.82,2.64c-.57,1.78-1.9,1.85-4.39,1.82H427l-21.31,0,1-3.11.23-.71c.21-.69.74-1.57,2.95-1.57.19,0,18.66,0,20.55,0s2.21.44,2.31.59S432.91,150.9,432.83,151.11Z" transform="translate(-57.74 -14.23)"/><path class="cls-1" d="M596.22,145.59c-2.45-3.3-8.35-5.47-15-5.54h0l-41,0a.44.44,0,0,0-.42.3l-9.81,31.19-3.39,10.68a.45.45,0,0,0,.07.39.44.44,0,0,0,.35.18h16.64a.44.44,0,0,0,.41-.3s5.12-16,5.29-16.55h1.65l15.37-.08c.39,1.11,1.79,4.67,6.58,16.81a.43.43,0,0,0,.4.27l15.92,0a.43.43,0,0,0,.35-.17.47.47,0,0,0,.08-.26.32.32,0,0,0,0-.13l-5-16.49c5.53-.09,8.3-1.48,9.44-4.75l.33-1,2.85-9.14a6.34,6.34,0,0,0,.26-1.75A6,6,0,0,0,596.22,145.59Zm-30,20.13a.49.49,0,0,1-.08-.25s0-.06,0-.08a1.25,1.25,0,0,0,.09.34Zm13.43-14.61-.82,2.64c-.57,1.78-1.89,1.85-4.38,1.82h-.59l-21.31,0,1.06-3.15.22-.67c.22-.69.75-1.57,3-1.57.18,0,18.65,0,20.55,0s2.2.44,2.31.59A.36.36,0,0,1,579.66,151.11Z" transform="translate(-57.74 -14.23)"/><path class="cls-1" d="M603.46,149a1,1,0,0,0-.1.18c-.06.2-6.37,20.3-6.64,21a6.89,6.89,0,0,0,.75,6.65c2.76,4,9.6,6.12,14.64,6.12l39.26,0a.42.42,0,0,0,.38-.24l4.65-9.07a.42.42,0,0,0,0-.42.43.43,0,0,0-.37-.2l-20,.08-22.35-.07c.27-.85,2.17-6.66,2.33-7.15l30.81.07a.45.45,0,0,0,.41-.3l2.9-9.17a.3.3,0,0,0,0-.13.39.39,0,0,0-.08-.25.41.41,0,0,0-.34-.17l-30.37-.08.82-2.27.17-.47c.66-2.08,3.81-2.14,4.76-2.11l36.07.07a.41.41,0,0,0,.37-.22l5.54-10a.4.4,0,0,0,0-.42.44.44,0,0,0-.37-.21l-46.07-.07C615.14,139.86,607.38,140.48,603.46,149Z" transform="translate(-57.74 -14.23)"/><path class="cls-1" d="M703.42,182.88c.36,0,7.33-.2,11.21-2.42,4.51-2.6,5.13-3.74,6.13-6.89l3.42-10.78a5,5,0,0,0-.4-4.35c-1.18-1.76-3.7-2.65-7.49-2.65H682l1.08-3.55a3.64,3.64,0,0,1,3.73-2.63c2.68-.08,16.27,0,16.41,0l22.77,0a.44.44,0,0,0,.38-.23l4.65-9.08a.42.42,0,0,0,0-.42.43.43,0,0,0-.36-.2l-45.95.08c-.57,0-14.25-.16-17.18,9.09l-2.87,9c-.14.44-1.32,4.37.53,5.76,1.64,1.24,3.61,1.73,7,1.73h33.88l-2.39,7.71s-41.07-.09-41.17-.06a.56.56,0,0,0-.34.23l-4.65,9.08a.43.43,0,0,0,0,.41.44.44,0,0,0,.37.21l45.65-.1Z" transform="translate(-57.74 -14.23)"/></svg>