<svg xmlns="http://www.w3.org/2000/svg" viewBox="0 0 773.78 407.26"><defs><style>.cls-1{fill:#535557;}</style></defs><path class="cls-1" d="M420.78,106.07c84,26.06,359,118.31,359,118.31h7.08L399.52,20.74,13.11,224.38h6.36s275.74-90.91,359.76-118.45c12.67-4.34,28.21-4.8,41.55.14Z" transform="translate(-13.11 -20.74)"/><path class="cls-1" d="M379.78,342.8C297.25,313.75,19.63,224.3,19.63,224.3l-6.52,0L400.27,428,786.89,224.34H780S503,313.76,420.48,342.8c-14.55,4.65-26.06,4.53-40.7,0Z" transform="translate(-13.11 -20.74)"/><path class="cls-1" d="M246.41,182.5H200.49v86.94s31.59.14,45.91,0c17.31-.14,30.17-5.29,38.22-15.29,7.36-9.15,8.91-20.2,8.91-27.86,0-7.22-2.28-43.29-47.12-43.81ZM267,226.31c0,10.95-8.33,19.18-19.37,19.18H228.29V207.27h19.29A19.68,19.68,0,0,1,261.44,213,18.69,18.69,0,0,1,267,226.31Z" transform="translate(-13.11 -20.74)"/><path class="cls-1" d="M354,182.56H322.84l-36.73,86.95h29.77l4.33-9.9h36.92l4,9.9h31.55L354,182.56Zm-24.54,56.15,9-22.85,9.42,22.85Z" transform="translate(-13.11 -20.74)"/><path class="cls-1" d="M564.58,182.56H533.42l-36.73,86.95h29.78l4.32-9.9h36.93l4,9.9h31.56l-38.69-86.95ZM540,238.71l9-22.85,9.42,22.85Z" transform="translate(-13.11 -20.74)"/><path class="cls-1" d="M463.05,182.56v46.79l-37.21-46.79H395.71v86.95h29.42L425,223.84c4.51,5.5,37.26,45.67,37.26,45.67h30.27V182.56Z" transform="translate(-13.11 -20.74)"/></svg>