<svg id="Layer_1" data-name="Layer 1" xmlns="http://www.w3.org/2000/svg" viewBox="0 0 767.7 158.82"><defs><style>.cls-1{fill:#535557;}</style></defs><path class="cls-1" d="M276.12,211.37a25.55,25.55,0,0,0,8.09,4,35.25,35.25,0,0,0,10.51,1.5c9,0,16.09-2.73,21-8.1l.44-.48V186.46H289.69v10.79h14.85v6.51a16,16,0,0,1-8.35,2,21.48,21.48,0,0,1-9.37-2,15.37,15.37,0,0,1-6.35-5.43,13.78,13.78,0,0,1-2.26-7.79,13.23,13.23,0,0,1,1.37-6,13,13,0,0,1,3.67-4.51,18.24,18.24,0,0,1,5.39-2.84,22.81,22.81,0,0,1,13.05-.12,28.54,28.54,0,0,1,5.59,2l2.7,1.42L315,171l-2.61-1.49a36.13,36.13,0,0,0-17.81-4.42,34.91,34.91,0,0,0-10,1.39,24.86,24.86,0,0,0-13.62,9.6,23.91,23.91,0,0,0-3.47,7.08,27.46,27.46,0,0,0-1.1,7.76,28.26,28.26,0,0,0,1,7.47,24.92,24.92,0,0,0,3.24,7.08A24.6,24.6,0,0,0,276.12,211.37Z" transform="translate(-15.86 -160.73)"/><path class="cls-1" d="M348.31,165.43l-20.13,50.82h11.75l5.31-12.42h17.13l5.31,12.42h12.24l-20.1-50.82Zm9.78,27.31h-8.6l4.31-11.2Z" transform="translate(-15.86 -160.73)"/><polygon class="cls-1" points="412.78 44.42 388.74 44.42 388.74 4.7 376.95 4.7 376.95 55.52 412.78 55.52 412.78 44.42"/><polygon class="cls-1" points="462.91 44.42 438.88 44.42 438.88 4.7 427.08 4.7 427.08 55.52 462.91 55.52 462.91 44.42"/><path class="cls-1" d="M518.58,165.43H507.07l-20.13,50.82h11.75L504,203.83h17.13l5.31,12.42h12.24Zm-1.73,27.31h-8.6l4.31-11.2Z" transform="translate(-15.86 -160.73)"/><path class="cls-1" d="M572.36,197.25h14.85v6.51a16,16,0,0,1-8.35,2,21.48,21.48,0,0,1-9.37-2,15.37,15.37,0,0,1-6.35-5.43,13.78,13.78,0,0,1-2.26-7.79,13.24,13.24,0,0,1,1.38-6,12.89,12.89,0,0,1,3.66-4.51,18.24,18.24,0,0,1,5.39-2.84,22.81,22.81,0,0,1,13.05-.12,28.54,28.54,0,0,1,5.59,2l2.7,1.42,5.06-9.55-2.61-1.49a36.13,36.13,0,0,0-17.81-4.42,34.91,34.91,0,0,0-10,1.39,24.86,24.86,0,0,0-13.62,9.6,23.91,23.91,0,0,0-3.47,7.08,27.46,27.46,0,0,0-1.1,7.76,28.26,28.26,0,0,0,1,7.47,24.92,24.92,0,0,0,3.24,7.08,24.6,24.6,0,0,0,5.5,5.93,25.55,25.55,0,0,0,8.09,4,35.25,35.25,0,0,0,10.51,1.5c9,0,16.09-2.73,21-8.1l.44-.48V186.46H572.36Z" transform="translate(-15.86 -160.73)"/><polygon class="cls-1" points="634.92 23.79 612.93 23.79 612.93 4.7 601.13 4.7 601.13 55.52 612.93 55.52 612.93 34.92 634.92 34.92 634.92 55.52 646.71 55.52 646.71 4.7 634.92 4.7 634.92 23.79"/><polygon class="cls-1" points="666.86 55.52 703.53 55.52 703.53 44.39 678.69 44.39 678.69 34.95 701.69 34.95 701.69 23.83 678.69 23.83 678.69 15.82 703.53 15.82 703.53 4.7 666.86 4.7 666.86 55.52"/><path class="cls-1" d="M768.61,195.55a16.28,16.28,0,0,0,3.18-1.79,14.15,14.15,0,0,0,3.67-3.88,15.92,15.92,0,0,0,1.93-4.41,18.05,18.05,0,0,0,.61-4.76,18.33,18.33,0,0,0-.7-5.25,13.86,13.86,0,0,0-1.86-4,12.07,12.07,0,0,0-2.88-2.82,15.25,15.25,0,0,0-3.23-1.76,18.59,18.59,0,0,0-3.49-.94,29.22,29.22,0,0,0-3.22-.43c-.87,0-1.82-.08-2.87-.08H737.87v50.82h11.79v-18.4h5.49l13.29,18.4h15.12Zm-19-19h7.63c8.55,0,8.55,3.6,8.55,4.95a5,5,0,0,1-.48,2.29,4.15,4.15,0,0,1-1.21,1.44,6.89,6.89,0,0,1-2.14.9,18.37,18.37,0,0,1-2.9.5c-1,.09-2.12.13-3.39.13h-6.06Z" transform="translate(-15.86 -160.73)"/><polygon class="cls-1" points="299.65 78.77 284.07 78.77 264.83 98.1 264.83 78.77 253.03 78.77 253.03 129.59 264.83 129.59 264.83 109.04 285.13 129.59 300.75 129.59 275.13 103.18 299.65 78.77"/><path class="cls-1" d="M342.5,239.5l-20.13,50.82h11.75l5.31-12.42h17.13l5.31,12.42h12.24L354,239.5Zm9.78,27.31h-8.6L348,255.62Z" transform="translate(-15.86 -160.73)"/><rect class="cls-1" x="372.14" y="78.77" width="11.79" height="50.82"/><path class="cls-1" d="M454.83,264.2a36.38,36.38,0,0,0-5.75-2.67c-2.06-.75-4.12-1.42-6.12-2s-3.74-1.1-5.36-1.66a11.79,11.79,0,0,1-3.52-1.81,1.9,1.9,0,0,1-.91-1.55c0-.94.84-1.81,2.5-2.57,4.28-2,10.71-1.92,18.24.16l2.8.81L460.57,242l-3.06-.89a46.63,46.63,0,0,0-13.61-2c-6.87,0-12.48,1.47-16.67,4.37-4.4,3-6.63,6.89-6.63,11.47a11.41,11.41,0,0,0,1.15,5.11,11.23,11.23,0,0,0,3.06,3.82,22.12,22.12,0,0,0,4.07,2.54,34.94,34.94,0,0,0,4.69,1.86q2.37.75,4.74,1.39c1.53.41,3,.85,4.39,1.28a29.26,29.26,0,0,1,3.54,1.36,6.27,6.27,0,0,1,2.05,1.5,2.18,2.18,0,0,1,.56,1.47c0,.42,0,1.52-2.25,2.63-3.92,1.93-10.59,2.17-20.89-1.5l-2.93-1.13-4,11.28,2.76,1.05a58.83,58.83,0,0,0,8,2.52,41.3,41.3,0,0,0,17.29,0,23.51,23.51,0,0,0,6.54-2.5,17.25,17.25,0,0,0,4.43-3.68,13.92,13.92,0,0,0,2.61-4.39,13.52,13.52,0,0,0,.78-4.52,11.55,11.55,0,0,0-1.82-6.41A13.58,13.58,0,0,0,454.83,264.2Z" transform="translate(-15.86 -160.73)"/><polygon class="cls-1" points="462.83 129.59 499.5 129.59 499.5 118.46 474.66 118.46 474.66 109.02 497.67 109.02 497.67 97.9 474.66 97.9 474.66 89.89 499.5 89.89 499.5 78.77 462.83 78.77 462.83 129.59"/><path class="cls-1" d="M567.76,267.83a14.14,14.14,0,0,0,3.67-3.88,16.09,16.09,0,0,0,1.93-4.41,18.05,18.05,0,0,0,.61-4.76,18.37,18.37,0,0,0-.7-5.25,13.86,13.86,0,0,0-1.86-4,11.92,11.92,0,0,0-2.88-2.83A15.64,15.64,0,0,0,565.3,241a18.59,18.59,0,0,0-3.49-.94,28.91,28.91,0,0,0-3.22-.42c-.87-.06-1.82-.09-2.87-.09H533.84v50.82h11.79v-18.4h5.49l13.29,18.4h15.12l-14.95-20.7A16.28,16.28,0,0,0,567.76,267.83Zm-22.13-17.24h7.63c8.55,0,8.55,3.6,8.55,4.95a5,5,0,0,1-.48,2.29,4.06,4.06,0,0,1-1.21,1.44,6.89,6.89,0,0,1-2.14.9,18.77,18.77,0,0,1-2.9.5c-1,.09-2.11.13-3.39.13h-6.06Z" transform="translate(-15.86 -160.73)"/><path class="cls-1" d="M15.86,190.57v72.71c0,16.48,11.94,29.84,26.67,29.84H62.25V160.73H42.53C27.8,160.73,15.86,174.09,15.86,190.57Z" transform="translate(-15.86 -160.73)"/><rect class="cls-1" x="52.3" width="46.8" height="61.06"/><rect class="cls-1" x="52.3" y="71.33" width="46.8" height="87.5"/><polygon class="cls-1" points="143.4 132.63 171.68 132.38 143.4 89.09 143.4 132.63"/><polygon class="cls-1" points="143.4 0 143.4 43.29 171.43 0 143.4 0"/><polygon class="cls-1" points="216.72 132.38 216.72 0 170.67 66.32 216.72 132.38"/></svg>