<svg id="Layer_1" data-name="Layer 1" xmlns="http://www.w3.org/2000/svg" viewBox="0 0 691.81 193.75"><defs><style>.cls-1{fill:#535557;}</style></defs><path class="cls-1" d="M168.59,49.06H87.8v56.59h61.78V83.05H110.26V71.75h50.55v45.29H76.55V37.8h80.78L134.69,15.15H63.11c-9.24,0-9,7.31-9,7.31V132.33c0,7.32,7.49,7.32,7.49,7.32h114c7.49,0,7.71-8,7.71-8V63.74Z" transform="translate(-54.09 -15.15)"/><path class="cls-1" d="M299.46,128V100.17H269.81V92.51h38.95v43.1H269.7a65.17,65.17,0,0,1-17.83-2.36A40.52,40.52,0,0,1,237.43,126a33.59,33.59,0,0,1-9.63-12.36,42,42,0,0,1-3.5-17.89,36.92,36.92,0,0,1,3.45-16.5,33.76,33.76,0,0,1,9.57-12.36,41.69,41.69,0,0,1,14.38-7.38,62.87,62.87,0,0,1,18-2.46,66.24,66.24,0,0,1,11.6,1,41.19,41.19,0,0,1,11,3.5,30.52,30.52,0,0,1,9,6.56A25.25,25.25,0,0,1,307,78.52l-9.08,2.08a16.67,16.67,0,0,0-4.21-7.55,23.79,23.79,0,0,0-7-4.92,33.26,33.26,0,0,0-8.42-2.63,50,50,0,0,0-8.48-.77,53.61,53.61,0,0,0-14.44,1.86,31.15,31.15,0,0,0-11.49,5.8,27.29,27.29,0,0,0-7.55,10,30.26,30.26,0,0,0-2.73,13.43,35.37,35.37,0,0,0,2.68,14.39,26.31,26.31,0,0,0,7.55,10A32,32,0,0,0,255.32,126,51.83,51.83,0,0,0,269.81,128Z" transform="translate(-54.09 -15.15)"/><path class="cls-1" d="M323.52,135.61V59h69v7.66H332.82V92.28h52.84v7.66H332.82v28h60.39v7.66Z" transform="translate(-54.09 -15.15)"/><path class="cls-1" d="M473.73,135.6l-21.88-32.38H415.09v32.39h-9.3V59h51.53a31.89,31.89,0,0,1,9.51,1.42,24.49,24.49,0,0,1,8.1,4.21,20.57,20.57,0,0,1,5.58,7,21.06,21.06,0,0,1,2.08,9.52A21.35,21.35,0,0,1,481,89.71a19.94,19.94,0,0,1-4.49,6.51,23,23,0,0,1-6.62,4.43,28.37,28.37,0,0,1-8,2.25l22.43,32.7Zm-.44-54.47A14.12,14.12,0,0,0,472,75.05a13.46,13.46,0,0,0-3.45-4.54,15.55,15.55,0,0,0-5-2.84,18.54,18.54,0,0,0-6.13-1H415.09V95.56h42.33a18.54,18.54,0,0,0,6.13-1,15.55,15.55,0,0,0,5-2.84A13.36,13.36,0,0,0,472,87.2,14.11,14.11,0,0,0,473.29,81.13Z" transform="translate(-54.09 -15.15)"/><path class="cls-1" d="M574.81,113.51a26.5,26.5,0,0,1-1.75,10.12,17.63,17.63,0,0,1-5,6.89,19.88,19.88,0,0,1-7.77,3.88,39.54,39.54,0,0,1-10.11,1.2h-55V59h49.88a38.08,38.08,0,0,1,9.41,1.14,24.35,24.35,0,0,1,8,3.61A18.2,18.2,0,0,1,568,70.13a19.65,19.65,0,0,1,2.07,9.35,20,20,0,0,1-2.24,9.36,15.17,15.17,0,0,1-6.73,6.62,23.28,23.28,0,0,1,10,6.67Q574.81,106.51,574.81,113.51Zm-14-34.14a13,13,0,0,0-1.26-6,10.59,10.59,0,0,0-3.39-3.94,14.55,14.55,0,0,0-5-2.13,26.57,26.57,0,0,0-6-.66H504.47v25.6h44.41a10.93,10.93,0,0,0,8.7-3.72A13.51,13.51,0,0,0,560.81,79.37Zm4.7,34.14a13.77,13.77,0,0,0-1.42-6.57,12.16,12.16,0,0,0-3.78-4.26,14.57,14.57,0,0,0-5.52-2.3,33.33,33.33,0,0,0-6.78-.66H504.47V128H550.2c4.95,0,8.75-1.13,11.37-3.39S565.51,118.61,565.51,113.51Z" transform="translate(-54.09 -15.15)"/><path class="cls-1" d="M585.2,135.6V59h69v7.65H594.5v25.6h52.84v7.66H594.5v28h60.39v7.65Z" transform="translate(-54.09 -15.15)"/><path class="cls-1" d="M735.4,135.6l-21.88-32.38H676.77V135.6h-9.3V59H719a31.89,31.89,0,0,1,9.51,1.42,24.58,24.58,0,0,1,8.1,4.21,20.57,20.57,0,0,1,5.58,7,23.08,23.08,0,0,1,.43,18.1,19.91,19.91,0,0,1-4.48,6.51,23,23,0,0,1-6.62,4.43,28.55,28.55,0,0,1-8,2.25l22.43,32.7ZM735,81.13a14.12,14.12,0,0,0-1.26-6.08,13.36,13.36,0,0,0-3.45-4.54,15.66,15.66,0,0,0-5-2.84,18.54,18.54,0,0,0-6.13-1H676.77V95.56H719.1a18.54,18.54,0,0,0,6.13-1,15.66,15.66,0,0,0,5-2.84,13.36,13.36,0,0,0,3.45-4.54A14.11,14.11,0,0,0,735,81.13Z" transform="translate(-54.09 -15.15)"/><path class="cls-1" d="M244.53,170.77H230V168h32.2v2.76H247.64V208.2h-3.11Z" transform="translate(-54.09 -15.15)"/><path class="cls-1" d="M270.69,186.53h23.58v2.81H270.69v15.88h25.42v3H267.65V168h27.77v2.94H270.69Z" transform="translate(-54.09 -15.15)"/><path class="cls-1" d="M335.4,202.63a20.75,20.75,0,0,1-14.66,6c-13.57,0-20.64-9.49-20.7-20.36s6.9-20.81,20.7-20.81a20.74,20.74,0,0,1,14.66,6l-2.13,1.84a17.61,17.61,0,0,0-12.53-5.12C309,170.25,303,178.54,303,188.2c.11,9.43,6.09,17.59,17.71,17.59a18,18,0,0,0,12.59-5.12Z" transform="translate(-54.09 -15.15)"/><path class="cls-1" d="M369.77,208.2V189.92H344.12V208.2H341V168h3.1V187.1h25.65V168h3.1V208.2Z" transform="translate(-54.09 -15.15)"/><path class="cls-1" d="M383.61,168l27.09,33.3V168h3V208.2h-1.21L385.4,175V208.2h-3.11V168Z" transform="translate(-54.09 -15.15)"/><path class="cls-1" d="M461.77,188.14c-.06,10.58-6.79,20.76-20.3,20.76s-20.3-10.24-20.3-20.88c0-10.81,6.73-20.7,20.3-20.7S461.82,177.27,461.77,188.14Zm-37.55-.06c.06,9.09,5.8,17.94,17.25,17.94s17.3-8.85,17.3-17.94c0-9.31-5.74-17.88-17.3-17.88S424.16,178.59,424.22,188.08Z" transform="translate(-54.09 -15.15)"/><path class="cls-1" d="M472.41,168v37.32h22.66v2.93H469.31V168Z" transform="translate(-54.09 -15.15)"/><path class="cls-1" d="M536.85,188.14c-.06,10.58-6.79,20.76-20.3,20.76s-20.3-10.24-20.3-20.88c0-10.81,6.73-20.7,20.3-20.7S536.91,177.27,536.85,188.14Zm-37.55-.06c.06,9.09,5.81,17.94,17.25,17.94s17.31-8.85,17.31-17.94c0-9.31-5.75-17.88-17.31-17.88S499.24,178.59,499.3,188.08Z" transform="translate(-54.09 -15.15)"/><path class="cls-1" d="M575.84,175.37a18.72,18.72,0,0,0-12.94-5.17c-11.79,0-17.83,8.62-17.77,17.94,0,9.49,6,17.65,17.77,17.65a18.13,18.13,0,0,0,12.25-4.66V189.86h-14v-2.7h17v15.07a20.81,20.81,0,0,1-15.18,6.49c-13.69,0-20.76-9.54-20.76-20.52-.06-12.6,8.51-20.82,20.76-20.82a20.93,20.93,0,0,1,14.72,6Z" transform="translate(-54.09 -15.15)"/><path class="cls-1" d="M597.12,192.1,581.42,168V168H585l13.63,21.16L612.36,168H616V168L600.22,192.1v16.1h-3.1Z" transform="translate(-54.09 -15.15)"/></svg>