<svg id="Layer_1" data-name="Layer 1" xmlns="http://www.w3.org/2000/svg" viewBox="0 0 750.98 750.98"><defs><style>.cls-1{fill:#535557;}</style></defs><path class="cls-1" d="M24.34,27.25v751h751v-751ZM770.66,773.56H29V31.92H770.66Z" transform="translate(-24.34 -27.25)"/><path class="cls-1" d="M399.83,724.59a319.72,319.72,0,0,0,227.58-94.27q3.81-3.81,7.46-7.73c-.57-2.49-1-4.37-1.24-5.51q-4.65,5.05-9.51,9.94A317.18,317.18,0,1,1,175.55,178.46,317.25,317.25,0,0,1,667.43,573.2c.06.26.6,2.59,1.47,6.31A321.9,321.9,0,0,0,172.25,175.16,321.85,321.85,0,0,0,399.83,724.59Z" transform="translate(-24.34 -27.25)"/><path class="cls-1" d="M468.76,364.31s-.32-4.14-12.63-5-15.41,5.11-17.24,7.66-1.89,9.35-.26,9.67,4-4.9,8.18-5c4.54-.09,6.51,4.17,11.8,5.16a17.42,17.42,0,0,0,7.48-.72,45.63,45.63,0,0,1,.41-5.95A13.09,13.09,0,0,1,468.76,364.31Z" transform="translate(-24.34 -27.25)"/><path class="cls-1" d="M407.84,308.4c-10.9,0-14.2,7.2-14.2,12.55s1.45,6,3.09,7.81,5.35,2.06,5.35,2.06a21.25,21.25,0,0,1,1-7.41c1.23-3.08,5.76-.82,8.23-2.46,1.14-.77.41-2.89.2-5.35s.83-2.67,1.24-4.12S412.57,308.4,407.84,308.4Z" transform="translate(-24.34 -27.25)"/><path class="cls-1" d="M575.82,459.15V408.53c-2.4-.46-7.39-1-11.57,1.2-7,3.74-2.52,13.08-1.5,16C567.39,439,573.19,452.94,575.82,459.15Z" transform="translate(-24.34 -27.25)"/><path class="cls-1" d="M613.89,481.91H611l.31.82.11.29.19.54c2.55,7,22.5,63.3,39.17,110.4.23.64.45,1.27.68,1.9l1.85,5.24C664.62,633,673.81,659,674.06,659.63a5.79,5.79,0,0,0,1.47,2,4.15,4.15,0,0,0,.73.47,2.37,2.37,0,0,0,.36.17,2.69,2.69,0,0,0,.54.14,2.45,2.45,0,0,0,.46,0,3.32,3.32,0,0,0,1.47-.36c2.44-1.23,2.28-4.14,1.87-5.45l-16-71.29-1.39-6.21-.2-.87-21.4-95.23-.14-.65h-.67a18.47,18.47,0,0,1-12-5.26c-4.58-4.53-6.91-11.55-6.91-20.85V404.13h-8.37Z" transform="translate(-24.34 -27.25)"/><path class="cls-1" d="M677.66,681.3q-2.2-7.8-4.63-15.43c-.09-.29-.17-.57-.26-.85l-.27-.85c-5.52-17.3-11.65-33.79-17.21-48.76q-2.2-6-4.24-11.46c-.25-.7-.52-1.41-.77-2.11-.34-.92-.7-1.94-1.1-3-.22-.62-.46-1.27-.7-1.94-9.15-25.22-29.44-81.76-31.1-86.56h0c-.91-2.61-1.7-3.66-2.72-3.61s-1.47,1.36-1.53,1.63l0,.19,21.39,90.56.19.82.19.81,2.41,10.2.4,1.67.15.62c0,.09.44,1.88,1.18,4.92,2.79,11.53,10,41,16.3,63.4,8,28.48,16.43,55.48,17.52,58.11a20.35,20.35,0,0,0,3.88,5.64c.31.36.64.74,1,1.15,1.33,1.57,9.69,8.5,14.17,8.5a3.13,3.13,0,0,0,1.29-.25c1.29-.59,1.76-2,1.41-4.18C693.13,741.62,686,711,677.66,681.3Z" transform="translate(-24.34 -27.25)"/><path class="cls-1" d="M580.28,372.45a19.32,19.32,0,1,1,29.46,0l-1.15,1.36h12.89l-.14-.94c0-.17-2.51-17-5-28.44-.53-2.46-1.21-5.18-1.95-7.92l-.92-.26-.42-.11-.5-.14c-3.25-.91-21.66-6.13-39.87-12.63-20.49-7.32-35.09-13-44.58-18.79A58.6,58.6,0,0,1,517,295.5c-2.2-2.15-3.93-3.85-5.45-4.19-1.17-.26-2.9-.5-5.09-.81a130.72,130.72,0,0,1-17.37-3.32c-9.62-2.66-22.57-7.58-25.19-8.67-.9-.37-1.2-.06-1.85.63a3.19,3.19,0,0,1-2.36,1.29c-2,0-16.55-4.49-28.75-16.49-19.47-19.13-24.45-36.25-23.15-39.83A1.44,1.44,0,0,1,409,223c1.05-.1,2.83.64,5.5,1.75,4.44,1.85,11.15,4.64,18.47,5,1.12.05,1.44-.87,1.92-3,.41-1.81.92-4.06,3.12-4.2,1.44-.09,4.23.86,8.47,2.28,6.28,2.11,14.89,5,23.13,5.75a1,1,0,0,0,.8-.16c.43-.37.51-1.53.59-2.55.12-1.84.33-4.63,3.31-4.49.8,0,2.41.61,5.67,1.81,7,2.56,18.69,6.84,30.56,7.86,2.16.19,2.49-1,2.9-3.21.3-1.6.67-3.58,2.79-3.58a43,43,0,0,1,6.55,1.57c8.26,2.25,23.62,6.45,35.2,6.45,4.46,0,6.9-1.5,7.89-2.29a3.67,3.67,0,0,0,.52-.49l.07-.09.48-.57.64.56,0,0c-.65-.7-25.5-27.2-74.44-54-44.47-24.38-83.94-24.07-87.76-24-3.31-2.44-40.33-29-81.92-29-43.14,0-66.85,22.56-66.85,30a5.11,5.11,0,0,0,2.32,4.53c-2,2.42-8.7,12.16-8.7,34.55,0,26.33,23,42.17,33.73,45s17.21,1.75,17.08,0c-.21-2.68-2.88-3.5-6-7.2s-7.61-8.23-6.79-9.66,2.47-2.68,5.76-.83a41.76,41.76,0,0,0,17.49,4.32c6.58,0,9.87-2.67,11.31-2.88a17.29,17.29,0,0,0,3.1-.92,2.36,2.36,0,0,0,.18.21l.06.08,52.5,38.35c.61,2.34,5,16.64,23.55,27.58,4.05,2.39,12,7,22.13,12.78L447.93,314a6.59,6.59,0,0,1-3.47.55c-4.33-.41-11.11-7-17.08-6.79s-10.7.86-12.34,9.05c-.62,3.08,1.23,4.94,2.06,4.94s1.23-3.09,4.72-2.68,2.27,4.53,6.38,7.2,6.17.21,11.32,4.32,3.29,6.18,4.31,8.44-.61,5.55-.61,5.55,3.85,1,6.79,0c4.11-1.44,4.93-3.29,6.17-5.76s1.85-6,5.14-5.35,6,1,8.23,0c1.38-.63,2.91-2.94,3.9-4.65,4.42,2.59,8.77,5.14,12.95,7.62,6.13,3.63,11.92,7.14,17.11,10.32-.45,1.88.42,5.44.8,7.49.41,2.26.21,3.9-3.09,4.93s-9.87-.2-13-.2c-13.17,0-17.9,8.22-17.9,13.57s3.91,8.44,4.73,8.44.82-7,5.76-8.85c2.91-1.09,7,2.88,11.11,3.29s12.13-.41,14.81-.41,5.55.41,5.55,5a11.07,11.07,0,0,0,3.09,7.52s.2,5.55,1.43,5.55c3.5,0,7.82-6.78,7.61-11.31s-2.67-9.87-2.67-9.87,4.11-1.85,3.91-3.3a15.3,15.3,0,0,1,.9-7.38l.71.46.58.43.46-.55c.24-.21,1.26-.38,3.19,1.29a3.18,3.18,0,0,0,2.68.83c1.79-.31,3.1-2.12,3.56-2.84a.93.93,0,0,1,.57,0c.06,0,.22.09.36.45.62,1.67,5.58,11.59,5.79,12l.23.46h36.71ZM339.21,179.2c-2.6-.24-6-.67-10.56-1.42-5.2-.85-11.45-3.29-16.28-5.45-4.52-2-7.79-3.8-7.79-3.8s-1-.39-1.39-.18-.31.68.78,2c2.46,3.09,12.94,10.53,22.62,13.58a52.91,52.91,0,0,0,13.64,2.31c2.54.18,4.13.39,4.87,1.6h0c1.65,2.67-1.43,6.16-3.91,6.16s-9.25-1-17.68-4.93a130.42,130.42,0,0,1-15-8.23s-1.27-.46-1.21.61a3.9,3.9,0,0,0,.55,1.56l0,.09h0c1.65,3.09,10.91,9.46,15.84,12.55a44.1,44.1,0,0,0,5.24,2.63c1.2.53,2.41,1.05,3.53,1.56a17.75,17.75,0,0,1,4.31,2.51,2.41,2.41,0,0,1,.91,1.53c.2,2.88-2.26,7.4-4.53,7a12.74,12.74,0,0,1-4.73-2.47l-26.53-19.74-16.3-29.2-3.45-6.18a3.35,3.35,0,0,1,1.85-4.73l.24-.11.41-.18.36-.16.5-.21.44-.18.62-.24.49-.19L288,147l.58-.19,1.13-.36.64-.19,1-.27.76-.2,1.05-.26.82-.19,1.41-.29c.36-.08.73-.14,1.1-.21l1.54-.26,1-.15,1.29-.17,1.17-.13,1.34-.12,1.25-.1,1.61-.08,2.07-.07,1.68,0,1.48,0,1.56,0,1.56.08,1.68.11,1.61.13,1.22.13.5.06c.52.06,1,.1,1.56.17a119.88,119.88,0,0,1,15.91,3.13c11.42,3.1,18.32,7.19,18,9.83-.42,3.7-7.62,10.08-21.81,11.11a67.87,67.87,0,0,1-8.83.09h0c-1-.06-2-.14-2.85-.25a36.76,36.76,0,0,1-3.9-.65c-5.07-1.12-7.13-2.79-7.24-2.89h0s.59,2.29,3.71,4.63c3.31,2.48,9.45,5,20.77,5,1.49,0,2.81-.05,4-.13,8.26-.59,9.46-3,11.44-3,2.26,0,2.67,2.26,1.64,4.32a6.42,6.42,0,0,1-1.89,2.33,6.33,6.33,0,0,1-2,1C346.6,179.3,344.74,179.7,339.21,179.2Zm-52.52,29.23a13.55,13.55,0,0,0-5.15,9c-.61,4.53,8.44,14.2,9.47,15.43s2.67,2.05-4.94,1.23c-10.09-1.09-31.26-18.3-31.26-41.34,0-19.48,6.21-28.27,8.13-30.52l36.36,29.53.83,4.94.12.1C297.76,199,288.64,206.84,286.69,208.43Z" transform="translate(-24.34 -27.25)"/><path class="cls-1" d="M319.87,164.52a8.65,8.65,0,0,0,8.64-8.64,4.27,4.27,0,0,0-1.06-3.27c-1.11-1.06-2.78-1-4.9-.9-.56,0-1.16,0-1.79.06-3.38-2.46-5.58-2.24-6.83-1.61-1.72.86-2.7,3-2.7,5.72A8.64,8.64,0,0,0,319.87,164.52Z" transform="translate(-24.34 -27.25)"/><path class="cls-1" d="M678.91,344.84c-.42-.41-1.06-1-1.85-1.81L677,343l-.81-.79c-3.58-3.48-9-8.65-10-9.66l-.19-.18s-.31-.34-.75-.76c-.28-.26-.61-.57-1-.91a19.92,19.92,0,0,0-3.4-2.41c-2.07-1.12-23.18-9.86-40.13-16.88l-13.43-5.57c-1.55-.65-3.22-1.33-5-2l-1.13-.46-1.13-.45c-7.95-3.21-17.1-6.78-24.25-9.58-6.08-2.37-10.87-4.24-12.54-4.95-1.51-.65-2.75-.65-3.67,0-1.56,1.12-1.4,3.61-1.38,3.89l0,.19.1.17a1.38,1.38,0,0,1,.11,1.18c-.17.3-.84,1-3.54,1.06-8.44.21-24.12-2.87-27.35-3.67l-1.11-.3c-1.68-.44-2.7-.71-3.44-.1a2.57,2.57,0,0,0-.58,2.29c.27,3.23,13.65,11.6,28.07,17.56s56.12,19.21,60.74,20.67h0l.39.12.53.17h0l.92.29.26.85-.24-.84L675,351.15l.1,0a32.56,32.56,0,0,0,4.75.47c.36,0,.71,0,1-.05a1.76,1.76,0,0,0,1.24-.57,1.78,1.78,0,0,0,.26-.44,2.21,2.21,0,0,0-.29-1.83A17.26,17.26,0,0,0,678.91,344.84Z" transform="translate(-24.34 -27.25)"/><path class="cls-1" d="M660.59,321.73l-.06-.34-.06-.23c0-.11-.06-.22-.09-.34s0-.16-.08-.24-.14-.39-.23-.6l-.12-.24c-.07-.16-.16-.32-.25-.48l-.16-.29c-.13-.21-.27-.42-.42-.64a.6.6,0,0,0-.09-.13,29.76,29.76,0,0,0-2.45-2.78l-1.18-1.19h0c-2.09-2.09-4.62-4.48-6.72-6.46l-1-1c-.37-.35-.74-.68-1.1-1l0,0c-.62-.55-1.21-1-1.77-1.47l-1.16-.89h0c-.32-.24-.62-.44-.9-.63-.71-.49-1.27-.84-1.61-1l-.39-.22-.18-.1h-1.33c-2.23,0-7.4-.09-11.57-.4-1.68-.13-4.08-.46-6.62-.82-7.71-1.08-11.48-1.48-12.7-.54a1.25,1.25,0,0,0-.49.85c-.19,1.78,3.81,3.68,19.83,10.29,3.29,1.36,6.69,2.77,9.88,4.13,14.83,6.36,21.14,8.2,22,8.45l.11,0,.91.24.06-.52.06-.42a6,6,0,0,0,0-.72Z" transform="translate(-24.34 -27.25)"/><path class="cls-1" d="M581.09,264.19c-1.92.34-13-1.15-24.07-4.91-5.15-1.74-10.44-4-14.69-5.76-6.44-2.71-8.61-3.56-9.63-3.31A2.61,2.61,0,0,0,531,251.4c-.82,1.38-.3,3.43.21,5.42.3,1.22.73,2.87.41,3.33,0,0-.06.09-.29.12-3.45.4-13.06-.45-25.36-4.49a114.59,114.59,0,0,1-15.17-6.39c-3.87-1.9-6.21-3-7.7-2.67s-1.93,2.14-2.29,3.83c-.5,2.39-.9,3.49-2.36,3.35-4.08-.42-12.19-2.92-19.58-5.32-3.48-1.13-6.23-2.3-8.43-3.25-2.72-1.16-4.52-1.93-6-1.93a2.87,2.87,0,0,0-2.67,2c-.47.94-.72,1.36-1.78,1.27A40.35,40.35,0,0,1,428.87,244c-2.43-.9-3.89-1.44-4.91-.57-2,1.75-1.1,3.49.43,6.36,1.71,3.2,8.57,10.48,14.4,15.27s14.57,9,15.95,9c1.83,0,2.45-1.64,2.86-2.73a3.65,3.65,0,0,1,.53-1.09s.14,0,.49.2c2.74,1.68,16.19,7.68,22.75,10.34s15.78,5.23,20.14,4.79c1.41-.14,2-1.53,2.46-2.75.68-1.67,1-2.17,1.81-2,1,.22,4.05,1.21,7.91,2.47,6.83,2.22,16.2,5.27,22.12,6.59,10,2.22,15.54,2.43,17.94.68.92-.67,1-2.11,1-3.64,0-1.88.12-3.22,1-3.42,1.84-.42,2.68,0,4.37.86.44.23.92.48,1.48.73,3,1.38,18.26,6.12,34.32,9.07l.23,0,.76.14,1,.17a170.08,170.08,0,0,0,28.46,2.56c2.41,0,4.18-.07,5.19-.12l1-.06h.13l.42,0h.15l0-.7a.78.78,0,0,0,0-.09,6.59,6.59,0,0,0,0-.84,7.78,7.78,0,0,0-.23-1.4v0c0-.15-.09-.31-.14-.46l0-.09c-.06-.17-.13-.34-.2-.51l0,0a3.61,3.61,0,0,0-.22-.44,1.37,1.37,0,0,0-.13-.2c0-.09-.11-.17-.17-.26s-.1-.15-.16-.22l-.18-.21a1.8,1.8,0,0,0-.19-.2L630,289.52c-2-2-5.73-5.82-10.55-10.66-6-6.07-13.79-13.75-21.78-21.45-4.47-4.3-8.18-7.71-11.24-10.4l-.08-.07-.82-.72-.29-.25-.59-.51-.49-.43-.35-.3-.7-.59L583,244c-5.9-5-8.37-6.41-8.53-6.5l-.71-.4-.32.56-.09.15a2.28,2.28,0,0,0-.23.66c-.28,1.23-.31,4.23,2.9,10a55.29,55.29,0,0,1,3.56,7.75,36.57,36.57,0,0,1,1.47,5,9,9,0,0,1,.24,2.42A.89.89,0,0,1,581.09,264.19Z" transform="translate(-24.34 -27.25)"/><path class="cls-1" d="M608.69,559.53h0c.43,1.35.91,2.83,1.42,4.38,0,.1.07.2.1.3l.39,1.17.3.89c.07.21.14.41.21.63.15.45.3.9.46,1.36a1.59,1.59,0,0,0,.07.2A138.13,138.13,0,0,0,617.3,583c.66,1.33,1.27,2.48,1.83,3.5,3.1,5.66,4.78,7,6.42,7.24h0a5.48,5.48,0,0,0,.55,0h.15l.39,0a1.71,1.71,0,0,0,.8-.38l.13-.11a1.27,1.27,0,0,0,.29-1.11V592l-22-108.45-.16-.83-.17-.82H583.16l12.76,38.81Z" transform="translate(-24.34 -27.25)"/><path class="cls-1" d="M222.91,475.53v-68.8H180.48v20.39H197v11.67c0,6.34-4.37,18.78-14.45,18.78-13.47,0-16.18-18.21-16.18-47.59,0-37.24,7.7-42.38,16-42.38,9.71,0,13.23,11.86,13.23,19.83v1h25.94v-1c0-27.06-12.92-40.22-39.51-40.22-30.29,0-42.65,18.54-42.65,64,0,24.5,2.09,39.28,7,49.39,5.72,11.85,15.51,17.37,30.8,17.37,11.38,0,19.52-3.84,25.38-12.06v9.63Z" transform="translate(-24.34 -27.25)"/><rect class="cls-1" x="212.82" y="322.38" width="25.94" height="125.89"/><path class="cls-1" d="M312.67,416.49l-13.54,3.64c-17.74,4.85-24.33,13-24.33,30.11C274.8,463,281,478,298.36,478c10.39,0,17.71-1.84,23.58-10.92a31.72,31.72,0,0,0,2.6,8l.28.53h25.05l-.63-1.41c-2.43-5.37-2.86-9.29-2.86-17.63v-49.1c0-15.39-4.22-29.64-34.84-29.64-21.79,0-33.79,10.59-33.79,29.81v3.25h23.51v-3.6c0-7.09,3.69-11.15,10.11-11.15,6.89,0,10.1,3.32,10.1,10.45C321.47,412.27,319.33,414.69,312.67,416.49Zm-.2,17a31.36,31.36,0,0,0,9-3.78v16.51c0,9.84-8.22,13.41-13.75,13.41-7.24,0-8-8.41-8-12C299.7,439.55,303.39,435.46,312.47,433.52Z" transform="translate(-24.34 -27.25)"/><path class="cls-1" d="M357.35,443v4.3c0,21.2,10.91,30.66,35.36,30.66,22.36,0,35.71-11.34,35.71-30.32,0-14.79-6-22.55-21.33-27.67l-14.42-4.86c-8.61-2.81-9.72-6.81-9.72-10,0-6.69,5.54-9.07,10.28-9.07,6.81,0,9.59,3.79,9.59,13.06v1h23.51V405.3c0-18-11.38-27.55-32.92-27.55-31.91,0-35.36,20.36-35.36,29.11,0,13.22,6.75,22,20.61,27l16.83,6.07c5.55,2.05,8,5,8,9.65,0,8.8-7,10.11-11.15,10.11-7.3,0-11.49-4.57-11.49-12.54V443Z" transform="translate(-24.34 -27.25)"/><path class="cls-1" d="M511.12,475.54V380.18H485.18v62.95c0,9.58-3.93,14.45-11.67,14.45-5.54,0-9.24-2.05-9.24-12V380.18H438.33v70.24c0,18,8.57,27.54,24.77,27.54,9.94,0,18-4,23.13-11.4v9Z" transform="translate(-24.34 -27.25)"/><path class="cls-1" d="M628.8,353.46v26.72H616.65v18.31H628.8v52.45c0,18.92,3.51,25.64,23.21,25.64a144,144,0,0,0,14.84-1l1.77-.18V456.77l-1.1.12a49.5,49.5,0,0,1-5.28.34c-6,0-7.5-1.9-7.5-9.24v-49.5h13.88V380.18H654.74V353.46Z" transform="translate(-24.34 -27.25)"/><path class="cls-1" d="M527.07,380.18v95.36H553V418.49c0-11.67,8.63-15.83,16.7-15.83a24.63,24.63,0,0,1,3,.15c.53.06,1.13.12,2,.18l1.07.08V378.21l-.88-.1a2,2,0,0,1-.67-.15,3.15,3.15,0,0,0-1.43-.2c-8.64,0-15.49,4.19-20.87,12.8V380.18Z" transform="translate(-24.34 -27.25)"/><rect class="cls-1" x="557.5" y="352.93" width="25.94" height="95.35"/><path class="cls-1" d="M595,374.17A14.22,14.22,0,1,0,580.79,360,14.24,14.24,0,0,0,595,374.17Z" transform="translate(-24.34 -27.25)"/><path class="cls-1" d="M679.72,514l-5.55-8.57c2.89-.31,5.11-1.78,5.11-5.28,0-3.74-2.18-5.55-6.8-5.55H665V514h3v-8.34h3.2l5.29,8.34Zm-8.57-10.79H668V497h4c2,0,4.27.4,4.27,3C676.26,503.08,673.81,503.21,671.15,503.21Z" transform="translate(-24.34 -27.25)"/><path class="cls-1" d="M688.11,504.24a16.7,16.7,0,1,0-16.66,16.7A16.52,16.52,0,0,0,688.11,504.24Zm-30.38,0c0-8,6-14.08,13.72-14.08s13.65,6.12,13.65,14.08c0,8.12-6,14.25-13.65,14.25S657.73,512.36,657.73,504.24Z" transform="translate(-24.34 -27.25)"/></svg>