<svg id="Layer_1" data-name="Layer 1" xmlns="http://www.w3.org/2000/svg" viewBox="0 0 789.27 789.03"><defs><style>.cls-1{fill:#535557;}</style></defs><path class="cls-1" d="M46.15,438.94q0-141.93.08-283.86c.05-39.55,16.85-70.6,49.39-92.89a102,102,0,0,1,58.62-18q287.06,0,574.09.07c51.69,0,98.24,40.78,105.6,92A140.77,140.77,0,0,1,835.39,156q.09,283.11-.1,566.21c-.1,47.27-22.93,81.18-65.43,101.62-13.1,6.3-27.24,9-41.77,9.31-3,.08-6,0-9,0H157.37c-37.17,0-67.35-14.92-89.77-44.63-14.7-19.45-21.45-41.7-21.45-66.13Q46.26,580.68,46.15,438.94ZM440.64,94.55H157.91c-12.2,0-23.59,2.58-33.79,9.32C105.45,116.19,96.5,133.68,96.5,156q.06,282.16,0,564.32c0,1.63,0,3.25.06,4.87A56,56,0,0,0,105,754c12.09,19.17,29.67,28.84,52.3,28.85q281.22.07,562.45,0c2.62,0,5.25.07,7.87-.05,13.67-.62,25.93-5.08,36.35-14,14.92-12.79,21.21-29.25,21.2-48.77Q785,440.5,785.07,161c0-3.63.06-7.26-.18-10.87a57.22,57.22,0,0,0-14.62-35.33c-12.35-13.85-28-20.28-46.56-20.26Q582.14,94.63,440.64,94.55Z" transform="translate(-46.15 -44.18)"/><path class="cls-1" d="M631.71,522v-4.36q0-97.11,0-194.22c0-8.53-2-15.91-9.28-20.91-2.5-1.72-5.59-3.51-8.47-3.6-12.32-.4-24.67-.17-37.51-.17v223H519.09V298.61H463.65v223.2h-57.1V248.52H626.47c35.52,0,62.6,27.13,62.63,62.75q0,103.32,0,206.62c0,3.29-.81,4.24-4.15,4.2-16.37-.17-32.75-.07-49.12-.07Z" transform="translate(-46.15 -44.18)"/><path class="cls-1" d="M226.35,578.37c7.23,0,14.48.37,21.68-.1,8.31-.55,16.8-1,24.82-3C293.78,570,304,556.76,305,535.17c.2-4.21,0-8.43,0-13.16h-4.29c-15.62,0-31.25,0-46.87-.06-33.7-.23-61-27-61.21-60.65q-.42-75.93,0-151.87c.19-34,27.7-60.81,61.76-60.87,34.62-.06,69.25,0,103.87-.12,3.42,0,4.42.83,4.42,4.34q-.15,119.07-.09,238.12c0,16.5.43,33-.5,49.48-2.27,40-23.49,69.18-62.66,81.48-15.53,4.87-31.48,6.71-47.69,6.78H228.83c-1.77,0-3.15-.06-3.13-2.51.1-15.5.09-31,.13-46.49A6.4,6.4,0,0,1,226.35,578.37ZM305,298.61c-1.39-.09-2.49-.22-3.58-.22H273.27c-14.42.08-23.4,9-23.41,23.41v58.86c0,23.12-.06,46.24.06,69.36.06,12.11,9.08,21.75,20.59,22,10.74.21,21.49.05,32.24,0a15.32,15.32,0,0,0,2.23-.4Z" transform="translate(-46.15 -44.18)"/><path class="cls-1" d="M406.54,628.51V578.58H688.79c.1,1.15.28,2.22.29,3.3,0,14.37-.08,28.74.08,43.11,0,3-.94,3.79-3.85,3.79q-137.76-.12-275.52-.08C408.8,628.7,407.82,628.59,406.54,628.51Z" transform="translate(-46.15 -44.18)"/></svg>