<svg id="layer" xmlns="http://www.w3.org/2000/svg" viewBox="0 0 765.5 370.05"><defs><style>.cls-1{fill:#535557;}</style></defs><path id="Logo-Kopie-25" class="cls-1" d="M59,546.33V525.91l46.7-.13c-.25,14.55-.51,28-11.1,39.31-9.44,10.33-20.29,15.44-34.2,15.44C33,580.53,12.25,559.6,12.5,534a47.5,47.5,0,0,1,48.11-47c15.57,0,36.24,11.36,42.87,30.5H70.05c-2.3-2.81-4.21-3.45-9.44-3.45C49,514,43.76,525.53,43.76,536.38c0,9.82,6.13,18.37,16.72,18.37,5.1,0,11.61-3.06,13.14-8.42Zm309.69,32.41H337.25l.13-89.2,43.26-.12,13.14,47a92.84,92.84,0,0,1,2.3-11.87l10.08-35.09,43.26.12v89.2H417.9l-.38-48.87a76.79,76.79,0,0,1-2.17,8.93l-12.89,40.07h-19L371.83,541.1a107.72,107.72,0,0,0-3.06-11.1c-.25,3.44-.13,48.36-.13,48.74Zm302.94-89.2v24.38l-28.33-.13v8.55h27.69v23.22l-28,.26v8.8h27.57v24.25l-59.21.13V489.54Zm-166.4,89.2H473.79l.13-89.2,43.26-.12,13,47.08a92.69,92.69,0,0,1,2.3-11.86l10.08-35.1,43.26.13v89.2H554.44L554.05,530a72.94,72.94,0,0,1-2.17,8.93L539,579H520l-11.61-37.78a108.42,108.42,0,0,0-3.06-11.1c-.38,3.32-.13,48.24-.13,48.62ZM250.1,489.54h36L318,579H283.66l-2.93-11.11h-24.5L253.67,579H219.35l30.75-89.46Zm483.88,0c19.9,0,36.62,8.55,36.62,31,0,13.53-5.11,19.14-17.1,23.86a21.26,21.26,0,0,1,5.36,5.36l19.14,29H741.12L726.58,550v28.71H695.31V489.42l38.67.12Zm-571.8,0c19.91,0,36.75,8.55,36.75,31,0,13.53-5.1,19.14-17.1,23.86a21.26,21.26,0,0,1,5.36,5.36l19.14,29h-37L154.65,550v28.71H123.26V489.42l38.92.12Zm112.8,57-3.83-15.82c-.89-3.83-1.53-7.66-2.16-11.48h-1.15L262,546.58h13ZM728.87,529.1c5.23,0,10.47-.89,10.47-7.4,0-6.89-4.73-7.66-10.34-7.66h-2.42v15.19l2.29-.13ZM157,529.1c5.23,0,10.59-.89,10.59-7.4,0-6.89-4.85-7.66-10.34-7.66h-2.42v15.19l2.17-.13ZM397.48,463h-7.91V348.16c0-18-7.78-34.33-25.77-48.75L298,254.11s-3.32,7.66-2.42,12.64c1,5.23,3.7,8,7.78,11.23,1.92,1.4,53.34,34.07,53.34,34.07,10.72,5.36,20.93,23.35,20.93,39.17V462.11l-7.28-.89V355.69c0-8.17-3.95-20.67-18.75-29.73l-71.85-43.9s-2.55,6.89-1.91,11.23c1,6.76,4.21,8.68,10.72,13.91,1.66.76,58.44,31.64,58.44,31.64,11.49,6.77,11.23,14.68,11.23,25.4V458l-7-1.92V366.66c0-7-3.19-13.4-11.74-16.33l-70.18-35.86s-1.4,7.79,0,12.38c1.91,5.74,3.7,7.27,10.21,11.48l52.83,22.46c3.7,1.66,6.76,4.6,6.76,10.21l-.13,80a126.87,126.87,0,1,1,109.23-.51V371c0-5.61,2.94-8.55,6.77-10.21l52.82-22.46c6.51-4.21,8.43-5.74,10.21-11.48,1.41-4.47-.13-12.12-.13-12.12l-70,35.73c-8.55,2.93-11.74,9.31-11.74,16.33v88.94l-7,2.3V364.24c0-10.85-.25-18.76,11.23-25.4l58.44-31.64c6.51-5.23,9.83-7.15,10.72-13.91.64-4.34-2-11.1-2-11.1L435.76,326C421.09,335,417,347.52,417,355.69v105L409.73,462V351.09c0-15.82,10.21-33.81,20.93-39.17,0,0,51.42-32.67,53.34-34.07,4.08-3.19,6.89-6,7.78-11.23.9-4.85-2.68-12.38-2.68-12.38l-65.71,45.05c-18,14.42-25.78,30.75-25.78,48.74l-.13,115Z" transform="translate(-12.5 -210.47)"/></svg>