<svg id="Layer_1" data-name="Layer 1" xmlns="http://www.w3.org/2000/svg" viewBox="0 0 759.73 484.42"><defs><style>.cls-1{fill:#535557;fill-rule:evenodd;}</style></defs><path class="cls-1" d="M151.48,412.37a195.72,195.72,0,0,1-25.6-20.49l25.6.9,146.11,6.63,136.77,6.33,119,5.12,82.24,3.92,19.88.9c-6.32,4.22-13,8.13-19.88,12.05-23.8,13.25-51.52,24.4-82.24,33.14-36.16,10.24-76.52,16.87-119,19-9.64.6-19,.6-28.62.6a567.75,567.75,0,0,1-108.15-10.24c-57.84-11.45-108.45-31.63-146.11-57.84Zm590.16,7.23-13.25-.6-24.1-1.21-12.36-.6a298.4,298.4,0,0,1-56.33,36.75c-24.4,12.65-52.12,23.19-82.24,31.63a565.46,565.46,0,0,1-119,18.38c-9.64.6-19,.6-28.62.6a568.12,568.12,0,0,1-108.15-9.94c-56.33-10.85-106.34-29.83-146.11-54.52-58.14-36.15-94-85-94-138.59,0-53,35.85-101.82,94-138.27,39.77-24.7,89.78-43.38,146.11-54.23A568.56,568.56,0,0,1,405.74,98.76c9.64,0,19,.3,28.62.9a546.66,546.66,0,0,1,119,18.38,413.38,413.38,0,0,1,82.24,31.63,300.57,300.57,0,0,1,56.63,36.76l12.06-.6,24.1-1.51,13.25-.6c-4.22-4.52-8.44-9-13.25-13.56A230.4,230.4,0,0,0,704.29,150a363.5,363.5,0,0,0-68.69-41,473.86,473.86,0,0,0-82.24-29.22A592.76,592.76,0,0,0,434.36,62c-9.64-.3-19-.6-28.62-.6A599.92,599.92,0,0,0,297.59,71C243.07,81,193.36,98.46,151.48,121.36,71.05,165.34,20.14,230.11,20.14,301.5c0,72,50.91,136.78,131.34,180.76,41.88,22.89,91.59,40.07,146.11,50.3a599,599,0,0,0,108.15,9.65c9.64,0,19-.3,28.62-.6a592.75,592.75,0,0,0,119-17.78,498.24,498.24,0,0,0,82.24-29.22,364,364,0,0,0,68.69-41,232.42,232.42,0,0,0,24.1-20.49c4.81-4.22,9-8.74,13.25-13.25l.3-.3Zm0-219.92c-4.52.3-8.74.6-13.25.91-7.84.6-16,1.2-24.1,1.5-22.9,1.51-45.79,3-68.69,4.82-6.93.31-13.86.91-20.49,1.21,21.69,62.05,19.58,123.82,0,185.57,6.63,0,13.56.6,20.49,1.2a230.91,230.91,0,0,0,25,1.81c6.32-15.06,12.65-32.83,19-48.2a227.56,227.56,0,0,1,24.71-1.5q9.93,0,19.88.9c-4.52,17.47-11.45,34.64-19.28,52.12,7.83.6,15.66.9,23.5,1.5,4.51.31,8.73.61,13.25.61l13.26.9c32.53-68.09,34.34-135.87-.91-204.25l-12.35.9Zm0-81.64a30.48,30.48,0,0,1-13.25-6.63A29.07,29.07,0,0,1,718.75,90a28.41,28.41,0,0,1,9.64-21.08,27.55,27.55,0,0,1,13.25-6.63c4.7-.78,9.39-1.59,19.37,3a23.4,23.4,0,0,1,11.2,10.56c10.6,21.17-4.61,42.78-24.84,42.78a33.59,33.59,0,0,1-5.73-.6Zm0-59.65c5.13-.85,10.26-1.71,22.27,4.32A26.46,26.46,0,0,1,776.17,75c11,23.85-6.2,47.24-28.8,47.24a28.58,28.58,0,0,1-19-6A31.81,31.81,0,0,1,715.13,90a32.25,32.25,0,0,1,13.26-26.21,34.51,34.51,0,0,1,13.25-5.42Zm0,33.14h-.3v15.36H735V73.46h12.36c6.32,0,14.45.6,14.45,7.83,0,4.82-3.31,7.23-8.13,8.43,2.71,0,4.52.61,5.42,1.81,3,3,.91,10.85,2.71,15.36H755.5c-.6-1.5-.91-3.91-1.21-7.53,0-4.21.3-7.83-5.72-7.83Zm0-14.76h12.78c3.71,10.2-2.9,11.15-8.56,11.15h-4.52V76.77ZM728.39,294.58a159,159,0,0,1-24.1,2.71c-6.94.3-13.56,0-20.49-.3-1.81-15.37-6-30.73-3.62-46.4a132.49,132.49,0,0,1,24.11-1.8c6.32,0,12.35.3,18.67.6a261,261,0,0,1,5.43,36.45c.3,2.71.6,5.73.9,8.74ZM635.6,189.74l-82.24,4.82-119,6.93-136.77,7.84-146.11,8.43-33.74,1.81a247.39,247.39,0,0,1,33.74-28.63c37.66-25.9,88.27-46.39,146.11-57.83a567.74,567.74,0,0,1,108.15-10.25c9.64,0,19,.3,28.62.91,42.48,1.8,82.84,8.43,119,19a372.58,372.58,0,0,1,82.24,33.14,242.1,242.1,0,0,1,20.79,12.65l-20.79,1.21Zm-82.24,33.14c-1.21-3.62-2.41-6.93-3.62-10.54-17.17.9-34,1.8-51.21,3,14.46,56.93,16.27,113.57,2.41,170.81,17.47.6,34.94,1.21,52.42,2.4,14.16,1.21,28.31,2.42,42.47,3.92A282.51,282.51,0,0,1,608.18,350c-15.06-.3-30.12-.3-45.18-.6,7.83-42.18,4.52-84.36-9.64-126.53Zm-119-1.81a2.28,2.28,0,0,1,1.51-.3,295.63,295.63,0,0,1,9,122.31l43.38,1.81A198.5,198.5,0,0,0,475,386.16c-13.56-.9-27.11-1.81-40.67-2.41-18.07-.6-35.85-1.21-53.92-1.51,16.87-52.72,18.07-105.13,2.41-157,17.17-.6,34.64-2.11,51.51-4.22Zm-105,121.48q14.91,0,30-.68c-3.62,12.05-6.63,24.11-7.53,36.76-18.68.3-36.76,0-54.23-.61-14.76-.9-29.52-1.8-44-3.31-23.8-48.2-30.73-94.59.3-143.1,14.76-1.2,29.22-2.4,43.68-3,16.57-.6,33.14-.9,49.41-.6a184.74,184.74,0,0,0,9.94,34.35c-19.88,0-39.47,1.2-59.35,2.7-3.31,0-6.93.31-10.54.61-2.71,5.72-2.11,13.25-1.51,19.58,3.92.3,8.14.6,12,.6,20.79.6,41.57,0,62.36-.6a113.12,113.12,0,0,1,.91,37.65q-31.64,0-63.27-.9c-3,0-6.32,0-9.34-.3a37.28,37.28,0,0,0,.91,19.88,79.17,79.17,0,0,0,8.43.3h0q15.87.7,31.79.68m-177.9-61.23c2.71,0,5.13.3,7.53.3a90.39,90.39,0,0,1,13.56-41.87L215.65,237c-17.47,44.88-20.18,89.77,3.31,134.65-15.06-.3-30.12-.6-44.88-.6-8.74-12.95-13-27.11-13-40.06H132.2c.61,12.05,4.52,25.3,11.15,37.36l-38.26-.91C74,311,75.13,262.1,126.21,224.41L143.79,239a186,186,0,0,0-14.3,42.32Z" transform="translate(-20.14 -57.79)"/></svg>