<svg id="Stacked-White" xmlns="http://www.w3.org/2000/svg" viewBox="0 0 724.91 574.58"><defs><style>.cls-1{fill:#535557;}</style></defs><path class="cls-1" d="M574.82,289.32A69.51,69.51,0,0,0,552,238.25l-1.3-1.19L549,236.4c-33.52-13.48-60.29-10-71.79-7.29a102.86,102.86,0,0,0-18.39-8.63l.87-2.78c.37-1.15,8.21-26.15,11.54-43.33l5.87-3.7a17.83,17.83,0,0,0,2.86-2.23,18.3,18.3,0,0,0,3.28-4.15,18.54,18.54,0,0,0,2.34-11.54,18.78,18.78,0,0,0-1.46-5.25c-.17-.37-.35-.74-.54-1.1l-13.74-31.77-5-4.54,6.23-12L469.49,94C463.88,79.48,454,64.89,448.58,57.48l-1-1.41,5-19.45-35.93-6-.57-.08c-21.4-2.3-74.17-.1-99.13,15.38l-.57.35-.67.42-.79.72a131.08,131.08,0,0,0-25.58,33,107.21,107.21,0,0,0-7,15l-.44,1.26-.08,1.32A91.24,91.24,0,0,0,283.08,119a136.24,136.24,0,0,0,9.28,30.33,190.93,190.93,0,0,0,15.91,29.39l.32.48-3,17c-12,1-35.11,4.34-55.23,14.88-14.91-2.3-65.61-6.83-101.54,28.79l-2,2.08-.64,2.38c-13.31,44.28-1.93,74.83,2.47,84.15a121.48,121.48,0,0,0-2,12.75l-.19,1.92c-.25,2.81-.43,5.67-.51,8.51,0,.76,0,1.53,0,2.33s0,1.57,0,2.38,0,1.62,0,2.46c0,1.66.1,3.35.2,5.1s.24,3.52.41,5.33c.27,2.82.64,5.65,1.08,8.39q.45,2.86,1.07,5.81a122.51,122.51,0,0,0,10.68,30.65,119.64,119.64,0,0,0,7.32,12.47,122.88,122.88,0,0,0,14.9,18.14A137.15,137.15,0,0,0,198,458.82a165.84,165.84,0,0,0,25,15l3,1.46,3.26-.67c45.22-9.3,86.88-29.48,113.87-44.78,11.69-6.62,20.54-12.29,25.46-15.56a526.23,526.23,0,0,0,124.49,27c45,4,85.87.77,121.48-9.48l.72-.23c1.71-.64,10.44-4.18,14.63-11.13l1-1.7.28-2C631.64,413.25,642.25,332.07,574.82,289.32Zm-81,142.25c-70.42-6.19-126.6-28.17-126.67-28.2h0s-10.93,7.76-28.93,18c-26,14.75-66.86,34.63-111,43.72A155.37,155.37,0,0,1,203.71,451a127.43,127.43,0,0,1-15.25-13.08,114,114,0,0,1-13.73-16.71A107.62,107.62,0,0,1,168,409.72a112.69,112.69,0,0,1-9.83-28.22c-.38-1.81-.7-3.6-1-5.37-.43-2.66-.75-5.25-1-7.78-.16-1.69-.28-3.34-.38-5s-.15-3.2-.18-4.75q0-1.15,0-2.28c0-.75,0-1.5,0-2.23s0-1.45,0-2.16c.09-2.83.26-5.48.48-7.92.05-.61.11-1.21.17-1.79a97.18,97.18,0,0,1,2.62-15h0s-.49-.8-1.24-2.32C153.82,317,142.85,289,155.52,247l0,0,0-.05c38.09-37.9,96.47-25.64,96.49-25.64h0c26.7-15.28,61.78-15.78,61.78-15.78l1.12-6.36,3.15-17.85.77-4.34s-1-1.3-2.5-3.62a181.49,181.49,0,0,1-15.07-27.84,126.81,126.81,0,0,1-8.64-28.15,81.27,81.27,0,0,1-1.16-18.68,97.79,97.79,0,0,1,6.29-13.55,120.74,120.74,0,0,1,23.64-30.53.94.94,0,0,0,.1-.1l.45-.26c22.94-14.23,73.78-16.05,93-14,0,0-49.89.87-79.43,22.33-21.9,25.35-20.4,49.34-20.4,49.34s20.43-9.53,27.45,10.48c-14.26-14.93-36.82,10.5-13.31,32.94,5.45,5.19,12.09,4.28,19.08-.2a28.77,28.77,0,0,1-15,15L329,206l14.59,10.59s-46.83-6.09-81.59,13.59c0,0,5.31,3.52,7.11,8.53,0,0-55.62-18.46-97.08,17.21-12.53,38.62.43,68.19.43,68.19s-29.41,82.84,56.31,128.75c0,0,63.26-8.59,157.24-64.66l-12.56,9.94s44.68,11.1,82.68,15.7l-30.8-11.29s132.11,25.13,175.2,7.87c0,0-23,12.46-65.9,16.3,0,0,38.52,2,77.14-4.27C572.63,433.7,531.24,434.86,493.86,431.57Zm-5.18-144.41a123.15,123.15,0,0,1,10,58.81q7.06-1.25,14.47-2.15C561.07,349.2,586.57,377,586.57,377c-43.12-22.72-73.86-22.72-73.86-22.72-58.32,6.39-120.41,33.44-120.41,33.44s16.46-12,44.64-23.66c-6.42-1.59-68.46-16.51-117.59-12.64,0,0-44.86,13.61-61,29.23C276.69,355.91,276.67,329,276.67,329c-5.42-16.12-14-21.61-14-21.61C279.2,297.59,276,275.68,276,275.68c10.54,12.17,7.44,29.91,7.44,29.91A58.64,58.64,0,0,1,293.73,327a59.21,59.21,0,0,1-3.29,23.65c6.53-3.29,22.9-9.58,30.33-11.18,69.73-2,124,16.62,130.59,19a294.36,294.36,0,0,1,35.13-10.08C497.53,328.14,488.68,287.16,488.68,287.16ZM183,280.68s2.84,23.53,19.33,37.22C172.77,393.82,235,424.18,235,424.18c46.39-1.12,96.67-20.52,96.67-20.52S287.77,428.4,232.32,440c-30.81-17-66.4-53.62-43.23-120.07C179.77,304.4,183,280.68,183,280.68ZM290.29,253.5s43.08-7.15,90.24,14.34c0,0,7,10.84,8.56,21.84C389.09,289.68,374.23,255.35,290.29,253.5Zm121.38,24.28c1.69,16.13,2.61,35.06,2.61,35.06-6.46-23-22.24-46.48-22.24-46.48,46.72-6.38,90.3,9.32,90.3,9.32C442.42,271,411.67,277.78,411.67,277.78ZM366.14,91.5l6.9,1.66,2.42,24.5-8,5.76,1.26,13.34c-18.74,0-14.34-19.26-14.34-19.26l10.72-6.64-1.31-10.46a55.18,55.18,0,0,0-12.21-1.57C365.79,73.14,395.18,68,395.18,68,369.53,81.85,366.14,91.5,366.14,91.5ZM621.49,415.4a115.07,115.07,0,0,1-22.4,4.4,24,24,0,0,0,11.41-10.15c8.21-90.91-77.83-120-77.83-120l17.05-1a53,53,0,0,0-13.42-29.91c-27-12.89-59.75-4.3-59.75-4.3S461.22,238.58,432.29,236c-22.3,3.62-29,12.51-29,12.51a23.58,23.58,0,0,1-3-15.78L422.13,226a66.34,66.34,0,0,0-1.57-13.61C406,209.16,392,204.58,392,204.58s41.26,2.65,52.59.47a361.87,361.87,0,0,0,10.3-35.54c-5.91,1.47-8.67-3.93-6.64-8.94,7.71,2.74,13.56-1.36,16.11-3.71a2.78,2.78,0,0,0,.67-3.15l-10-26.44-8.1-7.34a26.21,26.21,0,0,1-5,4.54c7.83,24.84-14.13,43.43-14.13,43.43,16.78-31.47,4.19-43.12,4.19-43.12a20.18,20.18,0,0,0,7.57-9.73C424.1,119.13,409,112.3,409,112.3a24.88,24.88,0,0,1-1.51-8.07L445,101.42l3.29-5.83c-7.31-19.12-21.45-36-21.45-36-17.93-5.08-44.31-5.71-44.31-5.71,18.2-7.24,57.91-9.38,57.91-9.38l-2.12,8.3-1.39,5.44s1.5,1.87,3.78,5c5.19,7.13,14.49,20.84,19.69,34.3l-2,3.79-5.7,11,.67.6,8.36,7.57,13.09,30.25c.14.26.28.52.39.78a8.53,8.53,0,0,1,.7,2.48,8.72,8.72,0,0,1-4,8.47l-9.52,6h0c-2.56,16.39-12,46.35-12,46.35l-14.2-.91-.6,11.1a92.57,92.57,0,0,1,39.87,14.62h0s29.64-10.33,69.89,5.86a60.58,60.58,0,0,1,12.15,15.29,58.42,58.42,0,0,1,7.28,33.93l.15.09C633,333.77,621.49,415.4,621.49,415.4Z" transform="translate(-37.55 -29.76)"/><polygon class="cls-1" points="703.65 574.59 0 574.59 0.48 565.66 704.14 565.66 703.65 574.59"/><path class="cls-1" d="M142.64,510.5H126.4l-1.13,17.88h14.66l-1.06,16.88H124.2L123,564.62h16.25l-1.07,17H99.38l5.56-88.25h38.78Z" transform="translate(-37.55 -29.76)"/><path class="cls-1" d="M414.8,510.54H398.56l-1.13,17.87h14.66L411,545.29H396.36l-1.22,19.37h16.25l-1.07,17H371.54l5.56-88.25h38.78Z" transform="translate(-37.55 -29.76)"/><path class="cls-1" d="M683,510.59H666.74l-1.13,17.88h14.67l-1.07,16.87H664.55l-1.22,19.38h16.24l-1.07,17H639.72l5.57-88.26h38.78Z" transform="translate(-37.55 -29.76)"/><path class="cls-1" d="M609,551.07c.28-4.37-.64-6-4.83-6h-.85L601,581.7H578.22l5.56-88.26h24.46a48.53,48.53,0,0,1,7.39.37c1.24.13,10.61.5,14.87,6.63,3.13,4.25,3.12,9.75,2.78,15.13-.36,5.75-1,11-5.38,15.37a15.92,15.92,0,0,1-5.44,3.63,35,35,0,0,1-3.92,1.12c1,.13,6.3.63,9.6,3.88,3.85,3.62,3.42,8.75,3.09,13.87l-1.17,18.63c-.25,5.75.68,7.12,2.34,9.62h-25Zm-4.62-22.75h.85a5.55,5.55,0,0,0,3.68-.87c1.89-1.25,1.94-3.88,2.21-8.13a26.18,26.18,0,0,0,0-5.25c-.57-3.5-4-3.12-4.56-3.12h-1.07Z" transform="translate(-37.55 -29.76)"/><path class="cls-1" d="M176.09,551c.28-4.37-.64-6-4.83-6h-.85l-2.31,36.63H145.35l5.56-88.26h24.46a48.53,48.53,0,0,1,7.39.37c1.24.13,10.61.5,14.87,6.63,3.13,4.25,3.12,9.75,2.78,15.13-.36,5.75-1,11-5.38,15.37a15.92,15.92,0,0,1-5.44,3.63,35,35,0,0,1-3.92,1.12c1,.13,6.3.63,9.61,3.88,3.84,3.62,3.41,8.75,3.08,13.87L197.19,572c-.25,5.75.68,7.12,2.34,9.62h-25Zm-4.62-22.75h.85a5.55,5.55,0,0,0,3.68-.87c1.89-1.25,1.94-3.88,2.21-8.13a26.18,26.18,0,0,0,0-5.25c-.57-3.5-4-3.12-4.56-3.12h-1.07Z" transform="translate(-37.55 -29.76)"/><path class="cls-1" d="M238,525.89l.66-10.5s.72-6.13-2.7-6.13c-3.82,0-3.92,6.13-3.92,6.13l-2.84,44.87s-.59,5.75,3,5.75,3.68-5.75,3.68-5.75l.71-11.25,22.3.13c-.23,7.13-.55,17.63-4.57,23.88s-9.5,10.25-23.2,10.24c-6.69,0-19.31-1.37-23.19-13.5-1.13-3.5-1.28-6.5-.84-13.63l2.32-36.75A62.43,62.43,0,0,1,210,513c.61-4.25,1.91-12.38,11.06-17.38a29.74,29.74,0,0,1,15.67-3.87c14.27,0,19.71,5.76,22.38,11.88,2,4.5,1.7,9,1.5,13.88l-.52,8.37Z" transform="translate(-37.55 -29.76)"/><path class="cls-1" d="M317.76,557.78c-.11,1.75-.22,3.5-.45,5.25-.48,4.12-1.58,10.75-9.71,15.75-4.12,2.5-7.2,4.12-17.16,4.12-9,0-18.66-.75-23-11.38-1.29-3-1.57-5.63-1.27-12.25l4.16-65.88h22.41l-4.09,64.87c-.12,2-.71,7.13,2.86,7.13s3.41-5,3.65-7.13l4.09-64.87h22.54Z" transform="translate(-37.55 -29.76)"/><path class="cls-1" d="M348.21,564.91H364l-1.06,16.75h-38.1l5.57-88.25h22.31Z" transform="translate(-37.55 -29.76)"/><path class="cls-1" d="M455,521.3l.37-5.88a6.24,6.24,0,0,0-.16-2.87,4.37,4.37,0,0,0-4.64-3.63c-4.53,0-5.24,4.13-5.35,5.75a5.6,5.6,0,0,0,.7,3.38c.9,1.87,3.59,4,7.26,6.87s7.1,6,10.41,9.13a64.55,64.55,0,0,1,5.23,5c3.39,3.75,6.4,8.13,5.69,19.38-.29,4.5-1.05,9.37-3.46,13.5-5.22,9.12-16.67,11.12-25.16,11.12a65.89,65.89,0,0,1-11-1c-2.23-.5-10.41-1.88-14-9.76-2.37-5.5-1.67-13-1.18-19h21.85l-.37,5.87c0,1.63.07,2.5.14,3.25a4.83,4.83,0,0,0,5.07,3.88,5.31,5.31,0,0,0,3-.88c1.77-1.12,2.44-2.75,2.68-6.5.28-4.5-1-5.75-6.05-10-8.3-6.75-14.22-11.5-17.19-14.75-4.88-5.25-5.73-9.75-5.24-17.38.39-6.25,1.51-9.62,2.69-12.25,5.08-10.5,16.43-12.62,25.6-12.62,2.26,0,12.91-.12,19.62,6.63a16.54,16.54,0,0,1,3.8,6.13c1.44,4.12,1.31,8,.65,16.62Z" transform="translate(-37.55 -29.76)"/><path class="cls-1" d="M545.78,493.44l-1.07,16.87H532.66l-4.51,71.38H505.62l4.5-71.37H498.07l1.06-16.87Z" transform="translate(-37.55 -29.76)"/><path class="cls-1" d="M576,493.44l-5.56,88.25H547.81l5.57-88.25Z" transform="translate(-37.55 -29.76)"/><path class="cls-1" d="M723.56,521.34l.37-5.87a6.32,6.32,0,0,0-.15-2.88,4.37,4.37,0,0,0-4.64-3.62c-4.53,0-5.25,4.12-5.35,5.74a5.58,5.58,0,0,0,.69,3.38c.91,1.88,3.6,4,7.27,6.88s7.09,6,10.41,9.12a64.55,64.55,0,0,1,5.23,5c3.39,3.76,6.39,8.13,5.68,19.38-.28,4.5-1,9.38-3.45,13.5-5.22,9.13-16.67,11.12-25.16,11.12a64.73,64.73,0,0,1-11-1c-2.24-.5-10.41-1.88-14-9.75-2.37-5.5-1.68-13-1.18-19h21.85l-.37,5.88c0,1.62.07,2.5.13,3.25a4.85,4.85,0,0,0,5.08,3.87,5.4,5.4,0,0,0,3-.87c1.77-1.13,2.44-2.75,2.67-6.5.29-4.5-1-5.75-6-10-8.3-6.76-14.23-11.51-17.19-14.76-4.88-5.25-5.73-9.75-5.25-17.37.4-6.25,1.52-9.63,2.7-12.25,5.08-10.5,16.42-12.63,25.59-12.63,2.27,0,12.92-.12,19.63,6.63a16.81,16.81,0,0,1,3.8,6.13c1.44,4.12,1.31,8,.65,16.62Z" transform="translate(-37.55 -29.76)"/><path class="cls-1" d="M67.34,493.31l-2.19,34.75h8.07l2.19-34.75H97.83l-5.57,88.24H69.84l2.23-35.25H64l-2.22,35.25H39.13l5.57-88.24Z" transform="translate(-37.55 -29.76)"/><path class="cls-1" d="M762.45,573.56a9.35,9.35,0,1,1-9.32-9.1A9.14,9.14,0,0,1,762.45,573.56Zm-16.37,0a7.05,7.05,0,0,0,7.1,7.27,7,7,0,0,0,7-7.21,7,7,0,1,0-14-.06Zm5.61,4.78h-2.11v-9.11a19,19,0,0,1,3.5-.28,5.67,5.67,0,0,1,3.16.67,2.53,2.53,0,0,1,.89,2,2.33,2.33,0,0,1-1.89,2.11v.11a2.66,2.66,0,0,1,1.66,2.22,7.12,7.12,0,0,0,.67,2.28h-2.28a8.27,8.27,0,0,1-.72-2.23c-.16-1-.72-1.44-1.88-1.44h-1Zm0-5.17h1c1.17,0,2.11-.38,2.11-1.33s-.61-1.38-1.94-1.38a5.58,5.58,0,0,0-1.17.1Z" transform="translate(-37.55 -29.76)"/></svg>