<svg id="Layer_1" data-name="Layer 1" xmlns="http://www.w3.org/2000/svg" viewBox="0 0 770.55 122.29"><defs><style>.cls-1,.cls-2{fill:#535557;}.cls-2{fill-rule:evenodd;}</style></defs><polygon class="cls-1" points="80.18 0 160.82 70.37 153.91 78.3 143.83 69.26 143.83 120.51 74.86 120.51 74.86 89.79 62.91 89.79 80.45 58.06 97.63 89.69 85.4 89.69 85.4 109.96 133.19 109.96 133.19 60.21 80.36 14.09 27.35 60.1 27.35 120.63 16.97 120.63 16.97 69.27 6.8 78.12 0 70.19 80.18 0 80.18 0"/><polygon class="cls-1" points="196.44 120.34 215.28 120.34 215.28 90.25 254.3 90.25 254.3 120.34 273.13 120.34 273.13 51.03 254.3 51.03 254.3 77.05 215.28 77.05 215.28 51.03 196.44 51.03 196.44 120.34 196.44 120.34"/><path class="cls-2" d="M293.54,342.27c0,19.61,13.78,28,34.36,28s34.36-8.36,34.36-28-13.78-27.95-34.36-27.95-34.36,8.35-34.36,27.95Zm17.66,0c0-10.19,6.12-15.92,16.7-15.92s16.69,5.73,16.69,15.92-6.11,15.93-16.69,15.93-16.7-5.73-16.7-15.93Z" transform="translate(-14.72 -247.95)"/><path class="cls-1" d="M448.12,368.29H465.2V333.05c0-13.69-10.19-18.15-20.68-18.15-9.51,0-16.7,3.59-21.45,9.8-2.62-5.92-8.06-9.8-18-9.8s-18.16,4.56-21.26,8.93h-.19v-7.57H367.15v52h17.09V340.14c0-8.15,5.82-12,13.11-12,4.75,0,10.29,1.95,10.29,8.93v31.26h17.08V340.14c0-8.15,5.82-12,12.91-12,4.95,0,10.49,1.95,10.49,8.93v31.26Z" transform="translate(-14.72 -247.95)"/><path class="cls-2" d="M518.17,352.76c-2.43,4.46-7.29,6.8-14.19,6.8-11.64,0-16.69-7.58-16.69-12.53v-.19h50.09v-1.56c0-19.61-10.87-31-33.4-31-20.57,0-34.35,8.35-34.35,27.95s13.78,28,34.35,28c15.64,0,27.48-5.15,32.43-17.48Zm-30.88-16v-.19c0-1.27,2.82-11.55,16.31-11.55,12.53,0,16.11,8.73,16.11,11.55v.19Z" transform="translate(-14.72 -247.95)"/><polygon class="cls-1" points="527.85 120.34 588.91 120.34 588.91 106.56 546.68 106.56 546.68 51.03 527.85 51.03 527.85 120.34 527.85 120.34"/><path class="cls-2" d="M607.55,368.29h17.08v-52H607.55v52Zm0-58.44h17.08v-12H607.55v12Z" transform="translate(-14.72 -247.95)"/><path class="cls-1" d="M675.17,368.29h17.08V333.63c0-15.33-13.49-18.73-22.32-18.73-10,0-18.16,4.56-21.26,8.93h-.2v-7.57H632v52h17.09V343.15c0-11.07,6.69-15,14.65-15,7.67,0,11.46,3.5,11.46,10.68v29.51Z" transform="translate(-14.72 -247.95)"/><polygon class="cls-1" points="684.87 120.34 701.96 120.34 701.96 105.39 710.3 98.69 727.29 120.34 749.91 120.34 723.6 88.12 748.35 68.31 724.57 68.31 701.96 87.73 701.96 49.87 684.87 49.87 684.87 120.34 684.87 120.34"/><path class="cls-2" d="M172.39,368.35A9.36,9.36,0,1,0,163,359a9.36,9.36,0,0,0,9.37,9.37Zm0-1.75A7.61,7.61,0,1,1,180,359a7.6,7.6,0,0,1-7.59,7.62Zm2.18-6.79c1.81-.12,2.77-.87,2.77-2.72a3,3,0,0,0-1.19-2.62,5.6,5.6,0,0,0-2.74-.49h-4.88v10.1h2v-4.27h2l2.26,4.27H177l-2.45-4.27Zm-4.08-1.51v-2.86H173c1,0,2.39,0,2.39,1.36s-.77,1.53-1.86,1.5Z" transform="translate(-14.72 -247.95)"/><path class="cls-2" d="M775.93,368.35a9.36,9.36,0,1,0-9.37-9.37,9.37,9.37,0,0,0,9.37,9.37Zm0-1.75a7.61,7.61,0,1,1,7.59-7.62,7.6,7.6,0,0,1-7.59,7.62Zm2.18-6.79c1.81-.12,2.77-.87,2.77-2.72a3,3,0,0,0-1.19-2.62A5.6,5.6,0,0,0,777,354h-4.88v10.1h2v-4.27h2l2.26,4.27h2.28l-2.45-4.27ZM774,358.3v-2.86h2.46c1,0,2.39,0,2.39,1.36s-.77,1.53-1.86,1.5Z" transform="translate(-14.72 -247.95)"/></svg>