<svg id="Layer_1" data-name="Layer 1" xmlns="http://www.w3.org/2000/svg" viewBox="0 0 763.5 124.28"><defs><style>.cls-1{fill:#535557;}</style></defs><path class="cls-1" d="M116.13,70.4a3.23,3.23,0,0,1-3.29,3.3H66.12A3.2,3.2,0,0,1,63,70.4V27.87H23V140.68H63V101.12a3.19,3.19,0,0,1,3.12-3.27h46.72a3.22,3.22,0,0,1,3.29,3.27v39.56h39.71V27.87H116.13Z" transform="translate(-23 -22.12)"/><rect class="cls-1" x="443.8" y="5.76" width="39.82" height="112.78"/><path class="cls-1" d="M239.51,22.12c-39.83,0-72.41,24.44-72.41,61.57,0,37.71,28.16,62.71,73.81,62.71,40.43,0,72.85-25.29,72.38-62.56C312.6,44,280.33,22.12,239.51,22.12Zm0,106.28c-20.28-.1-27-24.56-26.57-44.71.42-19.13,6.89-41.56,26.14-41.83S265.65,64,266.33,83.41C267.07,103.83,259.91,128.47,239.51,128.4Z" transform="translate(-23 -22.12)"/><path class="cls-1" d="M429.83,95.27c.15-1.22,1.29-1.87,1.57-2.72C441.1,84,448,75.15,448,62.85c0-19.13-16.13-35-35.13-35H323.48V140.68H363V111s.42-10.25,11-11.84a15.49,15.49,0,0,1,15.15,6.28L413,140.68h47.55l-30-42.7A6.51,6.51,0,0,1,429.83,95.27ZM393,78.43H375.43c-8.28,0-15.56-6.74-15.56-14.87s7.28-15,15.56-15H393a14.94,14.94,0,1,1,0,29.87Z" transform="translate(-23 -22.12)"/><path class="cls-1" d="M633.29,83.41a3.91,3.91,0,0,1-1-2.56c0-1.28,1.26-2,2.26-2.86,6.72-5.71,8.86-12.59,8.86-21a29.94,29.94,0,0,0-29.86-30h1.17l-34.86-.15-58,.15V140.68h93.67a31.59,31.59,0,0,0,31.58-31.57C647.16,97.85,642.15,89,633.29,83.41ZM570.88,47.57h18.58a14,14,0,1,1,.16,28H570.88a14,14,0,1,1,0-28Zm22,73.26H572.47c-8.26,0-15.41-6.71-15.41-14.87s7.15-15.13,15.41-15.13h20A15.48,15.48,0,0,1,607.89,106,14.88,14.88,0,0,1,592.9,120.83Z" transform="translate(-23 -22.12)"/><path class="cls-1" d="M746.67,27h-59.1L647.74,140.68h41.41l6.68-18.87s.56-1.69,1-2a6.7,6.7,0,0,1,2.42-1h35a12.41,12.41,0,0,1,2.87.7,7.06,7.06,0,0,1,1.59,2.57l6.38,18.58H786.5Zm-16.12,74.68c-.14.29-1.31.86-1.31.86H705.11c-1,0-1.29-.28-1.57-.7a9.94,9.94,0,0,1-.28-1.44l12-34.56s1-1.59,1.71-1.59c.87,0,2,1.59,2,1.59l12,34.42S730.68,101.4,730.55,101.69Z" transform="translate(-23 -22.12)"/></svg>