<svg id="Layer_1" data-name="Layer 1" xmlns="http://www.w3.org/2000/svg" viewBox="0 0 757.75 370.06"><defs><style>.cls-1{fill:#535558;}</style></defs><path class="cls-1" d="M261.39,225.8C288.2,183,335.08,154.51,389,154.51S489.79,183,516.6,225.8h36.65C523.07,165.53,461.14,124.18,389,124.18S254.89,165.53,224.7,225.8Z" transform="translate(-20.87 -124.18)"/><path class="cls-1" d="M516.78,392.33C490,435.29,443,463.91,389,463.91S288,435.29,261.2,392.33H224.55C254.69,452.77,316.71,494.24,389,494.24s134.27-41.47,164.4-101.91Z" transform="translate(-20.87 -124.18)"/><path class="cls-1" d="M449.42,364.9c-30.84,0-55.44-25.47-55.44-56.63s24.6-56.63,55.44-56.63,55.44,25.46,55.44,56.63-24.59,56.63-55.44,56.63m0-124.36a67.73,67.73,0,1,0,67.31,67.73,67.38,67.38,0,0,0-67.31-67.73" transform="translate(-20.87 -124.18)"/><path class="cls-1" d="M615.59,357.09h9v16.12H581.93V357.09H590l0-27.41c0-1-.08-5-.14-6.31-.3-6.88-3-17.13-14.73-17.13-14.58,0-15.55,13.39-15.55,17.64v33.21h8.09v16.12H525V357.09h9V259.47h-9V243.32h34.59v51.34c5.08-7.8,14.53-11.24,23.55-11.24,8.23,0,18.76,3.39,24.22,9.94,7.19,8.42,8.25,16.18,8.25,31.45Zm118.12-4c-13.14,0-20.62-11-20.62-23.57s7.48-23.57,20.62-23.57,20.59,11,20.59,23.57-7.6,23.57-20.59,23.57m0-68.73a44.77,44.77,0,0,0-45,45.16c0,26.14,19.83,45.17,45,45.17s44.9-19,44.9-45.17a44.75,44.75,0,0,0-44.9-45.16M670,357.09h9v16.12H635.41V357.09h9V301.74h-9V285.61H670Zm0-90H644.31V243.32H670Z" transform="translate(-20.87 -124.18)"/><path class="cls-1" d="M39.06,340c.15,4.27.15,9.61,2.73,13.55,2.06,3.25,7.22,7.54,16,7.54,7,0,13.56-2.92,17.16-8.75,2.92-5,2.92-12.86,2.92-16.64v-92.4H95v97c0,22.82-18,35.17-38.43,35.17-6.52,0-20.92-1.54-29.5-12.86C21.21,354.78,20.87,345,20.87,340Z" transform="translate(-20.87 -124.18)"/><path class="cls-1" d="M149,364.55c12.17,0,26.06-8.75,26.06-34.65,0-21.44-9.95-32.75-25-32.75-10.29,0-26.93,6.51-26.93,33.45,0,17.66,7.55,33.95,25.91,33.95m1-79.24c34.47,0,42.2,27.1,42.2,45.11,0,25.21-14.24,46.13-43.57,46.13-28.47,0-42.36-19.72-42.36-44.93,0-21.27,9.94-46.31,43.73-46.31" transform="translate(-20.87 -124.18)"/><path class="cls-1" d="M246.14,296.28c-24.68,0-24.68,28.83-24.68,34.32,0,5.65,0,32.58,24,32.58,19.91,0,24.87-19.38,24.87-33.45,0-8.57-1.7-33.45-24.19-33.45m-24.35,3.78c2.22-3.94,8.58-14.75,28.13-14.75,8.59,0,19.39,2.06,27.28,11,4.29,5,10.11,13.56,10.11,32.44,0,16.63-3.94,25.71-8.22,31.38-6.87,9.77-18.35,14.74-30.19,14.74a34,34,0,0,1-19.21-5.48,27.8,27.8,0,0,1-8.4-8.74l-.35,13H205.32l.34-15.45V243.33h16.13Z" transform="translate(-20.87 -124.18)"/><path class="cls-1" d="M313.32,348.09c-.17,6.51,3.25,15.59,18.85,15.59,6.71,0,11.68-1.18,15.1-5.48a13.36,13.36,0,0,0,2.74-8.06c0-8.4-6-9.95-18.86-12.86-18-4.11-33.1-7.72-33.1-25.73,0-15.79,13.73-26.07,33.62-26.07,10.8,0,25.9,3.09,31,13.38,2.23,4.79,2.23,8.93,2.23,12.52H348.47c.52-13-10.8-14.07-16.63-14.07-2.39,0-17.49,0-17.49,12.36,0,7.89,7.72,9.77,12.17,11,23.84,5.68,29,7,34.14,11.86a21.25,21.25,0,0,1,6.51,15.92,26.1,26.1,0,0,1-11.66,21.81c-7.55,4.62-16.63,5.83-25.56,5.83-17.5,0-33.77-7.2-33.62-28Z" transform="translate(-20.87 -124.18)"/></svg>