<svg id="Logo_art" data-name="Logo art" xmlns="http://www.w3.org/2000/svg" viewBox="0 0 729.41 319.75"><defs><style>.cls-1{fill:#535557;}</style></defs><path class="cls-1" d="M158.41,334.26c-25.51,0-43.12-17.75-43.12-43.25,0-24.77,15.51-43.5,41.13-43.5,7.88,0,17.12,2.47,24.29,5.69l-5.06,12.55C169.49,263,163,260.94,156.17,261c-16.25,0-24.38,13.67-24.38,28.58,0,18,9.61,31.28,28.59,31.28A38.89,38.89,0,0,0,177,316.88L181,328.71A51.56,51.56,0,0,1,158.41,334.26Z" transform="translate(-35.29 -15.47)"/><path class="cls-1" d="M214.06,334.39c-18.85,0-30.92-13.83-30.92-32.16s12.07-32.18,30.92-32.18S245,283.74,245,302.23,233,334.39,214.06,334.39Zm0-51.53c-11,0-14.55,10.14-14.55,19.49s3.58,19.35,14.55,19.35,14.55-10,14.55-19.35S225,282.86,214.06,282.86Z" transform="translate(-35.29 -15.47)"/><path class="cls-1" d="M293.21,333V294.35c0-7.53-4.94-11.33-12.21-11.33a36.5,36.5,0,0,0-12.45,2.69,21.64,21.64,0,0,1,.26,2.59V333H254V284.85a78.49,78.49,0,0,0-.88-8.63c8.61-3.07,18.85-6.17,28-6.17,15,0,26.84,4.93,26.87,21.95v41Z" transform="translate(-35.29 -15.47)"/><path class="cls-1" d="M342.12,335.23c-11.22,0-19-5.17-19-17.12v-34l-7-.36V272l7-.38v-17.1h14.78v16.86h17.25v12.83H337.93V317c0,3.81,2,5.3,5.66,5.3s7.42-1.23,11-2.48l4.07,12C353.21,333.65,347.91,335.23,342.12,335.23Z" transform="translate(-35.29 -15.47)"/><path class="cls-1" d="M399.28,284.12a31.11,31.11,0,0,0-8.13-1.26,38.16,38.16,0,0,0-11.09,1.61s.12.87.12,1.24V333H365.41V286.08a72.94,72.94,0,0,0-1.13-9.23c8.89-3.7,18.4-6.8,28.11-6.8a47.35,47.35,0,0,1,11.31,1.37Z" transform="translate(-35.29 -15.47)"/><path class="cls-1" d="M434,334.39c-18.85,0-30.87-13.83-30.87-32.16s12-32.18,30.87-32.18,30.95,13.69,30.92,32.18S452.83,334.39,434,334.39Zm0-51.53c-11,0-14.54,10.12-14.54,19.49S423,321.7,434,321.7s14.56-10,14.56-19.34S444.93,282.86,434,282.86Z" transform="translate(-35.29 -15.47)"/><polygon class="cls-1" points="453.35 227.11 438.59 227.11 438.59 288.27 438.59 317.55 453.35 317.55 453.35 227.11"/><path class="cls-1" d="M517.37,334.39a58.47,58.47,0,0,1-20.32-4.07l4.28-11.59c4.33,1.86,10.13,3.68,14.81,3.68s9.35-1.33,9.35-6.77c0-10.95-26.87-7.63-26.87-27.83,0-12.69,13.09-17.76,22.81-17.76a43.5,43.5,0,0,1,17.75,3.71L535,285.23a44.06,44.06,0,0,0-13.57-2.86c-3.7,0-7.63,1.13-7.63,5.56,0,10.36,28.08,5.67,28.08,27.95C541.88,329.58,528.59,334.39,517.37,334.39Z" transform="translate(-35.29 -15.47)"/><path class="cls-1" d="M51.45,229.84c-3.52,1.22-8.8,2.67-13.45,3.85l-2.71-13.31a62.34,62.34,0,0,0,9.2-2.19c8.51-3,9.25-9.15,9.25-19V136.32H69.05v60.45C69.05,213.37,66.64,224.41,51.45,229.84Z" transform="translate(-35.29 -15.47)"/><path class="cls-1" d="M109.17,221.23c-18.83,0-30.9-13.78-30.9-32.13s12.07-32.17,30.9-32.17,31,13.67,31,32.17S128.05,221.23,109.17,221.23Zm0-51.48c-10.93,0-14.52,10.09-14.52,19.48s3.59,19.32,14.52,19.32,14.57-10,14.57-19.32S120.17,169.75,109.17,169.75Z" transform="translate(-35.29 -15.47)"/><path class="cls-1" d="M189,219.87V181c0-6.77-4.19-11.2-10.32-11.2-4.84,0-10.12,2.07-14.21,4.54v45.58H149.74l0-90.42H164.5V161a46.64,46.64,0,0,1,18.26-4.06c13.8,0,21,8.13,21,21.81v41.13Z" transform="translate(-35.29 -15.47)"/><path class="cls-1" d="M255.55,219.87V181.21c0-7.53-4.92-11.35-12.18-11.35a36.68,36.68,0,0,0-12.46,2.72,23.2,23.2,0,0,1,.27,2.6v44.69H216.39V171.71a78.47,78.47,0,0,0-.88-8.64c8.65-3,18.85-6.14,28-6.12,15,0,26.85,4.89,26.85,21.91v41Z" transform="translate(-35.29 -15.47)"/><path class="cls-1" d="M299.2,221.23a58.43,58.43,0,0,1-20.33-4.06l4.32-11.57c4.31,1.85,10.12,3.7,14.78,3.7s9.39-1.37,9.39-6.77c0-11-26.87-7.66-26.87-27.88,0-12.66,13.05-17.7,22.81-17.72a43.08,43.08,0,0,1,17.71,3.7l-4.17,11.47a42.53,42.53,0,0,0-13.54-2.86c-3.73,0-7.64,1.1-7.64,5.55,0,10.35,28.08,5.67,28.08,28C323.73,216.42,310.43,221.25,299.2,221.23Z" transform="translate(-35.29 -15.47)"/><path class="cls-1" d="M361.22,221.25c-18.87,0-31-13.8-31-32.15s12.08-32.15,31-32.17,30.94,13.67,30.94,32.17S380.06,221.23,361.22,221.25Zm0-51.5c-11,0-14.53,10.1-14.53,19.48s3.56,19.32,14.53,19.32,14.53-10,14.53-19.32S372.18,169.74,361.22,169.75Z" transform="translate(-35.29 -15.47)"/><path class="cls-1" d="M441,219.87V181.21c0-7.53-4.91-11.35-12.19-11.35a36.78,36.78,0,0,0-12.45,2.72,23.2,23.2,0,0,1,.27,2.6v44.69H401.85V171.71a79.34,79.34,0,0,0-.87-8.64c8.58-3,18.8-6.14,27.92-6.14,15,0,26.85,4.91,26.85,21.93v41Z" transform="translate(-35.29 -15.47)"/><path class="cls-1" d="M761.64,103.8c-20.52,17.63-28,59.42-12.51,84.08a114.71,114.71,0,0,0,12.51-84.08Z" transform="translate(-35.29 -15.47)"/><path class="cls-1" d="M569.9,47.36A114.66,114.66,0,0,0,535,122.12C554.17,103.77,566.14,74.37,569.9,47.36Z" transform="translate(-35.29 -15.47)"/><path class="cls-1" d="M592.57,30.35c-1.79,1-3.54,2.1-5.26,3.2-11.78,55.54-26.63,83.17-51.49,112.34a114,114,0,0,0,3.66,17C586.46,134,596.38,69.54,592.57,30.35Z" transform="translate(-35.29 -15.47)"/><path class="cls-1" d="M686.07,107.09A272.85,272.85,0,0,0,666.79,16.4c-2.19-.32-4.42-.58-6.66-.77,10.54,89.3,2.39,169.08-50.71,222.21a114,114,0,0,0,28.92,6.72C669.71,217,688.87,171.28,686.07,107.09Z" transform="translate(-35.29 -15.47)"/><path class="cls-1" d="M641.29,15.47c-2.2.16-4.37.37-6.53.66,2.13,59-5.27,149-63.55,198a115.19,115.19,0,0,0,16.87,13.07C660.7,177.82,660.35,81.27,641.29,15.47Z" transform="translate(-35.29 -15.47)"/><path class="cls-1" d="M615.87,20.21c-1.93.58-3.83,1.22-5.71,1.9-3.48,61.62-16.84,118.61-62.83,160.34a115.56,115.56,0,0,0,9.89,16C616.69,162.51,628.86,77.43,615.87,20.21Z" transform="translate(-35.29 -15.47)"/><path class="cls-1" d="M696.11,109.1c7-22.93,21.13-45.06,37.28-57.85q-2.55-2.7-5.27-5.24c-14.41,7.06-26.75,15.48-36.8,25.21A248.29,248.29,0,0,1,696.11,109.1Z" transform="translate(-35.29 -15.47)"/><path class="cls-1" d="M679.52,203.91a114.27,114.27,0,0,0,26.53,26.51,114.85,114.85,0,0,0,10.83-6.91c-12.66-17.3-21.1-36.1-24.71-57.57A160,160,0,0,1,679.52,203.91Z" transform="translate(-35.29 -15.47)"/><path class="cls-1" d="M686.78,52.16c6.45-7.64,13.19-15.73,20-21.89-2.07-1.19-4.18-2.32-6.32-3.37a160,160,0,0,0-18.48,9.23Q684.54,44,686.78,52.16Z" transform="translate(-35.29 -15.47)"/><path class="cls-1" d="M752.11,77.73c-1.16-2.25-2.37-4.48-3.67-6.65-26.56,14.86-44,39.64-46.7,69.48-2.35,26.35,8.14,53.05,28.2,72a116.2,116.2,0,0,0,8.77-9.52C715.63,158,722.83,113,752.11,77.73Z" transform="translate(-35.29 -15.47)"/><path class="cls-1" d="M674.2,242.49a115.42,115.42,0,0,0,14.18-3.76A202.44,202.44,0,0,1,672,217.39,132,132,0,0,1,661.3,232,161,161,0,0,0,674.2,242.49Z" transform="translate(-35.29 -15.47)"/></svg>