<svg id="Layer_1" data-name="Layer 1" xmlns="http://www.w3.org/2000/svg" viewBox="0 0 769.24 297.64"><defs><style>.cls-1{fill:#535557;}</style></defs><polygon class="cls-1" points="438.47 123.59 438.47 153.68 391.19 71.22 379.55 71.22 345.92 71.22 345.92 121.16 345.92 138.2 345.92 225.09 379.55 225.09 391.81 225.09 391.81 144.3 438.13 225.09 483.55 225.09 483.55 71.22 438.47 71.22 438.47 123.59"/><polygon class="cls-1" points="277.12 71.22 277.12 225.09 301.24 225.09 304.69 225.09 312.26 225.09 325.35 225.09 325.35 71.22 301.24 71.22 277.12 71.22"/><polygon class="cls-1" points="195.48 187.81 195.48 71.22 148.82 71.22 148.82 225.09 204.05 225.09 209.71 225.09 259.27 225.09 259.27 187.81 204.05 187.81 195.48 187.81"/><path class="cls-1" d="M785,297.7l-1.38-11.61-2.28-11.48-3.19-11.23-4-10.95-4.85-10.62-5.72-10.19L757,221.91l-7.19-9.19-7.95-8.57-8.57-8L724.09,189l-9.71-6.48-10.19-5.71-10.61-4.9-11-4-11.29-3.14-11.42-2.29L648.3,161l-11.66-.47H165l-11.66.47-11.62,1.38-11.43,2.29L119,167.83l-11,4-10.61,4.9-10.19,5.71L77.53,189l-9.18,7.23-8.57,8-8,8.57-7.24,9.19-6.47,9.71L32.4,241.81l-4.9,10.62-4.05,10.95-3.14,11.23L18,286.09,16.64,297.7l-.47,11.67L16.64,321,18,332.65l2.29,11.47,3.14,11.24,4.05,10.95,4.9,10.61,5.72,10.19,6.47,9.71L51.83,406l8,8.57,8.57,7.95,9.18,7.24,9.72,6.47L97.44,442l10.61,4.91,11,4L130.28,454l11.43,2.29,11.62,1.38,11.66.48H636.64l11.66-.48,11.62-1.38L671.34,454l11.29-3.14,11-4L704.19,442l10.19-5.71,9.71-6.47,9.19-7.24,8.57-7.95L749.8,406l7.19-9.19,6.52-9.71,5.72-10.19,4.85-10.61,4-10.95,3.19-11.24,2.28-11.47L785,321l.43-11.66Zm-48.17,18.9-.91,7.81-1.57,7.76-2.14,7.62-2.72,7.38-3.28,7.19-3.86,6.85L718,367.78l-4.9,6.19-5.38,5.81-2.9,2.68-2.86,2.65-6.19,4.9-6.57,4.38-6.9,3.86-7.15,3.33-7.42,2.72-7.57,2.14L652.35,408l-7.86,1-7.85.29H165l-7.86-.29-7.85-1-7.76-1.52L134,404.3l-7.43-2.72-7.14-3.33-6.9-3.86L105.91,390l-6.19-4.9-5.81-5.33L88.58,374l-4.9-6.19-4.38-6.57-3.86-6.85-3.28-7.19-2.77-7.38-2.14-7.62-1.52-7.76-.91-7.81-.33-7.9.33-7.86.91-7.85,1.52-7.76,2.14-7.57,2.77-7.43,3.28-7.14,3.86-6.9,4.38-6.57,4.9-6.19,5.33-5.81,5.81-5.33,6.19-4.9,2.28-1.53,4.29-2.85,6.9-3.86,7.14-3.29L134,213.1l7.57-2.14,7.76-1.52,7.85-.91,7.86-.33H636.64l7.85.33,7.86.91,7.76,1.52,7.57,2.14,7.42,2.76,7.15,3.29,6.9,3.86,6.57,4.38,6.19,4.9,5.76,5.33,5.38,5.81,4.9,6.19,4.38,6.57,3.86,6.9,3.28,7.14,2.72,7.43,2.14,7.57L735.9,293l.91,7.85.33,7.86Z" transform="translate(-16.17 -160.55)"/><polygon class="cls-1" points="584.19 71.22 570.98 89.15 563.1 99.84 551.25 115.92 551.25 71.22 504.12 71.22 504.12 225.09 551.25 225.09 551.25 180.43 563.1 196.5 570.98 207.18 584.19 225.09 637.85 225.09 579.34 148.15 637.85 71.22 584.19 71.22"/></svg>