<svg id="Layer_1" data-name="Layer 1" xmlns="http://www.w3.org/2000/svg" viewBox="0 0 750.51 152.41"><defs><style>.cls-1{fill:#535557;}</style></defs><path class="cls-1" d="M213.51,368.53h39.63l14.62,55.66h1a118.25,118.25,0,0,1,2.67-14l11.94-41.62h39.23l17.42,106H302.77l-5.21-58h-.7A87.41,87.41,0,0,1,294.33,427L279,474.52H256.52l-13.77-44.85a71.9,71.9,0,0,1-2.4-13.2h-1.26c-.28,4.21-.56,8.57-1,12.78l-4.51,45.27H196.36Z" transform="translate(-24.75 -323.8)"/><path class="cls-1" d="M397,436.15l-4.5-18.7c-1.12-4.5-1.83-9.14-2.53-13.64h-1.4l-7,32.34Zm-25.45,38.37H330.81l36.83-106h42.59l37.81,106H407.28l-3.51-13.22h-29.1Z" transform="translate(-24.75 -323.8)"/><path class="cls-1" d="M552.75,412.11c-.29,17.29-.29,31.76-12.8,45.25-11.25,12.24-28.53,18.84-45,18.84-32.33,0-58.47-20-58.47-54,0-34.58,25.43-55.38,58.75-55.38,18.41,0,43.72,9.13,52,27.27l-36,13.21c-2.95-5.34-8.43-8.15-14.62-8.15-13.76,0-21.36,11.8-21.36,24.59,0,11.66,7.31,22.63,19.82,22.63,6,0,13.77-2.81,15.6-9.27H493.29v-25Z" transform="translate(-24.75 -323.8)"/><path class="cls-1" d="M555.63,368.53h37l34.57,58.76h1.12c-1.54-8.86-3.23-18-3.23-27V368.53h36.82v106H625.06l-33.87-55.66h-1.12c1.26,7.3,2.38,14.19,2.38,21.22v34.44H555.62v-106Z" transform="translate(-24.75 -323.8)"/><path class="cls-1" d="M724.23,436.15l-4.5-18.7c-1.12-4.5-1.82-9.14-2.53-13.64h-1.4l-7,32.34Zm-25.44,38.37H658l36.82-106h42.59l37.81,106H734.49L731,461.3h-29.1Z" transform="translate(-24.75 -323.8)"/><polygon class="cls-1" points="112.86 150.83 152.8 150.83 114.34 45.02 85.11 45.02 79.73 59.74 112.86 150.83"/><path class="cls-1" d="M110.53,323.8a19.4,19.4,0,1,0,19.39,19.4,19.39,19.39,0,0,0-19.39-19.4" transform="translate(-24.75 -323.8)"/><polygon class="cls-1" points="0 150.83 59.53 150.82 29.76 69.09 0 150.83"/><polygon class="cls-1" points="66.29 150.83 106.22 150.83 67.75 45.02 38.52 45.02 33.16 59.74 66.29 150.83"/></svg>