<?xml version="1.0" encoding="utf-8"?>
<!-- Generator: Adobe Illustrator 25.3.1, SVG Export Plug-In . SVG Version: 6.00 Build 0)  -->
<svg version="1.1" id="Layer_1" xmlns="http://www.w3.org/2000/svg" xmlns:xlink="http://www.w3.org/1999/xlink" x="0px" y="0px"
	 viewBox="0 0 2279.4 496.6" style="enable-background:new 0 0 2279.4 496.6;" xml:space="preserve">
<style type="text/css">
	.st0{fill-rule:evenodd;clip-rule:evenodd;fill:#535558;}
</style>
<g>
	<path class="st0" d="M0,0.6v496.1h131V118.6h106.1v378.1H368V118.6h106.1v378.1h131V0.6H0z M1043.8,0.6V0H802.2v0.6h-84.4v496.1
		h130.9V381.5h106.1v115.1h131V0.6H1043.8z M848.8,118.6h106.1V263H848.8V118.6z M1433.4,0.6v188.5h-106.1V0.6h-130.9v496.1h130.9
		V307.6h106.1v189.1h131V0.6H1433.4z M1943,377.9h-143.9V0.6h-131v496.1l274.8-0.3V377.9z M2279.4,119.1V0.6l-283.8-0.1v496.1
		l283.8-0.6V377.6h-153v-68.8h153V190.2h-153v-71.1L2279.4,119.1L2279.4,119.1z"/>
</g>
</svg>
