<svg id="Layer_1" data-name="Layer 1" xmlns="http://www.w3.org/2000/svg" viewBox="0 0 749.82 112.35"><defs><style>.cls-1{fill:#535558;}.cls-2{fill:#898789;}.cls-3{fill:#6d6c6e;}</style></defs><path class="cls-1" d="M284.28,253.08H196.35l-20.59,84.83a22.15,22.15,0,0,0,21.52,27.36h87.77l5.43-25.77H201l4.1-17.67H296l9.83-41.52A22.14,22.14,0,0,0,284.28,253.08Zm-8.65,43H211.26l4.3-17.23h64.38Z" transform="translate(-25.09 -252.92)"/><path class="cls-1" d="M329.16,365.27h87.93l20.59-84.84a22.14,22.14,0,0,0-21.51-27.35H328.39L323,278.84h89.46l-4.1,17.67H317.44L307.62,338A22.13,22.13,0,0,0,329.16,365.27Zm8.65-43h64.38l-4.31,17.23H333.5Z" transform="translate(-25.09 -252.92)"/><path class="cls-1" d="M669.51,278.84l5.42-25.76H590.57a22.14,22.14,0,0,0-21.55,17l-12.34,52.15h76.09l-5.42,17.23H552.63l-5.81,25.77H630.2a22.14,22.14,0,0,0,21.54-17L664,296.51H588.55l4.17-17.67Z" transform="translate(-25.09 -252.92)"/><path class="cls-1" d="M52.23,253.08,25.09,365.2H50.85L72.8,278.84H97.57L75.63,365.2h25.76l21.94-86.36h26.76l-22,86.36h25.77l20.68-84.74a22.13,22.13,0,0,0-21.5-27.38Z" transform="translate(-25.09 -252.92)"/><path class="cls-1" d="M459.8,253.08l-25.64,112h25.76l20.51-86.28h46.48L506.4,365.12h25.77l19.36-85a22.13,22.13,0,0,0-21.59-27Z" transform="translate(-25.09 -252.92)"/><polyline class="cls-2" points="749.82 0 724.06 0 697.14 112.34 722.91 112.34 749.82 0"/><polyline class="cls-3" points="702.89 0 677.13 0 650.22 112.34 675.98 112.34 702.89 0"/></svg>