<svg id="Layer_1" data-name="Layer 1" xmlns="http://www.w3.org/2000/svg" viewBox="0 0 727.04 145.27"><defs><style>.cls-1{fill:#535557;fill-rule:evenodd;}</style></defs><path class="cls-1" d="M277.65,104.65c-.42-12.05-12-18.91-22.84-18.91-15.05,0-24.81,11.64-24.81,26.09s9.76,26,24.81,26c12.67,0,22.11-7.58,22.84-20.36H264.57c-.42,5.71-3.94,9.24-10.07,9.24-8.41,0-11.63-7.48-11.63-14.85S246.09,97,254.5,97c5.5,0,9.45,2.7,10.07,7.68Zm5,7.18c0,14.44,8.92,26,24.6,26s24.5-11.53,24.5-26-8.83-26.09-24.5-26.09S282.64,97.38,282.64,111.83Zm13,0c0-7.38,3.22-14.86,11.63-14.86s11.63,7.48,11.63,14.86-3.22,14.85-11.63,14.85S295.61,119.2,295.61,111.83Zm42.57,24.83h12.15v-31h.2l17.34,31h13.39V86.88H369v30.76h-.21L351.47,86.88H338.18Zm91.37-49.78H386.87V98h14.84v38.65h13V98h14.85Zm5.7,49.78h13.09V86.88H435.25Zm21.8,0H469.3v-31h.11l17.22,31h13.42V86.88H487.8v30.76h-.11L470.43,86.88H457.05Zm51.19,0h40.48v-11h-27.5v-9.56h24.5V106h-24.5V97.28H548V86.88H508.24Zm47.76,0h12.14v-31h.11l17.33,31H599V86.88H586.72v30.76h-.22L569.16,86.88H556Zm91.24-49.78H604.56V98h15v38.65h13V98h14.74Zm19.41,13.83h.11l5.52,17.45H661Zm-25.12,36h13.31l3.11-8.83h17.44l3.11,8.83H692L673.42,86.88H660.11Zm54.3,0H732v-11H708.82V86.88h-13Z" transform="translate(-36.48 -7.29)"/><path class="cls-1" d="M748.89,125.65h-8.84v1.45h3.54v9.66h1.76V127.1h3.54Zm14.63,0h-2.89l-3.22,8.41-3.32-8.41h-2.93v11.11H753v-9.35l3.76,9.35h1.14l3.62-9.35h.11v9.35h1.86Z" transform="translate(-36.48 -7.29)"/><path class="cls-1" d="M486.12,61.84h-8.71V63.3h3.41V73h1.79V63.3h3.51Zm14.55,0h-2.81l-3.33,8.42-3.33-8.42h-2.78V73h1.87V63.61L493.91,73h1.24l3.62-9.35h.11V73h1.79Z" transform="translate(-36.48 -7.29)"/><path class="cls-1" d="M109.05,152.56A72.64,72.64,0,1,0,36.48,79.93,72.61,72.61,0,0,0,109.05,152.56Zm0-31.49a41,41,0,1,1,41.11-41.14A41,41,0,0,1,109.05,121.07Zm69.77-41.14a69.82,69.82,0,0,1-69.77,69.82V123.88a43.91,43.91,0,1,0,0-87.81V10.2A69.8,69.8,0,0,1,178.82,79.93Z" transform="translate(-36.48 -7.29)"/><path class="cls-1" d="M254.19,74.42C239.55,74.42,230,63.61,230,48.13s10.38-26.4,24.19-26.4c14.22,0,24.29,10.5,24.29,26.4C278.48,63.61,268.93,74.42,254.19,74.42Zm0-42.19c-8.72,0-12.46,8.1-12.46,15.9,0,7.58,4.05,15.58,12.46,15.58s12.25-8.1,12.25-15.69C266.44,40.12,262.8,32.23,254.19,32.23ZM322.4,58.31c.1,9.66-9.14,16.11-20.25,16.11-22.11,0-20.55-16.53-20.66-17.88h11.74c-.52,5.2,4.66,8,9.44,7.9,3.53,0,7.79-.73,8.31-5.3,1-9.14-28.86-2.6-28.86-21.61,0-10.19,10.17-15.7,20-15.7,14,0,20.14,8.22,20.14,17.15H310.35s.63-7.07-8.41-7.07c-3.53,0-7.47,1.36-7.88,4.68C292.81,45.22,322.08,38.88,322.4,58.31Zm36.23-2.08L366.94,73H354.17l-7.38-15.9h-7.57V73H327.59V23.08H353c8.93,0,15.68,7.59,15.68,17.25C368.7,47.92,365.17,53.22,358.63,56.23Zm-7.37-22.55h-12V47.19H351c3.42,0,5.91-3.32,5.91-6.65S354.79,33.68,351.26,33.68ZM405.78,73l-3-8.62h-19.4l-3,8.62H368L386,23.08h14.12l18,49.88Zm-6.35-19L393.1,35.76l-6.23,18.18Zm57.32,19V46.36L444.69,65.9,432.76,46.36V73H420.08V23.08h12.68l11.93,20.37,12.06-20.37H469.3V73Z" transform="translate(-36.48 -7.29)"/><path class="cls-1" d="M179.44,141.34h-8.83v1.56h3.53v9.66H176V142.9h3.43Zm14.64,0h-2.81L188,149.86l-3.32-8.52h-2.91v11.22h1.87v-9.35h.1l3.64,9.35h1.14l3.74-9.35v9.35h1.87Z" transform="translate(-36.48 -7.29)"/></svg>