<svg id="Layer_1" data-name="Layer 1" xmlns="http://www.w3.org/2000/svg" viewBox="0 0 710.28 110.21"><defs><style>.cls-1{fill:#535557;}</style></defs><path class="cls-1" d="M44.86,7H67.25c11.19,0,20.21,5.18,20.21,16.87,0,13.71-9.85,18.8-21.8,18.8-1.92,0-3.84-.16-5.76-.33V66.44h-15Zm15,25.15h2.67c4.34,0,9.36-1.67,9.36-7.27s-5-7.35-9.36-7.35H59.9Z" transform="translate(-44.86 -6.96)"/><path class="cls-1" d="M108.93,23.5c12.62,0,18.88,9.28,18.88,21.81,0,13-6,22.13-18.88,22.13s-18.88-9.1-18.88-22.13C90.05,32.78,96.32,23.5,108.93,23.5Zm0,35.42c3.34,0,4.85-3,4.85-13.61,0-9.69-1-13.29-4.85-13.29s-4.84,3.6-4.84,13.29C104.09,55.91,105.59,58.92,108.93,58.92Z" transform="translate(-44.86 -6.96)"/><path class="cls-1" d="M133.91,24.5h13.28v6.35h.17c1.67-5.26,7.68-7.35,13-7.35V37.2A15.87,15.87,0,0,0,154.87,36c-4.51,0-5.93,1.17-7.43,3.26V66.44H133.91Z" transform="translate(-44.86 -6.96)"/><path class="cls-1" d="M185.86,37.37c-1.25-2.51-3-5.35-6.34-5.35-2.76,0-4,1.34-4,2.68,0,6.76,20.55,4.59,20.55,18.46,0,9-6.85,14.28-16.79,14.28-9.36,0-15.46-5-17.63-11.86L172,52.32c1.58,3.18,3.34,6.1,7.27,6.1,2.5,0,4.26-1.25,4.26-3.09,0-7-20.55-4.26-20.55-18.8,0-4.42,4.34-13,16.29-13,6.76,0,13.61,3.17,16,11.36Z" transform="translate(-44.86 -6.96)"/><path class="cls-1" d="M223.37,40.13a15.88,15.88,0,0,0-.67-5.27A3.91,3.91,0,0,0,218.78,32c-4.52,0-5,5.52-5,13.87,0,9.44,1.51,12.53,5,12.53,4.76,0,5.18-4.84,5.18-8l10.52,1.5c-1,10.2-6.85,15.54-16.71,15.54-12.19,0-18.54-10.69-18.54-21,0-11.44,6.35-22.89,19.13-22.89,14.37,0,16.54,12.45,16.54,16.63Z" transform="translate(-44.86 -6.96)"/><path class="cls-1" d="M241.49,7H255V30.1h.17a14.09,14.09,0,0,1,11.94-6.6c5.43,0,8.94,3.68,8.94,9.44v33.5H262.55V36.78c0-2.25-.76-3.76-3.26-3.76a4.28,4.28,0,0,0-3.51,1.76l-.75,1V66.44H241.49Z" transform="translate(-44.86 -6.96)"/><path class="cls-1" d="M295.71,48.48c0,3.68.75,9.94,6.1,9.94a7.17,7.17,0,0,0,6.85-5.76l9.1,3.34A17.28,17.28,0,0,1,301,67.44c-13,0-18.79-10.44-18.79-22,0-11.86,6.18-21.89,18.63-21.89,13,0,17.54,11.2,17.54,22.14v2.84Zm10.11-8c-.09-3.93-.42-8.44-5.1-8.44-3.84,0-5,4.51-5,8.44Z" transform="translate(-44.86 -6.96)"/><path class="cls-1" d="M350.67,7H388.1V18.49H365.71v12h15V42.05h-15V54.41H388.1v12H350.67Z" transform="translate(-44.86 -6.96)"/><path class="cls-1" d="M393.44,24.5H407v5.6h.16a14.09,14.09,0,0,1,11.95-6.6c5.43,0,8.94,3.68,8.94,9.44v33.5H414.49V36.78c0-2.25-.75-3.76-3.25-3.76a4.28,4.28,0,0,0-3.51,1.76l-.75,1V66.44H393.44Z" transform="translate(-44.86 -6.96)"/><path class="cls-1" d="M474.22,31.69a7,7,0,0,0-4.76-2.17,2.85,2.85,0,0,0-2.26.92c1.59,1.83,2,4.42,2,6.84,0,8.27-9.11,12.37-16.54,12.37A24.51,24.51,0,0,1,446.9,49c-.33.42-1.42,1.59-1.42,2.42,0,3,3.68,3,8.44,3,8,0,18.8,1,18.8,11.53,0,8.6-8.44,13-20.8,13-4.77,0-19.47-.67-19.47-8.69,0-4.51,4.1-6.68,7.94-7.35v-.16c-3.34-1.09-5.93-3-5.93-6.86,0-4.09,4.67-7.18,8.18-8v-.16c-5.26-2.26-7.85-6.27-7.85-11,0-9.52,10.28-13.2,17.13-13.2,4,0,8.43.92,11.61,3,1-2.34,6.68-5.51,10.69-5.51ZM443,68.28c0,3.42,6.26,3.67,8.94,3.67,3.17,0,9.27,0,9.27-3.67,0-3.85-6.77-3.85-9.27-3.85C450,64.43,443,64.43,443,68.28ZM447.32,37c0,3,1.09,6.68,4.6,6.68,3.76,0,4.76-3.84,4.76-7.26,0-3.26-1.25-6.85-4.76-6.85C448.16,29.52,447.32,33.78,447.32,37Z" transform="translate(-44.86 -6.96)"/><path class="cls-1" d="M477.64,7h13.54V19H477.64Zm0,17.54h13.54V66.44H477.64Z" transform="translate(-44.86 -6.96)"/><path class="cls-1" d="M499.36,24.5h13.53v5.6h.17a14.09,14.09,0,0,1,12-6.6c5.43,0,8.94,3.68,8.94,9.44v33.5H520.41V36.78c0-2.25-.75-3.76-3.26-3.76a4.28,4.28,0,0,0-3.51,1.76l-.75,1V66.44H499.36Z" transform="translate(-44.86 -6.96)"/><path class="cls-1" d="M553.57,48.48c0,3.68.76,9.94,6.1,9.94a7.17,7.17,0,0,0,6.85-5.76L575.63,56a17.29,17.29,0,0,1-16.79,11.44c-13,0-18.8-10.44-18.8-22,0-11.86,6.18-21.89,18.63-21.89,13,0,17.54,11.2,17.54,22.14v2.84Zm10.11-8c-.08-3.93-.42-8.44-5.09-8.44-3.85,0-5,4.51-5,8.44Z" transform="translate(-44.86 -6.96)"/><path class="cls-1" d="M593.5,48.48c0,3.68.76,9.94,6.1,9.94a7.17,7.17,0,0,0,6.85-5.76L615.56,56a17.31,17.31,0,0,1-16.8,11.44C585.82,67.44,580,57,580,45.39c0-11.86,6.18-21.89,18.63-21.89,13,0,17.54,11.2,17.54,22.14v2.84Zm10.11-8c-.08-3.93-.42-8.44-5.09-8.44-3.85,0-5,4.51-5,8.44Z" transform="translate(-44.86 -6.96)"/><path class="cls-1" d="M622.24,24.5h13.28v6.35h.17c1.67-5.26,7.68-7.35,13-7.35V37.2A15.86,15.86,0,0,0,643.21,36c-4.52,0-5.94,1.17-7.44,3.26V66.44H622.24Z" transform="translate(-44.86 -6.96)"/><path class="cls-1" d="M652.64,7h13.54V19H652.64Zm0,17.54h13.54V66.44H652.64Z" transform="translate(-44.86 -6.96)"/><path class="cls-1" d="M674.36,24.5H687.9v5.6h.16a14.09,14.09,0,0,1,12-6.6c5.43,0,8.94,3.68,8.94,9.44v33.5H695.41V36.78c0-2.25-.75-3.76-3.25-3.76a4.28,4.28,0,0,0-3.51,1.76l-.75,1V66.44H674.36Z" transform="translate(-44.86 -6.96)"/><path class="cls-1" d="M755.14,31.69a7,7,0,0,0-4.76-2.17,2.85,2.85,0,0,0-2.26.92c1.59,1.83,2,4.42,2,6.84,0,8.27-9.11,12.37-16.54,12.37a24.51,24.51,0,0,1-5.77-.67c-.33.42-1.42,1.59-1.42,2.42,0,3,3.68,3,8.44,3,8,0,18.8,1,18.8,11.53,0,8.6-8.44,13-20.81,13-4.76,0-19.46-.67-19.46-8.69,0-4.51,4.09-6.68,7.94-7.35v-.16c-3.34-1.09-5.94-3-5.94-6.86,0-4.09,4.68-7.18,8.19-8v-.16c-5.26-2.26-7.85-6.27-7.85-11,0-9.52,10.27-13.2,17.12-13.2,4,0,8.44.92,11.62,3,1-2.34,6.68-5.51,10.69-5.51ZM723.9,68.28c0,3.42,6.26,3.67,8.93,3.67,3.18,0,9.28,0,9.28-3.67,0-3.85-6.77-3.85-9.28-3.85C730.91,64.43,723.9,64.43,723.9,68.28ZM728.24,37c0,3,1.09,6.68,4.59,6.68,3.76,0,4.77-3.84,4.77-7.26,0-3.26-1.26-6.85-4.77-6.85C729.08,29.52,728.24,33.78,728.24,37Z" transform="translate(-44.86 -6.96)"/><path class="cls-1" d="M521.77,111.9H516.4v-1.72h-.07c-1.69,1.61-2.64,1.93-4.32,1.93-3.73,0-5.48-3.9-5.48-8.36,0-5,1.37-9.48,5.83-9.48a4.85,4.85,0,0,1,3.72,1.55V86.9h5.69Zm-5.69-13.66a2.13,2.13,0,0,0-1.79-.81c-1.93,0-1.86,3.3-1.86,5.37,0,3.65.07,5.94,1.58,5.94a2.4,2.4,0,0,0,2.07-1.34Z" transform="translate(-44.86 -6.96)"/><path class="cls-1" d="M525.82,94.27h5.58v2.67h.07c.7-2.21,3.23-3.09,5.48-3.09v5.76a6.69,6.69,0,0,0-2.32-.49c-1.9,0-2.49.49-3.12,1.37V111.9h-5.69Z" transform="translate(-44.86 -6.96)"/><path class="cls-1" d="M538.78,86.9h5.69v5h-5.69Zm0,7.37h5.69V111.9h-5.69Z" transform="translate(-44.86 -6.96)"/><path class="cls-1" d="M546.3,94.27h5.9l2,9.59h.07l2.42-9.59h4.5l-5.66,17.63h-4.28Z" transform="translate(-44.86 -6.96)"/><path class="cls-1" d="M563,86.9h5.69v5H563Zm0,7.37h5.69V111.9H563Z" transform="translate(-44.86 -6.96)"/><path class="cls-1" d="M572.33,94.27H578v2.35h.07a5.91,5.91,0,0,1,5-2.77,3.62,3.62,0,0,1,3.76,4V111.9h-5.69V99.43c0-1-.32-1.58-1.37-1.58a1.78,1.78,0,0,0-1.47.74L578,99V111.9h-5.69Z" transform="translate(-44.86 -6.96)"/><path class="cls-1" d="M606.5,97.29a3,3,0,0,0-2-.91,1.18,1.18,0,0,0-.94.38,4.41,4.41,0,0,1,.84,2.88c0,3.48-3.83,5.2-6.95,5.2a10.32,10.32,0,0,1-2.43-.28c-.14.17-.59.67-.59,1,0,1.26,1.54,1.26,3.54,1.26,3.37,0,7.9.42,7.9,4.85,0,3.62-3.54,5.48-8.74,5.48-2,0-8.18-.29-8.18-3.66,0-1.89,1.72-2.8,3.33-3.09v-.07c-1.4-.45-2.49-1.26-2.49-2.88s2-3,3.44-3.37V104a4.91,4.91,0,0,1-3.3-4.63c0-4,4.32-5.55,7.2-5.55A9.25,9.25,0,0,1,602,95.11c.42-1,2.81-2.31,4.49-2.31Zm-13.13,15.38c0,1.44,2.64,1.55,3.76,1.55,1.33,0,3.9,0,3.9-1.55s-2.85-1.61-3.9-1.61C596.32,111.06,593.37,111.06,593.37,112.67ZM595.2,99.5c0,1.27.46,2.81,1.93,2.81s2-1.61,2-3-.53-2.88-2-2.88S595.2,98.17,595.2,99.5Z" transform="translate(-44.86 -6.96)"/><path class="cls-1" d="M619.23,86.9h5.69v5h-5.69Zm0,7.37h5.69V111.9h-5.69Z" transform="translate(-44.86 -6.96)"/><path class="cls-1" d="M642.8,111.9h-5.37v-1.72h-.07c-1.69,1.61-2.64,1.93-4.32,1.93-3.73,0-5.48-3.9-5.48-8.36,0-5,1.37-9.48,5.83-9.48a4.85,4.85,0,0,1,3.72,1.55V86.9h5.69Zm-5.69-13.66a2.12,2.12,0,0,0-1.79-.81c-1.93,0-1.86,3.3-1.86,5.37,0,3.65.07,5.94,1.58,5.94a2.4,2.4,0,0,0,2.07-1.34Z" transform="translate(-44.86 -6.96)"/><path class="cls-1" d="M651.55,104.35c0,1.54.32,4.18,2.57,4.18a3,3,0,0,0,2.88-2.42l3.82,1.4a7.26,7.26,0,0,1-7.06,4.81c-5.44,0-7.9-4.39-7.9-9.27s2.6-9.2,7.83-9.2c5.48,0,7.38,4.71,7.38,9.31v1.19ZM655.8,101c0-1.65-.18-3.55-2.14-3.55-1.62,0-2.11,1.9-2.11,3.55Z" transform="translate(-44.86 -6.96)"/><path class="cls-1" d="M663.85,94.27h5.69v2.35h.07a5.91,5.91,0,0,1,5-2.77,3.62,3.62,0,0,1,3.76,4V111.9H672.7V99.43c0-1-.32-1.58-1.37-1.58a1.81,1.81,0,0,0-1.48.74l-.31.42V111.9h-5.69Z" transform="translate(-44.86 -6.96)"/><path class="cls-1" d="M682.61,98.27h-2.32v-4h2.32V88h5.69v6.32h3.12v4H688.3v7.48c0,1.23,0,2.14,1.82,2.14a4.81,4.81,0,0,0,1.3-.17v4.14a16.41,16.41,0,0,1-4,.46c-3,0-4.81-1.3-4.81-4.46Z" transform="translate(-44.86 -6.96)"/><path class="cls-1" d="M693.82,86.9h5.69v5h-5.69Zm0,7.37h5.69V111.9h-5.69Z" transform="translate(-44.86 -6.96)"/><path class="cls-1" d="M703.58,98.27h-2.32v-4h2.32V88h5.69v6.32h3.13v4h-3.13v7.48c0,1.23,0,2.14,1.83,2.14a4.87,4.87,0,0,0,1.3-.17v4.14a16.55,16.55,0,0,1-4,.46c-3,0-4.81-1.3-4.81-4.46Z" transform="translate(-44.86 -6.96)"/><path class="cls-1" d="M714.79,86.9h5.69v5h-5.69Zm0,7.37h5.69V111.9h-5.69Z" transform="translate(-44.86 -6.96)"/><path class="cls-1" d="M728.81,104.35c0,1.54.31,4.18,2.56,4.18a3,3,0,0,0,2.88-2.42l3.83,1.4a7.28,7.28,0,0,1-7.06,4.81c-5.45,0-7.9-4.39-7.9-9.27s2.6-9.2,7.83-9.2c5.48,0,7.37,4.71,7.37,9.31v1.19Zm4.24-3.37c0-1.65-.17-3.55-2.14-3.55-1.61,0-2.1,1.9-2.1,3.55Z" transform="translate(-44.86 -6.96)"/><path class="cls-1" d="M750,99.68c-.52-1.06-1.26-2.25-2.67-2.25-1.16,0-1.68.56-1.68,1.13,0,2.84,8.64,1.93,8.64,7.76,0,3.79-2.88,6-7.06,6-3.94,0-6.5-2.11-7.41-5l4.35-1.37c.67,1.34,1.41,2.57,3.06,2.57,1,0,1.79-.53,1.79-1.3,0-3-8.64-1.79-8.64-7.9,0-1.87,1.83-5.48,6.85-5.48A6.6,6.6,0,0,1,754,98.62Z" transform="translate(-44.86 -6.96)"/></svg>