<?xml version="1.0" encoding="utf-8"?>
<!-- Generator: Adobe Illustrator 25.3.1, SVG Export Plug-In . SVG Version: 6.00 Build 0)  -->
<svg version="1.1" id="Layer_1" xmlns="http://www.w3.org/2000/svg" xmlns:xlink="http://www.w3.org/1999/xlink" x="0px" y="0px"
	 viewBox="0 0 721.1 466.4" style="enable-background:new 0 0 721.1 466.4;" xml:space="preserve">
<style type="text/css">
	.st0{fill:#FFFFFF;}
	.st1{fill:#535557;}
	.st2{opacity:0.37;fill:#535557;enable-background:new    ;}
</style>
<path class="st0" d="M419,105.3c6.8-6.8,6.3-18.7,0-24.5c-8.7-7.4-16.4-9.4-28.5-9.3h-87.3v41.9h87.7
	C401.9,113.5,411.4,111.6,419,105.3z"/>
<path class="st1" d="M302.8,181.1H368c27.5,0,56.4,14.3,56.5,49.9v49.3h296.3c0-75.3-36.6-114.4-116.6-132.3
	c30.9-3.3,58.9-6.6,84-23.1c20.9-15.5,41.7-57.3-0.5-93.1C658,8.4,605.5,0,546.5,0H61.9v280.3h-23V0H0v280.3h302.8V181.1z
	 M303.2,71.5h87.4c12.1-0.1,19.8,1.8,28.5,9.3c6.3,5.8,6.8,17.7,0,24.5c-7.7,6.3-17.1,8.2-28.1,8.2h-87.8V71.5z"/>
<path class="st1" d="M505.9,349.4h-13.1v72h13.1c5.8,0,15.5-2.9,21.2-8.6c7.1-7.4,11-17.3,10.8-27.6c0-12.5-5.6-21-11.2-26.7
	C521.4,352.6,513.8,349.4,505.9,349.4z"/>
<path class="st1" d="M422.5,351.2c-3.4-2.5-9.9-3-18.1-3h-3.3v32.4h3.3c9,0,15.1-1.5,18-3.3c3.2-1.9,5.4-8.9,5.4-14.2
	C427.9,357.5,425.9,353.5,422.5,351.2z"/>
<polygon class="st1" points="301.1,401.4 332.7,401.4 316.9,359 "/>
<path class="st1" d="M629.5,349.5c-9.6,0.1-18.8,4-25.5,11c-7,7.6-11.3,14.5-11.3,25.3c0,10.2,3.9,19.9,10.7,27.4
	c6.7,7,15.5,10.4,26,10.4l0,0c10.3,0,18.8-3.4,25.4-10.4c6.5-7.7,10.7-14.3,10.7-25.2c0-10.1-3.8-19.8-10.7-27.1
	C648.4,353.8,639.2,349.7,629.5,349.5z"/>
<path class="st1" d="M84.3,351.2c-3.4-2.5-9.9-3-18.1-3h-3.3v32.4h3.3c9,0,15.1-1.5,18-3.3c3.2-1.9,5.4-8.9,5.4-14.2
	C89.7,357.5,87.6,353.5,84.3,351.2z"/>
<polygon class="st0" points="469.9,442.2 469.9,442.2 469.9,442.2 "/>
<polygon class="st0" points="461.8,442.2 461.8,442.2 461.8,442.2 "/>
<polygon class="st0" points="123.6,442.2 123.6,442.2 123.6,442.2 "/>
<path class="st1" d="M0.3,303.5v162.9h720.8V303.5H0.3z M94.9,442.2l-31.9-47.8v47.8H40.3V328.4v0h34.4c13.2,0,23.5,3,30.1,8.2
	c0,0,0,0,0,0c6.5,5.1,9.8,13,9.9,23.9c0,0.1,0,0.3,0,0.4v0l0,0c0,7.6-1.6,15.4-5.9,21.1c-4.8,5.3-13.5,12.3-20.6,13.3l35.4,47H94.9z
	 M155.2,328.4v113.8v0h-23.5v0V328.4v0L155.2,328.4L155.2,328.4z M252.9,437.4c-5.2,2.9-10.9,4.8-16.8,5.8c-5.8,1.7-12,2.2-18,1.4
	c-17.8-2.8-24.4-6-35.8-16.6c-2.1-2-4.1-4.1-5.8-6.4c-7.5-9.8-11.2-22.1-11.2-36c0-17.1,5.2-31.7,17-42.8
	c11.4-10.8,19.5-14.6,36.3-16.5c5.8-0.5,11.7,0.1,17.4,1.7c5.7,1.4,11.6,3.4,16,6.1v0c0,0,0,0,0,0v25.8c0,0,0,0,0,0v0
	c-4-3.8-8.8-6.6-14-8.4c-1.5-0.6-3.3-1.3-5.2-1.8c-3.9-1.1-8.3-1.9-12-1.4c-10.2,1.7-12.3,2.7-19.5,8.4
	c-7.9,6.3-13.1,16.6-13.1,29.1c0,11.5,4.7,21.8,12.2,27.9c7.2,5.7,7.4,7.5,18.6,9.5c6.1,1,12.3,0.5,18.1-1.4
	c0.4-0.1,0.8-0.3,1.1-0.5c4.8-2,10.3-4.9,14.7-8.9v0c0,0,0,0,0.1-0.1L252.9,437.4z M347.3,442.2l-9.4-22.8h-43.3l-8.9,22.8h-24.5
	l44.6-113.8l22.9,0l42.8,113.8H347.3z M401.2,442.2L401.2,442.2h-22.7V328.4v0h34.4c13.2,0,23.5,3,30.1,8.2c0,0,0,0,0,0
	c6.5,5.1,9.8,13,9.9,23.9c0,0.1,0,0.3,0,0.4v0l0,0c0,7.6-1.6,15.4-5.9,21.1c-0.1,0.1-0.2,0.2-0.3,0.3c-2.4,2.6-5.6,5.5-9.2,8
	c-3.7,2.5-7.6,4.5-11.2,5l35.4,47h-28.7l-31.9-47.8V442.2z M553.9,412.7c-3.4,7.8-8.7,14.5-15.5,19.6c-4.8,3.4-10,6-15.7,7.7
	c0,0-11,2.1-19.5,2.2c-0.3,0-0.5,0-0.8,0h-32.5V328.4h30.6c7.2,0,14.3,0.8,21.3,2.3c7,1.6,11.7,4.8,16.8,9c6.6,5,12,11.6,15.5,19.1
	c3.3,8.2,6.7,17.2,6.7,26.7C560.9,395.6,557.6,404.6,553.9,412.7z M684.5,410c-2.7,7.2-7,13.7-12.5,19.1c-5.7,5.7-12.4,10-19.9,12.9
	c-7,2.2-15,4.2-22.6,4.2c-7.1,0-13.6-1.5-20.3-3.2c-6.5-1.9-12.6-5.7-17.8-10c-7-5.5-12.7-12.5-16.5-20.5
	c-3.8-7.8-5.8-16.5-5.6-25.2c0,0,0,0,0,0c0,0,0,0,0,0c0-0.3,0-0.5,0-0.8c0-0.7,0-1.5,0-2.2c0-0.3,0-0.5,0.1-0.8
	c0-0.7,0.1-1.4,0.1-2.2c0-0.3,0.1-0.6,0.1-0.8c0.1-0.7,0.2-1.4,0.3-2.1c0-0.2,0.1-0.5,0.1-0.7c0.1-0.7,0.2-1.4,0.4-2.2
	c0.1-0.3,0.1-0.5,0.2-0.8c0.2-0.7,0.3-1.4,0.5-2.1c0.1-0.2,0.1-0.5,0.2-0.7c0.2-0.7,0.4-1.4,0.6-2.1c0.1-0.3,0.2-0.7,0.4-1
	c0.2-0.6,0.4-1.2,0.6-1.7c0.4-0.9,0.7-1.8,1.1-2.7c2.8-7.2,7.1-13.8,12.8-19.1c1.4-1.4,2.8-2.8,4.4-4.1c4.5-3.8,9.6-6.9,15.2-9.1
	c7.3-3,15.2-4.5,23.1-4.5c0.1,0,0.1,0,0.2,0c0,0,0,0,0,0c0,0,0,0,0,0c15.8,0.2,30.8,6.6,42,17.7c5.5,5.2,9.2,11.2,12.3,18.1
	c3.3,7.2,5,15.1,4.9,23C688.8,394.4,688,402.7,684.5,410z"/>
<rect x="38.9" class="st2" width="23" height="280.3"/>
</svg>
