<?xml version="1.0" encoding="utf-8"?>
<!-- Generator: Adobe Illustrator 25.3.1, SVG Export Plug-In . SVG Version: 6.00 Build 0)  -->
<svg version="1.1" id="Layer_1" xmlns="http://www.w3.org/2000/svg" xmlns:xlink="http://www.w3.org/1999/xlink" x="0px" y="0px"
	 viewBox="0 0 721.5 821.2" style="enable-background:new 0 0 721.5 821.2;" xml:space="preserve">
<style type="text/css">
	.st0{fill:#535557;}
</style>
<path class="st0" d="M360.8,821.2c-6.5,0.1-13-1.5-18.7-4.7L18.7,629.6c-5.6-3.3-10.3-8-13.6-13.6C1.7,610.4,0,603.9,0,597.3V223.9
	c0-6.6,1.7-13,5.1-18.7c3.3-5.6,8-10.3,13.6-13.6L342.2,4.9c11.6-6.5,25.7-6.5,37.3,0l323.4,186.7c11.6,6.7,18.7,19,18.7,32.3v373.4
	c0,6.6-1.7,13-5,18.7c-3.3,5.7-8,10.4-13.7,13.6L379.5,816.5C373.8,819.6,367.4,821.2,360.8,821.2z M360.8,2.7
	c-6.1,0-12,1.6-17.3,4.6L20.1,194c-5.2,3.1-9.6,7.4-12.6,12.6c-3.1,5.2-4.7,11.2-4.7,17.3v373.4c0,6.1,1.6,12,4.7,17.3
	c3.1,5.2,7.4,9.6,12.6,12.6l323.5,186.8c5.3,2.9,11.2,4.4,17.3,4.3c6,0.1,12-1.4,17.2-4.3l323.4-186.9c5.3-3,9.6-7.4,12.6-12.6
	c3-5.2,4.6-11.2,4.7-17.2V223.9c0-12.3-6.6-23.7-17.3-29.9L378.1,7.3C372.8,4.3,366.9,2.7,360.8,2.7z"/>
<path class="st0" d="M294.8,504.6c-2.2-14-5-46-5-46c-2.8-35.4-28.6-40.9-28.6-40.9c25.1-12.7,30.5-32.9,30.5-32.9
	c7.6-30.9-6.9-52.9-6.9-52.9c-20-29.6-45.4-28.1-45.4-28.1H113V518h47.7v-83.5h49.9c22.4-1.3,29.2,15.1,29.2,15.1
	c5.9,10.5,6.2,28.6,6.2,28.6c1.7,30.3,6.2,39.8,6.2,39.8h48.8C297,513,294.8,504.6,294.8,504.6 M241.3,388.5c0,0-5.6,10.6-23.9,11.2
	h-56.6v-58.9h58.9c0,0,20.2,0,25.8,20.2C245.4,361,249.9,376.5,241.3,388.5 M295.4,400.2h67.9v34.2h-67.9L295.4,400.2z M375,518
	V303.2h67.3l50.5,146.9l48.3-146.9h67V518h-45.6V366.6L510,518h-37.1l-53.2-149.7V518H375z M612.6,273.4h-8.2v-38.9h16.5
	c6.7,0.1,13.5,2.2,13.5,10.1c0,5.1-3.4,8.4-7.9,9.4v0.1c6.4,0.7,6.4,4.6,7.1,10c0.4,2.5,0.4,7.1,2.2,9.2h-9.4
	c-0.7-3.5-1.2-6.9-1.5-10.4c0-2.1-0.8-5.1-3.4-5.2h-9L612.6,273.4z M612.6,251.2h7.1c3.8,0,5.6-1.9,5.6-5.3s-1.9-4.9-5.6-5h-7.1
	L612.6,251.2z M653.8,254.4c0,18.9-15.4,34.3-34.3,34.2c-18.9,0-34.3-15.4-34.2-34.3c0-18.8,15.2-34.1,34.1-34.2
	C638.3,220,653.8,235.3,653.8,254.4C653.8,254.3,653.8,254.3,653.8,254.4 M619.4,226.8c-15.2,0-27.6,12.3-27.6,27.6
	s12.3,27.6,27.6,27.6s27.6-12.3,27.6-27.6S634.6,226.8,619.4,226.8 M684.2,597.3L360.7,784.2L37.3,597.3V223.9L360.7,37.2
	l323.5,186.7V597.3z M53.5,233.4V588l307.2,177.5l307-177.5V233.3l-307-177.4L53.5,233.4z"/>
</svg>
