<svg id="Layer_1" data-name="Layer 1" xmlns="http://www.w3.org/2000/svg" viewBox="0 0 779.8 122.81"><defs><style>.cls-1,.cls-2{fill:#535558;}.cls-1{fill-rule:evenodd;}</style></defs><path class="cls-1" d="M152.6,141l1.91-5.73h11.92l1.95,5.73h9.19L166,111.64h-9.92L144.47,141Zm4-11.42,4-12.2h.12l3.75,12.2Z" transform="translate(-9.7 -32.66)"/><path class="cls-2" d="M195.57,141h7.85a47.53,47.53,0,0,1-.25-5.24V120.58h-7.72v11.71c0,.25.48,4.43-3.34,4.43-2.4,0-2.89-2.15-3-4.14v-12h-7.72v13.66c0,4.52,3.25,7.36,7.64,7.36a7.82,7.82,0,0,0,6.39-2.84l.12,2.23Z" transform="translate(-9.7 -32.66)"/><path class="cls-2" d="M207.2,120.58v4.88h4v9.15c-.41,6.26,2.77,7,8,7a22,22,0,0,0,4.15-.4v-4.6a23.61,23.61,0,0,1-3,.12c-1.79,0-1.46-2.64-1.46-3.17v-8.09h4.47v-4.88h-4.47v-6l-7.73,2.93v3.09Z" transform="translate(-9.7 -32.66)"/><path class="cls-1" d="M235.17,130.79c0-2.89.69-6.35,3.94-6.35s3.94,3.46,3.94,6.35-.69,6.34-3.94,6.34-3.94-3.46-3.94-6.34ZM239.11,120c-6.38,0-11.87,3.3-11.87,10.82s5.49,10.81,11.87,10.81S251,138.31,251,130.79,245.49,120,239.11,120Z" transform="translate(-9.7 -32.66)"/><path class="cls-2" d="M263.3,120.58h-7.64a50.23,50.23,0,0,1,.24,5.25V141h7.73V129.28c0-.24-.49-4.43,3.33-4.43,2.4,0,2.89,2.16,3,4.15v12h7.73V129.28c0-.24-.49-4.43,3.33-4.43,2.4,0,2.89,2.16,3,4.15v12h7.72V127.33c0-4.51-3.25-7.36-7.64-7.36a8.39,8.39,0,0,0-7.24,3.91c-.85-2.49-3.66-3.79-6.14-3.79-3.05,0-5.73,1.06-7.15,3.87h-.09l-.12-3.38Z" transform="translate(-9.7 -32.66)"/><path class="cls-1" d="M304.58,130.79c0-2.89.7-6.35,3.95-6.35s3.94,3.46,3.94,6.35-.69,6.34-3.94,6.34-3.95-3.46-3.95-6.34ZM308.53,120c-6.39,0-11.87,3.3-11.87,10.82s5.48,10.81,11.87,10.81,11.87-3.29,11.87-10.81S314.91,120,308.53,120Z" transform="translate(-9.7 -32.66)"/><path class="cls-2" d="M323.41,120.58v4.88h4v9.15c-.4,6.26,2.77,7,8,7a22,22,0,0,0,4.15-.4v-4.6a23.53,23.53,0,0,1-3,.12c-1.78,0-1.46-2.64-1.46-3.17v-8.09h4.47v-4.88h-4.47v-6l-7.73,2.93v3.09Z" transform="translate(-9.7 -32.66)"/><path class="cls-1" d="M352.4,141V120.58h-7.73V141Zm0-23.91v-5.44h-7.81v5.44Z" transform="translate(-9.7 -32.66)"/><polygon class="cls-2" points="363.01 108.34 370.74 87.93 363.54 87.93 359.23 102.24 359.15 102.24 355.12 87.93 346.91 87.93 354.67 108.34 363.01 108.34 363.01 108.34"/><path class="cls-1" d="M405,132.33c0-7.6-2.64-12.36-10.94-12.36-6.14,0-11,3.66-11,10.13,0,8,3.26,11.5,11.43,11.5A12,12,0,0,0,401,140a7.42,7.42,0,0,0,3.86-5.69H397.7c-.28,1.91-1.62,2.92-3.78,2.92-2.89,0-3.58-2.27-3.54-4.92Zm-14.47-4.14c.2-2.32.85-4.23,3.53-4.36a2.93,2.93,0,0,1,2.69,1.31,5.29,5.29,0,0,1,.93,3Z" transform="translate(-9.7 -32.66)"/><path class="cls-1" d="M92,141.09a48.19,48.19,0,0,1-62.2-.1L60.93,95.63,92,141.09ZM72.1,103.42a12.72,12.72,0,1,1,12.72,12.72A12.71,12.71,0,0,1,72.1,103.42ZM48.22,73.83A12.72,12.72,0,1,1,60.93,86.55,12.71,12.71,0,0,1,48.22,73.83ZM24.34,103.42a12.72,12.72,0,1,1,12.71,12.72,12.71,12.71,0,0,1-12.71-12.72ZM9.7,106.14V38.35H112.17v67.78a51.27,51.27,0,0,1-102.47,0Zm99.18,0a46.43,46.43,0,0,1-.36,5.18L60.94,41.64,13.36,111.36a50.06,50.06,0,0,1-.54-5.23V41.63h96.06v64.54Z" transform="translate(-9.7 -32.66)"/><path class="cls-1" d="M174.14,49.42V63.14h9.91a6.86,6.86,0,0,0,0-13.72ZM204.55,39.2a17.32,17.32,0,0,1,6.21,33.47l15,19.21H190.4L174.26,71.54V91.88h-29.7V39.18h59.23l.76,0Z" transform="translate(-9.7 -32.66)"/><path class="cls-2" d="M243.09,40.51a3.93,3.93,0,0,1,0-7.85H266a3.93,3.93,0,1,1,0,7.85Z" transform="translate(-9.7 -32.66)"/><path class="cls-2" d="M280.16,40.51a3.93,3.93,0,1,1,0-7.85h22.92a3.93,3.93,0,0,1,0,7.85Z" transform="translate(-9.7 -32.66)"/><path class="cls-1" d="M282.07,74.55a8.91,8.91,0,0,1-8.91,8.91,8.73,8.73,0,0,1-8.91-8.73V59.59a8.91,8.91,0,1,1,17.82,0v15ZM255.39,42.49c-10.53,0-19.07,5.67-21.15,13.16a36.23,36.23,0,0,0-1.6,11.25v.58a36.14,36.14,0,0,0,1.57,11.23c2.08,7.5,10.61,13.12,21.15,13.17H291c10.54,0,19.07-5.67,21.15-13.17a36.1,36.1,0,0,0,1.57-11.23V66.9a35.93,35.93,0,0,0-1.6-11.25c-2.07-7.49-10.61-13.11-21.15-13.16Z" transform="translate(-9.7 -32.66)"/><polygon class="cls-2" points="407.13 6.44 407.13 59.26 436.94 59.26 436.94 38.17 452.29 38.17 452.29 59.26 482.21 59.26 482.21 6.44 452.29 6.44 452.29 25.81 436.94 25.81 436.94 6.44 407.13 6.44 407.13 6.44"/><polygon class="cls-2" points="499.46 6.44 499.46 59.26 555.79 59.26 555.79 45.63 529.28 45.63 529.28 6.44 499.46 6.44 499.46 6.44"/><polygon class="cls-2" points="566.01 6.44 595.83 6.44 595.83 59.26 566.01 59.26 566.01 6.44 566.01 6.44"/><polygon class="cls-2" points="611.16 6.44 611.16 59.26 640.98 59.26 640.98 35.73 658.76 59.26 688.57 59.26 688.57 6.44 658.76 6.44 658.76 27.11 641.72 6.44 611.16 6.44 611.16 6.44"/><path class="cls-2" d="M363.88,38.23a144.75,144.75,0,0,1,19.26,1.22c9.19.78,16.81,6.48,18.46,14.06a20.57,20.57,0,0,1,.77,4.34l-30.42,0c-.38-5.37-1.76-11.48-8-11.48-8.39,0-8.39,9.83-8.39,15.61v7.38c-.07,5.74,0,15.36,8.39,15.36,7.14,0,7.93-8,8-13.79h30.7a42.64,42.64,0,0,1-1,6.81c-1.65,7.58-9.27,13.28-18.46,14.06a145.67,145.67,0,0,1-19.33,1.23,144.75,144.75,0,0,1-19.26-1.22c-9.19-.78-16.81-6.48-18.46-14.06a54.81,54.81,0,0,1-1.25-12.13,54.81,54.81,0,0,1,1.25-12.13c1.65-7.58,9.27-13.28,18.46-14.06a145.67,145.67,0,0,1,19.33-1.23Z" transform="translate(-9.7 -32.66)"/><path class="cls-2" d="M760.51,71h-9V61.29h37.9l0,16.58c-1.55,8.28-10.83,12-18.63,13.88A153.42,153.42,0,0,1,751.07,93a150.55,150.55,0,0,1-19.65-1.22c-10.18-.94-17.75-6.07-19.57-14a54.59,54.59,0,0,1-1-12.16,53.63,53.63,0,0,1,1.28-12.13c1.68-7.58,9.88-13.28,19.25-14.06a151.6,151.6,0,0,1,19.72-1.23,154.87,154.87,0,0,1,19.87,1c9.38.78,19.35,4.86,18.43,15.19H760.29c-.52-5.25-2.94-8.07-8.72-8.07-7.72,0-9.83,9.83-9.83,15.61V69.3c-.07,5.74.91,15.52,9.47,15.59s9.24-8.13,9.3-13.93Z" transform="translate(-9.7 -32.66)"/></svg>