<svg id="Layer_1" data-name="Layer 1" xmlns="http://www.w3.org/2000/svg" viewBox="0 0 751.52 327.36"><defs><style>.cls-1{fill:#535557;}</style></defs><path class="cls-1" d="M171.66,291.19a1.41,1.41,0,0,0-1.47-.94H166a1.42,1.42,0,0,0-1.41,1L151.82,325.2a1.29,1.29,0,0,0-.1.58c0,.42.21.68.73.68h4.66a1.33,1.33,0,0,0,1.41-1.1l2.72-7.85h13.24l2.72,7.69a1.61,1.61,0,0,0,1.78,1.26h4.66c.68,0,.94-.32.94-.84a1.73,1.73,0,0,0-.1-.68ZM163,312.43l3.72-11c.52-1.46.83-2.56,1.1-3.45h.1c.26.84.58,1.94,1.05,3.4l3.71,11Z" transform="translate(-24.24 -10.56)"/><path class="cls-1" d="M206.19,321.49c-.21-.74-.57-.68-1.15-.47a13.23,13.23,0,0,1-5.49,1.15c-4.5,0-6.81-3.46-6.81-8.48s2.57-8.32,7.07-8.32a13.06,13.06,0,0,1,5,1.15,1.47,1.47,0,0,0,.58.21c.31,0,.52-.26.63-.73l.68-2.77c.15-.69.15-1.05-.53-1.37a17.21,17.21,0,0,0-7-1.46c-8.11,0-13,5.49-13,13.6s4.45,13.09,12.51,13.09a17.21,17.21,0,0,0,7.59-1.57c.47-.21.73-.42.73-.84a3.35,3.35,0,0,0-.16-.89Z" transform="translate(-24.24 -10.56)"/><path class="cls-1" d="M225.55,300.4a13.56,13.56,0,0,0-8.26,2.83V290.09c0-.73-.32-1-.89-1-.21,0-.47,0-4.29.52-.74.1-1.15.37-1.15,1.31v34.59c0,.68.2.94.83.94h4.5c.79,0,1-.26,1-1v-17a10.61,10.61,0,0,1,6.28-2.51c3.14,0,3.92,2.09,3.92,4.91v14.55c0,.84.16,1,.89,1H233c.69,0,.84-.26.84-1V309.77C233.82,304.11,231.42,300.4,225.55,300.4Z" transform="translate(-24.24 -10.56)"/><path class="cls-1" d="M243.61,291.14a3.3,3.3,0,1,0,3.5,3.29A3.32,3.32,0,0,0,243.61,291.14Z" transform="translate(-24.24 -10.56)"/><path class="cls-1" d="M245.49,301.08h-3.66c-.84,0-1.36.31-1.36,1.2v22.87c0,.94.42,1.31,1.36,1.31h3.66c.89,0,1.31-.37,1.31-1.31V302.28C246.8,301.34,246.33,301.08,245.49,301.08Z" transform="translate(-24.24 -10.56)"/><path class="cls-1" d="M264.8,300.4c-7.8,0-13,5.44-13,13.29,0,8.16,4.87,13.4,13.09,13.4a23.28,23.28,0,0,0,8.79-1.68c.62-.26.83-.52.83-.89a4.15,4.15,0,0,0-.1-.63l-.73-2.67c-.21-.78-.74-.67-1.31-.47A18,18,0,0,1,266,322a7.25,7.25,0,0,1-7.48-6.8H273.8c1.31,0,1.73-.26,1.73-1.52v-.78c0-3.56-.68-6.86-3.09-9.37A10.25,10.25,0,0,0,264.8,300.4Zm4.5,10.67H258.57c.42-3.08,2.46-5.81,5.86-5.81,3.2,0,4.77,2.52,4.87,5.24Z" transform="translate(-24.24 -10.56)"/><path class="cls-1" d="M299.86,301.08h-3.77c-.94,0-1.36.21-1.62,1.1l-4.08,12.3c-.47,1.46-1,3.29-1.26,4.29h-.05c-.31-1.16-.78-2.88-1.31-4.45l-4-12.19a1.37,1.37,0,0,0-1.52-1.05h-4.61c-.68,0-.94.21-.94.63a1.68,1.68,0,0,0,.11.47l9,23.34c.26.73.78.94,1.57.94h2.72a1.38,1.38,0,0,0,1.52-1l9.15-23.13a1.87,1.87,0,0,0,.11-.52C300.91,301.34,300.54,301.08,299.86,301.08Z" transform="translate(-24.24 -10.56)"/><path class="cls-1" d="M314.57,300.4c-7.8,0-13,5.44-13,13.29,0,8.16,4.87,13.4,13.08,13.4a23.24,23.24,0,0,0,8.79-1.68c.63-.26.84-.52.84-.89a4.15,4.15,0,0,0-.1-.63l-.74-2.67c-.21-.78-.73-.67-1.3-.47a18,18,0,0,1-6.44,1.26,7.25,7.25,0,0,1-7.49-6.8h15.34c1.31,0,1.72-.26,1.72-1.52v-.78c0-3.56-.68-6.86-3.08-9.37A10.25,10.25,0,0,0,314.57,300.4Zm4.5,10.67H308.34c.42-3.08,2.46-5.81,5.86-5.81,3.19,0,4.76,2.52,4.87,5.24Z" transform="translate(-24.24 -10.56)"/><path class="cls-1" d="M371.29,300.4a13.19,13.19,0,0,0-9,3.4,7.38,7.38,0,0,0-6.64-3.4,11.92,11.92,0,0,0-7.69,3l-.06-1.31c-.05-.73-.52-1-1.3-1h-3.41c-.78,0-1.25.36-1.25,1.2v22.87c0,.94.42,1.31,1.36,1.31H347c.89,0,1.31-.37,1.31-1.31V308.46a9.35,9.35,0,0,1,5.81-2.62c3.19,0,3.77,2.2,3.77,5v14.34c0,.94.41,1.31,1.36,1.31h3.45c.89,0,1.26-.37,1.26-1.31v-8.74c0-.73-.11-7.74-.21-8.22a10.28,10.28,0,0,1,5.91-2.35c3.19,0,3.92,2.15,3.92,5v14.34c0,.94.42,1.31,1.36,1.31h3.67c.89,0,1.25-.37,1.25-1.31V311.91c0-3.35-.26-5.65-1.25-7.59S375.11,300.4,371.29,300.4Z" transform="translate(-24.24 -10.56)"/><path class="cls-1" d="M397.35,300.4c-8.16,0-12.77,5.75-12.77,13.29s3.93,13.4,12.46,13.4c8.16,0,12.77-5.81,12.77-13.35C409.81,306.05,405.88,300.4,397.35,300.4Zm-.26,21.71c-4.66,0-6-4.23-6-8.52s1.51-8.22,6.17-8.22,6,4.08,6,8.37S401.7,322.11,397.09,322.11Z" transform="translate(-24.24 -10.56)"/><path class="cls-1" d="M428.33,300.61a4.86,4.86,0,0,0-1.46-.21c-2.94,0-4.71,1.31-6.34,3.35l0-1.68c0-.73-.47-1-1.31-1h-3.35c-.78,0-1.3.26-1.3,1.31v22.76c0,.89.41,1.31,1.25,1.31h3.82c.89,0,1.26-.47,1.26-1.31V308.51a6.8,6.8,0,0,1,5-2.51,6.35,6.35,0,0,1,1.41.15c.53.11.84,0,1-.67.47-3,.62-4,.62-4.19A.59.59,0,0,0,428.33,300.61Z" transform="translate(-24.24 -10.56)"/><path class="cls-1" d="M442.88,300.4c-7.8,0-13,5.44-13,13.29,0,8.16,4.87,13.4,13.08,13.4a23.24,23.24,0,0,0,8.79-1.68c.63-.26.84-.52.84-.89a4.15,4.15,0,0,0-.1-.63l-.74-2.67c-.2-.78-.73-.67-1.31-.47A17.86,17.86,0,0,1,444,322a7.24,7.24,0,0,1-7.48-6.8h15.33c1.31,0,1.73-.26,1.73-1.52v-.78c0-3.56-.69-6.86-3.09-9.37A10.25,10.25,0,0,0,442.88,300.4Zm4.5,10.67H436.65c.42-3.08,2.46-5.81,5.86-5.81,3.19,0,4.76,2.52,4.87,5.24Z" transform="translate(-24.24 -10.56)"/><path class="cls-1" d="M485.53,322c-.11-.47-.32-.63-.63-.63a2.34,2.34,0,0,0-.58.11,10.41,10.41,0,0,1-3.34.62,2.71,2.71,0,0,1-2.46-1.1,6.21,6.21,0,0,1-.69-3.56v-12h5.87a.94.94,0,0,0,1-1V302c0-.68-.36-.89-1-.89h-5.92V294.8c0-.79-.31-1.15-1-1.15l-4,.47c-.84.11-1.31.37-1.31,1.25v5.71h-2.66c-.63,0-.95.42-.95,1.05v2c0,1.1.16,1.31,1.15,1.31h2.46v11.67c0,3.82.06,6,1.68,7.8,1.31,1.52,3.61,2.2,6.28,2.2a15.8,15.8,0,0,0,5.86-1.21,1.07,1.07,0,0,0,.73-1.31Z" transform="translate(-24.24 -10.56)"/><path class="cls-1" d="M501.07,300.4c-8.16,0-12.77,5.75-12.77,13.29s3.93,13.4,12.45,13.4c8.17,0,12.77-5.81,12.77-13.35C513.52,306.05,509.6,300.4,501.07,300.4Zm-.26,21.71c-4.66,0-6-4.23-6-8.52s1.52-8.22,6.18-8.22,6,4.08,6,8.37S505.41,322.11,500.81,322.11Z" transform="translate(-24.24 -10.56)"/><path class="cls-1" d="M539.58,301.08h-3.45c-.79,0-1.15.26-1.21.94l-.1,1.36a6.52,6.52,0,0,0-2.67-2.09,9.47,9.47,0,0,0-3.77-.84c-7.58,0-11.66,6.59-11.66,13.61,0,3.82,1.09,7.22,3.29,9.47a10.22,10.22,0,0,0,7.69,3,10.9,10.9,0,0,0,6.81-2.67v2.1c0,4.18-1.1,6.95-6.33,6.95a16.09,16.09,0,0,1-5.87-1.36,2.27,2.27,0,0,0-.78-.21c-.37,0-.58.37-.79.95l-.73,2.3a2.71,2.71,0,0,0-.16.68c0,.47.27.78.84,1a19.4,19.4,0,0,0,7.75,1.63c8.79,0,12.4-4.71,12.4-13.19v-22.4C540.84,301.44,540.52,301.08,539.58,301.08Zm-5.07,17.79a7.63,7.63,0,0,1-5.39,2.51A5.22,5.22,0,0,1,525.4,320c-1.57-1.52-2.09-4-2.09-6.28s.63-5.08,2.25-6.65a5.53,5.53,0,0,1,3.87-1.51,6.72,6.72,0,0,1,5.08,2.56Z" transform="translate(-24.24 -10.56)"/><path class="cls-1" d="M558.53,300.4c-7.8,0-13,5.44-13,13.29,0,8.16,4.87,13.4,13.08,13.4a23.24,23.24,0,0,0,8.79-1.68c.63-.26.84-.52.84-.89a3.33,3.33,0,0,0-.11-.63l-.73-2.67c-.21-.78-.73-.67-1.31-.47a18,18,0,0,1-6.43,1.26,7.25,7.25,0,0,1-7.49-6.8h15.34c1.3,0,1.72-.26,1.72-1.52v-.78c0-3.56-.68-6.86-3.09-9.37A10.23,10.23,0,0,0,558.53,300.4Zm4.5,10.67H552.3c.42-3.08,2.46-5.81,5.86-5.81,3.19,0,4.76,2.52,4.87,5.24Z" transform="translate(-24.24 -10.56)"/><path class="cls-1" d="M588.88,322c-.11-.47-.32-.63-.63-.63a2.34,2.34,0,0,0-.58.11,10.42,10.42,0,0,1-3.35.62,2.73,2.73,0,0,1-2.46-1.1,6.31,6.31,0,0,1-.67-3.56v-12h5.86a.94.94,0,0,0,1-1V302c0-.68-.36-.89-1-.89h-5.91V294.8c0-.79-.32-1.15-1-1.15l-4,.47c-.84.11-1.31.37-1.31,1.25v5.71h-2.67c-.62,0-.94.42-.94,1.05v2c0,1.1.16,1.31,1.15,1.31h2.46v11.67c0,3.82.06,6,1.68,7.8,1.31,1.52,3.61,2.2,6.28,2.2a15.8,15.8,0,0,0,5.86-1.21,1.06,1.06,0,0,0,.73-1.31Z" transform="translate(-24.24 -10.56)"/><path class="cls-1" d="M607.77,300.4a13.59,13.59,0,0,0-8.27,2.83V290.09c0-.73-.31-1-.89-1-.21,0-.47,0-4.29.52a1.12,1.12,0,0,0-1.15,1.31v34.59c0,.68.21.94.84.94h4.5c.78,0,1-.26,1-1v-17a10.61,10.61,0,0,1,6.28-2.51c3.14,0,3.93,2.09,3.93,4.91v14.55c0,.84.15,1,.88,1h4.61c.68,0,.84-.26.84-1V309.77C616,304.11,613.63,300.4,607.77,300.4Z" transform="translate(-24.24 -10.56)"/><path class="cls-1" d="M633.72,300.4c-7.79,0-13,5.44-13,13.29,0,8.16,4.86,13.4,13.08,13.4a23.28,23.28,0,0,0,8.79-1.68c.63-.26.84-.52.84-.89a4.42,4.42,0,0,0-.11-.63l-.73-2.67c-.21-.78-.73-.67-1.31-.47a18,18,0,0,1-6.44,1.26,7.25,7.25,0,0,1-7.48-6.8h15.33c1.31,0,1.73-.26,1.73-1.52v-.78c0-3.56-.68-6.86-3.09-9.37A10.25,10.25,0,0,0,633.72,300.4Zm4.5,10.67H627.5c.42-3.08,2.45-5.81,5.86-5.81,3.19,0,4.76,2.52,4.86,5.24Z" transform="translate(-24.24 -10.56)"/><path class="cls-1" d="M662.66,300.61a4.86,4.86,0,0,0-1.46-.21c-2.93,0-4.71,1.31-6.33,3.35l-.06-1.68c0-.73-.47-1-1.3-1h-3.35c-.79,0-1.31.26-1.31,1.31v22.76c0,.89.42,1.31,1.25,1.31h3.82c.89,0,1.26-.47,1.26-1.31V308.51a6.8,6.8,0,0,1,5-2.51,6.35,6.35,0,0,1,1.41.15c.53.11.84,0,.95-.67.47-3,.62-4,.62-4.19A.59.59,0,0,0,662.66,300.61Z" transform="translate(-24.24 -10.56)"/><polygon class="cls-1" points="216.15 249.41 251.7 163.95 228.18 163.95 208.43 218.34 208.07 218.34 187.96 163.95 163.01 163.95 198.73 249.41 216.15 249.41"/><path class="cls-1" d="M408.51,196.6l8.78-20.12a23.16,23.16,0,0,0-12.92-3.95c-9,0-15.62,3.95-23.34,10.78l-2.69-8.8H357.87v84.92h24.24V200.2c5.92-4.87,10.59-6.67,15.62-6.67A22.07,22.07,0,0,1,408.51,196.6Z" transform="translate(-24.24 -10.56)"/><path class="cls-1" d="M441.84,243.09a42.09,42.09,0,0,1-23.69-7.9l-7.54,17.59c8.07,5,19,8.45,33.56,8.45,18.14,0,35.37-7.36,35.37-26.94,0-29.62-40-25.32-40-37,0-4.13,3.77-6.09,10.78-6.09,9.15,0,17.41,2.69,25.14,5.76V176.84c-7-2.7-14.91-4.31-26.23-4.31-20.63,0-33.2,10.42-33.2,26,0,28.71,39.32,23.33,39.32,36.8C455.31,240.41,450.1,243.09,441.84,243.09Z" transform="translate(-24.24 -10.56)"/><path class="cls-1" d="M495.58,240.76c0,11.49,5.92,20.47,21.71,20.47,8.44,0,21-2.52,30.71-9.52l-6.27-15.09c-3.25,2-8.63,4.31-13.84,4.31-5.56,0-8.08-3.05-8.08-9.32V195.78h21.78l4.79-19H519.81V147.58l-24.23,7.18v22H480v19h15.62Z" transform="translate(-24.24 -10.56)"/><path class="cls-1" d="M584.48,205.56c-21.54.72-36.08,10.06-36.08,28,0,16.86,12.21,27.65,28.35,27.65a34.37,34.37,0,0,0,24.06-9.17l3.78,7.37,19,.1V204.12c0-22.42-12.57-31.59-35.19-31.59-11.49,0-22.63,1.79-34.31,9.33l7.37,14.74a44.26,44.26,0,0,1,21.75-5.76c8.42,0,15.6,3.77,15.6,12.74V205Zm14.18,32.87c-2.33,1.78-6.64,3.94-13.1,3.94-8.27,0-12.94-4.14-12.94-10.57s5-10.08,15.45-10.43l10.59-.35Z" transform="translate(-24.24 -10.56)"/><polygon class="cls-1" points="634.48 184.19 634.48 112.53 610.07 119.91 610.07 184.19 610.07 248.97 634.48 248.97 634.48 184.19"/><path class="cls-1" d="M56.15,170.33c0-6.83,5.82-10.72,14.62-10.72,9.69,0,19.24,4.71,29.29,10.08l.36-22.65c-6.83-3.94-17.24-7.18-29.8-7.18-26,0-40.22,15.8-40.22,33.75,0,9.16,3.05,15.81,7.53,21,14.37,16.34,42.4,19.14,42.4,34.75,0,9-10.15,11.57-17.92,11.57-7.55,0-19.19-6.27-27.37-11.81l-10.8,20.23c10.29,6.3,22.5,11.88,39.55,11.88,24.24,0,43.27-13.47,43.27-35C107.06,189,56.15,190.8,56.15,170.33Z" transform="translate(-24.24 -10.56)"/><path class="cls-1" d="M314.12,261a63.13,63.13,0,0,0,33.48-9.85l-5.54-15.39c-9.53,4.49-15.78,6.1-24,6.1-11.26,0-22-6.8-22.53-18.24h54.72v-7.33c0-26.28-16.09-43.64-39.34-43.64-25.4,0-39.7,20.74-39.7,44.7C271.2,239.53,283.72,261,314.12,261Zm-3.94-70.64c10.38,0,14.85,8.56,15.38,16.63H295C295,199.29,300.53,190.36,310.18,190.36Z" transform="translate(-24.24 -10.56)"/><path class="cls-1" d="M189.3,251.15l-5.55-15.39c-9.52,4.49-15.78,6.1-24,6.1-11.27,0-22-6.8-22.54-18.24h54.72v-7.33c0-26.28-16.09-43.64-39.34-43.64-25.39,0-39.7,20.74-39.7,44.7,0,22.18,12.52,43.65,42.92,43.65A63.16,63.16,0,0,0,189.3,251.15Zm-37.42-60.79c10.36,0,14.84,8.56,15.37,16.63H136.68C136.68,199.29,142.22,190.36,151.88,190.36Z" transform="translate(-24.24 -10.56)"/><path class="cls-1" d="M742.88,41.87c0-.56,0-1.11,0-1.67s0-.93,0-1.4c0-.71,0-1.41,0-2.12,0-.44,0-.88,0-1.32,0-.77-.1-1.52-.15-2.28,0-.36,0-.73-.08-1.09q-.15-1.66-.36-3.3c-.91-7-3-11.93-6.11-14.8-.27-.25-.56-.49-.86-.72-.1-.07-.22-.14-.32-.22s-.42-.31-.65-.45l-.44-.26-.64-.38-.51-.25-.58-.28a166.47,166.47,0,0,0-25.43,5.09,163.81,163.81,0,0,0-24.64,8.84,105.79,105.79,0,0,0-18,10.33c-6.23,4.51-10,9-11.06,13.22s0,9.95,3.27,16.91a109.21,109.21,0,0,0,9.11,15.42c0-.29,0-.57.08-.85s0-.3,0-.44c0-.39.11-.76.19-1.13a.43.43,0,0,0,0-.12A19.49,19.49,0,0,1,670.48,70a41.3,41.3,0,0,1,5.61-5.13,87.41,87.41,0,0,1,12-7.68l.7-.37h0a144.49,144.49,0,0,1,54.07-15Z" transform="translate(-24.24 -10.56)"/><path class="cls-1" d="M740.18,71.34a132.3,132.3,0,0,1-9.68,26.48l1.44.85,1.26.74c.62.35,1.25.68,1.87,1l1.16.62c.7.36,1.39.69,2.08,1l.93.46c1,.46,2,.9,3,1.3,6.51,2.68,11.86,3.39,15.9,2.11a9.39,9.39,0,0,0,1-.38l.34-.16.72-.34.42-.24.67-.39.47-.31.55-.37a164.15,164.15,0,0,0,8.29-24.5,164.06,164.06,0,0,0,4.63-25.86,114.87,114.87,0,0,0,.1-20.71c-.47-5.18-1.89-12.19-5.92-16.16-3.14-3.08-8.61-5-16.28-5.64a104.08,104.08,0,0,0-18,.14h0c.24.15.45.31.68.47s.29.19.43.3c.35.26.68.54,1,.82,3.45,3.15,5.69,8.48,6.66,15.85a87.52,87.52,0,0,1,.64,14.24l0,.79h0a132.18,132.18,0,0,1-4.34,27.74Z" transform="translate(-24.24 -10.56)"/><path class="cls-1" d="M735.87,11.5c-.23-.16-.44-.32-.68-.47C735.43,11.18,735.64,11.34,735.87,11.5Z" transform="translate(-24.24 -10.56)"/><path class="cls-1" d="M744.59,42.71c0,.26,0,.53,0,.79h0Z" transform="translate(-24.24 -10.56)"/><path class="cls-1" d="M737.29,12.62c-.31-.28-.64-.56-1-.82C736.65,12.06,737,12.34,737.29,12.62Z" transform="translate(-24.24 -10.56)"/><path class="cls-1" d="M688.23,59.14c-.47.25-.93.51-1.39.77s-.9.5-1.34.76-1.16.7-1.73,1.06l-1.21.74c-.62.4-1.21.81-1.81,1.21l-1,.66c-.9.64-1.78,1.28-2.63,1.93-5.56,4.29-8.85,8.57-9.76,12.71-.08.35-.14.72-.19,1.1l0,.35c0,.27-.06.53-.07.81s0,.3,0,.44,0,.52,0,.78l0,.48c0,.23,0,.45,0,.69a161.66,161.66,0,0,0,17.12,19.56,165.37,165.37,0,0,0,19.92,16.88A107.46,107.46,0,0,0,722,130.45c7.1,3.21,12.87,4.23,17.15,3s8.66-5,13.12-11.43a104.23,104.23,0,0,0,8.77-15.51h0c-.25.14-.51.25-.76.36s-.3.16-.45.22a11.61,11.61,0,0,1-1.2.44,12.37,12.37,0,0,1-1.54.38l-.38.07a14.41,14.41,0,0,1-1.64.2H755c-.39,0-.79,0-1.2,0l-.51,0h-.42c-.61,0-1.23-.08-1.87-.16H751c-.62-.08-1.26-.19-1.9-.32l-.48-.1q-1-.21-2.07-.51h0c-.69-.2-1.4-.43-2.13-.68l-.54-.19c-.74-.26-1.49-.54-2.26-.86a88.65,88.65,0,0,1-12.63-6.54l-.67-.42h0a134.26,134.26,0,0,1-22-17.71A134,134,0,0,1,688.23,59.14Z" transform="translate(-24.24 -10.56)"/><path class="cls-1" d="M677.14,66.27c.85-.65,1.73-1.29,2.63-1.93C678.87,65,678,65.62,677.14,66.27Z" transform="translate(-24.24 -10.56)"/><path class="cls-1" d="M667.08,82.46c0-.26,0-.52,0-.78C667.08,81.94,667.08,82.2,667.08,82.46Z" transform="translate(-24.24 -10.56)"/><path class="cls-1" d="M667.19,80.08c0-.38.11-.75.19-1.1C667.3,79.33,667.24,79.7,667.19,80.08Z" transform="translate(-24.24 -10.56)"/><path class="cls-1" d="M683.77,61.73c.57-.36,1.14-.71,1.73-1.06C684.91,61,684.34,61.37,683.77,61.73Z" transform="translate(-24.24 -10.56)"/><path class="cls-1" d="M680.75,63.68c.6-.4,1.19-.81,1.81-1.21C681.94,62.87,681.35,63.28,680.75,63.68Z" transform="translate(-24.24 -10.56)"/><path class="cls-1" d="M667.09,81.24c0-.28,0-.54.07-.81C667.13,80.7,667.1,81,667.09,81.24Z" transform="translate(-24.24 -10.56)"/><path class="cls-1" d="M667.15,83.62h0c0-.24,0-.46,0-.69C667.12,83.16,667.13,83.39,667.15,83.62Z" transform="translate(-24.24 -10.56)"/><path class="cls-1" d="M688.22,59.13c-.47.25-.92.52-1.38.78.46-.26.92-.52,1.39-.77Z" transform="translate(-24.24 -10.56)"/><path class="cls-1" d="M760.28,106.92c.25-.11.51-.22.76-.36C760.79,106.7,760.53,106.81,760.28,106.92Z" transform="translate(-24.24 -10.56)"/><path class="cls-1" d="M744.35,106.47c.73.25,1.44.48,2.13.68C745.79,107,745.07,106.72,744.35,106.47Z" transform="translate(-24.24 -10.56)"/><path class="cls-1" d="M755,108.24c-.56,0-1.13,0-1.71,0l.51,0C754.23,108.28,754.63,108.26,755,108.24Z" transform="translate(-24.24 -10.56)"/><path class="cls-1" d="M749.06,107.76c.64.13,1.28.24,1.9.32C750.34,108,749.7,107.89,749.06,107.76Z" transform="translate(-24.24 -10.56)"/><path class="cls-1" d="M758.63,107.58a11.61,11.61,0,0,0,1.2-.44A11.61,11.61,0,0,1,758.63,107.58Z" transform="translate(-24.24 -10.56)"/><path class="cls-1" d="M757.09,108a12.37,12.37,0,0,0,1.54-.38A12.37,12.37,0,0,1,757.09,108Z" transform="translate(-24.24 -10.56)"/><path class="cls-1" d="M746.51,107.15q1.05.3,2.07.51Q747.56,107.45,746.51,107.15Z" transform="translate(-24.24 -10.56)"/><path class="cls-1" d="M728.92,98.88l-.67-.43h0Z" transform="translate(-24.24 -10.56)"/><path class="cls-1" d="M755.07,108.23a14.41,14.41,0,0,0,1.64-.2A14.41,14.41,0,0,1,755.07,108.23Z" transform="translate(-24.24 -10.56)"/><path class="cls-1" d="M751,108.09c.64.08,1.26.13,1.87.16C752.28,108.22,751.66,108.17,751,108.09Z" transform="translate(-24.24 -10.56)"/><path class="cls-1" d="M741.55,105.42c.77.32,1.52.6,2.26.86C743.07,106,742.32,105.74,741.55,105.42Z" transform="translate(-24.24 -10.56)"/></svg>