<svg id="Layer_1" data-name="Layer 1" xmlns="http://www.w3.org/2000/svg" viewBox="0 0 764.62 271.65"><defs><style>.cls-1{fill:#535558;}</style></defs><path class="cls-1" d="M175.94,159.12a92.35,92.35,0,0,0-111.6-14.6,23.27,23.27,0,0,1,22.48,6l.06.07.06,0a23.31,23.31,0,0,1,1.87,30.84,48.15,48.15,0,0,1,55.89,77c-1,1-2.08,1.95-3.16,2.85.56-.19,1.15-.38,1.78-.57,7.08-2.12,17.15-1.69,31.56-8.06,3.36-1.48,6.6-2.9,9.55-4.49l0,0a0,0,0,0,1,0,0h0l0,0c-1.59,3-3,6.19-4.48,9.55-6.38,14.42-5.95,24.48-8.06,31.57A26.42,26.42,0,0,1,169,296a90.14,90.14,0,0,0,6.92-6.25,92.34,92.34,0,0,0,0-130.59" transform="translate(-18.31 -132.08)"/><path class="cls-1" d="M132.87,299.89a.46.46,0,0,1-.07-.07l-.05-.05a23.3,23.3,0,0,1-.64-32.27,48.15,48.15,0,0,1-55.52-77.14c.42-.41.87-.77,1.29-1.16l-1.51.48c-7.09,2.12-17.14,1.69-31.56,8.06-3.36,1.47-6.61,2.89-9.55,4.49l0,0v0h0l0,0c1.59-2.94,3-6.18,4.49-9.54,6.37-14.42,5.94-24.48,8-31.57A25.87,25.87,0,0,1,51,154c-1.91,1.63-3.8,3.33-5.61,5.14A92.35,92.35,0,0,0,153.22,306.38a23.28,23.28,0,0,1-20.35-6.49" transform="translate(-18.31 -132.08)"/><polygon class="cls-1" points="179.66 213.61 158.25 213.61 158.25 199.69 221.24 199.69 221.24 213.61 199.33 213.61 199.33 269.99 179.66 269.99 179.66 213.61"/><rect class="cls-1" x="231.94" y="199.69" width="20.06" height="70.3"/><path class="cls-1" d="M323.07,375.88h26.58L336.7,341.41Zm8.86-44.11h10.42l28.43,70.3H360.17l-7.6-18.3H320l-7.59,18.3h-10Z" transform="translate(-18.31 -132.08)"/><path class="cls-1" d="M380.9,353.2v31.44c0,4.78,1.08,10.81,10.42,10.81,4.58,0,8.86-1.56,11.49-5.45,2-2.92,2-6.72,2-9.16V353.2h9.45v39.72c0,1,.19,6.42.29,9.15h-9.54l-.2-8.37c-1.75,3.4-5.06,8.85-15.57,8.85-12.08,0-17.72-6.91-17.72-16.54V353.2Z" transform="translate(-18.31 -132.08)"/><path class="cls-1" d="M420.62,353h8.66V342.78l9.06-2.92V353h10.91v6.72H438.34V389c0,2.43,0,6.53,6.53,6.53a20.52,20.52,0,0,0,4.38-.49v7.11a45.59,45.59,0,0,1-7.6.58c-8.38,0-12.37-2.43-12.37-10.42V359.72h-8.66Z" transform="translate(-18.31 -132.08)"/><path class="cls-1" d="M475.33,396.91c6.92,0,14.81-5,14.81-19.66,0-12.17-5.65-18.61-14.22-18.61-5.85,0-15.28,3.7-15.28,19,0,10,4.27,19.27,14.69,19.27m.59-45c19.57,0,23.95,15.38,23.95,25.61,0,14.31-8.08,26.19-24.72,26.19-16.17,0-24.06-11.2-24.06-25.52,0-12.06,5.65-26.28,24.83-26.28" transform="translate(-18.31 -132.08)"/><path class="cls-1" d="M506.29,359.72l-.2-6.52h9.26v7.1c4.67-7.69,11.29-8.37,15.48-8.37,10.81,0,14.21,5.54,16,9.15,1.65-2.73,5.65-9.15,16.45-9.15,7,0,17.92,2.91,17.92,17.33v32.81h-9.26V370.72c0-4.28-.77-6.13-1.65-7.4-1.56-2.24-4.67-4.28-9.34-4.28a12.49,12.49,0,0,0-10.42,5.16c-2.15,3-2.15,8.37-2.15,10.51v27.36H539.1V369.75c0-6-3.5-10.71-10.71-10.71a13.17,13.17,0,0,0-10.71,5.35c-2,2.82-2.14,6.82-2.14,9.93v27.75h-9.25Z" transform="translate(-18.31 -132.08)"/><path class="cls-1" d="M611.14,396.91c6.92,0,14.81-5,14.81-19.66,0-12.17-5.65-18.61-14.22-18.61-5.85,0-15.28,3.7-15.28,19,0,10,4.28,19.27,14.69,19.27m.59-45c19.57,0,23.95,15.38,23.95,25.61,0,14.31-8.08,26.19-24.72,26.19-16.17,0-24.06-11.2-24.06-25.52,0-12.06,5.65-26.28,24.83-26.28" transform="translate(-18.31 -132.08)"/><path class="cls-1" d="M636.65,353h8.67V342.78l9-2.92V353h10.91v6.72H654.37V389c0,2.43,0,6.53,6.53,6.53a20.52,20.52,0,0,0,4.38-.49v7.11a45.59,45.59,0,0,1-7.6.58c-8.37,0-12.36-2.43-12.36-10.42V359.72h-8.67Z" transform="translate(-18.31 -132.08)"/><path class="cls-1" d="M672.77,353.2h9.16v48.87h-9.16Zm-1-21.23h11v10h-11Z" transform="translate(-18.31 -132.08)"/><polygon class="cls-1" points="670.14 221.12 680.36 221.12 695.93 259.86 711.13 221.12 721.26 221.12 699.83 269.99 690.58 269.99 670.14 221.12"/><path class="cls-1" d="M773.54,372.86c.09-4.67-.78-14.41-12.08-14.41-5.93,0-13.14,3.6-13.34,14.41Zm-25.81,6.42c-.19,10.14,4,17.63,14,17.63,5.94,0,10.72-3.11,11.49-10.13h9.16c-.3,2.44-.69,6.43-4.19,10.23-2.15,2.43-7,6.52-16.84,6.52-15.39,0-22.69-9.54-22.69-25,0-9.64,1.94-17.63,9.64-23,4.67-3.31,10.51-3.6,13.34-3.6,21.9,0,21.42,19.37,21.22,27.35Z" transform="translate(-18.31 -132.08)"/></svg>