<svg id="Layer_1" data-name="Layer 1" xmlns="http://www.w3.org/2000/svg" viewBox="0 0 761.88 157.7"><defs><style>.cls-1{fill:#535557;}</style></defs><path class="cls-1" d="M75.5,81.65l-15.12,44a126.11,126.11,0,0,0-4.68,16.12.86.86,0,0,1-1.6,0c-1.4-5.73-3.18-11.14-4.57-15.21,0,0-13.33-40.18-14.89-44.9H20.05c.62,1.81,26.19,75.22,26.5,76.14H62.68c.31-.92,26-74.33,26.61-76.14Z" transform="translate(-19.06 -79.69)"/><path class="cls-1" d="M98,120.7c0,24.73,12.27,38.35,34.56,38.35,21.91,0,37.21-16.62,37.21-40.42,0-24.3-12.6-38.24-34.56-38.24S98,97,98,120.7m14.56-1.61c0-18.41,10.68-26.66,21.27-26.66,13.78,0,21.37,9.71,21.37,27.35,0,18.73-10.85,27.12-21.6,27.12-13.57,0-21-9.88-21-27.81" transform="translate(-19.06 -79.69)"/><path class="cls-1" d="M189.41,81.65v76.14H228.1v-11.7H203.64a.69.69,0,0,1-.69-.7V81.65Z" transform="translate(-19.06 -79.69)"/><path class="cls-1" d="M285.32,81.65l-24.95,34.86a.7.7,0,0,1-.78.26.69.69,0,0,1-.48-.67V81.65H245.57v76.14h13.54V121.27a.7.7,0,0,1,1.28-.39l24.83,36.91H303l-28.81-39a.75.75,0,0,1-.14-.42.71.71,0,0,1,.14-.42s25.93-34.22,27.52-36.33Z" transform="translate(-19.06 -79.69)"/><path class="cls-1" d="M314.38,103c0,13.83,10.18,17.81,19.16,21.33,7,2.72,13.57,5.31,13.57,12.21s-5.37,10.92-14.36,10.92a54.15,54.15,0,0,1-15.56-2.54c-.09,1.46-.75,11.35-.82,12.41a63.5,63.5,0,0,0,15.11,1.71c17.93,0,30-9.87,30-24.57,0-13.16-10.26-17.33-19.31-21-7-2.83-13.54-5.49-13.54-12,0-6.24,5.33-10.11,13.91-10.11a51.17,51.17,0,0,1,13.25,1.91c.08-1.36.64-10.54.71-11.64a83.78,83.78,0,0,0-13.27-1.28c-17.51,0-28.82,8.88-28.82,22.62" transform="translate(-19.06 -79.69)"/><path class="cls-1" d="M463.09,81.65c-.26,1-10.44,42.77-10.44,42.77a150.38,150.38,0,0,0-3,14.87.77.77,0,0,1-1.5,0,117,117,0,0,0-3.08-15.07L433.29,81.65H418.62c-.28,1-11.69,42.79-11.69,42.79a133.59,133.59,0,0,0-3.08,15.32.77.77,0,0,1-.76.59.76.76,0,0,1-.74-.61A138.49,138.49,0,0,0,399.49,124L389.05,81.65H374.76c.43,1.69,19.14,75.11,19.41,76.14h16.14c.27-1,11.12-42.56,11.12-42.56a102.07,102.07,0,0,0,3-15.63.75.75,0,0,1,.74-.62.75.75,0,0,1,.76.6,159.14,159.14,0,0,0,3,16L440,157.79h17.18l19.4-76.14Z" transform="translate(-19.06 -79.69)"/><path class="cls-1" d="M508.76,81.65c-.33.92-26,74.33-26.62,76.14h13.55c.31-.89,5.25-15.38,5.25-15.38a.69.69,0,0,1,.66-.47h29.51a.7.7,0,0,1,.67.47s4.93,14.49,5.24,15.38h14.81C551.19,156,525,82.56,524.65,81.65Zm-3.94,49.56a.67.67,0,0,1-.09-.64l7-19.76a111,111,0,0,0,3.66-12.9.84.84,0,0,1,.79-.54.82.82,0,0,1,.79.54,119,119,0,0,0,3.66,12.33l7.24,20.33a.68.68,0,0,1-.09.63.68.68,0,0,1-.57.3H505.39a.69.69,0,0,1-.57-.29" transform="translate(-19.06 -79.69)"/><path class="cls-1" d="M562.94,121.5c0,23.44,14.38,37.44,38.47,37.44a72.36,72.36,0,0,0,25.84-4.63V118.52H613.71v26.29a.7.7,0,0,1-.49.67,33.8,33.8,0,0,1-10.09,1.41c-16.14,0-25.39-9.75-25.39-26.77,0-16.82,10.6-27.69,27-27.69a58,58,0,0,1,20,3.72c.21-1.31,1.87-11.37,2.06-12.48a77.18,77.18,0,0,0-21.14-3.17c-25.55,0-42.72,16.48-42.72,41" transform="translate(-19.06 -79.69)"/><path class="cls-1" d="M653.34,81.65v76.14h40.75V146.43H667.57a.69.69,0,0,1-.7-.69v-21a.69.69,0,0,1,.7-.69h25.14V113.24H667.57a.7.7,0,0,1-.7-.7V93.47a.7.7,0,0,1,.7-.7h26.52V81.65Z" transform="translate(-19.06 -79.69)"/><path class="cls-1" d="M767.16,81.65v23.42c0,10.17.26,24.52.8,32v.05a.7.7,0,0,1-.51.68.71.71,0,0,1-.81-.37c-2.86-5.85-6.76-12.73-10.2-18.68l-21.62-37.1H717.43v76.14h13.08v-27c0-9.45-.24-22.45-.69-29v0a.7.7,0,0,1,1.33-.3c2,4.39,5,9.64,7.89,14.71l1.27,2.24,22.77,39.39h17.16V81.65Z" transform="translate(-19.06 -79.69)"/><path class="cls-1" d="M202.79,217c-.31.84-6.46,17.72-7.07,19.39H197l1.56-4.4a.7.7,0,0,1,.66-.47h9.42a.7.7,0,0,1,.66.47l1.56,4.4h1.24L205,217Zm-.47,4.12.82-2.34a.76.76,0,0,1,.71-.47.78.78,0,0,1,.71.45l.72,2,.51,1.4,2.71,7.6a.73.73,0,0,1-.09.64.7.7,0,0,1-.57.29h-7.91a.7.7,0,0,1-.57-.29.66.66,0,0,1-.13-.4.61.61,0,0,1,0-.24l2.68-7.57Z" transform="translate(-19.06 -79.69)"/><path class="cls-1" d="M234.18,217l-8,9.45,8,9.93h1.95l-8.14-9.6a.66.66,0,0,1-.17-.45.7.7,0,0,1,.17-.45l7.76-8.88Zm-10.71,0v19.38h1.44v-9.58c0-.16.15-.24.25-.35-.1-.13-.25-.2-.25-.36V217Z" transform="translate(-19.06 -79.69)"/><path class="cls-1" d="M245.27,217v1h5.28a.69.69,0,0,1,.69.7v17.71h1.44V218.7a.7.7,0,0,1,.7-.7h5.3v-1Z" transform="translate(-19.06 -79.69)"/><rect class="cls-1" x="251.88" y="137.34" width="1.44" height="19.39"/><path class="cls-1" d="M288.43,217v19.38h9.29v-1h-7.15a.7.7,0,0,1-.7-.7v-7.2a.7.7,0,0,1,.7-.7h6.78V226h-6.78a.69.69,0,0,1-.7-.69v-6.59a.7.7,0,0,1,.7-.7h7.15V217Z" transform="translate(-19.06 -79.69)"/><path class="cls-1" d="M326.49,217v5.21l.18,11.55a.7.7,0,0,1-.51.67.72.72,0,0,1-.81-.32l-2.74-4.65s-6.83-10.84-7.86-12.46h-2.06v19.38h1.38v-6l-.22-10.94a.72.72,0,0,1,.52-.66.74.74,0,0,1,.81.33l2,3.39.63,1,8.05,12.88h2V217Z" transform="translate(-19.06 -79.69)"/><path class="cls-1" d="M340.59,227.13c0,6,3.59,9.56,9.61,9.56a19.93,19.93,0,0,0,6.18-1v-8.44H355v7.16a.6.6,0,0,1-.5.67l-3.87.58c-5.18,0-8.39-3.38-8.39-8.83,0-6.22,4.34-9,8.64-9a15.17,15.17,0,0,1,5,1c.08-.49.13-.78.2-1.26a17.82,17.82,0,0,0-4.89-.77c-6.3,0-10.54,4.17-10.54,10.38" transform="translate(-19.06 -79.69)"/><path class="cls-1" d="M371.84,217v19.38h9.29v-1H374a.7.7,0,0,1-.7-.7v-7.2a.7.7,0,0,1,.7-.7h6.79V226H374a.7.7,0,0,1-.7-.69v-6.59a.7.7,0,0,1,.7-.7h7.16V217Z" transform="translate(-19.06 -79.69)"/><path class="cls-1" d="M395.18,221.93c0,3.08,2.35,4,4.84,5,2.24.89,4.55,1.81,4.55,4.43s-2,4.27-5.29,4.27a14,14,0,0,1-3.62-.65c0,.52-.05.81-.08,1.28l3.46.41c4.28,0,7.06-2.24,7.06-5.71,0-3-2.39-4-4.91-5-2.22-.9-4.51-1.82-4.51-4.34,0-1.9,1.32-3.93,5-3.93l3.1.45c0-.45,0-.67.07-1.1l-3-.29c-4.13,0-6.69,2-6.69,5.18" transform="translate(-19.06 -79.69)"/><path class="cls-1" d="M420.51,217v19.38h9.29v-1h-7.15a.7.7,0,0,1-.7-.7v-7.2a.7.7,0,0,1,.7-.7h6.78V226h-6.78a.69.69,0,0,1-.7-.69v-6.59a.7.7,0,0,1,.7-.7h7.15V217Z" transform="translate(-19.06 -79.69)"/><path class="cls-1" d="M444.77,217v19.38h8.89v-1h-6.75a.7.7,0,0,1-.7-.7V217Z" transform="translate(-19.06 -79.69)"/><path class="cls-1" d="M466.33,217v19.38h8.88v-1h-6.75a.7.7,0,0,1-.7-.7V217Z" transform="translate(-19.06 -79.69)"/><path class="cls-1" d="M486.43,221.93c0,3.08,2.36,4,4.85,5,2.23.89,4.54,1.81,4.54,4.43s-2,4.27-5.28,4.27a14,14,0,0,1-3.63-.65c0,.52-.05.81-.07,1.28l3.45.41c4.29,0,7.06-2.24,7.06-5.71,0-3-2.38-4-4.9-5-2.23-.9-4.52-1.82-4.52-4.34,0-1.9,1.32-3.93,5-3.93l3.1.45c0-.45.05-.67.07-1.1l-3-.29c-4.12,0-6.69,2-6.69,5.18" transform="translate(-19.06 -79.69)"/><path class="cls-1" d="M509.49,227.25c0,4.29,1.52,9.41,8.76,9.41a14.81,14.81,0,0,0,4.87-.85c0-.4-.08-.61-.14-1.09a12.38,12.38,0,0,1-4.06.81c-5.07,0-7.75-3-7.75-8.74,0-5.56,2.79-8.88,7.48-8.88a16.48,16.48,0,0,1,4.1.64c0-.48.08-.73.14-1.2a19.36,19.36,0,0,0-3.94-.51c-6,0-9.46,3.79-9.46,10.41" transform="translate(-19.06 -79.69)"/><path class="cls-1" d="M549.18,217v8.1a.7.7,0,0,1-.7.7H537.89a.7.7,0,0,1-.7-.7V217h-1.44v19.38h1.44v-8.87a.7.7,0,0,1,.7-.7h10.59a.7.7,0,0,1,.7.7v8.87h1.43V217Z" transform="translate(-19.06 -79.69)"/><path class="cls-1" d="M568.8,217l-7.07,19.38H563l1.56-4.4a.69.69,0,0,1,.66-.46h9.42a.69.69,0,0,1,.66.46l1.56,4.4h1.24c-.61-1.67-6.81-18.55-7.12-19.38Zm-.49,4.18.84-2.41a.76.76,0,0,1,.71-.47.77.77,0,0,1,.72.46l.71,2,.51,1.4,2.71,7.6a.69.69,0,0,1-.09.64.7.7,0,0,1-.57.29h-7.91a.7.7,0,0,1-.57-.29.69.69,0,0,1-.09-.64l2.67-7.57Z" transform="translate(-19.06 -79.69)"/><path class="cls-1" d="M589.17,217v19.38h1.44v-8.72a.7.7,0,0,1,.7-.7H598v-.88h-6.66a.7.7,0,0,1-.7-.7v-6.74a.7.7,0,0,1,.7-.7h7.06V217Z" transform="translate(-19.06 -79.69)"/><path class="cls-1" d="M607.74,217v1H613a.7.7,0,0,1,.7.7v17.71h1.44V218.7a.69.69,0,0,1,.69-.7h5.31v-1Z" transform="translate(-19.06 -79.69)"/><path class="cls-1" d="M63.17,158.49H46.06L19.06,81H35.14l15,45.38c1.49,4.36,3.22,9.64,4.59,15.27H55a127.16,127.16,0,0,1,4.71-16.19L75,81H90.28Z" transform="translate(-19.06 -79.69)"/><path class="cls-1" d="M132.54,159.75c-23.66,0-35.26-15-35.26-39,0-25.61,17.12-41,37.91-41s35.26,12.41,35.26,38.94c0,25.62-16.89,41.12-37.91,41.12m1.27-66.62c-10.69,0-20.56,8.5-20.56,26,0,16.42,6.43,27.11,20.33,27.11,10.1,0,20.9-7.81,20.9-26.42,0-17.23-7.35-26.65-20.67-26.65" transform="translate(-19.06 -79.69)"/><polygon class="cls-1" points="169.65 78.8 169.65 1.27 184.58 1.27 184.58 65.7 209.74 65.7 209.74 78.8 169.65 78.8"/><polygon class="cls-1" points="265.79 78.8 240.75 41.58 240.75 78.8 225.81 78.8 225.81 1.27 240.75 1.27 240.75 36.42 265.9 1.27 284.05 1.27 255.68 38.71 285.31 78.8 265.79 78.8"/><path class="cls-1" d="M331.48,159.75a63.49,63.49,0,0,1-15.85-1.84l.92-13.9a53.4,53.4,0,0,0,16.19,2.76c7.59,0,13.68-3.1,13.68-10.22,0-14.82-32.74-8.27-32.74-33.54,0-13.79,10.91-23.32,29.52-23.32a84.43,84.43,0,0,1,14,1.38l-.81,13.09a50.89,50.89,0,0,0-13.89-2.06c-8.62,0-13.21,3.9-13.21,9.41,0,13.9,32.85,9,32.85,33,0,14.59-11.6,25.27-30.67,25.27" transform="translate(-19.06 -79.69)"/><path class="cls-1" d="M457.72,158.49H439.45L428.2,115.76a157.19,157.19,0,0,1-3-16.09h-.12a102.16,102.16,0,0,1-3,15.74l-11.26,43.08H393.62L373.87,81H389.6l10.57,42.85A136.71,136.71,0,0,1,403,139.65h.12a133.91,133.91,0,0,1,3.1-15.39L418.09,81h15.73L445.77,124a117,117,0,0,1,3.1,15.16H449c.8-5.4,1.83-10.34,3-14.93L462.54,81h14.93Z" transform="translate(-19.06 -79.69)"/><path class="cls-1" d="M536.51,158.49l-5.4-15.86H501.6l-5.4,15.86H481.15L508.26,81h16.88l27.68,77.54Zm-16.54-48a118.11,118.11,0,0,1-3.67-12.4h-.23a112.66,112.66,0,0,1-3.68,13l-7,19.75h21.83Z" transform="translate(-19.06 -79.69)"/><path class="cls-1" d="M625.3,97a57.23,57.23,0,0,0-20.56-3.91c-15.27,0-26.3,9.65-26.3,27,0,16.42,9,26.07,24.69,26.07a33,33,0,0,0,9.88-1.38v-27h14.93v37a73,73,0,0,1-26.53,4.83c-24.58,0-39.17-14.47-39.17-38.14,0-24.35,16.54-41.69,43.43-41.69a78.73,78.73,0,0,1,21.93,3.33Z" transform="translate(-19.06 -79.69)"/><polygon class="cls-1" points="633.58 78.8 633.58 1.27 675.73 1.27 675.73 13.79 648.51 13.79 648.51 32.85 674.35 32.85 674.35 45.03 648.51 45.03 648.51 66.05 675.73 66.05 675.73 78.8 633.58 78.8"/><path class="cls-1" d="M762.68,158.49l-23-39.75c-3.33-5.85-6.89-11.94-9.18-17,.46,6.66.69,19.75.69,29.05v27.69H716.73V81h18.49l21.83,37.45c3.44,6,7.35,12.86,10.22,18.72-.58-7.81-.81-22.51-.81-32.05V81h14.48v77.54Z" transform="translate(-19.06 -79.69)"/><path class="cls-1" d="M210.33,237.11l-1.72-4.87h-9.42l-1.73,4.87h-2.73l7.57-20.78h3.14l7.64,20.78Zm-5.2-14.72c-.37-1-.86-2.28-1.23-3.39h-.09c-.31,1-.84,2.37-1.21,3.42L199.93,230h7.91Z" transform="translate(-19.06 -79.69)"/><polygon class="cls-1" points="214.83 157.42 206.54 147.14 206.54 157.42 203.72 157.42 203.72 136.64 206.54 136.64 206.54 146.43 214.8 136.64 218.28 136.64 209.5 146.68 218.62 157.42 214.83 157.42"/><polygon class="cls-1" points="234.32 139.01 234.32 157.42 231.48 157.42 231.48 139.01 225.51 139.01 225.51 136.64 240.32 136.64 240.32 139.01 234.32 139.01"/><polygon class="cls-1" points="251.19 157.48 251.19 136.58 252.61 136.58 254.03 136.58 254.03 157.48 251.19 157.48"/><polygon class="cls-1" points="268.68 157.42 268.68 136.64 279.36 136.64 279.36 138.98 271.51 138.98 271.51 145.57 278.99 145.57 278.99 147.85 271.51 147.85 271.51 155.05 279.36 155.05 279.36 157.42 268.68 157.42"/><path class="cls-1" d="M325.48,237.11l-8.25-13.21a50.32,50.32,0,0,1-2.68-4.43c.12,2.21.21,7.66.21,11v6.68H312V216.33h3.15l8.06,12.78c1,1.47,2,3.23,2.77,4.71-.12-2.56-.18-8.13-.18-11.58v-5.91h2.74v20.78Z" transform="translate(-19.06 -79.69)"/><path class="cls-1" d="M356.39,219.59a14.64,14.64,0,0,0-5.54-1.11c-4.28,0-7.94,2.77-7.94,8.31,0,5.17,3,8.13,7.69,8.13a12.2,12.2,0,0,0,3.67-.55v-7.85h2.8v9.67a20.76,20.76,0,0,1-6.87,1.2c-6.28,0-10.31-3.82-10.31-10.26s4.25-11.08,11.24-11.08a18.86,18.86,0,0,1,5.7.89Z" transform="translate(-19.06 -79.69)"/><polygon class="cls-1" points="352.08 157.42 352.08 136.64 362.76 136.64 362.76 138.98 354.91 138.98 354.91 145.57 362.39 145.57 362.39 147.85 354.91 147.85 354.91 155.05 362.76 155.05 362.76 157.42 352.08 157.42"/><path class="cls-1" d="M399,237.38a17.27,17.27,0,0,1-4.19-.49l.15-2.71a13.61,13.61,0,0,0,4.28.77c2.49,0,4.59-1,4.59-3.57,0-4.68-9.39-2.89-9.39-9.45,0-3.42,2.71-5.88,7.39-5.88a19.61,19.61,0,0,1,3.75.36l-.15,2.53a14.13,14.13,0,0,0-3.75-.56c-2.84,0-4.34,1.3-4.34,3.24,0,4.49,9.41,2.92,9.41,9.36,0,3.73-2.92,6.4-7.75,6.4" transform="translate(-19.06 -79.69)"/><polygon class="cls-1" points="400.75 157.42 400.75 136.64 411.44 136.64 411.44 138.98 403.59 138.98 403.59 145.57 411.07 145.57 411.07 147.85 403.59 147.85 403.59 155.05 411.44 155.05 411.44 157.42 400.75 157.42"/><polygon class="cls-1" points="425.02 157.42 425.02 136.64 427.85 136.64 427.85 154.99 435.31 154.99 435.31 157.42 425.02 157.42"/><polygon class="cls-1" points="446.57 157.42 446.57 136.64 449.4 136.64 449.4 154.99 456.85 154.99 456.85 157.42 446.57 157.42"/><path class="cls-1" d="M490.29,237.38a17.13,17.13,0,0,1-4.18-.49l.15-2.71a13.56,13.56,0,0,0,4.28.77c2.49,0,4.59-1,4.59-3.57,0-4.68-9.4-2.89-9.4-9.45,0-3.42,2.72-5.88,7.39-5.88a19.64,19.64,0,0,1,3.76.36l-.15,2.53a14.2,14.2,0,0,0-3.76-.56c-2.83,0-4.34,1.3-4.34,3.24,0,4.49,9.42,2.92,9.42,9.36,0,3.73-2.92,6.4-7.76,6.4" transform="translate(-19.06 -79.69)"/><path class="cls-1" d="M518.25,237.35c-6.68,0-9.45-4.25-9.45-10.1,0-6.34,3.14-11.11,10.15-11.11a19.6,19.6,0,0,1,4.71.62l-.3,2.58a15.89,15.89,0,0,0-4.71-.74c-4.74,0-6.78,3.63-6.78,8.19,0,5.12,2.22,8,7,8a11.53,11.53,0,0,0,4.66-1.05l.3,2.53a15.19,15.19,0,0,1-5.63,1" transform="translate(-19.06 -79.69)"/><polygon class="cls-1" points="529.42 157.42 529.42 147.85 518.82 147.85 518.82 157.42 516 157.42 516 136.64 518.82 136.64 518.82 145.44 529.42 145.44 529.42 136.64 532.25 136.64 532.25 157.42 529.42 157.42"/><path class="cls-1" d="M576.34,237.11l-1.72-4.87H565.2l-1.73,4.87h-2.73l7.57-20.78h3.14l7.64,20.78Zm-5.2-14.72c-.37-1-.86-2.28-1.23-3.39h-.09c-.31,1-.84,2.37-1.21,3.42L565.94,230h7.91Z" transform="translate(-19.06 -79.69)"/><polygon class="cls-1" points="572.25 138.98 572.25 145.72 579.6 145.72 579.6 148 572.25 148 572.25 157.42 569.41 157.42 569.41 136.64 580 136.64 580 138.98 572.25 138.98"/><polygon class="cls-1" points="596.78 139.01 596.78 157.42 593.95 157.42 593.95 139.01 587.98 139.01 587.98 136.64 602.79 136.64 602.79 139.01 596.78 139.01"/></svg>