<svg id="layer" xmlns="http://www.w3.org/2000/svg" viewBox="0 0 760.88 243.6"><defs><style>.cls-1,.cls-2,.cls-3{fill:#535557;}.cls-1{opacity:0.75;}.cls-2{fill-rule:evenodd;}</style></defs><path class="cls-1" d="M74.27,384.77a90.89,90.89,0,0,1-15.09-32.59,14.36,14.36,0,0,1-.51-2.28c.51-.38,1-.89,1.52-1.27a31.82,31.82,0,0,1,3.17-2.41,54.68,54.68,0,0,1,7.23-4.81,93.88,93.88,0,0,1,15.22-7.49,97.39,97.39,0,0,1,60.36-2.41,91.53,91.53,0,0,1,32.33,16.74,12.33,12.33,0,0,1,1.52,1.27c.89.64.26,1.78,0,2.66a38.81,38.81,0,0,1-1.52,5.2,88.52,88.52,0,0,1-3.68,9.77,89.26,89.26,0,0,1-9.89,17.24,64,64,0,0,0-45-18.89,64.85,64.85,0,0,0-45.65,19.27" transform="translate(-15.17 -274.45)"/><path class="cls-2" d="M612.69,337.47h0" transform="translate(-15.17 -274.45)"/><path class="cls-2" d="M257.88,372.22c.38,4.44,1.65,8.88,4.82,12s7.74,4.56,12.3,4.94,9.39-.12,13.19-3a18.82,18.82,0,0,0,4.44-5.07c.51-.89.51-.76,1.39-.76h28.54c-3.81,9.89-10.28,18.64-19.28,24.34-9.38,6-20.54,7.86-31.45,6.72-10.14-1-20.16-4.69-27.9-11.54-8.11-7.22-12.8-17.24-14.45-27.77m35.76-34.62c11.28-8.75,28-2,30.31,11.92H258.26a20.65,20.65,0,0,1,7-11.92m-7.36,34.75a32.57,32.57,0,0,1-.12-3.42h66.82c.51,0,.89-4.32.89-4.95,0-11.92-2.91-24.09-10.14-33.6-13.57-18-40.83-22.7-60.87-13.57-21.05,9.64-28.4,34-25,55.54" transform="translate(-15.17 -274.45)"/><path class="cls-2" d="M439.73,383.13c5.58,15.59,18.64,26.75,35.5,27.64a36.18,36.18,0,0,0,29.55-12.68V406c0,2-.51,2.28,1.52,2.28h26.12c.76,0,.76.13.76-.63V316.17c0-.38-9-.13-9.76-.13H506.05c-1.91,0-1.4.38-1.4,2.29v7.6a30,30,0,0,0-8.11-7.86,33.94,33.94,0,0,0-14.46-4.44c-10.14-.88-21.18,1-29.55,7.11-8.62,6.34-13.31,16.48-15.34,26.88a69,69,0,0,0,2.54,35.51m38,0c-10.91-4.06-15-16.87-12.68-27.52s11.41-18,22.57-17.12c24.09,2,25.62,41.85,1.65,45.65a22.36,22.36,0,0,1-11.54-1" transform="translate(-15.17 -274.45)"/><path class="cls-2" d="M545.61,406c11.41,4.57,24.73,5.58,37,4.69,10-.63,20.54-4.06,27.14-11.92s9-20.79,5.32-30.56c-3.8-10-15-15.09-24.85-17-4.69-.89-10.27-1-14.2-4.18-4.57-3.68-2.29-10.78,2.66-12.81,6.34-2.54,14.2-.89,20.54.25a84.88,84.88,0,0,1,9.51,2,21.84,21.84,0,0,0,3.93,1c0-5.32-.12-10.65-.12-16v-3.68c0-1.4.12-1.27-1.4-1.9-5.83-2.29-12.17-3.17-18.39-3.68-11-.76-23.08-1-33.35,3.8-9.63,4.44-14.83,13.19-15.72,23.59-1,11,2,21.3,12.17,26.76a56,56,0,0,0,15.6,4.94c4.57.89,10.53,1.52,13.82,5.2s1.27,8.62-2.53,10.78c-3.55,2.16-7.49,1.9-11.54,1.9a100.73,100.73,0,0,1-14-1.27c-4.06-.63-8.37-1.52-11.8-3.8.13,7.35.13,14.58.13,21.81" transform="translate(-15.17 -274.45)"/><path class="cls-2" d="M681.3,348.38c-3,12.05-2.16,25.62,3.17,36.77a44.43,44.43,0,0,0,24.34,22.2c20.67,8,46.8,2,59.22-17,13.32-20.16,9.89-51-9.13-66.32-18-14.45-46.66-13.95-63.91,1.27a44.94,44.94,0,0,0-13.69,23.08m29.92,0c5.71-9,18.39-11.67,27.39-5.83,9.89,6.46,12,21.43,7,31.57-5.08,10.4-18.64,14.2-28.53,8.12-10.28-6.34-12.18-21.81-7-32,.38-.76.76-1.27,1.14-1.9" transform="translate(-15.17 -274.45)"/><path class="cls-2" d="M30.14,393.9a126.34,126.34,0,0,0,23.71,34.62c1-5.32,1.78-10.65,3.55-15.85a77.53,77.53,0,0,1,7.74-16.36,66.93,66.93,0,0,1,4.94-6.84c.76-.89.13-1-.51-1.91-.5-.63-.88-1.26-1.39-1.9-.89-1.27-1.78-2.66-2.66-3.93a96.24,96.24,0,0,1-8.12-16.61,114.73,114.73,0,0,1-1.27-76.21,102.55,102.55,0,0,1,6.09-14.46H24.05c-1,0-.76.38-1.14,1.52-1,3.17-2,6.47-2.79,9.77a164.65,164.65,0,0,0-5,39.43,160.61,160.61,0,0,0,15,68.73" transform="translate(-15.17 -274.45)"/><path class="cls-2" d="M30.14,393.9a126.34,126.34,0,0,0,23.71,34.62c1-5.32,1.78-10.65,3.55-15.85a77.53,77.53,0,0,1,7.74-16.36,66.93,66.93,0,0,1,4.94-6.84c.76-.89.13-1-.51-1.91-.5-.63-.88-1.26-1.39-1.9-.89-1.27-1.78-2.66-2.66-3.93a96.24,96.24,0,0,1-8.12-16.61,114.73,114.73,0,0,1-1.27-76.21,102.55,102.55,0,0,1,6.09-14.46H24.05c-1,0-.76.38-1.14,1.52-1,3.17-2,6.47-2.79,9.77a164.65,164.65,0,0,0-5,39.43,160.61,160.61,0,0,0,15,68.73" transform="translate(-15.17 -274.45)"/><path class="cls-2" d="M209.19,393.9c11.16-23.58,16-50.09,14.71-76.08a162.59,162.59,0,0,0-6.85-39.69c-.25-.76-.63-3.68-1.52-3.68H177.11c11.92,22.95,14.83,50.34,9.25,75.45a102.81,102.81,0,0,1-13.94,33.86,46.31,46.31,0,0,1-2.79,3.93c-.64.89-1.27.89-.51,1.9a16.6,16.6,0,0,1,1.39,1.78c1.78,2.41,3.55,4.94,5.08,7.48a73.49,73.49,0,0,1,7.1,16.87c1.14,4.18,1.77,8.49,2.66,12.8a119.68,119.68,0,0,0,23.84-34.62" transform="translate(-15.17 -274.45)"/><path class="cls-2" d="M332.57,407.73h26.25c.26,0,2,.25,2.29,0,.5-.51,0-3.81,0-4.57v-4.94c5.32,8.75,16.23,12.42,26,12.55a38.81,38.81,0,0,0,28.41-12c16.61-17.24,18.64-47.17,6-67.08-6.85-10.78-18-17.88-31-18.64a38.67,38.67,0,0,0-18.13,3.17,29.3,29.3,0,0,0-11.54,9.64V281.55h-28.4V407.73m39.81-24.6c-10.9-4.06-15-16.87-12.68-27.52s11.42-18,22.58-17.12c24.09,2,25.61,41.85,1.64,45.65a22.38,22.38,0,0,1-11.54-1" transform="translate(-15.17 -274.45)"/><path class="cls-2" d="M658.09,281.93c-2.66,0-28.28-.12-28.28,0,0,10.78-.13,21.43-.13,32.21,0,.64.39,1.65-.38,1.65H622c-1.52,0-2-.51-2,1v20.67c0,.89,2.92.38,3.55.38h6.09v30.82c0,13.69-.76,32.84,14.2,39.31,5.2,2.28,10.91,2.79,16.49,2.92,3.8.12,7.6-.13,11.41-.38,2.15-.13,4.44-.38,6.59-.64,1-.12.76-.12.76-1,0-7.36-.12-14.71-.12-22.07-6.85.13-17.5,1.4-20.17-6.72-1.39-3.93-.63-9-.63-13.19V339c0-1.4-.25-1.53,1.14-1.53h17.5c1.4,0,.76-1.64.76-2.79V316.42c0-.12.13-.88-.13-.88H658.09c-.13.25,0-30.31,0-33.61" transform="translate(-15.17 -274.45)"/><polygon class="cls-3" points="317.28 194.02 344.41 194.02 344.41 201.63 327.04 201.63 327.04 213.67 343.65 213.67 343.65 221.28 327.04 221.28 327.04 242.71 317.28 242.71 317.28 194.02"/><path class="cls-3" d="M395.47,515.13A24.68,24.68,0,0,1,383,518.05c-11.92,0-18.76-6.85-18.76-18.64,0-10.4,5.58-19,16.73-19,13.32,0,17.12,9.13,17.12,21.68H373.28c.38,5.83,4.44,9,10.27,9a23.16,23.16,0,0,0,11.92-3.67v7.73Zm-6.34-19.53c-.25-4.56-2.41-8.49-7.61-8.49s-7.86,3.68-8.37,8.49Z" transform="translate(-15.17 -274.45)"/><path class="cls-3" d="M434.53,515.13a24.73,24.73,0,0,1-12.43,2.92c-11.92,0-18.77-6.85-18.77-18.64,0-10.4,5.58-19,16.74-19,13.32,0,17.12,9.13,17.12,21.68H412.34c.38,5.83,4.43,9,10.27,9a23.22,23.22,0,0,0,11.92-3.67v7.73Zm-6.34-19.53c-.26-4.56-2.41-8.49-7.61-8.49s-7.86,3.68-8.37,8.49Z" transform="translate(-15.17 -274.45)"/><rect class="cls-3" x="429.37" y="190.34" width="9.38" height="52.37"/><path class="cls-3" d="M486.26,488h-7v-6.85h7v-7.23l9.39-3V481H504v6.85h-8.37v16.74c0,3,.89,6,4.44,6a8.61,8.61,0,0,0,4.31-1l.25,7.36a25.83,25.83,0,0,1-7,.89c-7.36,0-11.42-4.57-11.42-11.67Z" transform="translate(-15.17 -274.45)"/><path class="cls-3" d="M510.36,464.79h9.38v21.3h.13a13.64,13.64,0,0,1,11.29-5.7c8.49,0,12.17,6,12.17,14.07v22.7h-9.39V498c0-4.43-.12-10.27-6.08-10.27-6.85,0-8.24,7.36-8.24,11.92v17.63h-9.39v-52.5Z" transform="translate(-15.17 -274.45)"/><path class="cls-3" d="M581.75,515.13a24.68,24.68,0,0,1-12.43,2.92c-11.92,0-18.76-6.85-18.76-18.64,0-10.4,5.58-19,16.74-19,13.31,0,17.11,9.13,17.11,21.68H559.56c.38,5.83,4.44,9,10.27,9a23.16,23.16,0,0,0,11.92-3.67v7.73Zm-6.34-19.53c-.25-4.56-2.41-8.49-7.61-8.49s-7.86,3.68-8.37,8.49Z" transform="translate(-15.17 -274.45)"/><path class="cls-3" d="M611.93,468.34h13.32c15,0,28.15,5.07,28.15,24.35S640.21,517,625.25,517H611.93Zm9.89,41.09h5.46c8.24,0,16.1-6.09,16.1-16.62s-7.86-16.61-16.1-16.61h-5.46Z" transform="translate(-15.17 -274.45)"/><path class="cls-3" d="M660.5,481.15h8.37v8.11H669c.38-3.29,4.31-9,9.89-9a12,12,0,0,1,2.91.25v9.39a9.4,9.4,0,0,0-4.18-.76c-7.61,0-7.61,9.51-7.61,14.58v13.19h-9.38V481.15Z" transform="translate(-15.17 -274.45)"/><path class="cls-3" d="M688.52,465.68h9.39v8.87h-9.39Zm0,15.47h9.39V517h-9.39Z" transform="translate(-15.17 -274.45)"/><polygon class="cls-3" points="687.94 206.7 698.08 206.7 706.96 232.82 707.08 232.82 715.83 206.7 725.09 206.7 711.9 242.71 701.25 242.71 687.94 206.7"/><path class="cls-3" d="M773.36,515.13a24.73,24.73,0,0,1-12.43,2.92c-11.92,0-18.77-6.85-18.77-18.64,0-10.4,5.58-19,16.74-19,13.32,0,17.12,9.13,17.12,21.68H751.17c.38,5.83,4.44,9,10.27,9a23.22,23.22,0,0,0,11.92-3.67Zm-6.22-19.53c-.25-4.56-2.4-8.49-7.6-8.49s-7.87,3.68-8.37,8.49Z" transform="translate(-15.17 -274.45)"/></svg>